<svg width="125" height="86" viewBox="0 0 125 86" fill="none" xmlns="http://www.w3.org/2000/svg">
<path d="M107.357 9.77368C103.33 7.88168 98.5364 7.892 94.3568 9.42968C90.1772 10.9674 86.6013 13.9154 83.956 17.493C81.548 20.7421 79.7936 24.5829 76.6116 27.0752C72.1189 30.5943 65.8444 30.6218 60.1959 29.8272C54.5474 29.0325 47.7741 27.1491 42.0895 26.6606C34.7279 26.0363 25.2335 32.9902 24.9875 42.347C24.6642 54.8876 30.4812 58.1624 35.5087 62.256C39.881 64.6382 44.6849 66.3961 50.8064 67.5106C55.748 68.4171 61.0714 68.4566 65.8771 68.6286C75.8445 68.9933 85.0774 66.6833 93.3025 62.7806C101.528 58.878 108.129 51.0846 112.988 43.3825C116.256 38.2001 117.525 30.5736 116.961 24.4711C116.397 18.3685 112.902 12.3846 107.357 9.77368Z" fill="#F5F5F5"/>
<path d="M117.069 81.5721C117.069 81.5961 92.8373 81.6168 62.9557 81.6168C33.0742 81.6168 8.83594 81.5961 8.83594 81.5721C8.83594 81.548 33.0621 81.5273 62.9523 81.5273C92.8425 81.5273 117.069 81.548 117.069 81.5721Z" fill="#263238"/>
<path d="M87.7106 13.3145H22.9922V55.9137H87.7106V13.3145Z" fill="#EBEBEB"/>
<path d="M87.7101 55.916C87.7101 55.6236 87.6964 39.3008 87.674 13.315L87.7101 13.3512H22.9968L23.0415 13.3064C23.0415 28.4614 23.0415 42.8904 23.0415 55.9074L23.0003 55.8661L87.7187 55.9074L23.0003 55.947H22.959V55.9074C22.959 42.8818 22.959 28.4614 22.959 13.3064V13.2617H23.0089L87.7222 13.272H87.7565V13.3064C87.7204 39.3008 87.7101 55.6253 87.7101 55.916Z" fill="#263238"/>
<path d="M87.7106 17.1053C87.7106 17.1293 73.2213 17.15 55.3523 17.15C37.4832 17.15 22.9922 17.1293 22.9922 17.1053C22.9922 17.0812 37.478 17.0605 55.3523 17.0605C73.2265 17.0605 87.7106 17.0812 87.7106 17.1053Z" fill="#263238"/>
<path d="M83.2772 23.4082H29.0215V30.8334H83.2772V23.4082Z" fill="#E0E0E0"/>
<path d="M40.1389 43.8203H28.0938V55.8655H40.1389V43.8203Z" fill="#E0E0E0"/>
<path d="M54.3772 43.8203H42.332V55.8655H54.3772V43.8203Z" fill="#E0E0E0"/>
<path d="M68.1897 43.8203H56.1445V55.8655H68.1897V43.8203Z" fill="#E0E0E0"/>
<path d="M49.6305 38.7139H36.574C36.0465 38.7139 35.5406 38.5045 35.1675 38.1316C34.7943 37.7588 34.5844 37.2531 34.584 36.7256C34.5863 36.1993 34.7969 35.6953 35.1699 35.324C35.5428 34.9526 36.0477 34.7441 36.574 34.7441H49.6305C50.1583 34.7441 50.6645 34.9538 51.0377 35.327C51.4109 35.7002 51.6206 36.2064 51.6206 36.7342C51.6179 37.2602 51.407 37.7637 51.0341 38.1347C50.6612 38.5057 50.1565 38.7139 49.6305 38.7139Z" fill="#016D80"/>
<path d="M64.894 38.7143L65.066 38.7022C65.1262 38.7022 65.1967 38.6816 65.2827 38.6678C65.6621 38.588 66.0099 38.3989 66.2831 38.1238C66.5564 37.8488 66.7431 37.4998 66.8204 37.1198C66.9147 36.644 66.8327 36.1501 66.5899 35.7301C66.4453 35.4828 66.2485 35.2701 66.0133 35.1067C65.778 34.9433 65.5099 34.8332 65.2277 34.7841C64.9094 34.7532 64.5893 34.7435 64.2697 34.7548H63.2377H61.0017L36.5587 34.7686C36.052 34.7649 35.5638 34.9592 35.1983 35.3102C34.8327 35.6612 34.6187 36.1411 34.6019 36.6476C34.5851 37.1541 34.7668 37.6472 35.1082 38.0217C35.4496 38.3961 35.9239 38.6225 36.4297 38.6524C36.7067 38.6661 36.9939 38.6524 37.2743 38.6524H43.7638L54.7529 38.6627L62.1609 38.6764L64.1751 38.685L62.1609 38.6936L54.7529 38.7074H43.7638H37.2743C36.9922 38.7074 36.7135 38.7074 36.4246 38.7074C36.1327 38.6892 35.8481 38.6082 35.5904 38.47C35.1926 38.2544 34.8781 37.9123 34.6965 37.4979C34.5149 37.0835 34.4766 36.6203 34.5877 36.1817C34.6988 35.7431 34.9529 35.354 35.3098 35.0759C35.6668 34.7979 36.1063 34.6468 36.5587 34.6465L61.0017 34.6585H63.2377H64.2697C64.5923 34.6464 64.9154 34.6579 65.2363 34.6929C65.5015 34.7398 65.7545 34.8394 65.9805 34.9859C66.2064 35.1324 66.4006 35.3228 66.5516 35.5458C66.7025 35.7688 66.8072 36.0198 66.8593 36.284C66.9113 36.5482 66.9098 36.8201 66.8548 37.0837C66.7708 37.4678 66.5779 37.8195 66.2993 38.0968C66.0941 38.2973 65.8483 38.4515 65.5786 38.5492C65.4831 38.5833 65.3854 38.6109 65.2862 38.6317C65.1985 38.6438 65.1262 38.6575 65.0677 38.661L64.894 38.7143Z" fill="#263238"/>
<path d="M47.472 40.1055H47.6217L47.4393 41.0154H48.0035L47.9777 41.1444H47.2656L47.472 40.1055Z" fill="#263238"/>
<path d="M48.1177 40.8141C48.1156 40.7526 48.126 40.6914 48.1485 40.6342C48.171 40.577 48.205 40.5251 48.2483 40.4815C48.2917 40.438 48.3436 40.4038 48.4007 40.3811C48.4578 40.3584 48.519 40.3477 48.5804 40.3497C48.6279 40.3444 48.6761 40.3495 48.7215 40.3646C48.7669 40.3797 48.8085 40.4044 48.8435 40.4371C48.8784 40.4698 48.9059 40.5096 48.924 40.5539C48.9422 40.5982 48.9505 40.6459 48.9485 40.6937C48.9508 40.7551 48.9406 40.8163 48.9183 40.8736C48.8961 40.9309 48.8623 40.983 48.8191 41.0267C48.7759 41.0704 48.7241 41.1048 48.6671 41.1276C48.6101 41.1505 48.5489 41.1615 48.4875 41.1598C48.4401 41.1634 48.3924 41.157 48.3475 41.1412C48.3026 41.1255 48.2615 41.1005 48.2268 41.068C48.192 41.0355 48.1644 40.9962 48.1456 40.9525C48.1268 40.9088 48.1173 40.8616 48.1177 40.8141ZM48.8057 40.6971C48.8083 40.6662 48.804 40.6352 48.7929 40.6063C48.7819 40.5773 48.7645 40.5512 48.7421 40.5299C48.7196 40.5086 48.6926 40.4926 48.6632 40.4832C48.6337 40.4737 48.6025 40.471 48.5718 40.4752C48.5293 40.4753 48.4873 40.4842 48.4484 40.5012C48.4095 40.5183 48.3746 40.5432 48.3457 40.5743C48.3168 40.6054 48.2947 40.6422 48.2806 40.6822C48.2665 40.7223 48.2608 40.7648 48.2639 40.8072C48.2616 40.838 48.2662 40.8689 48.2773 40.8976C48.2884 40.9264 48.3058 40.9524 48.3282 40.9736C48.3506 40.9949 48.3775 41.0108 48.4068 41.0204C48.4361 41.03 48.4672 41.033 48.4978 41.0291C48.5402 41.029 48.5821 41.0201 48.6209 41.003C48.6598 40.986 48.6946 40.9611 48.7234 40.9299C48.7521 40.8987 48.7741 40.862 48.788 40.8219C48.8019 40.7819 48.8073 40.7394 48.804 40.6971H48.8057Z" fill="#263238"/>
<path d="M49.9576 40.3591L49.8028 41.1452H49.6652L49.6841 41.0489C49.6472 41.084 49.6038 41.1115 49.5562 41.1298C49.5087 41.1481 49.4581 41.1568 49.4072 41.1555C49.3613 41.1583 49.3153 41.1513 49.2723 41.1349C49.2293 41.1186 49.1903 41.0934 49.1578 41.0609C49.1253 41.0284 49.1 40.9893 49.0837 40.9463C49.0674 40.9034 49.0604 40.8574 49.0632 40.8115C49.0599 40.7512 49.069 40.691 49.0899 40.6344C49.1109 40.5778 49.1433 40.5261 49.1851 40.4826C49.2268 40.439 49.2771 40.4045 49.3328 40.3812C49.3884 40.3579 49.4483 40.3463 49.5086 40.3471C49.5644 40.3417 49.6206 40.352 49.6707 40.377C49.7209 40.4019 49.7631 40.4404 49.7924 40.4881L49.8182 40.3557L49.9576 40.3591ZM49.746 40.7031C49.7483 40.6722 49.7437 40.6411 49.7325 40.6122C49.7213 40.5833 49.7037 40.5572 49.6811 40.536C49.6586 40.5147 49.6315 40.4987 49.6019 40.4893C49.5724 40.4798 49.5411 40.4771 49.5104 40.4813C49.468 40.4816 49.4262 40.4907 49.3876 40.5078C49.3489 40.5249 49.3141 40.5498 49.2854 40.581C49.2567 40.6121 49.2347 40.6487 49.2207 40.6887C49.2068 40.7286 49.2011 40.771 49.2042 40.8132C49.2019 40.844 49.2065 40.8749 49.2176 40.9037C49.2287 40.9325 49.2461 40.9584 49.2685 40.9797C49.2909 41.0009 49.3177 41.0169 49.3471 41.0265C49.3764 41.0361 49.4075 41.039 49.4381 41.0351C49.4811 41.0353 49.5237 41.0265 49.5631 41.0092C49.6025 40.9919 49.6378 40.9666 49.6669 40.9348C49.6959 40.9031 49.7179 40.8656 49.7315 40.8248C49.7452 40.784 49.7501 40.7408 49.746 40.698V40.7031Z" fill="#263238"/>
<path d="M51.0346 40.0445L50.8144 41.1453H50.6785L50.6974 41.0489C50.6221 41.1196 50.5221 41.1579 50.4188 41.1556C50.3729 41.1583 50.327 41.1513 50.284 41.135C50.241 41.1187 50.2019 41.0935 50.1694 41.0609C50.1369 41.0284 50.1117 40.9894 50.0954 40.9464C50.0791 40.9034 50.072 40.8575 50.0748 40.8116C50.0718 40.7514 50.081 40.6912 50.1021 40.6347C50.1232 40.5783 50.1556 40.5267 50.1973 40.4832C50.239 40.4397 50.2892 40.4052 50.3447 40.3818C50.4003 40.3584 50.46 40.3466 50.5203 40.3472C50.5765 40.3418 50.633 40.3523 50.6835 40.3776C50.734 40.4028 50.7764 40.4418 50.8058 40.4899L50.8952 40.041L51.0346 40.0445ZM50.7576 40.6981C50.7603 40.6672 50.7559 40.6362 50.7449 40.6072C50.7339 40.5783 50.7165 40.5522 50.694 40.5309C50.6716 40.5096 50.6446 40.4936 50.6151 40.4841C50.5856 40.4747 50.5544 40.4719 50.5237 40.4762C50.4813 40.4763 50.4393 40.4852 50.4004 40.5022C50.3615 40.5192 50.3265 40.5441 50.2976 40.5752C50.2688 40.6064 50.2466 40.6431 50.2325 40.6832C50.2185 40.7233 50.2128 40.7658 50.2158 40.8081C50.2135 40.8391 50.2181 40.8701 50.2293 40.8991C50.2406 40.928 50.2581 40.9541 50.2807 40.9753C50.3033 40.9966 50.3304 41.0125 50.3599 41.022C50.3894 41.0315 50.4207 41.0342 50.4515 41.03C50.4939 41.0299 50.5358 41.021 50.5746 41.004C50.6134 40.9869 50.6483 40.962 50.677 40.9309C50.7058 40.8997 50.7278 40.8629 50.7416 40.8229C50.7555 40.7828 50.761 40.7403 50.7576 40.6981Z" fill="#263238"/>
<path d="M51.2405 40.3587H51.3833L51.2285 41.1448H51.084L51.2405 40.3587ZM51.2646 40.1214C51.2643 40.1079 51.2669 40.0945 51.272 40.0821C51.2771 40.0697 51.2848 40.0584 51.2945 40.049C51.3041 40.0397 51.3157 40.0324 51.3283 40.0277C51.3409 40.023 51.3543 40.0209 51.3678 40.0216C51.3791 40.0212 51.3904 40.0229 51.401 40.0268C51.4116 40.0307 51.4213 40.0367 51.4296 40.0444C51.4379 40.052 51.4446 40.0613 51.4494 40.0715C51.4541 40.0818 51.4568 40.0929 51.4572 40.1042C51.4577 40.1179 51.4554 40.1315 51.4504 40.1442C51.4453 40.157 51.4377 40.1685 51.4281 40.1782C51.4184 40.1879 51.4068 40.1955 51.3941 40.2005C51.3813 40.2055 51.3677 40.2079 51.354 40.2074C51.3425 40.2076 51.3311 40.2056 51.3203 40.2014C51.3096 40.1972 51.2998 40.1909 51.2915 40.1829C51.2832 40.1749 51.2765 40.1654 51.2719 40.1548C51.2673 40.1443 51.2648 40.1329 51.2646 40.1214Z" fill="#263238"/>
<path d="M52.3436 40.6126C52.3431 40.6437 52.3403 40.6748 52.335 40.7055L52.2473 41.1458H52.1045L52.1922 40.7055C52.1937 40.6837 52.1937 40.6619 52.1922 40.6401C52.1922 40.5369 52.1337 40.4801 52.0099 40.4801C51.9384 40.4763 51.8681 40.5003 51.8139 40.5471C51.7597 40.5939 51.7258 40.6599 51.7192 40.7313L51.635 41.1458H51.4922L51.6487 40.3597H51.7863L51.7657 40.4595C51.8036 40.4233 51.8484 40.395 51.8974 40.3764C51.9465 40.3578 51.9988 40.3492 52.0512 40.3511C52.0883 40.3449 52.1264 40.3471 52.1626 40.3575C52.1988 40.368 52.2321 40.3865 52.2602 40.4116C52.2883 40.4367 52.3104 40.4678 52.3248 40.5026C52.3392 40.5374 52.3457 40.575 52.3436 40.6126Z" fill="#263238"/>
<path d="M53.4239 40.3586L53.2897 41.0466C53.2863 41.1045 53.2713 41.161 53.2455 41.2129C53.2198 41.2648 53.1838 41.311 53.1398 41.3487C53.0959 41.3864 53.0448 41.4149 52.9895 41.4324C52.9343 41.45 52.8761 41.4562 52.8185 41.4508C52.6892 41.4573 52.5618 41.4177 52.459 41.339L52.5381 41.2307C52.6207 41.2958 52.7237 41.3293 52.8288 41.3253C52.8663 41.3298 52.9043 41.3267 52.9406 41.3161C52.9769 41.3056 53.0107 41.2878 53.0399 41.2639C53.0692 41.2399 53.0933 41.2103 53.1108 41.1768C53.1283 41.1433 53.1389 41.1067 53.1418 41.069L53.1539 41.0122C53.0768 41.0848 52.9741 41.1238 52.8683 41.1206C52.8242 41.1247 52.7796 41.1195 52.7377 41.1052C52.6957 41.0909 52.6572 41.0679 52.6247 41.0377C52.5922 41.0075 52.5665 40.9708 52.5492 40.9299C52.5319 40.8891 52.5234 40.845 52.5243 40.8007C52.5231 40.7417 52.534 40.6831 52.5562 40.6285C52.5784 40.5739 52.6116 40.5243 52.6536 40.4829C52.6956 40.4416 52.7456 40.4092 52.8006 40.3878C52.8556 40.3664 52.9143 40.3565 52.9733 40.3586C53.0318 40.3534 53.0906 40.3651 53.1427 40.3922C53.1948 40.4193 53.2381 40.4608 53.2674 40.5117L53.2966 40.3672L53.4239 40.3586ZM53.2055 40.6786C53.2055 40.553 53.1195 40.4756 52.9715 40.4756C52.9306 40.4739 52.8897 40.4807 52.8515 40.4956C52.8133 40.5104 52.7786 40.533 52.7495 40.5619C52.7204 40.5908 52.6976 40.6254 52.6826 40.6635C52.6675 40.7017 52.6605 40.7425 52.6619 40.7835C52.6619 40.9108 52.7497 40.9882 52.8976 40.9882C52.9386 40.9896 52.9794 40.9826 53.0175 40.9675C53.0556 40.9525 53.0902 40.9297 53.1191 40.9006C53.1481 40.8715 53.1706 40.8368 53.1855 40.7986C53.2004 40.7604 53.2071 40.7195 53.2055 40.6786Z" fill="#263238"/>
<path d="M53.8888 41.0576C53.8881 41.0435 53.8903 41.0293 53.8953 41.0161C53.9002 41.0029 53.9079 40.9908 53.9177 40.9806C53.9276 40.9705 53.9394 40.9624 53.9525 40.957C53.9655 40.9516 53.9796 40.949 53.9937 40.9492C54.0062 40.9492 54.0186 40.9517 54.0301 40.9566C54.0416 40.9615 54.052 40.9687 54.0606 40.9776C54.0693 40.9866 54.0761 40.9973 54.0805 41.009C54.085 41.0206 54.0871 41.0331 54.0866 41.0456C54.0873 41.0595 54.0852 41.0735 54.0803 41.0866C54.0754 41.0998 54.0679 41.1117 54.0583 41.1219C54.0486 41.132 54.037 41.1401 54.0241 41.1456C54.0113 41.1511 53.9974 41.1539 53.9834 41.1539C53.9708 41.1539 53.9584 41.1514 53.9468 41.1466C53.9352 41.1417 53.9247 41.1346 53.9159 41.1256C53.9071 41.1166 53.9002 41.106 53.8955 41.0943C53.8909 41.0826 53.8886 41.0702 53.8888 41.0576Z" fill="#263238"/>
<path d="M54.2267 41.0576C54.226 41.0435 54.2282 41.0293 54.2332 41.0161C54.2381 41.0029 54.2458 40.9908 54.2556 40.9806C54.2655 40.9705 54.2773 40.9624 54.2904 40.957C54.3034 40.9516 54.3175 40.949 54.3316 40.9492C54.3441 40.9492 54.3565 40.9517 54.368 40.9566C54.3795 40.9615 54.3899 40.9687 54.3985 40.9776C54.4072 40.9866 54.414 40.9973 54.4184 41.009C54.4229 41.0206 54.425 41.0331 54.4245 41.0456C54.4252 41.0595 54.423 41.0735 54.4182 41.0866C54.4133 41.0998 54.4058 41.1117 54.3962 41.1219C54.3865 41.132 54.3749 41.1401 54.362 41.1456C54.3491 41.1511 54.3353 41.1539 54.3213 41.1539C54.3087 41.1539 54.2963 41.1514 54.2847 41.1466C54.2731 41.1417 54.2626 41.1346 54.2538 41.1256C54.245 41.1166 54.238 41.106 54.2334 41.0943C54.2287 41.0826 54.2265 41.0702 54.2267 41.0576Z" fill="#263238"/>
<path d="M54.5626 41.0576C54.5621 41.0434 54.5645 41.0292 54.5697 41.016C54.5749 41.0027 54.5827 40.9907 54.5926 40.9805C54.6026 40.9704 54.6145 40.9624 54.6277 40.957C54.6409 40.9516 54.655 40.949 54.6692 40.9492C54.6817 40.9492 54.6941 40.9517 54.7056 40.9566C54.717 40.9615 54.7274 40.9686 54.7361 40.9776C54.7448 40.9866 54.7516 40.9973 54.756 41.009C54.7605 41.0206 54.7625 41.0331 54.7621 41.0456C54.7628 41.0595 54.7606 41.0735 54.7558 41.0866C54.7509 41.0998 54.7434 41.1117 54.7337 41.1219C54.7241 41.132 54.7125 41.1401 54.6996 41.1456C54.6867 41.1511 54.6729 41.1539 54.6589 41.1539C54.6333 41.1539 54.6088 41.1438 54.5908 41.1257C54.5727 41.1076 54.5626 41.0831 54.5626 41.0576Z" fill="#263238"/>
<path d="M25.4553 15.3946C25.4553 15.4885 25.4275 15.5803 25.3753 15.6584C25.3231 15.7364 25.249 15.7973 25.1622 15.8332C25.0755 15.8692 24.9801 15.8786 24.888 15.8602C24.7959 15.8419 24.7113 15.7967 24.6449 15.7303C24.5785 15.6639 24.5333 15.5793 24.515 15.4873C24.4967 15.3952 24.5061 15.2997 24.542 15.213C24.5779 15.1262 24.6388 15.0521 24.7168 14.9999C24.7949 14.9478 24.8867 14.9199 24.9806 14.9199C25.1065 14.9199 25.2272 14.9699 25.3163 15.059C25.4053 15.148 25.4553 15.2687 25.4553 15.3946Z" fill="#263238"/>
<path d="M27.4787 15.3946C27.4787 15.4885 27.4509 15.5803 27.3987 15.6584C27.3466 15.7364 27.2724 15.7973 27.1857 15.8332C27.0989 15.8692 27.0035 15.8786 26.9114 15.8602C26.8193 15.8419 26.7347 15.7967 26.6683 15.7303C26.6019 15.6639 26.5567 15.5793 26.5384 15.4873C26.5201 15.3952 26.5295 15.2997 26.5654 15.213C26.6014 15.1262 26.6622 15.0521 26.7403 14.9999C26.8183 14.9478 26.9101 14.9199 27.004 14.9199C27.1299 14.9199 27.2507 14.9699 27.3397 15.059C27.4287 15.148 27.4787 15.2687 27.4787 15.3946Z" fill="#263238"/>
<path d="M29.4944 15.3946C29.4944 15.4886 29.4665 15.5805 29.4142 15.6586C29.362 15.7367 29.2878 15.7975 29.2009 15.8334C29.1141 15.8693 29.0185 15.8786 28.9264 15.8601C28.8343 15.8417 28.7497 15.7963 28.6834 15.7297C28.617 15.6631 28.572 15.5784 28.5538 15.4862C28.5357 15.394 28.5454 15.2985 28.5816 15.2118C28.6177 15.1251 28.6789 15.051 28.7572 14.9991C28.8354 14.9471 28.9274 14.9196 29.0214 14.9199C29.147 14.9204 29.2673 14.9706 29.3559 15.0596C29.4446 15.1486 29.4944 15.269 29.4944 15.3946Z" fill="#263238"/>
<path d="M80.964 54.0217C93.4385 54.0217 103.551 43.9092 103.551 31.4347C103.551 18.9602 93.4385 8.84766 80.964 8.84766C68.4895 8.84766 58.377 18.9602 58.377 31.4347C58.377 43.9092 68.4895 54.0217 80.964 54.0217Z" fill="#F5F5F5"/>
<path d="M103.545 31.4348C103.545 31.4348 103.545 31.311 103.531 31.0684C103.531 30.9463 103.522 30.7967 103.517 30.6178C103.512 30.4389 103.517 30.2291 103.486 29.9952C103.455 29.7612 103.447 29.4946 103.422 29.2057C103.398 28.9167 103.347 28.5985 103.304 28.2562C103.191 27.4693 103.038 26.6886 102.846 25.917C102.6 24.9525 102.291 24.005 101.921 23.0808C101.485 21.98 100.959 20.9169 100.349 19.9022C98.8623 17.4203 96.9174 15.2437 94.6178 13.4883C91.824 11.3618 88.5713 9.91869 85.1199 9.27433C82.1955 8.73365 79.1938 8.76812 76.2826 9.37581C74.2112 9.81273 72.213 10.5437 70.3486 11.5464C69.3829 12.0677 68.4547 12.6557 67.5708 13.306C65.7477 14.6527 64.139 16.2678 62.7995 18.0962C62.1104 19.0329 61.4956 20.022 60.9608 21.0546C60.8318 21.3178 60.6839 21.5706 60.5687 21.8441L60.2006 22.649C59.9821 23.1977 59.7585 23.7481 59.5779 24.3157C59.197 25.4526 58.9094 26.6186 58.7179 27.8022C58.5294 29.0029 58.4305 30.216 58.4221 31.4314C58.4299 32.6467 58.5282 33.8598 58.7162 35.0606C58.9085 36.2451 59.1961 37.4122 59.5762 38.5504L59.7207 38.9718L59.7912 39.1834L59.8721 39.3898C59.9867 39.6673 60.0957 39.9431 60.1989 40.2171L60.5635 41.0221C60.6787 41.2921 60.8267 41.5484 60.9557 41.8116C61.4904 42.8447 62.1052 43.8344 62.7943 44.7717C63.4732 45.689 64.2158 46.5575 65.0166 47.3706C65.8136 48.1587 66.6636 48.8914 67.5605 49.5636C68.4486 50.2131 69.3801 50.801 70.3486 51.3232C71.2925 51.8251 72.2694 52.2624 73.2726 52.6321C74.2577 52.9845 75.2649 53.2717 76.2877 53.4921C79.1989 54.1 82.2007 54.1345 85.1251 53.5936C88.5759 52.9481 91.8279 51.5044 94.6212 49.3778C96.9218 47.623 98.8673 45.4463 100.354 42.964C100.963 41.9489 101.488 40.8858 101.924 39.7854C102.298 38.8623 102.609 37.9154 102.857 36.9508C103.07 36.0788 103.219 35.2962 103.316 34.6116C103.357 34.2676 103.404 33.9546 103.434 33.6639C103.465 33.3732 103.477 33.1101 103.496 32.8744C103.515 32.6388 103.524 32.4307 103.527 32.2518C103.531 32.0729 103.538 31.9216 103.541 31.8012C103.541 31.5586 103.555 31.4348 103.555 31.4348C103.555 31.4348 103.555 31.5586 103.555 31.8012C103.555 31.9216 103.555 32.0729 103.545 32.2518C103.534 32.4307 103.545 32.6405 103.517 32.8762C103.49 33.1118 103.481 33.375 103.459 33.6656C103.436 33.9563 103.386 34.2728 103.345 34.6151C103.234 35.4037 103.083 36.1862 102.893 36.9594C102.651 37.9267 102.344 38.8766 101.974 39.8026C101.538 40.9099 101.012 41.9793 100.4 43.0001C98.9141 45.4905 96.9674 47.6754 94.6642 49.438C91.8637 51.5719 88.6018 53.0193 85.1406 53.6641C82.2063 54.208 79.1943 54.1759 76.2723 53.5695C74.1877 53.134 72.1766 52.4012 70.3004 51.3937C69.3309 50.8705 68.3987 50.2809 67.5106 49.629C66.6097 48.9545 65.7558 48.2195 64.9547 47.4291C64.1493 46.6127 63.4021 45.7408 62.7187 44.8198C62.0263 43.8788 61.4086 42.8851 60.8714 41.8477C60.7424 41.5845 60.5945 41.3317 60.4775 41.0565L60.1111 40.2481C60.0028 39.9712 59.8944 39.696 59.7843 39.419L59.7018 39.2109L59.6313 38.9994L59.4868 38.5745C59.1048 37.4321 58.8172 36.2603 58.6268 35.0709C58.2312 32.6584 58.2312 30.1975 58.6268 27.785C58.8172 26.5961 59.1048 25.4249 59.4868 24.283C59.6674 23.7137 59.8927 23.1633 60.1111 22.6112L60.4775 21.8028C60.5945 21.531 60.7424 21.2748 60.8714 21.0116C61.4082 19.9745 62.0259 18.9813 62.7187 18.0412C63.4011 17.1195 64.1484 16.2475 64.9547 15.4319C65.7566 14.6455 66.6111 13.9146 67.5123 13.2441C68.3998 12.5892 69.332 11.9973 70.3021 11.4725C72.1783 10.465 74.1894 9.73221 76.274 9.29669C79.1951 8.68792 82.2069 8.65521 85.1406 9.20037C88.6017 9.85101 91.8625 11.3024 94.6625 13.4384C96.9661 15.2006 98.9129 17.3856 100.399 19.8764C101.008 20.8948 101.532 21.9613 101.967 23.0653C102.337 23.9914 102.644 24.9412 102.886 25.9084C103.097 26.7822 103.244 27.5682 103.338 28.2528C103.379 28.5968 103.424 28.9116 103.452 29.2022C103.479 29.4929 103.493 29.7578 103.51 29.9934C103.527 30.2291 103.545 30.4441 103.545 30.6161C103.545 30.7881 103.545 30.9463 103.555 31.0684C103.545 31.3041 103.545 31.4348 103.545 31.4348Z" fill="#263238"/>
<mask id="mask0_2625_165269" style="mask-type:luminance" maskUnits="userSpaceOnUse" x="60" y="10" width="42" height="36">
<path d="M71.9124 39.3194C70.2775 37.5851 69.1898 35.4074 68.7855 33.0585C68.3812 30.7095 68.6781 28.2935 69.6391 26.1124C70.6001 23.9312 72.1826 22.0816 74.1888 20.7947C76.195 19.5079 78.536 18.8408 80.9192 18.8768C83.3025 18.9129 85.6222 19.6505 87.5886 20.9975C89.5549 22.3445 91.0808 24.2411 91.9753 26.4504C92.8699 28.6596 93.0935 31.0835 92.6183 33.4191C92.1431 35.7548 90.9901 37.8986 89.3034 39.5826L95.4059 45.5407C98.2797 42.6882 100.244 39.0485 101.052 35.0807C101.859 31.1129 101.473 26.9949 99.9428 23.2462C98.4124 19.4975 95.806 16.286 92.4525 14.0169C89.0989 11.7479 85.1484 10.5229 81.0994 10.4965C77.0504 10.4702 73.0843 11.6436 69.7015 13.8688C66.3187 16.0941 63.6707 19.2713 62.0917 22.9998C60.5126 26.7283 60.0732 30.841 60.8289 34.8189C61.5846 38.7968 63.5016 42.4618 66.3379 45.3515L71.9124 39.3194Z" fill="white"/>
</mask>
<g mask="url(#mask0_2625_165269)">
<path d="M71.9124 39.3194C70.2775 37.5851 69.1898 35.4074 68.7855 33.0585C68.3812 30.7095 68.6781 28.2935 69.6391 26.1124C70.6001 23.9312 72.1826 22.0816 74.1888 20.7947C76.195 19.5079 78.536 18.8408 80.9192 18.8768C83.3025 18.9129 85.6222 19.6505 87.5886 20.9975C89.5549 22.3445 91.0808 24.2411 91.9753 26.4504C92.8699 28.6596 93.0935 31.0835 92.6183 33.4191C92.1431 35.7548 90.9901 37.8986 89.3034 39.5826L95.4059 45.5407C98.2797 42.6882 100.244 39.0485 101.052 35.0807C101.859 31.1129 101.473 26.9949 99.9428 23.2462C98.4124 19.4975 95.806 16.286 92.4525 14.0169C89.0989 11.7479 85.1484 10.5229 81.0994 10.4965C77.0504 10.4702 73.0843 11.6436 69.7015 13.8688C66.3187 16.0941 63.6707 19.2713 62.0917 22.9998C60.5126 26.7283 60.0732 30.841 60.8289 34.8189C61.5846 38.7968 63.5016 42.4618 66.3379 45.3515L71.9124 39.3194Z" fill="#016D80"/>
<g opacity="0.8">
<path d="M91.6888 30.8945H102.712C102.712 30.8945 101.598 39.8678 101.374 40.0346C101.151 40.2014 94.63 47.7265 94.63 47.7265L87.2168 38.9201L91.6888 30.8945Z" fill="black"/>
</g>
<g opacity="0.7">
<path d="M88.7168 23.4738L96.517 15.8164L102.009 24.0105L102.742 30.8956H91.8231L89.8348 26.5182L88.7168 23.4738Z" fill="black"/>
</g>
<g opacity="0.5">
<path d="M81.4439 20.6957C81.3114 20.4721 81.4439 9.66016 81.4439 9.66016L88.1656 10.5047L96.4423 15.847L88.4907 23.6489L83.4838 22.9248L81.4439 20.6957Z" fill="black"/>
</g>
<g opacity="0.3">
<path d="M65.4316 16.2384C65.6036 16.2934 72.8448 24.0403 72.8448 24.0403L79.3103 21.4775L81.3846 18.8975L81.4431 9.66797L73.7375 10.5125L65.4316 16.2384Z" fill="black"/>
</g>
<g opacity="0.1">
<path d="M59.7402 30.8963C59.9122 31.0081 72.0021 30.8963 72.0021 30.8963L71.7888 22.9361L65.9512 16.7441L61.9694 21.4776L59.7402 30.8963Z" fill="black"/>
</g>
</g>
<path d="M81.1922 36.1404C83.7913 36.1404 85.8982 34.0334 85.8982 31.4344C85.8982 28.8354 83.7913 26.7285 81.1922 26.7285C78.5932 26.7285 76.4863 28.8354 76.4863 31.4344C76.4863 34.0334 78.5932 36.1404 81.1922 36.1404Z" fill="#E0E0E0"/>
<path d="M79.8094 31.7497C79.9081 32.088 80.1366 32.3734 80.4449 32.5439C80.7533 32.7143 81.1165 32.7559 81.4554 32.6596L97.8229 28.0156L80.9308 30.0487C80.7384 30.0721 80.5534 30.1371 80.3886 30.2391C80.2238 30.3412 80.0832 30.4779 79.9765 30.6397C79.8698 30.8016 79.7996 30.9847 79.7708 31.1763C79.7419 31.368 79.7551 31.5637 79.8094 31.7497Z" fill="#455A64"/>
<path d="M78.6807 41.6133L77.7811 46.1799H76.5874L77.057 43.7719L75.5365 45.7292H74.9689L74.133 43.7736L73.6514 46.1816H72.4629L73.3762 41.615H74.4271L75.509 44.2552L77.573 41.6133H78.6807Z" fill="#263238"/>
<path d="M83.0778 42.6444L82.3726 46.1807H81.1978L81.27 45.8488C80.9933 46.108 80.6258 46.2483 80.2466 46.2392C79.483 46.2392 78.752 45.6596 78.752 44.6276C78.752 43.4545 79.612 42.5859 80.6698 42.5859C81.1462 42.5859 81.5298 42.7304 81.7534 43.0693L81.8376 42.6444H83.0778ZM81.5177 44.2561C81.5257 44.1656 81.514 44.0746 81.4832 43.9892C81.4524 43.9038 81.4034 43.8261 81.3395 43.7616C81.2757 43.6971 81.1985 43.6473 81.1134 43.6156C81.0284 43.584 80.9374 43.5713 80.8469 43.5784C80.3567 43.5784 80.0041 43.9757 80.0041 44.5691C79.9962 44.6594 80.0082 44.7503 80.0392 44.8355C80.0703 44.9207 80.1195 44.998 80.1836 45.0621C80.2477 45.1262 80.3251 45.1755 80.4102 45.2065C80.4954 45.2375 80.5863 45.2495 80.6766 45.2416C81.1737 45.2365 81.5194 44.8443 81.5194 44.2561H81.5177Z" fill="#263238"/>
<path d="M85.8284 44.4261L86.7865 46.1805H85.4689L84.9856 45.2552L84.1256 46.1805H82.7324L84.5006 44.3762L83.5666 42.6562H84.8652L85.3348 43.5575L86.1776 42.6562H87.5484L85.8284 44.4261Z" fill="#263238"/>
<path d="M87.1175 45.562C87.1146 45.457 87.1333 45.3524 87.1724 45.2549C87.2114 45.1573 87.2701 45.0688 87.3447 44.9948C87.4194 44.9209 87.5084 44.863 87.6063 44.8247C87.7041 44.7865 87.8088 44.7687 87.9138 44.7725C88.0047 44.7674 88.0955 44.7813 88.1806 44.8135C88.2657 44.8456 88.3432 44.8951 88.408 44.9589C88.4728 45.0228 88.5235 45.0995 88.5569 45.1841C88.5903 45.2687 88.6056 45.3593 88.6018 45.4502C88.6044 45.5546 88.5858 45.6584 88.547 45.7554C88.5083 45.8523 88.4502 45.9404 88.3764 46.0142C88.3025 46.0881 88.2145 46.1461 88.1175 46.1849C88.0206 46.2236 87.9167 46.2423 87.8124 46.2397C87.7216 46.2434 87.6309 46.2286 87.5461 46.1961C87.4612 46.1636 87.3839 46.1141 87.3188 46.0507C87.2537 45.9872 87.2023 45.9111 87.1677 45.8271C87.1331 45.7431 87.116 45.6529 87.1175 45.562Z" fill="#263238"/>
<path d="M78.918 49.597H80.3439L80.2751 49.9514H78.2266L78.2833 49.6744L79.6714 48.5633C80.0549 48.2537 80.1684 48.0662 80.1684 47.834C80.1684 47.6018 79.9964 47.4229 79.6112 47.4229C79.4731 47.4229 79.3366 47.451 79.2097 47.5054C79.0829 47.5598 78.9684 47.6394 78.8733 47.7394L78.605 47.5038C78.7426 47.3609 78.9085 47.2482 79.0921 47.173C79.2757 47.0977 79.473 47.0616 79.6714 47.0669C80.2493 47.0669 80.5795 47.361 80.5795 47.7807C80.5795 48.111 80.4368 48.3965 79.9483 48.7817L78.918 49.597Z" fill="#263238"/>
<path d="M81.701 47.4539L81.4653 48.2365H81.7422C82.4715 48.2365 82.8018 48.5375 82.8018 48.9985C82.8018 49.5885 82.3167 49.9841 81.5874 49.9841C81.4056 49.9955 81.2233 49.9697 81.0517 49.9081C80.8802 49.8466 80.723 49.7507 80.5898 49.6263L80.8048 49.3115C80.911 49.417 81.0382 49.499 81.178 49.5523C81.3178 49.6056 81.4672 49.6291 81.6167 49.6211C82.1086 49.6211 82.3941 49.4061 82.3941 49.0432C82.3941 48.7629 82.1912 48.5909 81.67 48.5909H80.982L81.4258 47.0996H83.0357L82.9652 47.4539H81.701Z" fill="#263238"/>
<path d="M83.1914 48.936C83.1914 47.947 83.7504 47.0664 84.6345 47.0664C85.233 47.0664 85.596 47.4534 85.596 48.1139C85.596 49.1046 85.0335 49.9835 84.158 49.9835C83.5543 49.9835 83.1914 49.5965 83.1914 48.936ZM85.1883 48.1225C85.1883 47.6701 84.9682 47.4345 84.6018 47.4345C83.9585 47.4345 83.599 48.2704 83.599 48.9343C83.599 49.3867 83.8192 49.6223 84.1907 49.6223C84.8288 49.6206 85.1883 48.7864 85.1883 48.1225Z" fill="#263238"/>
<path d="M91.2639 80.5514C91.2118 80.5817 91.1523 80.5972 91.0919 80.5961C91.0336 80.605 90.974 80.5973 90.9199 80.5738C90.9768 80.5651 91.0344 80.5616 91.0919 80.5634C91.1486 80.5532 91.2063 80.5491 91.2639 80.5514Z" fill="#263238"/>
<path d="M93.0012 81.2214C93.0012 81.2214 92.9857 81.2592 92.9651 81.3005C92.9445 81.3418 92.9359 81.3762 92.9255 81.3762C92.9152 81.3762 92.9101 81.3332 92.9255 81.2868C92.941 81.2403 92.9961 81.2162 93.0012 81.2214Z" fill="#263238"/>
<path d="M93.2248 80.9721C93.2248 80.9721 93.2127 81.0065 93.1818 81.034C93.1508 81.0616 93.1216 81.0805 93.1147 81.0736C93.1078 81.0667 93.1267 81.0392 93.1577 81.0117C93.1887 80.9842 93.2127 80.9652 93.2248 80.9721Z" fill="#263238"/>
<path d="M93.5318 80.8597C93.5318 80.8683 93.4905 80.8683 93.4475 80.8821C93.4045 80.8958 93.3735 80.9182 93.3649 80.9113C93.3563 80.9044 93.3821 80.8683 93.4354 80.8511C93.4887 80.8339 93.5352 80.8511 93.5318 80.8597Z" fill="#263238"/>
<path d="M93.7503 80.8066C93.7503 80.8152 93.7365 80.829 93.7124 80.8376C93.6884 80.8462 93.666 80.8479 93.6625 80.8376C93.6591 80.8272 93.6763 80.8152 93.7004 80.8066C93.7245 80.798 93.7399 80.7997 93.7503 80.8066Z" fill="#263238"/>
<path d="M89.7063 26.488C89.6942 26.4675 89.6833 26.4462 89.6737 26.4244L89.5808 26.2352C89.5412 26.1526 89.4948 26.046 89.4329 25.9273L89.2093 25.5162C89.1233 25.3649 89.0149 25.2015 88.9031 25.0191C88.7913 24.8368 88.6485 24.6528 88.5006 24.4533C88.1548 24.0069 87.7747 23.5882 87.3637 23.2011C86.2847 22.1976 84.9964 21.4462 83.5917 21.0012C82.7641 20.7411 81.9033 20.6014 81.0358 20.5867C79.1638 20.5459 77.3185 21.0367 75.7141 22.0023C74.9694 22.4482 74.2918 22.9978 73.7017 23.6345C72.7042 24.7193 71.9593 26.0116 71.5208 27.4185C71.3571 27.9582 71.2352 28.5097 71.1561 29.068C71.1269 29.314 71.1045 29.5462 71.0891 29.756C71.0736 29.9659 71.0684 30.1637 71.0701 30.3391C71.0719 30.5145 71.0701 30.6693 71.0805 30.8052C71.0908 30.9411 71.0994 31.0546 71.1045 31.1492C71.1097 31.2438 71.1166 31.3075 71.12 31.3591C71.1215 31.3831 71.1215 31.4073 71.12 31.4313C71.1142 31.4081 71.1102 31.3846 71.108 31.3608C71.108 31.3092 71.0942 31.2387 71.0856 31.1509C71.077 31.0632 71.0598 30.9445 71.0512 30.8069C71.0426 30.6693 71.0409 30.5145 71.034 30.3391C71.0271 30.1637 71.034 29.9676 71.0443 29.7526C71.0547 29.5376 71.077 29.3071 71.1045 29.0646C71.1749 28.5014 71.29 27.9446 71.4485 27.3996C71.8826 25.98 72.6276 24.6749 73.6295 23.5795C74.2229 22.9353 74.9059 22.3798 75.6574 21.93C77.2744 20.9528 79.1366 20.457 81.0255 20.5007C81.9014 20.517 82.7703 20.6596 83.6055 20.9238C85.0204 21.3774 86.3162 22.1413 87.3981 23.1598C87.8086 23.552 88.1876 23.9758 88.5316 24.4275C88.6795 24.6304 88.8119 24.8213 88.9306 25.0019C89.0493 25.1825 89.1473 25.3459 89.2316 25.5042L89.4483 25.9204C89.5085 26.0408 89.5515 26.1475 89.5894 26.2335C89.6272 26.3195 89.653 26.3797 89.6737 26.4261C89.6861 26.4459 89.697 26.4666 89.7063 26.488Z" fill="#263238"/>
<path d="M87.7607 26.0139C87.73 25.9832 87.7028 25.9492 87.6799 25.9124C87.6283 25.8436 87.5612 25.7404 87.4597 25.6097C87.1836 25.2421 86.8788 24.897 86.5481 24.5777C86.0596 24.1069 85.5168 23.6958 84.9313 23.353C83.4924 22.5011 81.828 22.1081 80.16 22.2264C79.4832 22.2712 78.8141 22.3959 78.1666 22.5979C77.7288 22.7361 77.3026 22.9087 76.892 23.1139C76.7458 23.181 76.6375 23.2464 76.5601 23.2859C76.5221 23.308 76.4824 23.3269 76.4414 23.3427C76.4755 23.3148 76.5124 23.2906 76.5515 23.2705C76.6254 23.2275 76.7235 23.1569 76.8766 23.0847C77.2829 22.8676 77.7077 22.6869 78.1459 22.5446C79.6012 22.0677 81.1598 22.0017 82.6501 22.3537C84.1405 22.7057 85.5048 23.4622 86.5928 24.5398C86.9211 24.8627 87.2204 25.2138 87.4872 25.589C87.5853 25.7197 87.6472 25.8298 87.6954 25.9021C87.7192 25.9381 87.741 25.9754 87.7607 26.0139Z" fill="#263238"/>
<path d="M18.0608 76.8644C18.0683 76.8381 18.0786 76.8128 18.0918 76.7888L18.1932 76.5703C18.3181 76.2893 18.4188 75.9981 18.4942 75.7C18.692 74.926 18.7608 73.7444 18.4684 72.3391C18.3095 71.5742 18.101 70.8203 17.8441 70.0825C17.5809 69.281 17.2748 68.4313 17.0236 67.5128C16.741 66.5538 16.6048 65.5576 16.6194 64.5578C16.6573 63.5121 16.9634 62.468 17.3074 61.4309C17.6514 60.3937 17.9954 59.3669 18.1021 58.3504C18.2214 57.3676 18.0263 56.3722 17.5448 55.5072C17.0942 54.6764 16.5283 53.9678 16.1034 53.2316C15.7102 52.5495 15.4204 51.8128 15.2434 51.0455C14.988 49.9323 14.9698 48.7778 15.1901 47.6571C15.2647 47.2454 15.38 46.8421 15.5341 46.4531C15.5296 46.4801 15.5227 46.5065 15.5135 46.5322L15.4412 46.7627C15.3526 47.0568 15.2797 47.3553 15.2228 47.6571C15.0192 48.7742 15.0484 49.9213 15.3088 51.0266C15.4864 51.7855 15.7762 52.5136 16.1688 53.1869C16.5919 53.9128 17.1612 54.6197 17.6205 55.459C18.1159 56.3406 18.32 57.3562 18.2036 58.3607C18.0969 59.4013 17.7426 60.4247 17.4038 61.4567C17.0649 62.4887 16.7588 63.5207 16.7158 64.5527C16.701 65.5416 16.8343 66.5272 17.1114 67.4767C17.3573 68.39 17.66 69.2414 17.9215 70.0446C18.1763 70.7869 18.3809 71.5454 18.5338 72.315C18.8193 73.7306 18.7385 74.9243 18.5338 75.7C18.454 75.9993 18.3469 76.2906 18.2139 76.5703C18.1657 76.6598 18.1296 76.7303 18.1021 76.7836C18.0903 76.8115 18.0765 76.8385 18.0608 76.8644Z" fill="#263238"/>
<path d="M16.6723 53.9583C16.6723 53.9583 15.8123 51.2063 17.3603 49.5913C17.3715 49.5752 17.3875 49.563 17.406 49.5563C17.4244 49.5497 17.4445 49.549 17.4634 49.5543C17.4823 49.5596 17.4991 49.5706 17.5114 49.5859C17.5238 49.6011 17.5311 49.6198 17.5323 49.6394C17.6028 50.0935 17.706 51.4781 16.6723 53.9583Z" fill="#016D80"/>
<path d="M17.1878 50.5078C17.1865 50.6814 17.1669 50.8543 17.1293 51.0238C17.0725 51.3678 17.0072 51.7841 16.9332 52.2381C16.8593 52.6922 16.7956 53.0981 16.7406 53.4525C16.7258 53.6229 16.6952 53.7916 16.6494 53.9564C16.6341 53.7844 16.6393 53.6112 16.6649 53.4404C16.6924 53.1257 16.7492 52.6922 16.8266 52.2175C16.904 51.7428 16.9883 51.3145 17.0553 51.0135C17.0806 50.8405 17.125 50.6709 17.1878 50.5078Z" fill="#263238"/>
<path d="M17.6836 60.4517C17.6836 60.4517 18.2099 57.6154 20.3307 56.9119C20.3474 56.9059 20.3655 56.9046 20.3828 56.9084C20.4002 56.9121 20.4162 56.9206 20.4289 56.933C20.4417 56.9454 20.4507 56.9611 20.4549 56.9784C20.4591 56.9957 20.4584 57.0138 20.4528 57.0306C20.3135 57.4709 19.7562 58.7437 17.6836 60.4517Z" fill="#016D80"/>
<path d="M19.7526 57.6445C19.6704 57.7941 19.5736 57.9353 19.4636 58.0659L18.7223 59.048L17.9844 60.0284C17.892 60.1718 17.786 60.306 17.668 60.4292C17.7342 60.2717 17.8191 60.1227 17.9208 59.9854C18.0928 59.7206 18.3456 59.3628 18.6363 58.9792C18.927 58.5957 19.2005 58.2568 19.4034 58.016C19.5063 57.8801 19.6233 57.7556 19.7526 57.6445Z" fill="#263238"/>
<path d="M17.1116 67.569C17.1116 67.569 16.7917 64.7017 18.6166 63.4135C18.6308 63.4028 18.6477 63.3964 18.6653 63.3949C18.683 63.3934 18.7007 63.3968 18.7165 63.4049C18.7323 63.413 18.7455 63.4253 18.7546 63.4405C18.7637 63.4557 18.7683 63.4732 18.768 63.4909C18.7628 63.9535 18.5994 65.333 17.1116 67.569Z" fill="#016D80"/>
<path d="M18.2754 64.2832C18.2413 64.4503 18.19 64.6134 18.1223 64.77L17.6975 65.9258C17.5393 66.3575 17.3982 66.748 17.2761 67.0816C17.2299 67.2456 17.1677 67.4046 17.0903 67.5564C17.1081 67.3862 17.1462 67.2187 17.2039 67.0576C17.2916 66.7548 17.4292 66.3403 17.596 65.888C17.7629 65.4356 17.9263 65.028 18.0501 64.7424C18.1084 64.5817 18.1839 64.4277 18.2754 64.2832Z" fill="#263238"/>
<path d="M18.7071 74.7286C18.7071 74.7286 18.4904 71.851 20.3601 70.6298C20.3746 70.6199 20.3916 70.6142 20.4092 70.6134C20.4268 70.6126 20.4442 70.6167 20.4596 70.6253C20.475 70.6339 20.4876 70.6466 20.4962 70.6619C20.5047 70.6773 20.5088 70.6948 20.508 70.7124C20.4856 71.1733 20.2741 72.5476 18.7071 74.7286Z" fill="#016D80"/>
<path d="M19.9898 71.4844C19.9496 71.6511 19.8919 71.8131 19.8178 71.9677C19.6836 72.2945 19.5254 72.6798 19.3517 73.1063L18.8907 74.245C18.8377 74.4074 18.7697 74.5646 18.6877 74.7145C18.7114 74.5448 18.7553 74.3785 18.8185 74.2192C18.9165 73.9199 19.0696 73.5105 19.2519 73.0651C19.4342 72.6196 19.6131 72.2223 19.7473 71.9367C19.8126 71.7781 19.8939 71.6266 19.9898 71.4844Z" fill="#263238"/>
<path d="M15.434 51.5368C15.434 51.5368 12.8763 50.2004 12.8264 47.9678C12.826 47.9502 12.8304 47.9328 12.8392 47.9175C12.848 47.9022 12.8608 47.8896 12.8762 47.8811C12.8916 47.8726 12.9091 47.8685 12.9267 47.8692C12.9443 47.87 12.9614 47.8755 12.9761 47.8853C13.3562 48.1484 14.4088 49.0549 15.434 51.5368Z" fill="#016D80"/>
<path d="M13.3577 48.7344C13.4772 48.8567 13.5838 48.991 13.6759 49.1351L14.3983 50.131L15.1207 51.1269C15.2309 51.2574 15.3288 51.3979 15.4131 51.5466C15.2835 51.4368 15.1679 51.3114 15.0691 51.1733C14.8661 50.9308 14.5995 50.5851 14.3191 50.1947C14.0388 49.8042 13.7928 49.443 13.6311 49.1781C13.5237 49.0409 13.432 48.892 13.3577 48.7344Z" fill="#263238"/>
<path d="M18.1812 57.4499C18.1812 57.4499 15.5479 56.2717 15.3621 54.0461C15.3602 54.0286 15.3633 54.0109 15.3709 53.995C15.3785 53.9792 15.3904 53.9657 15.4053 53.9563C15.4201 53.9468 15.4373 53.9417 15.4549 53.9414C15.4725 53.9412 15.4898 53.9458 15.5049 53.9549C15.9005 54.1974 17.0081 55.0419 18.1812 57.4499Z" fill="#016D80"/>
<path d="M15.9375 54.7812C16.0648 54.8959 16.1801 55.0233 16.2815 55.1614C16.5068 55.4349 16.77 55.7582 17.0624 56.1125L17.845 57.062C17.9618 57.1862 18.0677 57.3203 18.1615 57.4627C18.0231 57.3641 17.8977 57.2486 17.7882 57.1187C17.5715 56.89 17.2825 56.5615 16.9781 56.1882C16.6737 55.815 16.4088 55.4693 16.2213 55.2147C16.111 55.0811 16.0158 54.9358 15.9375 54.7812Z" fill="#263238"/>
<path d="M16.6668 64.0495C16.6668 64.0495 14.8591 61.8014 15.7071 59.7357C15.713 59.7185 15.7238 59.7033 15.7382 59.692C15.7525 59.6808 15.7699 59.6739 15.788 59.6723C15.8062 59.6706 15.8245 59.6743 15.8406 59.6828C15.8568 59.6913 15.8701 59.7043 15.8791 59.7202C16.1199 60.1124 16.7219 61.3646 16.6668 64.0495Z" fill="#016D80"/>
<path d="M15.885 60.6504C15.9453 60.8102 15.9897 60.9755 16.0175 61.144C16.0914 61.488 16.1808 61.8974 16.2789 62.348C16.3769 62.7987 16.4664 63.208 16.5438 63.552C16.5916 63.7155 16.6245 63.8831 16.6418 64.0526C16.5644 63.8999 16.5066 63.7381 16.4698 63.571C16.3804 63.2682 16.2737 62.8451 16.1722 62.367C16.0708 61.8888 16.0003 61.4674 15.9418 61.163C15.9043 60.9947 15.8853 60.8228 15.885 60.6504Z" fill="#263238"/>
<path d="M18.4583 71.8121C18.4583 71.8121 15.8439 70.5892 15.696 68.3618C15.6943 68.3441 15.6975 68.3264 15.7053 68.3105C15.7132 68.2947 15.7253 68.2813 15.7404 68.272C15.7554 68.2627 15.7728 68.2578 15.7905 68.2578C15.8082 68.2579 15.8255 68.2629 15.8405 68.2723C16.2327 68.5183 17.3249 69.3766 18.4583 71.8121Z" fill="#016D80"/>
<path d="M16.26 69.1055C16.3875 69.2219 16.5027 69.351 16.604 69.4908L17.3677 70.4557L18.1348 71.4171C18.2504 71.5426 18.354 71.6785 18.4444 71.8231C18.3026 71.7204 18.1738 71.6008 18.0609 71.467C17.8493 71.2331 17.5655 70.8994 17.2679 70.5228C16.9704 70.1461 16.7106 69.7935 16.5283 69.5372C16.4233 69.4036 16.3333 69.2588 16.26 69.1055Z" fill="#263238"/>
<path d="M23.6636 60.4688C23.6661 60.4899 23.6661 60.5113 23.6636 60.5324C23.6636 60.5823 23.6636 60.6425 23.6636 60.7164C23.6636 60.8884 23.6446 61.1241 23.6326 61.4165C23.5982 62.0322 23.5518 62.8888 23.495 63.9156C23.3075 64.9597 22.776 66.1172 22.0622 67.2404C21.5462 68.0677 20.989 68.8211 20.5142 69.5211C20.083 70.1319 19.695 70.7722 19.3532 71.4372C19.1299 71.8886 18.9486 72.3596 18.8114 72.8442C18.765 73.0162 18.7306 73.152 18.7117 73.2432C18.7037 73.291 18.6905 73.3377 18.6721 73.3825C18.6739 73.3345 18.6797 73.2868 18.6893 73.2398C18.7031 73.1452 18.7306 73.0093 18.7702 72.8338C18.8935 72.3412 19.0664 71.8623 19.2862 71.4045C19.621 70.7314 20.0044 70.0835 20.4334 69.4661C20.903 68.7609 21.4499 68.0075 21.9711 67.1836C22.6814 66.0656 23.2112 64.9253 23.4038 63.8984C23.4761 62.8664 23.5363 62.0168 23.5758 61.4027C23.5982 61.112 23.6171 60.8781 23.6309 60.7044C23.6309 60.6322 23.6446 60.572 23.6498 60.5204C23.655 60.4688 23.6601 60.4688 23.6636 60.4688Z" fill="#263238"/>
<path d="M22.1083 67.0293C22.1083 67.0293 23.2143 64.365 21.8228 62.6192C21.8126 62.6035 21.7979 62.5911 21.7806 62.5838C21.7634 62.5764 21.7443 62.5743 21.7258 62.5778C21.7074 62.5813 21.6904 62.5902 21.6771 62.6034C21.6637 62.6166 21.6546 62.6335 21.6508 62.6519C21.5321 63.0974 21.3034 64.4682 22.1083 67.0293Z" fill="#016D80"/>
<path d="M21.9052 63.5488C21.9523 63.7132 21.9817 63.8822 21.993 64.0528C22.0308 64.3658 22.0755 64.801 22.1099 65.2809C22.1443 65.7607 22.1598 66.1976 22.1598 66.5124C22.1706 66.685 22.1602 66.8583 22.1288 67.0284C22.0986 66.8581 22.0836 66.6854 22.0841 66.5124C22.06 66.1581 22.0325 65.7435 22.0016 65.2843C21.9706 64.8251 21.9414 64.4106 21.9156 64.058C21.8946 63.8891 21.8911 63.7184 21.9052 63.5488Z" fill="#263238"/>
<g opacity="0.3">
<path d="M22.1064 67.0293C22.1064 67.0293 23.2123 64.365 21.8209 62.6192C21.8106 62.6035 21.7959 62.5911 21.7787 62.5838C21.7614 62.5764 21.7423 62.5743 21.7239 62.5778C21.7055 62.5813 21.6885 62.5902 21.6751 62.6034C21.6617 62.6166 21.6526 62.6335 21.6489 62.6519C21.5302 63.0974 21.3014 64.4682 22.1064 67.0293Z" fill="black"/>
</g>
<path d="M18.6783 73.4449C18.6783 73.4449 19.5658 70.6929 18.0367 69.0709C18.0251 69.0558 18.0092 69.0444 17.9912 69.0383C17.9731 69.0322 17.9536 69.0316 17.9351 69.0365C17.9167 69.0415 17.9002 69.0519 17.8876 69.0662C17.8751 69.0806 17.8671 69.0984 17.8647 69.1174C17.7856 69.5783 17.6686 70.9629 18.6783 73.4449Z" fill="#016D80"/>
<path d="M18.1956 70.0039C18.2582 70.1633 18.3016 70.3296 18.3246 70.4993C18.3882 70.8071 18.4673 71.2371 18.5413 71.7119C18.6152 72.1866 18.6651 72.6217 18.6909 72.9365C18.7168 73.1073 18.7202 73.2808 18.7012 73.4525C18.658 73.2873 18.6292 73.1187 18.6152 72.9485C18.5636 72.6045 18.5017 72.1866 18.4432 71.7325C18.3848 71.2784 18.3108 70.8725 18.2575 70.5165C18.2204 70.348 18.1996 70.1764 18.1956 70.0039Z" fill="#263238"/>
<g opacity="0.3">
<path d="M18.6783 73.4449C18.6783 73.4449 19.5658 70.6929 18.0367 69.0709C18.0251 69.0558 18.0092 69.0444 17.9912 69.0383C17.9731 69.0322 17.9536 69.0316 17.9351 69.0365C17.9167 69.0415 17.9002 69.0519 17.8876 69.0662C17.8751 69.0806 17.8671 69.0984 17.8647 69.1174C17.7856 69.5783 17.6686 70.9629 18.6783 73.4449Z" fill="black"/>
</g>
<path d="M23.5159 63.7745C23.5159 63.7745 25.8809 62.1198 25.6418 59.8993C25.6403 59.8817 25.634 59.8648 25.6234 59.8506C25.6128 59.8364 25.5985 59.8255 25.582 59.819C25.5655 59.8126 25.5475 59.8109 25.5301 59.8141C25.5127 59.8174 25.4966 59.8254 25.4835 59.8374C25.1395 60.147 24.2125 61.1807 23.5159 63.7745Z" fill="#016D80"/>
<g opacity="0.3">
<path d="M23.5159 63.7745C23.5159 63.7745 25.8809 62.1198 25.6418 59.8993C25.6403 59.8817 25.634 59.8648 25.6234 59.8506C25.6128 59.8364 25.5985 59.8255 25.582 59.819C25.5655 59.8126 25.5475 59.8109 25.5301 59.8141C25.5127 59.8174 25.4966 59.8254 25.4835 59.8374C25.1395 60.147 24.2125 61.1807 23.5159 63.7745Z" fill="black"/>
</g>
<path d="M25.2148 60.7266C25.1682 60.8913 25.1024 61.0501 25.0187 61.1996C24.8846 61.4851 24.6885 61.8738 24.4597 62.2969C24.231 62.72 24.0108 63.0984 23.8423 63.365C23.759 63.5149 23.658 63.654 23.5413 63.7796C23.6052 63.6214 23.6835 63.4694 23.7752 63.3255L24.3651 62.247L24.9517 61.1652C25.0247 61.0106 25.1129 60.8637 25.2148 60.7266Z" fill="#263238"/>
<path d="M19.6311 70.7294C19.6311 70.7294 22.4829 70.2857 23.2431 68.1873C23.2494 68.1707 23.2511 68.1526 23.2478 68.1352C23.2445 68.1177 23.2364 68.1015 23.2245 68.0883C23.2126 68.0751 23.1972 68.0655 23.1802 68.0605C23.1631 68.0555 23.145 68.0553 23.1279 68.06C22.6875 68.1873 21.3993 68.7067 19.6311 70.7294Z" fill="#016D80"/>
<g opacity="0.3">
<path d="M19.6311 70.7294C19.6311 70.7294 22.4829 70.2857 23.2431 68.1873C23.2494 68.1707 23.2511 68.1526 23.2478 68.1352C23.2445 68.1177 23.2364 68.1015 23.2245 68.0883C23.2126 68.0751 23.1972 68.0655 23.1802 68.0605C23.1631 68.0555 23.145 68.0553 23.1279 68.06C22.6875 68.1873 21.3993 68.7067 19.6311 70.7294Z" fill="black"/>
</g>
<path d="M22.4983 68.7422C22.3833 68.8711 22.254 68.9865 22.113 69.0862C21.867 69.284 21.5196 69.5471 21.1274 69.8258C20.7353 70.1044 20.3723 70.3418 20.0954 70.5138C19.955 70.6121 19.8031 70.693 19.6431 70.7546C19.7696 70.6396 19.9073 70.5376 20.0541 70.4501L21.0569 69.7398L22.0597 69.0277C22.1956 68.9176 22.3426 68.8219 22.4983 68.7422Z" fill="#263238"/>
<path d="M16.9111 75.9766L16.0803 81.5734H21.2627L20.5902 75.9766H16.9111Z" fill="#455A64"/>
<path d="M20.799 77.7115C20.799 77.7408 19.8633 77.7648 18.7092 77.7648C17.5551 77.7648 16.6194 77.7408 16.6194 77.7115C16.6194 77.6823 17.5533 77.6582 18.7092 77.6582C19.865 77.6582 20.799 77.6823 20.799 77.7115Z" fill="#263238"/>
<path d="M20.8997 78.1549C20.8997 78.1841 19.9348 78.2082 18.7428 78.2082C17.5509 78.2082 16.5842 78.1841 16.5842 78.1549C16.5842 78.1256 17.5491 78.1016 18.7428 78.1016C19.9365 78.1016 20.8997 78.1256 20.8997 78.1549Z" fill="#263238"/>
<path d="M113.177 74.082C112.995 74.1346 112.824 74.2234 112.677 74.343C112.529 74.4627 112.407 74.6108 112.317 74.7786C112.14 75.1165 112.042 75.4908 112.032 75.8726C111.989 76.6087 112.274 77.4068 112.617 78.0587C113.315 77.6321 113.613 76.7326 113.736 76.2647C113.929 75.5286 113.831 74.0786 113.183 74.082" fill="#016D80"/>
<path d="M111.707 79.1213C111.785 78.9218 111.809 78.705 111.775 78.4933C111.742 78.2817 111.652 78.0828 111.516 77.9173C111.379 77.7545 111.21 77.6208 111.02 77.5239C110.83 77.4271 110.623 77.369 110.41 77.3531C110.313 77.3351 110.214 77.3386 110.118 77.3633C110.023 77.3879 109.934 77.4332 109.858 77.4959C109.797 77.5654 109.756 77.65 109.739 77.7407C109.723 77.8315 109.73 77.9251 109.762 78.0119C109.827 78.1846 109.937 78.337 110.08 78.4539C110.55 78.8753 111.081 79.1953 111.707 79.1196" fill="#016D80"/>
<path d="M112.109 81.4718C112.113 81.4214 112.113 81.3708 112.109 81.3204C112.109 81.2121 112.109 81.0728 112.109 80.9059C112.118 80.4483 112.052 79.9924 111.915 79.5557C111.77 79.1188 111.511 78.7283 111.165 78.424C111.06 78.3336 110.945 78.2562 110.821 78.1935C110.778 78.1711 110.742 78.1574 110.718 78.147L110.682 78.1367C110.846 78.2256 111 78.3311 111.143 78.4515C111.476 78.7583 111.726 79.1448 111.869 79.5746C112.003 80.0062 112.073 80.4555 112.075 80.9076C112.084 81.0796 112.091 81.2224 112.097 81.3204C112.097 81.3712 112.101 81.4219 112.109 81.4718Z" fill="#263238"/>
<path d="M113.159 75.1914C113.151 75.2121 113.146 75.2334 113.142 75.255L113.099 75.4391C113.063 75.599 113.013 75.8312 112.954 76.1185C112.836 76.693 112.684 77.4945 112.538 78.3717C112.392 79.2489 112.275 80.0573 112.194 80.6386C112.156 80.9293 112.129 81.165 112.11 81.3266C112.11 81.404 112.096 81.466 112.091 81.5141C112.087 81.5363 112.087 81.559 112.091 81.5812C112.097 81.5597 112.101 81.5379 112.105 81.5158C112.105 81.4677 112.122 81.4058 112.132 81.3301C112.158 81.1581 112.192 80.9276 112.234 80.6421C112.318 80.0624 112.44 79.2661 112.586 78.3786C112.733 77.491 112.879 76.6998 112.987 76.1236C113.04 75.8398 113.083 75.6076 113.116 75.4356C113.13 75.36 113.14 75.298 113.149 75.2499C113.157 75.2017 113.163 75.1914 113.159 75.1914Z" fill="#263238"/>
<path d="M112.684 79.7467C112.832 79.3226 113.079 78.9397 113.404 78.6296C113.729 78.3195 114.123 78.0911 114.553 77.9631C114.774 77.9012 115.049 77.884 115.19 78.0629C115.331 78.2417 115.248 78.5066 115.13 78.7027C114.878 79.1081 114.512 79.4296 114.077 79.6265C113.643 79.8234 113.16 79.8868 112.689 79.8087" fill="#016D80"/>
<path d="M114.34 78.6309C114.292 78.6377 114.246 78.6492 114.201 78.6653C114.147 78.6794 114.094 78.6972 114.042 78.7186C113.973 78.7429 113.904 78.771 113.838 78.8029C113.755 78.8391 113.676 78.8804 113.599 78.9267C113.508 78.9785 113.421 79.036 113.337 79.0987C113.148 79.2385 112.975 79.3989 112.821 79.5769C112.668 79.7575 112.536 79.9555 112.429 80.1668C112.383 80.2596 112.342 80.355 112.307 80.4523C112.274 80.5359 112.246 80.6215 112.224 80.7086C112.2 80.7877 112.192 80.8617 112.178 80.9253C112.166 80.982 112.158 81.0395 112.154 81.0973C112.15 81.1448 112.15 81.1926 112.154 81.2401C112.166 81.2401 112.18 81.0389 112.269 80.7241C112.294 80.6389 112.323 80.555 112.357 80.473C112.393 80.3777 112.434 80.2847 112.481 80.1943C112.695 79.7784 113.003 79.4185 113.382 79.1434C113.464 79.0815 113.548 79.024 113.636 78.9714C113.711 78.9245 113.789 78.882 113.869 78.8441C114.146 78.6945 114.343 78.6429 114.34 78.6309Z" fill="#263238"/>
</svg>
