<svg width="20" height="20" viewBox="0 0 20 20" fill="none" xmlns="http://www.w3.org/2000/svg">
<path d="M15.8307 9.99935C15.8307 10.7654 15.6798 11.5239 15.3867 12.2317C15.0935 12.9394 14.6639 13.5825 14.1222 14.1241C13.5805 14.6658 12.9374 15.0955 12.2297 15.3886C11.522 15.6818 10.7634 15.8327 9.9974 15.8327C9.23135 15.8327 8.47281 15.6818 7.76508 15.3886C7.05734 15.0955 6.41428 14.6658 5.87261 14.1241C5.33093 13.5825 4.90125 12.9394 4.6081 12.2317C4.31495 11.5239 4.16406 10.7654 4.16406 9.99935" stroke="#94A3B8" stroke-width="1.25" stroke-linecap="round"/>
<path d="M9.375 17.5007C9.375 17.8458 9.65482 18.1257 10 18.1257C10.3452 18.1257 10.625 17.8458 10.625 17.5007H9.375ZM9.375 15.834V17.5007H10.625V15.834H9.375Z" fill="#94A3B8"/>
<rect x="6.66406" y="2.5" width="6.66667" height="10.8333" rx="3.33333" stroke="#94A3B8" stroke-width="1.25"/>
</svg>
