<svg width="20" height="20" viewBox="0 0 20 20" fill="none" xmlns="http://www.w3.org/2000/svg">
<path d="M5.00138 15.8359V8.33594C5.00138 7.00985 5.52817 5.73809 6.46585 4.8004C7.40353 3.86272 8.6753 3.33594 10.0014 3.33594C11.3275 3.33594 12.5992 3.86272 13.5369 4.8004C14.4746 5.73809 15.0014 7.00985 15.0014 8.33594V15.8359M5.00138 15.8359H15.0014M5.00138 15.8359H3.33472M15.0014 15.8359H16.668M9.16805 18.3359H10.8347" stroke="#94A3B8" stroke-width="1.5" stroke-linecap="round" stroke-linejoin="round"/>
<path d="M10.0013 3.33464C10.4615 3.33464 10.8346 2.96154 10.8346 2.5013C10.8346 2.04106 10.4615 1.66797 10.0013 1.66797C9.54106 1.66797 9.16797 2.04106 9.16797 2.5013C9.16797 2.96154 9.54106 3.33464 10.0013 3.33464Z" stroke="#94A3B8" stroke-width="1.5"/>
</svg>
