<svg width="8" height="8" viewBox="0 0 8 8" fill="none" xmlns="http://www.w3.org/2000/svg">
<path d="M3.49671 0.741563L1.83338 1.36489C1.45005 1.50823 1.13672 1.96156 1.13672 2.37156V4.84822C1.13672 5.24155 1.39672 5.75822 1.71339 5.99489L3.14672 7.0649C3.61672 7.41823 4.39005 7.41823 4.86005 7.0649L6.29339 5.99489C6.61005 5.75822 6.87005 5.24155 6.87005 4.84822V2.37156C6.87005 1.96156 6.55671 1.50823 6.17338 1.36489L4.51005 0.741563C4.22672 0.638229 3.77338 0.638229 3.49671 0.741563Z" stroke="#FF1D1D" stroke-width="0.5" stroke-linecap="round" stroke-linejoin="round"/>
<path d="M3.99998 3.63818C3.98665 3.63818 3.96998 3.63818 3.95664 3.63818C3.64331 3.62818 3.39331 3.36818 3.39331 3.05151C3.39331 2.72818 3.65665 2.46484 3.97998 2.46484C4.30331 2.46484 4.56665 2.72818 4.56665 3.05151C4.56332 3.37151 4.31331 3.62818 3.99998 3.63818Z" stroke="#FF1D1D" stroke-width="0.5" stroke-linecap="round" stroke-linejoin="round"/>
<path d="M3.33668 4.57313C3.01668 4.78646 3.01668 5.13645 3.33668 5.34979C3.70001 5.59312 4.29668 5.59312 4.66001 5.34979C4.98001 5.13645 4.98001 4.78646 4.66001 4.57313C4.30001 4.32979 3.70335 4.32979 3.33668 4.57313Z" stroke="#FF1D1D" stroke-width="0.5" stroke-linecap="round" stroke-linejoin="round"/>
</svg>
