<svg width="8" height="8" viewBox="0 0 8 8" fill="none" xmlns="http://www.w3.org/2000/svg">
<path d="M3.49281 0.741563L1.82948 1.36489C1.44614 1.50823 1.13281 1.96156 1.13281 2.37156V4.84822C1.13281 5.24155 1.39282 5.75822 1.70948 5.99489L3.14281 7.0649C3.61281 7.41823 4.38614 7.41823 4.85614 7.0649L6.28948 5.99489C6.60615 5.75822 6.86614 5.24155 6.86614 4.84822V2.37156C6.86614 1.96156 6.55281 1.50823 6.16947 1.36489L4.50614 0.741563C4.22281 0.638229 3.76947 0.638229 3.49281 0.741563Z" stroke="#009F3D" stroke-width="0.5" stroke-linecap="round" stroke-linejoin="round"/>
<path d="M3.99607 3.63818C3.98274 3.63818 3.96607 3.63818 3.95274 3.63818C3.63941 3.62818 3.3894 3.36818 3.3894 3.05151C3.3894 2.72818 3.65274 2.46484 3.97607 2.46484C4.29941 2.46484 4.56274 2.72818 4.56274 3.05151C4.55941 3.37151 4.30941 3.62818 3.99607 3.63818Z" stroke="#009F3D" stroke-width="0.5" stroke-linecap="round" stroke-linejoin="round"/>
<path d="M3.33277 4.57313C3.01277 4.78646 3.01277 5.13645 3.33277 5.34979C3.69611 5.59312 4.29277 5.59312 4.65611 5.34979C4.97611 5.13645 4.97611 4.78646 4.65611 4.57313C4.29611 4.32979 3.69944 4.32979 3.33277 4.57313Z" stroke="#009F3D" stroke-width="0.5" stroke-linecap="round" stroke-linejoin="round"/>
</svg>
