<svg width="24" height="24" viewBox="0 0 24 24" fill="none" xmlns="http://www.w3.org/2000/svg">
<path d="M12.0025 1.96946C12.144 1.76661 12.3258 1.59509 12.5365 1.4656C12.7472 1.33612 12.9824 1.25145 13.2273 1.21689C13.4722 1.18232 13.7216 1.19859 13.9599 1.26469C14.1982 1.33079 14.4204 1.4453 14.6125 1.60106L18.5365 4.78706C18.8871 5.07158 19.118 5.47748 19.1833 5.92425C19.2487 6.37103 19.1437 6.82605 18.8893 7.19906H17.4253L17.8933 6.52826C17.9804 6.40401 18.0172 6.25137 17.9963 6.10107C17.9753 5.95077 17.8982 5.81399 17.7805 5.71826L15.7597 4.07906L13.6045 7.19906H12.1441L14.8249 3.32066L13.8553 2.53346C13.7913 2.48152 13.7173 2.44333 13.6378 2.42126C13.5584 2.3992 13.4753 2.39374 13.3936 2.40522C13.312 2.41671 13.2336 2.44489 13.1634 2.48801C13.0931 2.53114 13.0325 2.58828 12.9853 2.65586L9.8161 7.19786H8.3521L12.0025 1.96946ZM16.2001 14.3991C16.041 14.3991 15.8884 14.4623 15.7758 14.5748C15.6633 14.6873 15.6001 14.8399 15.6001 14.9991C15.6001 15.1582 15.6633 15.3108 15.7758 15.4233C15.8884 15.5359 16.041 15.5991 16.2001 15.5991H17.4001C17.5592 15.5991 17.7118 15.5359 17.8244 15.4233C17.9369 15.3108 18.0001 15.1582 18.0001 14.9991C18.0001 14.8399 17.9369 14.6873 17.8244 14.5748C17.7118 14.4623 17.5592 14.3991 17.4001 14.3991H16.2001ZM5.4001 5.99906H8.0029L7.1629 7.19906H5.4001C5.24097 7.19906 5.08836 7.26228 4.97583 7.3748C4.86331 7.48732 4.8001 7.63993 4.8001 7.79906C4.8001 7.95819 4.86331 8.11081 4.97583 8.22333C5.08836 8.33585 5.24097 8.39906 5.4001 8.39906H18.0001C18.6366 8.39906 19.2471 8.65192 19.6972 9.10201C20.1472 9.5521 20.4001 10.1625 20.4001 10.7991V17.9991C20.4001 18.6356 20.1472 19.246 19.6972 19.6961C19.2471 20.1462 18.6366 20.3991 18.0001 20.3991H6.6001C5.80445 20.3991 5.04139 20.083 4.47878 19.5204C3.91617 18.9578 3.6001 18.1947 3.6001 17.3991V7.79906C3.6001 7.32167 3.78974 6.86384 4.12731 6.52627C4.46487 6.18871 4.92271 5.99906 5.4001 5.99906ZM4.8001 17.3991C4.8001 17.8765 4.98974 18.3343 5.32731 18.6719C5.66487 19.0094 6.12271 19.1991 6.6001 19.1991H18.0001C18.3184 19.1991 18.6236 19.0726 18.8486 18.8476C19.0737 18.6225 19.2001 18.3173 19.2001 17.9991V10.7991C19.2001 10.4808 19.0737 10.1756 18.8486 9.95054C18.6236 9.72549 18.3184 9.59906 18.0001 9.59906H5.4001C5.1901 9.59906 4.9873 9.56306 4.8001 9.49706V17.3991Z" fill="#94A3B8"/>
</svg>
