<svg width="136" height="32" viewBox="0 0 136 32" fill="none" xmlns="http://www.w3.org/2000/svg">
<g clip-path="url(#clip0_7231_59815)">
<path d="M37.0176 21.9177V9.50787H40.9182L43.2629 17.9714L45.578 9.50787H49.4882V21.9177H47.0667V12.1485L44.5004 21.9177H41.9949L39.4431 12.1477V21.9177H37.0176Z" fill="#577ABB"/>
<path d="M57.4743 19.0602L59.9398 19.4602C59.6685 20.2682 59.1407 20.9654 58.4366 21.4457C57.6683 21.9234 56.7744 22.1599 55.8704 22.1249C55.1896 22.177 54.5062 22.0648 53.8778 21.7978C53.2494 21.5308 52.6944 21.1168 52.2593 20.5905C51.6165 19.6894 51.2918 18.6 51.3362 17.4939C51.2623 16.2125 51.6986 14.954 52.5497 13.9933C52.9445 13.5783 53.4223 13.2513 53.9521 13.0337C54.4818 12.816 55.0515 12.7126 55.624 12.7301C56.2359 12.699 56.8473 12.8013 57.4157 13.0301C57.9842 13.2588 58.496 13.6085 58.9158 14.0549C59.7158 14.9386 60.1008 16.2921 60.0709 18.1155H53.8729C53.8538 18.7213 54.0683 19.3113 54.472 19.7634C54.6554 19.9558 54.877 20.1077 55.1227 20.2091C55.3684 20.3105 55.6326 20.3593 55.8984 20.3522C56.249 20.365 56.5936 20.2577 56.8751 20.0482C57.1732 19.7915 57.3828 19.4476 57.4743 19.065M57.6143 16.6651C57.6371 16.0893 57.4381 15.5267 57.0583 15.0932C56.8926 14.92 56.6928 14.7829 56.4716 14.6905C56.2504 14.5981 56.0125 14.5525 55.7728 14.5565C55.5222 14.5498 55.2731 14.5967 55.0422 14.6941C54.8112 14.7915 54.6038 14.9372 54.4336 15.1212C54.0643 15.5456 53.8785 16.0991 53.9169 16.6603H57.6143V16.6651Z" fill="#577ABB"/>
<path d="M70.6666 21.9177H68.3708V20.5977C68.0214 21.0856 67.5563 21.4789 67.0172 21.7425C66.5289 21.9856 65.9916 22.1139 65.4461 22.1176C64.9232 22.1209 64.4057 22.0109 63.9293 21.7952C63.4529 21.5795 63.0288 21.2632 62.6862 20.8681C61.8703 19.8982 61.4584 18.6518 61.5359 17.3867C61.4539 16.1276 61.8543 14.8845 62.6558 13.9101C63.0153 13.5219 63.4536 13.2152 63.9413 13.0105C64.429 12.8057 64.955 12.7077 65.4837 12.7229C65.9997 12.7228 66.5095 12.8349 66.9777 13.0515C67.446 13.2681 67.8616 13.584 68.1956 13.9773V9.50787H70.6706L70.6666 21.9177ZM64.0638 17.2299C64.0087 17.9482 64.1526 18.6679 64.4798 19.3098C64.6496 19.6013 64.8949 19.8418 65.1898 20.0057C65.4847 20.1697 65.8184 20.2513 66.1557 20.2417C66.4352 20.2426 66.7113 20.1803 66.9633 20.0593C67.2153 19.9384 67.4366 19.762 67.6108 19.5434C68.0536 18.9423 68.2662 18.2023 68.21 17.4579C68.2799 16.669 68.075 15.8803 67.63 15.2252C67.4464 15.013 67.2193 14.8427 66.9642 14.7258C66.709 14.609 66.4318 14.5483 66.1512 14.5478C65.8705 14.5474 65.5931 14.6072 65.3376 14.7232C65.0821 14.8392 64.8545 15.0088 64.6701 15.2204C64.2328 15.7946 64.0213 16.5093 64.0758 17.2291" fill="#577ABB"/>
<path d="M73.1016 9.50787H75.5766V11.707H73.1016V9.50787ZM73.1016 12.9277H75.5766V21.9177H73.1016V12.9277Z" fill="#577ABB"/>
<path d="M94.1088 21.9185H91.2738L90.1475 19.1018H84.9853L83.9214 21.9185H81.1543L86.1812 9.50787H88.9363L94.1041 21.9185H94.1088ZM89.3091 17.0075L87.53 12.4053L85.7853 17.0075H89.3091Z" fill="#577ABB"/>
<path d="M94.6071 19.3541L97.0909 18.9885C97.1693 19.406 97.3967 19.7807 97.7309 20.0429C98.1341 20.3052 98.6107 20.4316 99.0908 20.4037C99.5955 20.4364 100.098 20.3189 100.536 20.0661C100.639 19.9949 100.722 19.8989 100.778 19.787C100.834 19.6752 100.861 19.5511 100.856 19.4261C100.859 19.3431 100.845 19.2605 100.815 19.183C100.785 19.1055 100.74 19.0347 100.683 18.9749C100.434 18.8096 100.152 18.7024 99.8564 18.6614C98.5421 18.46 97.2639 18.0696 96.0614 17.5022C95.7139 17.2933 95.428 16.996 95.2328 16.6406C95.0376 16.2852 94.9401 15.8845 94.9503 15.4791C94.9469 15.1001 95.0319 14.7254 95.1985 14.385C95.3652 14.0445 95.6088 13.7475 95.9102 13.5176C96.7812 12.9166 97.8327 12.6341 98.8877 12.7177C99.8765 12.6409 100.866 12.8503 101.74 13.3208C102.372 13.7347 102.83 14.3673 103.025 15.0975L100.691 15.5111C100.605 15.1849 100.404 14.9007 100.125 14.7112C99.7628 14.5043 99.3482 14.407 98.9317 14.4312C98.4494 14.3953 97.9662 14.4855 97.5293 14.6928C97.4442 14.7419 97.3735 14.8126 97.3244 14.8976C97.2753 14.9827 97.2494 15.0793 97.2493 15.1775C97.2511 15.2644 97.2746 15.3494 97.3176 15.4248C97.3607 15.5003 97.4219 15.5638 97.4957 15.6095C98.2352 15.9274 99.0112 16.1523 99.806 16.2791C100.791 16.4326 101.731 16.7936 102.566 17.3382C102.824 17.5532 103.028 17.8252 103.162 18.1328C103.296 18.4404 103.357 18.775 103.339 19.1101C103.337 19.5228 103.238 19.9292 103.052 20.2975C102.866 20.6658 102.597 20.9861 102.267 21.2332C101.342 21.8899 100.217 22.2038 99.086 22.1212C98.0257 22.1776 96.9726 21.9181 96.0598 21.3756C95.3366 20.9095 94.8169 20.1866 94.6055 19.3525" fill="#577ABB"/>
<path d="M104.632 19.3542L107.117 18.9886C107.195 19.4061 107.423 19.7808 107.757 20.043C108.16 20.3052 108.637 20.4316 109.117 20.4037C109.622 20.4364 110.125 20.319 110.563 20.0661C110.665 19.995 110.749 19.899 110.805 19.7872C110.86 19.6753 110.887 19.5512 110.883 19.4262C110.885 19.3431 110.871 19.2604 110.841 19.1829C110.811 19.1054 110.766 19.0347 110.708 18.975C110.46 18.8095 110.177 18.7023 109.882 18.6614C108.568 18.4602 107.29 18.0698 106.088 17.5023C105.74 17.2935 105.454 16.9963 105.258 16.6409C105.063 16.2855 104.965 15.8846 104.976 15.4792C104.972 15.1002 105.057 14.7256 105.224 14.3851C105.391 14.0447 105.634 13.7477 105.936 13.5177C106.807 12.9168 107.858 12.6343 108.913 12.7177C109.902 12.6409 110.892 12.8503 111.765 13.3209C112.397 13.7349 112.855 14.3674 113.051 15.0976L110.716 15.5112C110.631 15.1848 110.43 14.9006 110.151 14.7112C109.788 14.5042 109.374 14.407 108.957 14.4312C108.475 14.3954 107.992 14.4855 107.555 14.6928C107.47 14.742 107.399 14.8126 107.35 14.8977C107.301 14.9828 107.275 15.0793 107.275 15.1776C107.277 15.2644 107.3 15.3494 107.343 15.4249C107.386 15.5003 107.447 15.5638 107.521 15.6096C108.261 15.9275 109.037 16.1524 109.831 16.2791C110.816 16.4328 111.757 16.7938 112.592 17.3383C112.85 17.5533 113.054 17.8254 113.188 18.133C113.322 18.4405 113.383 18.7751 113.365 19.1102C113.362 19.5229 113.264 19.9293 113.077 20.2976C112.891 20.6659 112.623 20.9862 112.292 21.2333C111.367 21.8899 110.243 22.2039 109.111 22.1212C108.051 22.1778 106.998 21.9183 106.086 21.3757C105.362 20.9098 104.842 20.1868 104.631 19.3526" fill="#577ABB"/>
<path d="M115.537 9.50787H118.011V11.707H115.537V9.50787ZM115.537 12.9277H118.011V21.9177H115.537V12.9277Z" fill="#577ABB"/>
<path d="M119.672 19.3544L122.152 18.9888C122.231 19.4063 122.458 19.781 122.792 20.0432C123.195 20.3054 123.672 20.4318 124.152 20.4039C124.657 20.4369 125.159 20.3194 125.597 20.0664C125.7 19.9952 125.783 19.8992 125.839 19.7874C125.895 19.6755 125.922 19.5514 125.917 19.4264C125.92 19.3434 125.906 19.2607 125.876 19.1832C125.846 19.1057 125.801 19.035 125.743 18.9752C125.495 18.8099 125.212 18.7027 124.917 18.6616C123.603 18.4603 122.324 18.0698 121.122 17.5025C120.774 17.2936 120.489 16.9963 120.293 16.6409C120.098 16.2855 120.001 15.8847 120.011 15.4794C120.007 15.1003 120.092 14.7257 120.259 14.3852C120.426 14.0448 120.669 13.7478 120.971 13.5179C121.841 12.9162 122.893 12.6337 123.948 12.7179C124.937 12.6406 125.927 12.85 126.8 13.3211C127.432 13.7352 127.89 14.3677 128.086 15.0978L125.751 15.5114C125.666 15.1852 125.465 14.901 125.186 14.7114C124.823 14.5046 124.408 14.4074 123.991 14.4314C123.509 14.3957 123.026 14.4858 122.59 14.693C122.505 14.7422 122.434 14.8128 122.385 14.8979C122.336 14.983 122.31 15.0795 122.31 15.1778C122.311 15.2647 122.335 15.3498 122.378 15.4253C122.421 15.5007 122.482 15.5642 122.556 15.6098C123.296 15.9277 124.072 16.1526 124.867 16.2793C125.851 16.4329 126.792 16.7939 127.626 17.3385C127.884 17.5534 128.088 17.8255 128.223 18.1331C128.357 18.4406 128.418 18.7753 128.4 19.1104C128.397 19.5231 128.299 19.9295 128.113 20.2978C127.927 20.6661 127.658 20.9864 127.327 21.2335C126.402 21.8901 125.278 22.2041 124.147 22.1215C123.086 22.1779 122.033 21.9184 121.12 21.3759C120.397 20.9097 119.878 20.1868 119.666 19.3528" fill="#577ABB"/>
<path d="M134.861 12.9277V14.8228H133.169V18.4466C133.153 18.8738 133.169 19.3017 133.217 19.7265C133.252 19.849 133.329 19.955 133.435 20.0257C133.559 20.1078 133.706 20.1492 133.855 20.1441C134.197 20.1197 134.533 20.0428 134.851 19.9161L135.063 21.764C134.442 22.0099 133.779 22.1309 133.111 22.12C132.698 22.1261 132.288 22.0537 131.903 21.9064C131.592 21.7986 131.319 21.6043 131.115 21.3464C130.926 21.07 130.807 20.7523 130.767 20.4201C130.697 19.863 130.671 19.3014 130.687 18.7402V14.8204H129.551V12.9325H130.687V11.147L133.171 9.75983V12.9325H134.863L134.861 12.9277Z" fill="#577ABB"/>
<path d="M132.667 4.25972V2.44061H131.961V2.19342H133.662V2.44061H132.952V4.25972H132.667Z" fill="#111827"/>
<path d="M133.942 4.25972V2.19822H134.367L134.875 3.65655C134.923 3.79414 134.955 3.89654 134.977 3.96053C135.001 3.88454 135.039 3.77494 135.093 3.62775L135.605 2.19342H135.987V4.25492H135.711V2.531L135.088 4.25492H134.831L134.213 2.49501V4.25492H133.938L133.942 4.25972Z" fill="#111827"/>
<path fill-rule="evenodd" clip-rule="evenodd" d="M5.53213 3.98456C8.80439 1.17879 13.0417 -0.24045 17.3438 0.0284286C21.6459 0.297308 25.6735 2.23311 28.571 5.42449C29.9838 6.99116 31.0684 8.82498 31.7608 10.8177C32.4532 12.8104 32.7393 14.9217 32.6023 17.0268C32.4653 19.132 31.908 21.1884 30.9632 23.0746C30.0184 24.9608 28.7053 26.6386 27.1015 28.009C23.8292 30.8147 19.5918 32.234 15.2898 31.9651C10.9877 31.6962 6.96004 29.7604 4.06261 26.569C2.65044 25.0021 1.56638 23.1682 0.874355 21.1755C0.182335 19.1828 -0.103626 17.0718 0.0333392 14.9668C0.170305 12.8619 0.727423 10.8056 1.67183 8.91946C2.61624 7.03327 3.92882 5.35532 5.53213 3.98456Z" fill="#D82427"/>
<path fill-rule="evenodd" clip-rule="evenodd" d="M11.0634 4.79909C12.2137 4.81829 12.9681 6.4662 12.7433 8.4789C12.5185 10.4916 11.409 12.1075 10.2586 12.0843C9.10827 12.0611 8.35391 10.4172 8.5787 8.40451C8.80349 6.39181 9.91303 4.77829 11.0634 4.79909Z" fill="white"/>
<path fill-rule="evenodd" clip-rule="evenodd" d="M22.1699 8.57271C23.0155 7.76555 24.321 8.12153 25.085 9.37267C25.8489 10.6238 25.7857 12.2845 24.9402 13.0917C24.0946 13.8988 22.7891 13.5429 22.0259 12.2917C21.2628 11.0406 21.3244 9.37507 22.1699 8.57271Z" fill="white"/>
<path fill-rule="evenodd" clip-rule="evenodd" d="M19.5208 22.5407C19.5208 22.5407 19.3808 19.8377 21.9967 15.9179C21.9967 15.9179 23.6694 13.3676 25.3365 13.382C25.3365 13.382 26.8836 13.1636 29.0923 15.6219C30.4572 17.1145 31.4071 18.9387 31.8474 20.9128C31.3365 20.1568 30.7573 19.4494 30.1171 18.7993C29.1202 17.6425 27.7953 16.8159 26.318 16.429C25.6204 16.3055 24.903 16.3566 24.2299 16.5779C23.5568 16.7991 22.9489 17.1836 22.4606 17.697C21.6189 18.5987 20.9124 19.6178 20.3631 20.7224C20.0536 21.3112 19.7736 21.9144 19.5176 22.5319L19.5208 22.5407Z" fill="white"/>
<path fill-rule="evenodd" clip-rule="evenodd" d="M3.17002 25.3289C3.17002 25.3289 2.93803 20.9068 6.60184 15.4166C6.60184 15.4166 8.75294 12.196 11.1984 12.2912C11.1984 12.2912 13.4655 12.12 16.2206 15.5878C16.2206 15.5878 19.014 19.0741 19.5172 22.5411C17.2941 19.4868 13.3351 13.3791 8.69934 17.2781C7.60363 18.2451 6.64162 19.3537 5.83868 20.5748C4.81691 22.0823 3.92291 23.6725 3.16602 25.3289H3.17002Z" fill="white"/>
</g>
<defs>
<clipPath id="clip0_7231_59815">
<rect width="135.99" height="32" fill="white"/>
</clipPath>
</defs>
</svg>
