<svg width="44" height="80" viewBox="0 0 44 80" fill="none" xmlns="http://www.w3.org/2000/svg">
<g opacity="0.9">
<path d="M67.3972 20.1364C68.9076 26.4596 67.8772 33.4644 64.618 38.9364C63.7796 40.3444 62.7732 41.6836 61.4484 42.5284C60.1236 43.3732 58.4308 43.6596 57.0452 42.9428C55.4692 42.1268 54.6212 40.2724 53.698 38.65C52.7748 37.0276 51.4004 35.3764 49.6596 35.45C48.6228 35.4948 47.7012 36.1556 46.8644 36.8292C38.2932 43.73 32.1844 54.4292 22.4228 59.0404C20.2628 60.0612 17.722 60.7316 15.6084 59.5972C13.2916 58.354 12.2372 55.3252 12.002 52.5028C11.6292 48.1124 12.7284 43.674 14.61 39.7796C16.4916 35.8852 19.1316 32.49 21.97 29.3796C29.314 21.2996 38.45 14.7204 48.69 12.8276C52.1204 12.1876 55.6884 12.1028 59.0388 13.1364C62.3892 14.17 65.5076 16.4196 67.2916 19.6964C67.2772 19.4148 67.3972 20.1364 67.3972 20.1364Z" fill="white"/>
</g>
<path d="M39.9992 68.3216C57.1324 68.3216 71.0216 67.5107 71.0216 66.5104C71.0216 65.5101 57.1324 64.6992 39.9992 64.6992C22.866 64.6992 8.97681 65.5101 8.97681 66.5104C8.97681 67.5107 22.866 68.3216 39.9992 68.3216Z" fill="#F5F5F5"/>
<path d="M21.0999 65.2976V65.6304C21.1019 65.7139 21.1366 65.7933 21.1964 65.8516C21.2561 65.9098 21.3364 65.9425 21.4199 65.9424H33.3478C33.3857 65.9424 33.4231 65.935 33.4581 65.9205C33.493 65.906 33.5248 65.8848 33.5515 65.8581C33.5782 65.8313 33.5995 65.7996 33.6139 65.7646C33.6284 65.7297 33.6359 65.6923 33.6359 65.6544V65.3344C33.6359 65.2966 33.6284 65.2592 33.6139 65.2242C33.5995 65.1893 33.5782 65.1575 33.5515 65.1308C33.5248 65.104 33.493 65.0828 33.4581 65.0684C33.4231 65.0539 33.3857 65.0464 33.3478 65.0464H30.3735C30.2939 65.0466 30.2153 65.0292 30.1432 64.9955C30.0711 64.9619 30.0073 64.9128 29.9563 64.8517C29.9053 64.7906 29.8683 64.7191 29.8481 64.6421C29.8278 64.5652 29.8247 64.4847 29.8391 64.4064L30.8791 58.3984H24.1031L21.2023 64.8192C21.1349 64.9697 21.1 65.1327 21.0999 65.2976Z" fill="white"/>
<path opacity="0.2" d="M33.6258 65.3328V65.6528C33.6261 65.6906 33.6188 65.728 33.6045 65.7629C33.5902 65.7979 33.5691 65.8296 33.5425 65.8564C33.5159 65.8831 33.4843 65.9044 33.4494 65.9189C33.4146 65.9334 33.3772 65.9408 33.3394 65.9408H21.4098C21.3263 65.9409 21.2461 65.9082 21.1864 65.85C21.1266 65.7917 21.0919 65.7123 21.0898 65.6288V65.296C21.0904 65.2077 21.1006 65.1197 21.1202 65.0336C21.1375 64.9588 21.1622 64.886 21.1938 64.816L24.101 58.3984H30.877L29.8354 64.4096C29.8288 64.4444 29.8261 64.4798 29.8274 64.5152C29.8305 64.6374 29.8746 64.755 29.9527 64.8491C30.0308 64.9431 30.1383 65.0081 30.2578 65.0336C30.2952 65.0415 30.3333 65.0452 30.3714 65.0448H33.3378C33.3757 65.0446 33.4133 65.0519 33.4483 65.0663C33.4833 65.0807 33.5152 65.1019 33.542 65.1287C33.5687 65.1555 33.59 65.1873 33.6044 65.2224C33.6188 65.2574 33.6261 65.295 33.6258 65.3328Z" fill="white"/>
<path d="M20.8171 64.8192L23.7179 58.3984H24.1003L21.1995 64.8192C21.132 64.9702 21.0971 65.1338 21.0971 65.2992V65.632C21.0992 65.7155 21.1339 65.7949 21.1936 65.8532C21.2534 65.9114 21.3336 65.9441 21.4171 65.944H21.0331C20.9496 65.9441 20.8694 65.9114 20.8096 65.8532C20.7499 65.7949 20.7152 65.7155 20.7131 65.632V65.2992C20.7128 65.1336 20.7483 64.9699 20.8171 64.8192Z" fill="white"/>
<path opacity="0.3" d="M24.103 58.3984H30.879L30.6134 59.9328H23.4102L24.103 58.3984Z" fill="black"/>
<path d="M42.6316 59.0751H13.7228C13.4351 59.0699 13.1593 58.9594 12.9475 58.7645C12.7358 58.5696 12.6029 58.3038 12.574 58.0175L10.7452 37.1279C10.7315 36.9939 10.7462 36.8585 10.7882 36.7305C10.8303 36.6025 10.8989 36.4848 10.9894 36.3851C11.08 36.2853 11.1905 36.2057 11.3138 36.1515C11.4371 36.0973 11.5705 36.0696 11.7052 36.0703H40.6188C40.9066 36.0752 41.1827 36.1856 41.3944 36.3805C41.6062 36.5755 41.739 36.8415 41.7676 37.1279L43.5964 58.0175C43.6102 58.1519 43.5954 58.2878 43.553 58.4161C43.5107 58.5444 43.4417 58.6623 43.3506 58.7622C43.2595 58.862 43.1484 58.9415 43.0245 58.9954C42.9006 59.0493 42.7667 59.0765 42.6316 59.0751Z" fill="white"/>
<path d="M43.3994 55.7578L43.5978 58.017C43.6115 58.151 43.5968 58.2864 43.5547 58.4144C43.5126 58.5424 43.4441 58.6601 43.3536 58.7599C43.263 58.8596 43.1525 58.9392 43.0292 58.9934C42.9058 59.0476 42.7725 59.0753 42.6378 59.0746H13.7242C13.4363 59.0698 13.1603 58.9594 12.9485 58.7644C12.7367 58.5694 12.6039 58.3035 12.5754 58.017L12.377 55.7578H43.3994Z" fill="#C8EBBB"/>
<path opacity="0.3" d="M43.3994 55.7578L43.5978 58.017C43.6115 58.151 43.5968 58.2864 43.5547 58.4144C43.5126 58.5424 43.4441 58.6601 43.3536 58.7599C43.263 58.8596 43.1525 58.9392 43.0292 58.9934C42.9058 59.0476 42.7725 59.0753 42.6378 59.0746H13.7242C13.4363 59.0698 13.1603 58.9594 12.9485 58.7644C12.7367 58.5694 12.6039 58.3035 12.5754 58.017L12.377 55.7578" fill="white"/>
<path d="M13.3953 55.1199H42.2657C42.339 55.1213 42.4119 55.107 42.4793 55.078C42.5467 55.049 42.6072 55.0059 42.6567 54.9517C42.7062 54.8975 42.7436 54.8334 42.7664 54.7637C42.7892 54.6939 42.7968 54.6201 42.7889 54.5471L41.2769 37.2799C41.2605 37.1248 41.1881 36.981 41.0732 36.8755C40.9583 36.77 40.8088 36.7102 40.6529 36.7071H11.7841C11.7107 36.7058 11.6379 36.7201 11.5704 36.7491C11.503 36.7781 11.4425 36.8211 11.393 36.8753C11.3435 36.9295 11.3061 36.9936 11.2834 37.0634C11.2606 37.1331 11.2529 37.207 11.2609 37.2799L12.7713 54.5455C12.7872 54.7009 12.8595 54.8451 12.9745 54.9509C13.0894 55.0567 13.2391 55.1168 13.3953 55.1199Z" fill="#C8EBBB"/>
<path opacity="0.6" d="M13.3953 55.1199H42.2657C42.339 55.1213 42.4119 55.107 42.4793 55.078C42.5467 55.049 42.6072 55.0059 42.6567 54.9517C42.7062 54.8975 42.7436 54.8334 42.7664 54.7637C42.7892 54.6939 42.7968 54.6201 42.7889 54.5471L41.2769 37.2799C41.2605 37.1248 41.1881 36.981 41.0732 36.8755C40.9583 36.77 40.8088 36.7102 40.6529 36.7071H11.7841C11.7107 36.7058 11.6379 36.7201 11.5704 36.7491C11.503 36.7781 11.4425 36.8211 11.393 36.8753C11.3435 36.9295 11.3061 36.9936 11.2834 37.0634C11.2606 37.1331 11.2529 37.207 11.2609 37.2799L12.7713 54.5455C12.7872 54.7009 12.8595 54.8451 12.9745 54.9509C13.0894 55.0567 13.2391 55.1168 13.3953 55.1199Z" fill="white"/>
<path d="M11.0713 36.0704H11.7113C11.5766 36.0697 11.4433 36.0973 11.3199 36.1516C11.1966 36.2058 11.0861 36.2854 10.9955 36.3851C10.905 36.4849 10.8365 36.6026 10.7944 36.7306C10.7523 36.8585 10.7376 36.9939 10.7513 37.128L12.5737 58.0175C12.6023 58.304 12.7351 58.57 12.9469 58.7649C13.1587 58.9599 13.4347 59.0703 13.7225 59.0752H13.0825C12.7949 59.0696 12.5193 58.959 12.3076 58.7641C12.096 58.5693 11.963 58.3037 11.9337 58.0175L10.1065 37.128C10.0928 36.9935 10.1076 36.8577 10.1499 36.7294C10.1923 36.6011 10.2613 36.4831 10.3523 36.3833C10.4434 36.2835 10.5545 36.204 10.6784 36.1501C10.8023 36.0961 10.9362 36.069 11.0713 36.0704Z" fill="#C8EBBB"/>
<path opacity="0.3" d="M11.0713 36.0704H11.7113C11.5766 36.0697 11.4433 36.0973 11.3199 36.1516C11.1966 36.2058 11.0861 36.2854 10.9955 36.3851C10.905 36.4849 10.8365 36.6026 10.7944 36.7306C10.7523 36.8585 10.7376 36.9939 10.7513 37.128L12.5737 58.0175C12.6023 58.304 12.7351 58.57 12.9469 58.7649C13.1587 58.9599 13.4347 59.0703 13.7225 59.0752H13.0825C12.7949 59.0696 12.5193 58.959 12.3076 58.7641C12.096 58.5693 11.963 58.3037 11.9337 58.0175L10.1065 37.128C10.0928 36.9935 10.1076 36.8577 10.1499 36.7294C10.1923 36.6011 10.2613 36.4831 10.3523 36.3833C10.4434 36.2835 10.5545 36.204 10.6784 36.1501C10.8023 36.0961 10.9362 36.069 11.0713 36.0704Z" fill="white"/>
<path d="M32.8214 40.128C32.8244 40.3294 32.7869 40.5293 32.711 40.7158C32.6351 40.9023 32.5224 41.0716 32.3797 41.2136C32.2369 41.3556 32.067 41.4674 31.8801 41.5423C31.6932 41.6173 31.4931 41.6537 31.2918 41.6496H22.5974C22.1428 41.6414 21.707 41.4669 21.3723 41.1591C21.0377 40.8513 20.8275 40.4316 20.7814 39.9792C20.7814 39.9296 20.7814 39.8784 20.7814 39.8304C20.7788 39.6292 20.8166 39.4295 20.8927 39.2432C20.9687 39.0569 21.0814 38.8878 21.2241 38.7459C21.3668 38.6039 21.5365 38.4921 21.7232 38.4171C21.9099 38.342 22.1098 38.3052 22.311 38.3088H31.0054C31.4601 38.3167 31.8961 38.4911 32.2308 38.799C32.5655 39.1068 32.7756 39.5268 32.8214 39.9792C32.8198 40.0288 32.8214 40.0784 32.8214 40.128Z" fill="#C8EBBB"/>
<g opacity="0.1">
<path d="M32.461 40.128C32.4639 40.3293 32.4262 40.5291 32.3502 40.7155C32.2742 40.9019 32.1615 41.0712 32.0188 41.2131C31.8761 41.3551 31.7063 41.4669 31.5195 41.5419C31.3327 41.6169 31.1327 41.6535 30.9314 41.6496H22.5954C22.1408 41.6414 21.705 41.4669 21.3704 41.1591C21.0358 40.8513 20.8255 40.4316 20.7794 39.9792C20.7794 39.9296 20.7794 39.8784 20.7794 39.8304C20.7768 39.6292 20.8147 39.4295 20.8907 39.2432C20.9668 39.0569 21.0795 38.8878 21.2221 38.7459C21.3648 38.6039 21.5345 38.4921 21.7212 38.4171C21.9079 38.342 22.1078 38.3052 22.309 38.3088H30.645C31.0997 38.3167 31.5357 38.4911 31.8704 38.799C32.2051 39.1068 32.4153 39.5268 32.461 39.9792C32.4594 40.0288 32.461 40.0784 32.461 40.128Z" fill="white"/>
</g>
<path d="M21.7494 48.131L21.767 48.3406H21.607L21.5894 48.1326C21.4172 48.1271 21.2504 48.0715 21.1094 47.9726L21.1782 47.7822C21.2922 47.8637 21.4258 47.9134 21.5654 47.9262L21.5318 47.5502C21.319 47.499 21.0902 47.4318 21.0678 47.171C21.0518 46.9806 21.175 46.8142 21.4646 46.7854L21.447 46.5742H21.607L21.6246 46.7822C21.762 46.7877 21.8961 46.8267 22.015 46.8958L21.9558 47.0862C21.8572 47.0306 21.7483 46.9957 21.6358 46.9838L21.6694 47.363C21.8822 47.4142 22.1142 47.4798 22.1382 47.739C22.167 47.9358 22.0406 48.1006 21.7494 48.131ZM21.5254 47.331L21.4966 46.9982C21.3654 47.019 21.3142 47.0862 21.3222 47.1678C21.3302 47.2494 21.4134 47.2958 21.5254 47.3278V47.331ZM21.911 47.7646C21.903 47.6734 21.8166 47.6302 21.7014 47.6046L21.7318 47.9358C21.8662 47.9054 21.9206 47.8398 21.911 47.7614V47.7646Z" fill="#C8EBBB"/>
<path d="M23.247 47.7151C23.2678 47.9455 23.1174 48.1359 22.767 48.1359C22.5863 48.1385 22.4092 48.0854 22.2598 47.9839L22.3462 47.7951C22.4618 47.8795 22.6014 47.9249 22.7446 47.9247C22.919 47.9247 23.015 47.8479 23.0038 47.7231C22.9926 47.5983 22.9062 47.5199 22.6342 47.5199H22.3142V46.8047H23.0838L23.103 47.0095H22.5382V47.3135H22.663C23.0566 47.3135 23.2262 47.4815 23.247 47.7151Z" fill="white"/>
<path d="M23.3677 47.4588C23.3293 47.0284 23.5437 46.7852 23.8557 46.7852C24.1677 46.7852 24.4269 47.0284 24.4637 47.4588C24.5005 47.8892 24.2861 48.134 23.9741 48.134C23.6621 48.134 23.4045 47.8908 23.3677 47.4588ZM24.2189 47.4588C24.1901 47.1388 24.0589 46.9964 23.8733 46.9964C23.6877 46.9964 23.5853 47.142 23.6125 47.4588C23.6397 47.7756 23.7725 47.9228 23.9549 47.9228C24.1373 47.9228 24.2461 47.7756 24.2189 47.4588Z" fill="#C8EBBB"/>
<path d="M24.6373 47.4588C24.5989 47.0284 24.8133 46.7852 25.1253 46.7852C25.4373 46.7852 25.6965 47.0284 25.7333 47.4588C25.7701 47.8892 25.5557 48.134 25.2437 48.134C24.9317 48.134 24.6661 47.8908 24.6373 47.4588ZM25.4885 47.4588C25.4597 47.1388 25.3285 46.9964 25.1445 46.9964C24.9605 46.9964 24.8549 47.142 24.8821 47.4588C24.9093 47.7756 25.0421 47.9228 25.2245 47.9228C25.4069 47.9228 25.5077 47.7756 25.4805 47.4588H25.4885Z" fill="white"/>
<path d="M25.8909 47.4588C25.8525 47.0284 26.0669 46.7852 26.3709 46.7852C26.6749 46.7852 26.9421 47.0284 26.9789 47.4588C27.0157 47.8892 26.8013 48.134 26.4893 48.134C26.1773 48.134 25.9277 47.8908 25.8909 47.4588ZM26.7421 47.4588C26.7133 47.1388 26.5821 46.9964 26.3981 46.9964C26.2141 46.9964 26.1085 47.142 26.1357 47.4588C26.1629 47.7756 26.2957 47.9228 26.4781 47.9228C26.6605 47.9228 26.7693 47.7756 26.7421 47.4588Z" fill="#C8EBBB"/>
<path d="M27.4766 47.9746C27.4792 48.0294 27.4693 48.0841 27.4478 48.1346L27.3758 48.3986H27.2158L27.2654 48.1122C27.2371 48.101 27.2126 48.082 27.1947 48.0573C27.1769 48.0326 27.1664 48.0034 27.1646 47.973C27.1607 47.9529 27.1614 47.9322 27.1667 47.9125C27.172 47.8927 27.1817 47.8744 27.1951 47.859C27.2085 47.8436 27.2253 47.8314 27.2441 47.8234C27.263 47.8155 27.2834 47.8119 27.3038 47.813C27.326 47.8112 27.3483 47.8141 27.3694 47.8214C27.3904 47.8288 27.4096 47.8404 27.4259 47.8556C27.4422 47.8708 27.4551 47.8893 27.4638 47.9098C27.4725 47.9303 27.4769 47.9523 27.4766 47.9746Z" fill="white"/>
<path d="M27.565 47.4588C27.5266 47.0284 27.741 46.7852 28.053 46.7852C28.365 46.7852 28.6242 47.0284 28.661 47.4588C28.6978 47.8892 28.4834 48.134 28.1714 48.134C27.8594 48.134 27.6018 47.8908 27.565 47.4588ZM28.4162 47.4588C28.3874 47.1388 28.2562 46.9964 28.0722 46.9964C27.8882 46.9964 27.7826 47.142 27.8098 47.4588C27.837 47.7756 27.9698 47.9228 28.1522 47.9228C28.3346 47.9228 28.4434 47.7756 28.4162 47.4588Z" fill="#C8EBBB"/>
<path d="M28.8286 47.4588C28.7902 47.0284 29.0062 46.7852 29.3166 46.7852C29.627 46.7852 29.8878 47.0284 29.9246 47.4588C29.9614 47.8892 29.7486 48.134 29.435 48.134C29.1214 48.134 28.8654 47.8908 28.8286 47.4588ZM29.6798 47.4588C29.651 47.1388 29.5198 46.9964 29.3358 46.9964C29.1518 46.9964 29.0462 47.142 29.0734 47.4588C29.1006 47.7756 29.2334 47.9228 29.4158 47.9228C29.5982 47.9228 29.707 47.7756 29.6798 47.4588Z" fill="white"/>
<path d="M30.7006 47.5455L30.635 46.8047H30.8782L30.9422 47.5359C30.9662 47.8063 31.1022 47.9231 31.3102 47.9231C31.5182 47.9231 31.6302 47.8063 31.6078 47.5359L31.5438 46.8047H31.7838L31.8494 47.5455C31.883 47.9279 31.6894 48.1359 31.3278 48.1359C31.2471 48.1416 31.166 48.1306 31.0898 48.1035C31.0135 48.0763 30.9437 48.0337 30.8848 47.9782C30.8259 47.9227 30.7791 47.8556 30.7474 47.7811C30.7157 47.7067 30.6997 47.6264 30.7006 47.5455Z" fill="#C8EBBB"/>
<path d="M32.1174 47.9772L32.1862 47.7868C32.316 47.8799 32.4713 47.9307 32.631 47.9324C32.8358 47.9324 32.9158 47.8588 32.9062 47.7612C32.8822 47.478 32.119 47.6636 32.0758 47.1756C32.0566 46.9644 32.2102 46.7852 32.5702 46.7852C32.7266 46.7832 32.8807 46.823 33.0166 46.9004L32.9574 47.0908C32.8444 47.0254 32.7167 46.9897 32.5862 46.9868C32.383 46.9868 32.3078 47.0652 32.3174 47.1644C32.3414 47.4444 33.103 47.262 33.1446 47.7436C33.1638 47.9548 33.0086 48.134 32.6486 48.134C32.4596 48.138 32.274 48.0832 32.1174 47.9772Z" fill="white"/>
<path d="M33.3064 46.8027H33.8792C34.0685 46.7889 34.2556 46.8499 34.4004 46.9725C34.5452 47.0952 34.6361 47.2697 34.6536 47.4587C34.6872 47.8523 34.42 48.1163 33.9944 48.1163H33.42L33.3064 46.8027ZM33.9656 47.9099C34.0262 47.9174 34.0878 47.9109 34.1455 47.8907C34.2032 47.8706 34.2554 47.8374 34.2982 47.7937C34.3409 47.75 34.373 47.6971 34.3919 47.639C34.4108 47.5809 34.416 47.5192 34.4072 47.4587C34.4034 47.3946 34.3867 47.3319 34.3583 47.2744C34.3298 47.2168 34.2901 47.1656 34.2414 47.1236C34.1928 47.0817 34.1362 47.05 34.0751 47.0303C34.014 47.0106 33.9496 47.0034 33.8856 47.0091H33.5656L33.644 47.9099H33.9656Z" fill="#C8EBBB"/>
<path d="M34.8205 47.9727C34.8169 47.9525 34.8178 47.9318 34.8233 47.912C34.8288 47.8923 34.8387 47.874 34.8523 47.8587C34.8658 47.8433 34.8826 47.8311 34.9015 47.8232C34.9204 47.8152 34.9409 47.8116 34.9613 47.8127C35.0038 47.8127 35.0445 47.8295 35.0745 47.8595C35.1045 47.8895 35.1213 47.9302 35.1213 47.9727C35.1246 47.9927 35.1235 48.0131 35.118 48.0326C35.1124 48.0521 35.1027 48.0702 35.0894 48.0854C35.0761 48.1007 35.0596 48.1129 35.041 48.121C35.0225 48.1292 35.0024 48.1332 34.9821 48.1327C34.9402 48.1308 34.9004 48.1133 34.8705 48.0838C34.8407 48.0542 34.8229 48.0146 34.8205 47.9727Z" fill="white"/>
<g opacity="0.2">
<path d="M24.4758 39.375L24.1974 40.5206H23.9718L23.6134 39.6726L23.4006 40.5206H23.1734L22.6934 39.375H22.9142L23.2742 40.2454L23.495 39.375H23.6918L24.0566 40.2518L24.2742 39.375H24.4758Z" fill="white"/>
<path d="M24.6139 39.3813C24.6122 39.365 24.6141 39.3485 24.6195 39.333C24.6249 39.3175 24.6336 39.3034 24.6451 39.2917C24.6565 39.2799 24.6704 39.2708 24.6857 39.265C24.7011 39.2592 24.7175 39.2569 24.7339 39.2581C24.7679 39.2567 24.8013 39.268 24.8273 39.2899C24.8534 39.3118 24.8703 39.3428 24.8747 39.3765C24.8768 39.3932 24.8753 39.4101 24.8701 39.426C24.865 39.442 24.8564 39.4566 24.8449 39.4689C24.8334 39.4811 24.8194 39.4907 24.8038 39.4968C24.7882 39.503 24.7714 39.5056 24.7547 39.5045C24.72 39.5055 24.6862 39.4934 24.6601 39.4706C24.634 39.4477 24.6175 39.4158 24.6139 39.3813ZM24.6651 39.6485H24.8683L24.9451 40.5221H24.7403L24.6651 39.6485Z" fill="white"/>
<path d="M25.7348 40.4785C25.679 40.5187 25.6114 40.5389 25.5428 40.5361C25.5021 40.5394 25.4611 40.5343 25.4225 40.521C25.3839 40.5077 25.3484 40.4866 25.3184 40.4589C25.2883 40.4313 25.2643 40.3977 25.2479 40.3603C25.2314 40.323 25.2229 40.2826 25.2228 40.2417L25.186 39.8209H25.042L25.0276 39.6609H25.1716L25.154 39.4609H25.3588L25.3764 39.6609H25.61L25.6244 39.8209H25.3908L25.426 40.2369C25.425 40.2546 25.4278 40.2722 25.4342 40.2886C25.4406 40.3051 25.4503 40.32 25.4629 40.3324C25.4754 40.3448 25.4905 40.3544 25.507 40.3605C25.5235 40.3667 25.5412 40.3693 25.5588 40.3681C25.5991 40.3697 25.6386 40.3573 25.6708 40.3329L25.7348 40.4785Z" fill="white"/>
<path d="M26.7234 40.0208L26.7682 40.5216H26.5634L26.5218 40.0416C26.5074 39.8816 26.4242 39.8096 26.293 39.8096C26.1618 39.8096 26.0578 39.8992 26.0722 40.0736L26.1106 40.5152H25.9138L25.8066 39.3008H26.0114L26.0498 39.7424C26.0858 39.7045 26.1297 39.6749 26.1784 39.6559C26.227 39.6368 26.2793 39.6286 26.3314 39.632C26.3832 39.6297 26.4349 39.6382 26.4833 39.6569C26.5317 39.6757 26.5756 39.7042 26.6125 39.7407C26.6493 39.7772 26.6781 39.8209 26.6972 39.8691C26.7163 39.9173 26.7253 39.969 26.7234 40.0208Z" fill="white"/>
<path d="M27.7881 39.3086L27.8937 40.523H27.6969L27.6873 40.411C27.6548 40.453 27.6123 40.4863 27.5637 40.5078C27.5151 40.5293 27.4619 40.5384 27.4089 40.5342C27.2869 40.5345 27.1695 40.4883 27.0803 40.4051C26.9911 40.3219 26.937 40.2079 26.9289 40.0862C26.9227 40.0032 26.9419 39.9204 26.9841 39.8487C27.0263 39.777 27.0894 39.7199 27.165 39.6851C27.2405 39.6503 27.3249 39.6394 27.4068 39.6539C27.4887 39.6684 27.5643 39.7076 27.6233 39.7662L27.5849 39.3166L27.7881 39.3086ZM27.6537 40.0862C27.6512 40.0128 27.6203 39.9432 27.5674 39.8921C27.5146 39.8411 27.444 39.8126 27.3705 39.8126C27.3358 39.8113 27.3012 39.8178 27.2694 39.8317C27.2375 39.8455 27.2092 39.8664 27.1865 39.8926C27.1637 39.9189 27.1472 39.9499 27.1381 39.9834C27.1289 40.0169 27.1274 40.052 27.1337 40.0862C27.1362 40.1599 27.1673 40.2297 27.2205 40.2808C27.2737 40.3319 27.3447 40.3603 27.4185 40.3598C27.4532 40.3614 27.4879 40.3552 27.5198 40.3414C27.5518 40.3276 27.5802 40.3068 27.6029 40.2804C27.6255 40.254 27.6419 40.2228 27.6507 40.1892C27.6595 40.1555 27.6605 40.1203 27.6537 40.0862Z" fill="white"/>
<path d="M28.5904 39.6395L28.6064 39.8347C28.5904 39.8334 28.5743 39.8334 28.5584 39.8347C28.3984 39.8347 28.3136 39.9275 28.328 40.1051L28.3664 40.5291H28.1552L28.0784 39.6555H28.2736L28.2848 39.7835C28.3164 39.7326 28.362 39.6919 28.4163 39.6663C28.4705 39.6408 28.531 39.6315 28.5904 39.6395Z" fill="white"/>
<path d="M29.5212 40.0112L29.566 40.5232H29.374L29.3644 40.4176C29.3347 40.4591 29.2943 40.4918 29.2476 40.5124C29.2009 40.5329 29.1495 40.5405 29.0988 40.5344C29.0188 40.5425 28.9386 40.5202 28.8742 40.4719C28.8099 40.4236 28.7661 40.3528 28.7516 40.2736C28.7388 40.128 28.8268 40.0128 29.0908 40.0128H29.318V40C29.3068 39.88 29.2284 39.8096 29.0828 39.8096C28.9901 39.808 28.8996 39.8385 28.8268 39.896L28.7324 39.7472C28.8376 39.672 28.9649 39.6343 29.094 39.64C29.1471 39.633 29.201 39.6373 29.2523 39.6527C29.3035 39.6681 29.3509 39.6942 29.3913 39.7293C29.4317 39.7644 29.4642 39.8077 29.4866 39.8563C29.509 39.9049 29.5208 39.9577 29.5212 40.0112ZM29.3388 40.2496L29.3292 40.1488H29.1148C28.9756 40.1488 28.942 40.2016 28.9548 40.2656C28.9676 40.3296 29.0268 40.3856 29.1324 40.3856C29.177 40.389 29.2215 40.3776 29.2589 40.3529C29.2963 40.3283 29.3244 40.292 29.3388 40.2496Z" fill="white"/>
<path d="M31.1006 39.6484L30.8542 40.522H30.6574L30.379 39.9204L30.203 40.522H30.0062L29.6094 39.6484H29.803L30.0894 40.2884L30.2734 39.6484H30.4462L30.739 40.2964L30.9182 39.6484H31.1006Z" fill="white"/>
</g>
<path d="M22.025 45.373L22.065 45.8354H21.8218L21.7802 45.3762L21.1914 44.5234H21.4506L21.8922 45.1634L22.2234 44.5234H22.4634L22.025 45.373Z" fill="#C8EBBB"/>
<path d="M22.4784 45.3333C22.4698 45.2667 22.4759 45.1991 22.4965 45.1352C22.5171 45.0714 22.5516 45.0129 22.5975 44.9639C22.6434 44.915 22.6996 44.8768 22.762 44.8521C22.8244 44.8275 22.8914 44.8169 22.9584 44.8213C23.1023 44.8154 23.243 44.8654 23.3509 44.9608C23.4589 45.0562 23.5257 45.1897 23.5376 45.3333C23.5465 45.3999 23.5405 45.4677 23.52 45.5318C23.4995 45.5958 23.4651 45.6546 23.4192 45.7037C23.3733 45.7528 23.317 45.7912 23.2545 45.8159C23.192 45.8407 23.1247 45.8512 23.0576 45.8469C22.9135 45.8523 22.7729 45.8019 22.665 45.7063C22.5571 45.6106 22.4902 45.477 22.4784 45.3333ZM23.3088 45.3333C23.3067 45.2498 23.2721 45.1704 23.2123 45.1121C23.1525 45.0539 23.0723 45.0212 22.9888 45.0213C22.9493 45.0199 22.91 45.0274 22.8738 45.0432C22.8376 45.0591 22.8054 45.0828 22.7796 45.1128C22.7538 45.1427 22.735 45.1781 22.7247 45.2162C22.7144 45.2544 22.7128 45.2944 22.72 45.3333C22.72 45.4181 22.7537 45.4995 22.8137 45.5595C22.8737 45.6195 22.9551 45.6533 23.04 45.6533C23.0803 45.6549 23.1205 45.6473 23.1574 45.631C23.1943 45.6147 23.227 45.5902 23.253 45.5593C23.279 45.5284 23.2975 45.4919 23.3072 45.4528C23.3168 45.4136 23.3174 45.3727 23.3088 45.3333Z" fill="white"/>
<path d="M24.6944 44.832L24.7824 45.8336H24.5584L24.5472 45.7072C24.5101 45.7533 24.4627 45.7899 24.4087 45.8141C24.3548 45.8383 24.2959 45.8494 24.2368 45.8464C24.1764 45.8509 24.1157 45.8427 24.0587 45.8224C24.0016 45.8022 23.9493 45.7703 23.9053 45.7288C23.8612 45.6872 23.8262 45.637 23.8026 45.5812C23.7789 45.5255 23.7672 45.4654 23.768 45.4048L23.7168 44.832H23.952L23.9984 45.3728C24.0144 45.5552 24.1088 45.64 24.256 45.64C24.4032 45.64 24.5216 45.5392 24.504 45.3392L24.4592 44.832H24.6944Z" fill="#C8EBBB"/>
<path d="M25.5815 44.8228L25.6007 45.0468C25.5826 45.0447 25.5644 45.0447 25.5463 45.0468C25.3687 45.0468 25.2647 45.1524 25.2823 45.3572L25.3255 45.8372H25.0903L25.0039 44.8356H25.2263L25.2391 44.9828C25.2756 44.9269 25.327 44.8823 25.3875 44.854C25.448 44.8257 25.5152 44.8149 25.5815 44.8228Z" fill="white"/>
<path d="M26.3066 44.5234H26.5498L26.665 45.8354H26.4202L26.3066 44.5234Z" fill="#C8EBBB"/>
<path d="M27.9322 45.2612L27.9834 45.834H27.7482L27.7002 45.29C27.6858 45.1124 27.5898 45.026 27.4394 45.026C27.289 45.026 27.169 45.1268 27.1866 45.3284L27.2314 45.834H26.9962L26.9082 44.8324H27.1322L27.1434 44.962C27.184 44.9142 27.2353 44.8765 27.2931 44.8521C27.3509 44.8276 27.4136 44.817 27.4762 44.8212C27.5355 44.8181 27.5949 44.8273 27.6505 44.8481C27.7062 44.8689 27.757 44.9009 27.7997 44.9422C27.8425 44.9834 27.8763 45.0331 27.8991 45.0879C27.9219 45.1428 27.9332 45.2018 27.9322 45.2612Z" fill="#C8EBBB"/>
<path d="M28.1576 45.3342C28.1494 45.2663 28.1566 45.1973 28.1785 45.1325C28.2004 45.0677 28.2365 45.0086 28.2842 44.9595C28.3319 44.9104 28.39 44.8726 28.4541 44.8488C28.5183 44.8251 28.587 44.816 28.6552 44.8222C28.7439 44.8176 28.8322 44.8368 28.911 44.8779C28.9898 44.919 29.0561 44.9804 29.1032 45.0558L28.932 45.1598C28.9027 45.1176 28.8637 45.0831 28.8184 45.0592C28.773 45.0352 28.7225 45.0225 28.6712 45.0222C28.6311 45.0199 28.591 45.0267 28.5539 45.0421C28.5169 45.0575 28.4838 45.0811 28.4571 45.1111C28.4305 45.1411 28.411 45.1768 28.4001 45.2154C28.3893 45.2541 28.3873 45.2947 28.3944 45.3342C28.3943 45.3772 28.403 45.4197 28.4198 45.4593C28.4365 45.4989 28.4611 45.5347 28.492 45.5645C28.5229 45.5944 28.5595 45.6177 28.5997 45.6331C28.6398 45.6485 28.6826 45.6557 28.7256 45.6542C28.7742 45.6561 28.8224 45.644 28.8644 45.6193C28.9063 45.5946 28.9404 45.5584 28.9624 45.515L29.1512 45.6206C29.1157 45.6966 29.0576 45.7598 28.9849 45.8016C28.9121 45.8434 28.8283 45.8618 28.7448 45.8542C28.5986 45.8605 28.4557 45.8098 28.3462 45.7128C28.2367 45.6158 28.169 45.4801 28.1576 45.3342Z" fill="#C8EBBB"/>
<path d="M29.2363 45.3337C29.2278 45.2665 29.2343 45.1983 29.2555 45.1339C29.2766 45.0696 29.3118 45.0107 29.3586 44.9617C29.4053 44.9127 29.4624 44.8747 29.5256 44.8504C29.5889 44.8262 29.6568 44.8164 29.7243 44.8217C29.868 44.8166 30.0082 44.8669 30.116 44.9622C30.2238 45.0575 30.2909 45.1904 30.3035 45.3337C30.3123 45.4012 30.3059 45.4698 30.2848 45.5344C30.2637 45.5991 30.2284 45.6582 30.1814 45.7075C30.1345 45.7567 30.0771 45.7948 30.0135 45.819C29.9499 45.8432 29.8817 45.8529 29.8139 45.8473C29.6702 45.8519 29.5301 45.8012 29.4227 45.7057C29.3152 45.6101 29.2485 45.477 29.2363 45.3337ZM30.0667 45.3337C30.0646 45.2502 30.03 45.1709 29.9702 45.1126C29.9104 45.0543 29.8302 45.0217 29.7467 45.0217C29.7071 45.02 29.6676 45.0273 29.6313 45.0431C29.5949 45.0588 29.5626 45.0826 29.5367 45.1126C29.5109 45.1426 29.4921 45.1781 29.4819 45.2164C29.4717 45.2547 29.4704 45.2948 29.4779 45.3337C29.4779 45.4186 29.5116 45.5 29.5716 45.56C29.6316 45.62 29.713 45.6537 29.7979 45.6537C29.8383 45.6557 29.8786 45.6483 29.9157 45.6321C29.9528 45.6159 29.9857 45.5914 30.0117 45.5604C30.0377 45.5294 30.0562 45.4928 30.0658 45.4535C30.0753 45.4142 30.0756 45.3732 30.0667 45.3337Z" fill="white"/>
<path d="M32.1987 45.2611L32.2499 45.8339H32.0147L31.9667 45.2899C31.9523 45.1123 31.8611 45.0259 31.7187 45.0259C31.5763 45.0259 31.4675 45.1267 31.4851 45.3267L31.5299 45.8339H31.2947L31.2483 45.2899C31.2323 45.1123 31.1411 45.0259 30.9987 45.0259C30.8563 45.0259 30.7475 45.1267 30.7651 45.3267L30.8099 45.8339H30.5747L30.4883 44.8323H30.7187L30.7299 44.9603C30.7683 44.9133 30.8173 44.8761 30.873 44.8519C30.9287 44.8277 30.9893 44.8172 31.0499 44.8211C31.1179 44.8175 31.1858 44.831 31.2473 44.8603C31.3087 44.8897 31.3619 44.934 31.4019 44.9891C31.4604 44.9171 31.5396 44.8646 31.6288 44.8388C31.718 44.8129 31.813 44.8149 31.901 44.8445C31.989 44.8741 32.0659 44.9298 32.1214 45.0042C32.1769 45.0787 32.2083 45.1683 32.2115 45.2611H32.1987Z" fill="#C8EBBB"/>
<path d="M33.458 45.4076H32.6724C32.6941 45.481 32.7402 45.5448 32.803 45.5884C32.8659 45.632 32.9417 45.6529 33.018 45.6476C33.0672 45.6509 33.1165 45.6428 33.162 45.6239C33.2075 45.6051 33.248 45.5759 33.2804 45.5388L33.4196 45.6828C33.3718 45.738 33.3118 45.7812 33.2443 45.809C33.1767 45.8368 33.1036 45.8484 33.0308 45.8428C32.8837 45.8526 32.7386 45.8042 32.6268 45.7082C32.5149 45.6122 32.4451 45.4761 32.4324 45.3292C32.4231 45.2632 32.4285 45.196 32.4483 45.1323C32.4681 45.0687 32.5018 45.0103 32.547 44.9613C32.5922 44.9123 32.6477 44.8739 32.7095 44.849C32.7713 44.8241 32.8379 44.8132 32.9044 44.8172C33.0459 44.8146 33.1828 44.8673 33.2859 44.9641C33.389 45.061 33.4502 45.1943 33.4564 45.3356C33.458 45.358 33.458 45.3852 33.458 45.4076ZM32.658 45.2476H33.226C33.2118 45.1776 33.1733 45.1149 33.1175 45.0704C33.0616 45.026 32.9918 45.0026 32.9204 45.0044C32.8867 45.0024 32.8529 45.0074 32.8211 45.019C32.7893 45.0306 32.7603 45.0485 32.7357 45.0718C32.7111 45.095 32.6916 45.123 32.6782 45.1541C32.6648 45.1851 32.658 45.2186 32.658 45.2524V45.2476Z" fill="white"/>
<g opacity="0.1">
<path d="M23.6864 36.7109H22.5744L18.6624 55.1221H19.7728L23.6864 36.7109Z" fill="white"/>
<path d="M17.54 55.1221L21.4536 36.7109H17.2808L13.3672 55.1221H17.54Z" fill="white"/>
</g>
<path opacity="0.2" d="M23.1602 65.3399V65.6455C23.1602 65.7252 23.1918 65.8017 23.2483 65.8582C23.3047 65.9146 23.3812 65.9463 23.461 65.9463H33.341C33.4171 65.9458 33.4899 65.9153 33.5436 65.8613C33.5972 65.8074 33.6274 65.7344 33.6274 65.6583V65.3383C33.6274 65.2622 33.5972 65.1891 33.5436 65.1352C33.4899 65.0812 33.4171 65.0507 33.341 65.0503H30.373C30.3359 65.0507 30.2988 65.0469 30.2626 65.0391H23.461C23.3812 65.0391 23.3047 65.0708 23.2483 65.1272C23.1918 65.1836 23.1602 65.2601 23.1602 65.3399Z" fill="white"/>
<path opacity="0.2" d="M21.1289 65.0379H30.2633C30.1433 65.013 30.0353 64.9482 29.9569 64.8541C29.8784 64.76 29.8342 64.642 29.8313 64.5195H21.3625L21.1289 65.0379Z" fill="white"/>
<path d="M32.5741 42.19H31.1309L31.6301 40.918L32.5741 42.19Z" fill="white"/>
<path d="M32.1911 43.0591H31.8535L31.5527 41.3359H31.8887L32.1911 43.0591Z" fill="white"/>
<path d="M21.0999 65.2976V65.6304C21.1019 65.7139 21.1366 65.7933 21.1964 65.8516C21.2561 65.9098 21.3364 65.9425 21.4199 65.9424H33.3478C33.3857 65.9424 33.4231 65.935 33.4581 65.9205C33.493 65.906 33.5248 65.8848 33.5515 65.8581C33.5782 65.8313 33.5995 65.7996 33.6139 65.7646C33.6284 65.7297 33.6359 65.6923 33.6359 65.6544V65.3344C33.6359 65.2966 33.6284 65.2592 33.6139 65.2242C33.5995 65.1893 33.5782 65.1575 33.5515 65.1308C33.5248 65.104 33.493 65.0828 33.4581 65.0684C33.4231 65.0539 33.3857 65.0464 33.3478 65.0464H30.3735C30.2939 65.0466 30.2153 65.0292 30.1432 64.9955C30.0711 64.9619 30.0073 64.9128 29.9563 64.8517C29.9053 64.7906 29.8683 64.7191 29.8481 64.6421C29.8278 64.5652 29.8247 64.4847 29.8391 64.4064L30.8791 58.3984H24.1031L21.2023 64.8192C21.1349 64.9697 21.1 65.1327 21.0999 65.2976Z" fill="#65C541"/>
<path opacity="0.2" d="M33.6258 65.3328V65.6528C33.6261 65.6906 33.6188 65.728 33.6045 65.7629C33.5902 65.7979 33.5691 65.8296 33.5425 65.8564C33.5159 65.8831 33.4843 65.9044 33.4494 65.9189C33.4146 65.9334 33.3772 65.9408 33.3394 65.9408H21.4098C21.3263 65.9409 21.2461 65.9082 21.1864 65.85C21.1266 65.7917 21.0919 65.7123 21.0898 65.6288V65.296C21.0904 65.2077 21.1006 65.1197 21.1202 65.0336C21.1375 64.9588 21.1622 64.886 21.1938 64.816L24.101 58.3984H30.877L29.8354 64.4096C29.8288 64.4444 29.8261 64.4798 29.8274 64.5152C29.8305 64.6374 29.8746 64.755 29.9527 64.8491C30.0308 64.9431 30.1383 65.0081 30.2578 65.0336C30.2952 65.0415 30.3333 65.0452 30.3714 65.0448H33.3378C33.3757 65.0446 33.4133 65.0519 33.4483 65.0663C33.4833 65.0807 33.5152 65.1019 33.542 65.1287C33.5687 65.1555 33.59 65.1873 33.6044 65.2224C33.6188 65.2574 33.6261 65.295 33.6258 65.3328Z" fill="white"/>
<path d="M20.8171 64.8192L23.7179 58.3984H24.1003L21.1995 64.8192C21.132 64.9702 21.0971 65.1338 21.0971 65.2992V65.632C21.0992 65.7155 21.1339 65.7949 21.1936 65.8532C21.2534 65.9114 21.3336 65.9441 21.4171 65.944H21.0331C20.9496 65.9441 20.8694 65.9114 20.8096 65.8532C20.7499 65.7949 20.7152 65.7155 20.7131 65.632V65.2992C20.7128 65.1336 20.7483 64.9699 20.8171 64.8192Z" fill="#263238"/>
<path opacity="0.3" d="M24.103 58.3984H30.879L30.6134 59.9328H23.4102L24.103 58.3984Z" fill="white"/>
<path d="M42.6316 59.0751H13.7228C13.4351 59.0699 13.1593 58.9594 12.9475 58.7645C12.7358 58.5696 12.6029 58.3038 12.574 58.0175L10.7452 37.1279C10.7315 36.9939 10.7462 36.8585 10.7882 36.7305C10.8303 36.6025 10.8989 36.4848 10.9894 36.3851C11.08 36.2853 11.1905 36.2057 11.3138 36.1515C11.4371 36.0973 11.5705 36.0696 11.7052 36.0703H40.6188C40.9066 36.0752 41.1827 36.1856 41.3944 36.3805C41.6062 36.5755 41.739 36.8415 41.7676 37.1279L43.5964 58.0175C43.6102 58.1519 43.5954 58.2878 43.553 58.4161C43.5107 58.5444 43.4417 58.6623 43.3506 58.7622C43.2595 58.862 43.1484 58.9415 43.0245 58.9954C42.9006 59.0493 42.7667 59.0765 42.6316 59.0751Z" fill="#263238"/>
<path d="M43.3994 55.7578L43.5978 58.017C43.6115 58.151 43.5968 58.2864 43.5547 58.4144C43.5126 58.5424 43.4441 58.6601 43.3536 58.7599C43.263 58.8596 43.1525 58.9392 43.0292 58.9934C42.9058 59.0476 42.7725 59.0753 42.6378 59.0746H13.7242C13.4363 59.0698 13.1603 58.9594 12.9485 58.7644C12.7367 58.5694 12.6039 58.3035 12.5754 58.017L12.377 55.7578H43.3994Z" fill="white"/>
<path opacity="0.3" d="M43.3994 55.7578L43.5978 58.017C43.6115 58.151 43.5968 58.2864 43.5547 58.4144C43.5126 58.5424 43.4441 58.6601 43.3536 58.7599C43.263 58.8596 43.1525 58.9392 43.0292 58.9934C42.9058 59.0476 42.7725 59.0753 42.6378 59.0746H13.7242C13.4363 59.0698 13.1603 58.9594 12.9485 58.7644C12.7367 58.5694 12.6039 58.3035 12.5754 58.017L12.377 55.7578" fill="black"/>
<path d="M13.3953 55.1199H42.2657C42.339 55.1213 42.4119 55.107 42.4793 55.078C42.5467 55.049 42.6072 55.0059 42.6567 54.9517C42.7062 54.8975 42.7436 54.8334 42.7664 54.7637C42.7892 54.6939 42.7968 54.6201 42.7889 54.5471L41.2769 37.2799C41.2605 37.1248 41.1881 36.981 41.0732 36.8755C40.9583 36.77 40.8088 36.7102 40.6529 36.7071H11.7841C11.7107 36.7058 11.6379 36.7201 11.5704 36.7491C11.503 36.7781 11.4425 36.8211 11.393 36.8753C11.3435 36.9295 11.3061 36.9936 11.2834 37.0634C11.2606 37.1331 11.2529 37.207 11.2609 37.2799L12.7713 54.5455C12.7872 54.7009 12.8595 54.8451 12.9745 54.9509C13.0894 55.0567 13.2391 55.1168 13.3953 55.1199Z" fill="#C8EBBB"/>
<path opacity="0.6" d="M13.3953 55.1199H42.2657C42.339 55.1213 42.4119 55.107 42.4793 55.078C42.5467 55.049 42.6072 55.0059 42.6567 54.9517C42.7062 54.8975 42.7436 54.8334 42.7664 54.7637C42.7892 54.6939 42.7968 54.6201 42.7889 54.5471L41.2769 37.2799C41.2605 37.1248 41.1881 36.981 41.0732 36.8755C40.9583 36.77 40.8088 36.7102 40.6529 36.7071H11.7841C11.7107 36.7058 11.6379 36.7201 11.5704 36.7491C11.503 36.7781 11.4425 36.8211 11.393 36.8753C11.3435 36.9295 11.3061 36.9936 11.2834 37.0634C11.2606 37.1331 11.2529 37.207 11.2609 37.2799L12.7713 54.5455C12.7872 54.7009 12.8595 54.8451 12.9745 54.9509C13.0894 55.0567 13.2391 55.1168 13.3953 55.1199Z" fill="white"/>
<path d="M11.0713 36.0704H11.7113C11.5766 36.0697 11.4433 36.0973 11.3199 36.1516C11.1966 36.2058 11.0861 36.2854 10.9955 36.3851C10.905 36.4849 10.8365 36.6026 10.7944 36.7306C10.7523 36.8585 10.7376 36.9939 10.7513 37.128L12.5737 58.0175C12.6023 58.304 12.7351 58.57 12.9469 58.7649C13.1587 58.9599 13.4347 59.0703 13.7225 59.0752H13.0825C12.7949 59.0696 12.5193 58.959 12.3076 58.7641C12.096 58.5693 11.963 58.3037 11.9337 58.0175L10.1065 37.128C10.0928 36.9935 10.1076 36.8577 10.1499 36.7294C10.1923 36.6011 10.2613 36.4831 10.3523 36.3833C10.4434 36.2835 10.5545 36.204 10.6784 36.1501C10.8023 36.0961 10.9362 36.069 11.0713 36.0704Z" fill="white"/>
<path opacity="0.3" d="M11.0713 36.0704H11.7113C11.5766 36.0697 11.4433 36.0973 11.3199 36.1516C11.1966 36.2058 11.0861 36.2854 10.9955 36.3851C10.905 36.4849 10.8365 36.6026 10.7944 36.7306C10.7523 36.8585 10.7376 36.9939 10.7513 37.128L12.5737 58.0175C12.6023 58.304 12.7351 58.57 12.9469 58.7649C13.1587 58.9599 13.4347 59.0703 13.7225 59.0752H13.0825C12.7949 59.0696 12.5193 58.959 12.3076 58.7641C12.096 58.5693 11.963 58.3037 11.9337 58.0175L10.1065 37.128C10.0928 36.9935 10.1076 36.8577 10.1499 36.7294C10.1923 36.6011 10.2613 36.4831 10.3523 36.3833C10.4434 36.2835 10.5545 36.204 10.6784 36.1501C10.8023 36.0961 10.9362 36.069 11.0713 36.0704Z" fill="white"/>
<path d="M32.8214 40.128C32.8244 40.3294 32.7869 40.5293 32.711 40.7158C32.6351 40.9023 32.5224 41.0716 32.3797 41.2136C32.2369 41.3556 32.067 41.4674 31.8801 41.5423C31.6932 41.6173 31.4931 41.6537 31.2918 41.6496H22.5974C22.1428 41.6414 21.707 41.4669 21.3723 41.1591C21.0377 40.8513 20.8275 40.4316 20.7814 39.9792C20.7814 39.9296 20.7814 39.8784 20.7814 39.8304C20.7788 39.6292 20.8166 39.4295 20.8927 39.2432C20.9687 39.0569 21.0814 38.8878 21.2241 38.7459C21.3668 38.6039 21.5365 38.4921 21.7232 38.4171C21.9099 38.342 22.1098 38.3052 22.311 38.3088H31.0054C31.4601 38.3167 31.8961 38.4911 32.2308 38.799C32.5655 39.1068 32.7756 39.5268 32.8214 39.9792C32.8198 40.0288 32.8214 40.0784 32.8214 40.128Z" fill="#C8EBBB"/>
<g opacity="0.1">
<path d="M32.461 40.128C32.4639 40.3293 32.4262 40.5291 32.3502 40.7155C32.2742 40.9019 32.1615 41.0712 32.0188 41.2131C31.8761 41.3551 31.7063 41.4669 31.5195 41.5419C31.3327 41.6169 31.1327 41.6535 30.9314 41.6496H22.5954C22.1408 41.6414 21.705 41.4669 21.3704 41.1591C21.0358 40.8513 20.8255 40.4316 20.7794 39.9792C20.7794 39.9296 20.7794 39.8784 20.7794 39.8304C20.7768 39.6292 20.8147 39.4295 20.8907 39.2432C20.9668 39.0569 21.0795 38.8878 21.2221 38.7459C21.3648 38.6039 21.5345 38.4921 21.7212 38.4171C21.9079 38.342 22.1078 38.3052 22.309 38.3088H30.645C31.0997 38.3167 31.5357 38.4911 31.8704 38.799C32.2051 39.1068 32.4153 39.5268 32.461 39.9792C32.4594 40.0288 32.461 40.0784 32.461 40.128Z" fill="white"/>
</g>
<path d="M22.7413 49L22.3803 48.3704V48.222H22.5006C22.5488 48.222 22.5909 48.2153 22.627 48.202C22.6644 48.1872 22.6951 48.1665 22.7192 48.1398C22.7446 48.1131 22.762 48.081 22.7713 48.0435H22.3803V47.8952H22.7693C22.7613 47.8604 22.7473 47.8297 22.7272 47.8029C22.7085 47.7762 22.6831 47.7555 22.651 47.7408C22.6203 47.7247 22.5829 47.7167 22.5387 47.7167H22.3803V47.5683H23.2847V47.7167H22.9698C22.9926 47.7421 23.0113 47.7695 23.026 47.7989C23.042 47.8283 23.0527 47.8604 23.0581 47.8952H23.2847V48.0435H23.0621C23.0487 48.1425 23.0106 48.22 22.9478 48.2761C22.885 48.3309 22.8041 48.3684 22.7052 48.3884L23.0982 49H22.7413ZM24.5199 48.0857C24.6068 48.0857 24.6843 48.1024 24.7525 48.1358C24.8207 48.1692 24.8741 48.218 24.9129 48.2822C24.953 48.3463 24.9731 48.4259 24.9731 48.5208C24.9731 48.6237 24.9517 48.7126 24.9089 48.7875C24.8661 48.8623 24.8019 48.9198 24.7164 48.9599C24.6322 49 24.5272 49.0201 24.4016 49.0201C24.3267 49.0201 24.2559 49.0134 24.189 49C24.1235 48.9866 24.0661 48.9672 24.0166 48.9419V48.6812C24.0661 48.7066 24.1255 48.7286 24.1951 48.7474C24.2646 48.7647 24.3301 48.7734 24.3916 48.7734C24.4517 48.7734 24.5018 48.7654 24.5419 48.7494C24.5834 48.7333 24.6148 48.7086 24.6362 48.6752C24.6576 48.6417 24.6683 48.599 24.6683 48.5468C24.6683 48.476 24.6449 48.4225 24.5981 48.3864C24.5513 48.349 24.4791 48.3303 24.3815 48.3303C24.3441 48.3303 24.3053 48.3343 24.2652 48.3423C24.2251 48.349 24.1917 48.3557 24.165 48.3624L24.0447 48.2982L24.0988 47.5683H24.8748V47.825H24.3635L24.3374 48.1057C24.3601 48.1017 24.3842 48.0977 24.4096 48.0937C24.4363 48.0883 24.4731 48.0857 24.5199 48.0857ZM26.1386 48.2842C26.1386 48.3991 26.1292 48.5021 26.1105 48.593C26.0931 48.6839 26.0644 48.7614 26.0243 48.8256C25.9855 48.8884 25.9341 48.9365 25.8699 48.9699C25.8071 49.0033 25.7295 49.0201 25.6373 49.0201C25.5223 49.0201 25.4281 48.9906 25.3546 48.9318C25.281 48.873 25.2262 48.7888 25.1901 48.6792C25.1554 48.5696 25.138 48.4379 25.138 48.2842C25.138 48.1291 25.1541 47.9968 25.1861 47.8871C25.2182 47.7775 25.271 47.6933 25.3445 47.6345C25.4181 47.5757 25.5156 47.5463 25.6373 47.5463C25.7523 47.5463 25.8465 47.5757 25.92 47.6345C25.9935 47.692 26.0483 47.7762 26.0844 47.8871C26.1205 47.9968 26.1386 48.1291 26.1386 48.2842ZM25.4388 48.2842C25.4388 48.3924 25.4448 48.4833 25.4568 48.5569C25.4689 48.629 25.4889 48.6839 25.517 48.7213C25.5464 48.7574 25.5865 48.7754 25.6373 48.7754C25.6881 48.7754 25.7275 48.7574 25.7556 48.7213C25.785 48.6852 25.8057 48.6311 25.8178 48.5589C25.8311 48.4853 25.8378 48.3938 25.8378 48.2842C25.8378 48.1745 25.8311 48.0836 25.8178 48.0115C25.8057 47.9379 25.785 47.8831 25.7556 47.847C25.7275 47.8096 25.6881 47.7909 25.6373 47.7909C25.5865 47.7909 25.5464 47.8096 25.517 47.847C25.4889 47.8831 25.4689 47.9379 25.4568 48.0115C25.4448 48.0836 25.4388 48.1745 25.4388 48.2842ZM27.2861 48.2842C27.2861 48.3991 27.2767 48.5021 27.258 48.593C27.2406 48.6839 27.2119 48.7614 27.1718 48.8256C27.133 48.8884 27.0815 48.9365 27.0174 48.9699C26.9545 49.0033 26.877 49.0201 26.7848 49.0201C26.6698 49.0201 26.5756 48.9906 26.502 48.9318C26.4285 48.873 26.3737 48.7888 26.3376 48.6792C26.3029 48.5696 26.2855 48.4379 26.2855 48.2842C26.2855 48.1291 26.3015 47.9968 26.3336 47.8871C26.3657 47.7775 26.4185 47.6933 26.492 47.6345C26.5655 47.5757 26.6631 47.5463 26.7848 47.5463C26.8997 47.5463 26.994 47.5757 27.0675 47.6345C27.141 47.692 27.1958 47.7762 27.2319 47.8871C27.268 47.9968 27.2861 48.1291 27.2861 48.2842ZM26.5863 48.2842C26.5863 48.3924 26.5923 48.4833 26.6043 48.5569C26.6163 48.629 26.6364 48.6839 26.6645 48.7213C26.6939 48.7574 26.734 48.7754 26.7848 48.7754C26.8356 48.7754 26.875 48.7574 26.9031 48.7213C26.9325 48.6852 26.9532 48.6311 26.9652 48.5589C26.9786 48.4853 26.9853 48.3938 26.9853 48.2842C26.9853 48.1745 26.9786 48.0836 26.9652 48.0115C26.9532 47.9379 26.9325 47.8831 26.9031 47.847C26.875 47.8096 26.8356 47.7909 26.7848 47.7909C26.734 47.7909 26.6939 47.8096 26.6645 47.847C26.6364 47.8831 26.6163 47.9379 26.6043 48.0115C26.5923 48.0836 26.5863 48.1745 26.5863 48.2842ZM28.4335 48.2842C28.4335 48.3991 28.4242 48.5021 28.4055 48.593C28.3881 48.6839 28.3593 48.7614 28.3192 48.8256C28.2805 48.8884 28.229 48.9365 28.1648 48.9699C28.102 49.0033 28.0245 49.0201 27.9322 49.0201C27.8173 49.0201 27.723 48.9906 27.6495 48.9318C27.576 48.873 27.5212 48.7888 27.4851 48.6792C27.4503 48.5696 27.433 48.4379 27.433 48.2842C27.433 48.1291 27.449 47.9968 27.4811 47.8871C27.5132 47.7775 27.566 47.6933 27.6395 47.6345C27.713 47.5757 27.8106 47.5463 27.9322 47.5463C28.0472 47.5463 28.1414 47.5757 28.215 47.6345C28.2885 47.692 28.3433 47.7762 28.3794 47.8871C28.4155 47.9968 28.4335 48.1291 28.4335 48.2842ZM27.7337 48.2842C27.7337 48.3924 27.7398 48.4833 27.7518 48.5569C27.7638 48.629 27.7839 48.6839 27.8119 48.7213C27.8413 48.7574 27.8814 48.7754 27.9322 48.7754C27.983 48.7754 28.0225 48.7574 28.0505 48.7213C28.08 48.6852 28.1007 48.6311 28.1127 48.5589C28.1261 48.4853 28.1328 48.3938 28.1328 48.2842C28.1328 48.1745 28.1261 48.0836 28.1127 48.0115C28.1007 47.9379 28.08 47.8831 28.0505 47.847C28.0225 47.8096 27.983 47.7909 27.9322 47.7909C27.8814 47.7909 27.8413 47.8096 27.8119 47.847C27.7839 47.8831 27.7638 47.9379 27.7518 48.0115C27.7398 48.0836 27.7337 48.1745 27.7337 48.2842ZM28.9574 48.7895C28.9454 48.8362 28.93 48.887 28.9113 48.9419C28.8926 48.9953 28.8725 49.0488 28.8511 49.1023C28.8297 49.1571 28.8077 49.2092 28.785 49.2587H28.5704C28.5838 49.2052 28.5965 49.149 28.6085 49.0902C28.6205 49.0328 28.6319 48.9759 28.6426 48.9198C28.6533 48.8636 28.662 48.8129 28.6687 48.7674H28.9434L28.9574 48.7895ZM30.1528 48.2842C30.1528 48.3991 30.1434 48.5021 30.1247 48.593C30.1073 48.6839 30.0786 48.7614 30.0385 48.8256C29.9997 48.8884 29.9483 48.9365 29.8841 48.9699C29.8213 49.0033 29.7437 49.0201 29.6515 49.0201C29.5365 49.0201 29.4423 48.9906 29.3688 48.9318C29.2953 48.873 29.2404 48.7888 29.2044 48.6792C29.1696 48.5696 29.1522 48.4379 29.1522 48.2842C29.1522 48.1291 29.1683 47.9968 29.2003 47.8871C29.2324 47.7775 29.2852 47.6933 29.3588 47.6345C29.4323 47.5757 29.5299 47.5463 29.6515 47.5463C29.7665 47.5463 29.8607 47.5757 29.9342 47.6345C30.0078 47.692 30.0626 47.7762 30.0987 47.8871C30.1347 47.9968 30.1528 48.1291 30.1528 48.2842ZM29.453 48.2842C29.453 48.3924 29.459 48.4833 29.471 48.5569C29.4831 48.629 29.5031 48.6839 29.5312 48.7213C29.5606 48.7574 29.6007 48.7754 29.6515 48.7754C29.7023 48.7754 29.7417 48.7574 29.7698 48.7213C29.7992 48.6852 29.8199 48.6311 29.832 48.5589C29.8453 48.4853 29.852 48.3938 29.852 48.2842C29.852 48.1745 29.8453 48.0836 29.832 48.0115C29.8199 47.9379 29.7992 47.8831 29.7698 47.847C29.7417 47.8096 29.7023 47.7909 29.6515 47.7909C29.6007 47.7909 29.5606 47.8096 29.5312 47.847C29.5031 47.8831 29.4831 47.9379 29.471 48.0115C29.459 48.0836 29.453 48.1745 29.453 48.2842ZM31.3003 48.2842C31.3003 48.3991 31.2909 48.5021 31.2722 48.593C31.2548 48.6839 31.2261 48.7614 31.186 48.8256C31.1472 48.8884 31.0957 48.9365 31.0316 48.9699C30.9688 49.0033 30.8912 49.0201 30.799 49.0201C30.684 49.0201 30.5898 48.9906 30.5163 48.9318C30.4427 48.873 30.3879 48.7888 30.3518 48.6792C30.3171 48.5696 30.2997 48.4379 30.2997 48.2842C30.2997 48.1291 30.3157 47.9968 30.3478 47.8871C30.3799 47.7775 30.4327 47.6933 30.5062 47.6345C30.5798 47.5757 30.6773 47.5463 30.799 47.5463C30.9139 47.5463 31.0082 47.5757 31.0817 47.6345C31.1552 47.692 31.21 47.7762 31.2461 47.8871C31.2822 47.9968 31.3003 48.1291 31.3003 48.2842ZM30.6005 48.2842C30.6005 48.3924 30.6065 48.4833 30.6185 48.5569C30.6305 48.629 30.6506 48.6839 30.6787 48.7213C30.7081 48.7574 30.7482 48.7754 30.799 48.7754C30.8498 48.7754 30.8892 48.7574 30.9173 48.7213C30.9467 48.6852 30.9674 48.6311 30.9794 48.5589C30.9928 48.4853 30.9995 48.3938 30.9995 48.2842C30.9995 48.1745 30.9928 48.0836 30.9794 48.0115C30.9674 47.9379 30.9467 47.8831 30.9173 47.847C30.8892 47.8096 30.8498 47.7909 30.799 47.7909C30.7482 47.7909 30.7081 47.8096 30.6787 47.847C30.6506 47.8831 30.6305 47.9379 30.6185 48.0115C30.6065 48.0836 30.6005 48.1745 30.6005 48.2842Z" fill="#21550E"/>
<path d="M24.4505 38.929L24.1775 40H23.9195L23.774 39.4375C23.771 39.4265 23.767 39.41 23.762 39.388C23.758 39.366 23.753 39.342 23.747 39.316C23.742 39.29 23.7375 39.2655 23.7335 39.2425C23.7295 39.2185 23.7265 39.2 23.7245 39.187C23.7235 39.2 23.7205 39.2185 23.7155 39.2425C23.7115 39.2655 23.707 39.29 23.702 39.316C23.697 39.341 23.692 39.365 23.687 39.388C23.682 39.41 23.678 39.427 23.675 39.439L23.531 40H23.273L23 38.929H23.2235L23.36 39.514C23.364 39.531 23.3685 39.552 23.3735 39.577C23.3785 39.601 23.3835 39.6265 23.3885 39.6535C23.3935 39.6795 23.398 39.705 23.402 39.73C23.407 39.755 23.4105 39.7765 23.4125 39.7945C23.4145 39.7755 23.4175 39.754 23.4215 39.73C23.4255 39.705 23.43 39.68 23.435 39.655C23.44 39.629 23.4445 39.605 23.4485 39.583C23.4535 39.56 23.458 39.542 23.462 39.529L23.618 38.929H23.8325L23.9885 39.529C23.9915 39.542 23.9955 39.56 24.0005 39.583C24.0055 39.605 24.0105 39.629 24.0155 39.655C24.0205 39.681 24.025 39.7065 24.029 39.7315C24.033 39.7555 24.036 39.7765 24.038 39.7945C24.041 39.7695 24.0455 39.74 24.0515 39.706C24.0575 39.671 24.064 39.636 24.071 39.601C24.079 39.566 24.0855 39.537 24.0905 39.514L24.227 38.929H24.4505ZM24.7907 39.181V40H24.5672V39.181H24.7907ZM24.6797 38.86C24.7127 38.86 24.7412 38.868 24.7652 38.884C24.7892 38.899 24.8012 38.9275 24.8012 38.9695C24.8012 39.0105 24.7892 39.039 24.7652 39.055C24.7412 39.071 24.7127 39.079 24.6797 39.079C24.6457 39.079 24.6167 39.071 24.5927 39.055C24.5697 39.039 24.5582 39.0105 24.5582 38.9695C24.5582 38.9275 24.5697 38.899 24.5927 38.884C24.6167 38.868 24.6457 38.86 24.6797 38.86ZM25.3692 39.8365C25.3942 39.8365 25.4182 39.834 25.4412 39.829C25.4642 39.824 25.4872 39.818 25.5102 39.811V39.9775C25.4862 39.9875 25.4562 39.996 25.4202 40.003C25.3852 40.011 25.3467 40.015 25.3047 40.015C25.2557 40.015 25.2117 40.007 25.1727 39.991C25.1347 39.975 25.1042 39.9475 25.0812 39.9085C25.0592 39.8685 25.0482 39.8135 25.0482 39.7435V39.349H24.9417V39.2545L25.0647 39.1795L25.1292 39.007H25.2717V39.181H25.5012V39.349H25.2717V39.7435C25.2717 39.7745 25.2807 39.798 25.2987 39.814C25.3167 39.829 25.3402 39.8365 25.3692 39.8365ZM25.8981 39.0925C25.8981 39.1325 25.8966 39.171 25.8936 39.208C25.8916 39.245 25.8896 39.271 25.8876 39.286H25.8996C25.9176 39.258 25.9386 39.2355 25.9626 39.2185C25.9866 39.2005 26.0131 39.1875 26.0421 39.1795C26.0721 39.1705 26.1036 39.166 26.1366 39.166C26.1956 39.166 26.2471 39.1765 26.2911 39.1975C26.3351 39.2185 26.3691 39.251 26.3931 39.295C26.4181 39.339 26.4306 39.396 26.4306 39.466V40H26.2071V39.5215C26.2071 39.4625 26.1961 39.4185 26.1741 39.3895C26.1531 39.3595 26.1201 39.3445 26.0751 39.3445C26.0301 39.3445 25.9946 39.355 25.9686 39.376C25.9436 39.397 25.9256 39.4275 25.9146 39.4675C25.9036 39.5075 25.8981 39.5565 25.8981 39.6145V40H25.6746V38.86H25.8981V39.0925ZM26.92 40.015C26.829 40.015 26.7545 39.9795 26.6965 39.9085C26.6395 39.8365 26.611 39.731 26.611 39.592C26.611 39.452 26.64 39.346 26.698 39.274C26.756 39.202 26.832 39.166 26.926 39.166C26.965 39.166 26.9995 39.1715 27.0295 39.1825C27.0595 39.1925 27.085 39.2065 27.106 39.2245C27.128 39.2425 27.1465 39.263 27.1615 39.286H27.169C27.166 39.27 27.1625 39.247 27.1585 39.217C27.1545 39.186 27.1525 39.1545 27.1525 39.1225V38.86H27.376V40H27.205L27.1615 39.8935H27.1525C27.1385 39.9155 27.1205 39.936 27.0985 39.955C27.0775 39.973 27.0525 39.9875 27.0235 39.9985C26.9945 40.0095 26.96 40.015 26.92 40.015ZM26.998 39.8365C27.06 39.8365 27.1035 39.8185 27.1285 39.7825C27.1535 39.7455 27.1665 39.6905 27.1675 39.6175V39.5935C27.1675 39.5135 27.155 39.4525 27.13 39.4105C27.106 39.3685 27.061 39.3475 26.995 39.3475C26.946 39.3475 26.9075 39.369 26.8795 39.412C26.8515 39.454 26.8375 39.515 26.8375 39.595C26.8375 39.675 26.8515 39.7355 26.8795 39.7765C26.9075 39.8165 26.947 39.8365 26.998 39.8365ZM28.0672 39.166C28.0782 39.166 28.0912 39.1665 28.1062 39.1675C28.1212 39.1685 28.1332 39.17 28.1422 39.172L28.1257 39.382C28.1187 39.38 28.1082 39.3785 28.0942 39.3775C28.0812 39.3755 28.0697 39.3745 28.0597 39.3745C28.0307 39.3745 28.0027 39.3785 27.9757 39.3865C27.9487 39.3935 27.9242 39.405 27.9022 39.421C27.8812 39.437 27.8642 39.4585 27.8512 39.4855C27.8392 39.5115 27.8332 39.544 27.8332 39.583V40H27.6097V39.181H27.7792L27.8122 39.319H27.8227C27.8387 39.291 27.8587 39.2655 27.8827 39.2425C27.9067 39.2195 27.9342 39.201 27.9652 39.187C27.9972 39.173 28.0312 39.166 28.0672 39.166ZM28.5975 39.1645C28.7075 39.1645 28.7915 39.1885 28.8495 39.2365C28.9085 39.2835 28.938 39.356 28.938 39.454V40H28.782L28.7385 39.889H28.7325C28.7095 39.918 28.6855 39.942 28.6605 39.961C28.6365 39.98 28.6085 39.9935 28.5765 40.0015C28.5455 40.0105 28.507 40.015 28.461 40.015C28.413 40.015 28.3695 40.006 28.3305 39.988C28.2925 39.969 28.2625 39.9405 28.2405 39.9025C28.2185 39.8635 28.2075 39.8145 28.2075 39.7555C28.2075 39.6685 28.238 39.6045 28.299 39.5635C28.36 39.5215 28.4515 39.4985 28.5735 39.4945L28.716 39.49V39.454C28.716 39.411 28.7045 39.3795 28.6815 39.3595C28.6595 39.3395 28.6285 39.3295 28.5885 39.3295C28.5485 39.3295 28.5095 39.3355 28.4715 39.3475C28.4335 39.3585 28.3955 39.3725 28.3575 39.3895L28.284 39.238C28.328 39.215 28.3765 39.197 28.4295 39.184C28.4835 39.171 28.5395 39.1645 28.5975 39.1645ZM28.629 39.6235C28.557 39.6255 28.507 39.6385 28.479 39.6625C28.451 39.6865 28.437 39.718 28.437 39.757C28.437 39.791 28.447 39.8155 28.467 39.8305C28.487 39.8445 28.513 39.8515 28.545 39.8515C28.593 39.8515 28.6335 39.8375 28.6665 39.8095C28.6995 39.7805 28.716 39.74 28.716 39.688V39.6205L28.629 39.6235ZM29.7773 39.7135C29.7733 39.6965 29.7673 39.6715 29.7593 39.6385C29.7523 39.6045 29.7443 39.5685 29.7353 39.5305C29.7263 39.4915 29.7178 39.456 29.7098 39.424C29.7018 39.391 29.6963 39.367 29.6933 39.352H29.6873C29.6843 39.367 29.6788 39.391 29.6708 39.424C29.6638 39.456 29.6558 39.4915 29.6468 39.5305C29.6378 39.5685 29.6293 39.6045 29.6213 39.6385C29.6133 39.6725 29.6073 39.6985 29.6033 39.7165L29.5373 40H29.2973L29.0648 39.181H29.2868L29.3813 39.544C29.3883 39.569 29.3943 39.599 29.3993 39.634C29.4053 39.669 29.4108 39.703 29.4158 39.736C29.4208 39.768 29.4243 39.7935 29.4263 39.8125H29.4323C29.4333 39.7985 29.4353 39.78 29.4383 39.757C29.4413 39.733 29.4448 39.7085 29.4488 39.6835C29.4538 39.6585 29.4578 39.636 29.4608 39.616C29.4648 39.595 29.4678 39.581 29.4698 39.574L29.5703 39.181H29.8163L29.9123 39.574C29.9163 39.588 29.9208 39.6105 29.9258 39.6415C29.9318 39.6725 29.9368 39.704 29.9408 39.736C29.9458 39.768 29.9483 39.7935 29.9483 39.8125H29.9543C29.9563 39.7955 29.9598 39.771 29.9648 39.739C29.9698 39.706 29.9753 39.6715 29.9813 39.6355C29.9883 39.5995 29.9953 39.569 30.0023 39.544L30.0998 39.181H30.3188L30.0833 40H29.8403L29.7773 39.7135Z" fill="#68D93D"/>
<path d="M22.025 45.373L22.065 45.8354H21.8218L21.7802 45.3762L21.1914 44.5234H21.4506L21.8922 45.1634L22.2234 44.5234H22.4634L22.025 45.373Z" fill="#65C541"/>
<path d="M22.4784 45.3333C22.4698 45.2667 22.4759 45.1991 22.4965 45.1352C22.5171 45.0714 22.5516 45.0129 22.5975 44.9639C22.6434 44.915 22.6996 44.8768 22.762 44.8521C22.8244 44.8275 22.8914 44.8169 22.9584 44.8213C23.1023 44.8154 23.243 44.8654 23.3509 44.9608C23.4589 45.0562 23.5257 45.1897 23.5376 45.3333C23.5465 45.3999 23.5405 45.4677 23.52 45.5318C23.4995 45.5958 23.4651 45.6546 23.4192 45.7037C23.3733 45.7528 23.317 45.7912 23.2545 45.8159C23.192 45.8407 23.1247 45.8512 23.0576 45.8469C22.9135 45.8523 22.7729 45.8019 22.665 45.7063C22.5571 45.6106 22.4902 45.477 22.4784 45.3333ZM23.3088 45.3333C23.3067 45.2498 23.2721 45.1704 23.2123 45.1121C23.1525 45.0539 23.0723 45.0212 22.9888 45.0213C22.9493 45.0199 22.91 45.0274 22.8738 45.0432C22.8376 45.0591 22.8054 45.0828 22.7796 45.1128C22.7538 45.1427 22.735 45.1781 22.7247 45.2162C22.7144 45.2544 22.7128 45.2944 22.72 45.3333C22.72 45.4181 22.7537 45.4995 22.8137 45.5595C22.8737 45.6195 22.9551 45.6533 23.04 45.6533C23.0803 45.6549 23.1205 45.6473 23.1574 45.631C23.1943 45.6147 23.227 45.5902 23.253 45.5593C23.279 45.5284 23.2975 45.4919 23.3072 45.4528C23.3168 45.4136 23.3174 45.3727 23.3088 45.3333Z" fill="#65C541"/>
<path d="M24.6944 44.832L24.7824 45.8336H24.5584L24.5472 45.7072C24.5101 45.7533 24.4627 45.7899 24.4087 45.8141C24.3548 45.8383 24.2959 45.8494 24.2368 45.8464C24.1764 45.8509 24.1157 45.8427 24.0587 45.8224C24.0016 45.8022 23.9493 45.7703 23.9053 45.7288C23.8612 45.6872 23.8262 45.637 23.8026 45.5812C23.7789 45.5255 23.7672 45.4654 23.768 45.4048L23.7168 44.832H23.952L23.9984 45.3728C24.0144 45.5552 24.1088 45.64 24.256 45.64C24.4032 45.64 24.5216 45.5392 24.504 45.3392L24.4592 44.832H24.6944Z" fill="#65C541"/>
<path d="M25.5815 44.8228L25.6007 45.0468C25.5826 45.0447 25.5644 45.0447 25.5463 45.0468C25.3687 45.0468 25.2647 45.1524 25.2823 45.3572L25.3255 45.8372H25.0903L25.0039 44.8356H25.2263L25.2391 44.9828C25.2756 44.9269 25.327 44.8823 25.3875 44.854C25.448 44.8257 25.5152 44.8149 25.5815 44.8228Z" fill="#65C541"/>
<path d="M26.3066 44.5234H26.5498L26.665 45.8354H26.4202L26.3066 44.5234Z" fill="#65C541"/>
<path d="M27.9322 45.2612L27.9834 45.834H27.7482L27.7002 45.29C27.6858 45.1124 27.5898 45.026 27.4394 45.026C27.289 45.026 27.169 45.1268 27.1866 45.3284L27.2314 45.834H26.9962L26.9082 44.8324H27.1322L27.1434 44.962C27.184 44.9142 27.2353 44.8765 27.2931 44.8521C27.3509 44.8276 27.4136 44.817 27.4762 44.8212C27.5355 44.8181 27.5949 44.8273 27.6505 44.8481C27.7062 44.8689 27.757 44.9009 27.7997 44.9422C27.8425 44.9834 27.8763 45.0331 27.8991 45.0879C27.9219 45.1428 27.9332 45.2018 27.9322 45.2612Z" fill="#65C541"/>
<path d="M28.1576 45.3342C28.1494 45.2663 28.1566 45.1973 28.1785 45.1325C28.2004 45.0677 28.2365 45.0086 28.2842 44.9595C28.3319 44.9104 28.39 44.8726 28.4541 44.8488C28.5183 44.8251 28.587 44.816 28.6552 44.8222C28.7439 44.8176 28.8322 44.8368 28.911 44.8779C28.9898 44.919 29.0561 44.9804 29.1032 45.0558L28.932 45.1598C28.9027 45.1176 28.8637 45.0831 28.8184 45.0592C28.773 45.0352 28.7225 45.0225 28.6712 45.0222C28.6311 45.0199 28.591 45.0267 28.5539 45.0421C28.5169 45.0575 28.4838 45.0811 28.4571 45.1111C28.4305 45.1411 28.411 45.1768 28.4001 45.2154C28.3893 45.2541 28.3873 45.2947 28.3944 45.3342C28.3943 45.3772 28.403 45.4197 28.4198 45.4593C28.4365 45.4989 28.4611 45.5347 28.492 45.5645C28.5229 45.5944 28.5595 45.6177 28.5997 45.6331C28.6398 45.6485 28.6826 45.6557 28.7256 45.6542C28.7742 45.6561 28.8224 45.644 28.8644 45.6193C28.9063 45.5946 28.9404 45.5584 28.9624 45.515L29.1512 45.6206C29.1157 45.6966 29.0576 45.7598 28.9849 45.8016C28.9121 45.8434 28.8283 45.8618 28.7448 45.8542C28.5986 45.8605 28.4557 45.8098 28.3462 45.7128C28.2367 45.6158 28.169 45.4801 28.1576 45.3342Z" fill="#65C541"/>
<path d="M29.2363 45.3337C29.2278 45.2665 29.2343 45.1983 29.2555 45.1339C29.2766 45.0696 29.3118 45.0107 29.3586 44.9617C29.4053 44.9127 29.4624 44.8747 29.5256 44.8504C29.5889 44.8262 29.6568 44.8164 29.7243 44.8217C29.868 44.8166 30.0082 44.8669 30.116 44.9622C30.2238 45.0575 30.2909 45.1904 30.3035 45.3337C30.3123 45.4012 30.3059 45.4698 30.2848 45.5344C30.2637 45.5991 30.2284 45.6582 30.1814 45.7075C30.1345 45.7567 30.0771 45.7948 30.0135 45.819C29.9499 45.8432 29.8817 45.8529 29.8139 45.8473C29.6702 45.8519 29.5301 45.8012 29.4227 45.7057C29.3152 45.6101 29.2485 45.477 29.2363 45.3337ZM30.0667 45.3337C30.0646 45.2502 30.03 45.1709 29.9702 45.1126C29.9104 45.0543 29.8302 45.0217 29.7467 45.0217C29.7071 45.02 29.6676 45.0273 29.6313 45.0431C29.5949 45.0588 29.5626 45.0826 29.5367 45.1126C29.5109 45.1426 29.4921 45.1781 29.4819 45.2164C29.4717 45.2547 29.4704 45.2948 29.4779 45.3337C29.4779 45.4186 29.5116 45.5 29.5716 45.56C29.6316 45.62 29.713 45.6537 29.7979 45.6537C29.8383 45.6557 29.8786 45.6483 29.9157 45.6321C29.9528 45.6159 29.9857 45.5914 30.0117 45.5604C30.0377 45.5294 30.0562 45.4928 30.0658 45.4535C30.0753 45.4142 30.0756 45.3732 30.0667 45.3337Z" fill="#65C541"/>
<path d="M32.1987 45.2611L32.2499 45.8339H32.0147L31.9667 45.2899C31.9523 45.1123 31.8611 45.0259 31.7187 45.0259C31.5763 45.0259 31.4675 45.1267 31.4851 45.3267L31.5299 45.8339H31.2947L31.2483 45.2899C31.2323 45.1123 31.1411 45.0259 30.9987 45.0259C30.8563 45.0259 30.7475 45.1267 30.7651 45.3267L30.8099 45.8339H30.5747L30.4883 44.8323H30.7187L30.7299 44.9603C30.7683 44.9133 30.8173 44.8761 30.873 44.8519C30.9287 44.8277 30.9893 44.8172 31.0499 44.8211C31.1179 44.8175 31.1858 44.831 31.2473 44.8603C31.3087 44.8897 31.3619 44.934 31.4019 44.9891C31.4604 44.9171 31.5396 44.8646 31.6288 44.8388C31.718 44.8129 31.813 44.8149 31.901 44.8445C31.989 44.8741 32.0659 44.9298 32.1214 45.0042C32.1769 45.0787 32.2083 45.1683 32.2115 45.2611H32.1987Z" fill="#65C541"/>
<path d="M33.458 45.4076H32.6724C32.6941 45.481 32.7402 45.5448 32.803 45.5884C32.8659 45.632 32.9417 45.6529 33.018 45.6476C33.0672 45.6509 33.1165 45.6428 33.162 45.6239C33.2075 45.6051 33.248 45.5759 33.2804 45.5388L33.4196 45.6828C33.3718 45.738 33.3118 45.7812 33.2443 45.809C33.1767 45.8368 33.1036 45.8484 33.0308 45.8428C32.8837 45.8526 32.7386 45.8042 32.6268 45.7082C32.5149 45.6122 32.4451 45.4761 32.4324 45.3292C32.4231 45.2632 32.4285 45.196 32.4483 45.1323C32.4681 45.0687 32.5018 45.0103 32.547 44.9613C32.5922 44.9123 32.6477 44.8739 32.7095 44.849C32.7713 44.8241 32.8379 44.8132 32.9044 44.8172C33.0459 44.8146 33.1828 44.8673 33.2859 44.9641C33.389 45.061 33.4502 45.1943 33.4564 45.3356C33.458 45.358 33.458 45.3852 33.458 45.4076ZM32.658 45.2476H33.226C33.2118 45.1776 33.1733 45.1149 33.1175 45.0704C33.0616 45.026 32.9918 45.0026 32.9204 45.0044C32.8867 45.0024 32.8529 45.0074 32.8211 45.019C32.7893 45.0306 32.7603 45.0485 32.7357 45.0718C32.7111 45.095 32.6916 45.123 32.6782 45.1541C32.6648 45.1851 32.658 45.2186 32.658 45.2524V45.2476Z" fill="#65C541"/>
<g opacity="0.1">
<path d="M23.6864 36.7109H22.5744L18.6624 55.1221H19.7728L23.6864 36.7109Z" fill="white"/>
<path d="M17.54 55.1221L21.4536 36.7109H17.2808L13.3672 55.1221H17.54Z" fill="white"/>
</g>
<path opacity="0.2" d="M23.1602 65.3399V65.6455C23.1602 65.7252 23.1918 65.8017 23.2483 65.8582C23.3047 65.9146 23.3812 65.9463 23.461 65.9463H33.341C33.4171 65.9458 33.4899 65.9153 33.5436 65.8613C33.5972 65.8074 33.6274 65.7344 33.6274 65.6583V65.3383C33.6274 65.2622 33.5972 65.1891 33.5436 65.1352C33.4899 65.0812 33.4171 65.0507 33.341 65.0503H30.373C30.3359 65.0507 30.2988 65.0469 30.2626 65.0391H23.461C23.3812 65.0391 23.3047 65.0708 23.2483 65.1272C23.1918 65.1836 23.1602 65.2601 23.1602 65.3399Z" fill="white"/>
<path opacity="0.2" d="M21.1289 65.0379H30.2633C30.1433 65.013 30.0353 64.9482 29.9569 64.8541C29.8784 64.76 29.8342 64.642 29.8313 64.5195H21.3625L21.1289 65.0379Z" fill="white"/>
<path d="M32.5741 42.19H31.1309L31.6301 40.918L32.5741 42.19Z" fill="white"/>
<path d="M32.1911 43.0591H31.8535L31.5527 41.3359H31.8887L32.1911 43.0591Z" fill="white"/>
<path d="M18.3048 60.0229L17.8392 60.0661C17.7704 60.0661 17.7704 59.9637 17.8392 59.9573L18.3048 59.9141C18.3736 59.9141 18.3736 60.0165 18.3048 60.0229Z" fill="#263238"/>
<path d="M18.3311 61.5416L18.6063 61.7496C18.6607 61.7896 18.6063 61.884 18.5519 61.8424L18.2767 61.636C18.2223 61.5944 18.2767 61.5 18.3311 61.5416Z" fill="#263238"/>
<path d="M19.0162 60.9623L19.4722 61.0551C19.541 61.0695 19.5122 61.1735 19.445 61.1591L18.989 61.0663C18.9202 61.0519 18.949 60.9479 19.0162 60.9623Z" fill="#263238"/>
<path d="M18.6217 60.4501L18.3961 60.1141C18.3577 60.0565 18.4505 60.0021 18.4889 60.0597L18.7145 60.3957C18.7545 60.4533 18.6601 60.5077 18.6217 60.4501Z" fill="white"/>
<path d="M17.8529 60.9154L18.2193 60.9986C18.2865 61.013 18.2577 61.117 18.1905 61.1026L17.8241 61.0194C17.7569 61.005 17.7841 60.901 17.8529 60.9154Z" fill="#263238"/>
<path d="M14.7201 61.3654L14.2641 61.4182C14.1953 61.4262 14.1969 61.319 14.2641 61.311L14.7201 61.2582C14.7889 61.2502 14.7889 61.3574 14.7201 61.3654Z" fill="white"/>
<path d="M18.1164 58.7389L17.7756 58.8989C17.7132 58.9277 17.6588 58.8349 17.7212 58.8061L18.062 58.6461C18.1244 58.6173 18.1788 58.7101 18.1164 58.7389Z" fill="#263238"/>
<path d="M17.2243 57.6004C17.1683 57.7492 17.1107 57.898 17.0531 58.0484C17.0291 58.1124 16.9251 58.0852 16.9491 58.0196L17.1219 57.5716C17.1459 57.5076 17.2499 57.5348 17.2243 57.6004Z" fill="#65C541"/>
<path d="M14.6678 60.8806H14.2582C14.2456 60.8784 14.2342 60.8719 14.2259 60.8621C14.2177 60.8523 14.2131 60.8399 14.2131 60.827C14.2131 60.8142 14.2177 60.8018 14.2259 60.792C14.2342 60.7822 14.2456 60.7756 14.2582 60.7734H14.6678C14.6805 60.7756 14.6919 60.7822 14.7002 60.792C14.7084 60.8018 14.7129 60.8142 14.7129 60.827C14.7129 60.8399 14.7084 60.8523 14.7002 60.8621C14.6919 60.8719 14.6805 60.8784 14.6678 60.8806Z" fill="white"/>
<path d="M14.6526 59.816L14.3102 59.7408C14.243 59.7264 14.2718 59.6224 14.339 59.6384L14.6814 59.712C14.7486 59.728 14.7198 59.8304 14.6526 59.816Z" fill="#65C541"/>
<path d="M15.9793 57.8596L15.8753 57.5012C15.8734 57.4945 15.8728 57.4874 15.8737 57.4805C15.8745 57.4736 15.8767 57.4669 15.8801 57.4608C15.8835 57.4547 15.8881 57.4493 15.8936 57.445C15.8991 57.4407 15.9054 57.4375 15.9121 57.4356C15.9188 57.4337 15.9258 57.4331 15.9328 57.434C15.9397 57.4348 15.9464 57.437 15.9525 57.4404C15.9586 57.4438 15.9639 57.4484 15.9683 57.4539C15.9726 57.4594 15.9758 57.4657 15.9777 57.4724L16.0833 57.8308C16.0852 57.8439 16.0822 57.8572 16.075 57.8683C16.0677 57.8793 16.0567 57.8874 16.0439 57.8909C16.0312 57.8945 16.0176 57.8932 16.0057 57.8875C15.9938 57.8817 15.9844 57.8718 15.9793 57.8596Z" fill="white"/>
<path d="M17.531 62.2012C17.531 62.2012 19.995 61.1724 19.251 60.294C18.5406 59.4572 18.2286 61.398 17.531 61.6476C16.8334 61.8972 17.531 62.2012 17.531 62.2012Z" fill="#EC4899"/>
<path opacity="0.1" d="M17.531 62.2012C17.531 62.2012 19.995 61.1724 19.251 60.294C18.5406 59.4572 18.2286 61.398 17.531 61.6476C16.8334 61.8972 17.531 62.2012 17.531 62.2012Z" fill="white"/>
<path d="M17.6229 62.735C17.6229 62.735 19.2981 57.6358 16.3077 57.7158C13.3173 57.7958 14.9525 63.039 14.9525 63.039L17.6229 62.735Z" fill="#EC4899"/>
<path opacity="0.3" d="M17.6229 62.735C17.6229 62.735 19.2981 57.6358 16.3077 57.7158C13.3173 57.7958 14.9525 63.039 14.9525 63.039L17.6229 62.735Z" fill="white"/>
<path opacity="0.2" d="M14.952 63.04C14.952 63.04 14.448 61.4192 14.512 59.9648C14.6304 62.3248 16.6832 62.2048 16.6832 62.2048L16.824 62.8304L14.952 63.04Z" fill="#65C541"/>
<path d="M19.0981 62.0117L18.7189 65.1205C18.6921 65.3338 18.5884 65.5299 18.4272 65.6722C18.2661 65.8144 18.0587 65.8931 17.8437 65.8933H15.3125C15.0976 65.8931 14.8901 65.8144 14.729 65.6722C14.5679 65.5299 14.4642 65.3338 14.4373 65.1205L14.0549 62.0181L19.0981 62.0117Z" fill="#F1F5F9"/>
<g opacity="0.2">
<path d="M17.316 61.9211C17.516 60.6603 17.484 58.4891 15.8648 58.2651C15.7496 58.2491 15.7992 58.0763 15.9112 58.0907C17.6472 58.3307 17.7032 60.6235 17.4888 61.9691C17.4712 62.0827 17.2984 62.0347 17.316 61.9211Z" fill="#65C541"/>
</g>
<g opacity="0.5">
<path d="M16.6768 61.8081C16.7664 60.7905 16.5616 59.6337 15.8768 58.8513C15.8016 58.7649 15.928 58.6369 16.0032 58.7249C16.7232 59.5425 16.952 60.7409 16.8608 61.8081C16.8496 61.9217 16.6704 61.9233 16.68 61.8081H16.6768Z" fill="white"/>
</g>
<g opacity="0.2">
<path d="M15.9619 61.8314C15.7539 60.985 15.6051 60.1226 15.4819 59.2602C15.4643 59.1482 15.6419 59.1002 15.6547 59.2122C15.7843 60.0746 15.9331 60.937 16.1347 61.7834C16.1619 61.8954 15.9891 61.9434 15.9619 61.8314Z" fill="white"/>
</g>
<g opacity="0.5">
<path d="M15.166 61.8317C14.8855 61.0505 14.77 60.2197 14.8268 59.3917C14.8268 59.2765 15.014 59.2749 15.0076 59.3917C14.9505 60.2034 15.0633 61.0181 15.3388 61.7837C15.3788 61.8925 15.206 61.9437 15.166 61.8317Z" fill="white"/>
</g>
<g opacity="0.3">
<path d="M18.0418 61.6003C18.413 61.3859 18.9074 61.0483 19.0018 60.6067C19.0274 60.4947 19.2002 60.5427 19.1746 60.6547C19.0626 61.1443 18.5346 61.5171 18.125 61.7539C18.1038 61.7658 18.0787 61.7688 18.0553 61.7622C18.0319 61.7556 18.0121 61.7399 18.0002 61.7187C17.9883 61.6975 17.9854 61.6724 17.992 61.649C17.9986 61.6256 18.0142 61.6058 18.0354 61.5939L18.0418 61.6003Z" fill="white"/>
</g>
<g opacity="0.2">
<path d="M18.8658 60.6219L18.4482 61.2043C18.381 61.2971 18.2258 61.2043 18.2882 61.1147L18.7058 60.5307C18.773 60.4379 18.9282 60.5307 18.8658 60.6219Z" fill="white"/>
</g>
<path d="M15.3315 58.1764C15.3315 58.1764 15.7075 58.0164 15.7203 57.898C15.7379 57.7268 15.4227 57.3668 15.2515 57.3876C15.1075 57.4068 14.9827 57.898 14.9827 57.898C14.9827 57.898 14.8563 57.4052 14.7123 57.3876C14.5235 57.3668 14.1875 57.778 14.2147 57.9668C14.2291 58.0772 14.5891 58.2084 14.5891 58.2084C14.5891 58.2084 14.1955 58.2084 14.1443 58.3156C14.0723 58.4596 14.2451 58.8788 14.4035 58.9092C14.5283 58.9332 14.7635 58.554 14.7635 58.554C14.7635 58.554 14.5475 58.906 14.6131 59.0052C14.6787 59.1044 15.0595 59.1508 15.1523 59.0532C15.2451 58.9556 15.0755 58.554 15.0755 58.554C15.0755 58.554 15.2803 58.9124 15.3955 58.9092C15.5555 58.9092 15.8483 58.5732 15.8147 58.4148C15.7907 58.282 15.3315 58.1764 15.3315 58.1764Z" fill="#EC4899"/>
<path opacity="0.6" d="M15.3315 58.1764C15.3315 58.1764 15.7075 58.0164 15.7203 57.898C15.7379 57.7268 15.4227 57.3668 15.2515 57.3876C15.1075 57.4068 14.9827 57.898 14.9827 57.898C14.9827 57.898 14.8563 57.4052 14.7123 57.3876C14.5235 57.3668 14.1875 57.778 14.2147 57.9668C14.2291 58.0772 14.5891 58.2084 14.5891 58.2084C14.5891 58.2084 14.1955 58.2084 14.1443 58.3156C14.0723 58.4596 14.2451 58.8788 14.4035 58.9092C14.5283 58.9332 14.7635 58.554 14.7635 58.554C14.7635 58.554 14.5475 58.906 14.6131 59.0052C14.6787 59.1044 15.0595 59.1508 15.1523 59.0532C15.2451 58.9556 15.0755 58.554 15.0755 58.554C15.0755 58.554 15.2803 58.9124 15.3955 58.9092C15.5555 58.9092 15.8483 58.5732 15.8147 58.4148C15.7907 58.282 15.3315 58.1764 15.3315 58.1764Z" fill="white"/>
<path d="M18.2056 60.605L17.8392 60.5762C17.7704 60.5762 17.7704 60.4626 17.8392 60.469L18.2056 60.4962C18.2744 60.4962 18.2744 60.6098 18.2056 60.605Z" fill="#263238"/>
<path d="M18.2568 59.3593L17.9048 59.4393C17.8376 59.4537 17.8088 59.3513 17.8776 59.3353L18.228 59.2553C18.2952 59.2409 18.324 59.3449 18.2568 59.3593Z" fill="white"/>
<path d="M17.7875 58.0702L17.4883 58.3902C17.4403 58.4398 17.3651 58.3646 17.4115 58.3134L17.7107 57.9934C17.7571 57.9422 17.8339 58.019 17.7875 58.0702Z" fill="#263238"/>
<path d="M14.827 61.8272L14.339 61.9456C14.2718 61.9616 14.243 61.8576 14.3102 61.8416L14.7902 61.7232C14.8033 61.7213 14.8166 61.7243 14.8277 61.7315C14.8388 61.7388 14.8468 61.7498 14.8504 61.7625C14.8539 61.7753 14.8527 61.7889 14.8469 61.8008C14.8411 61.8127 14.8312 61.8221 14.819 61.8272H14.827Z" fill="white"/>
<path d="M14.5946 60.3449L14.2426 60.2569C14.2304 60.2518 14.2204 60.2424 14.2147 60.2305C14.2089 60.2186 14.2077 60.205 14.2112 60.1922C14.2147 60.1795 14.2228 60.1685 14.2339 60.1612C14.2449 60.154 14.2583 60.151 14.2714 60.1529L14.6234 60.2409C14.6906 60.2569 14.6618 60.3609 14.5946 60.3449Z" fill="#65C541"/>
<path d="M14.6526 59.3961L14.3102 59.3241C14.243 59.3097 14.2718 59.2057 14.339 59.2201L14.6814 59.2921C14.7486 59.3065 14.7198 59.4105 14.6526 59.3961Z" fill="white"/>
<path d="M16.4712 57.8417V57.5217C16.4734 57.509 16.48 57.4976 16.4898 57.4893C16.4996 57.4811 16.512 57.4766 16.5248 57.4766C16.5376 57.4766 16.55 57.4811 16.5598 57.4893C16.5696 57.4976 16.5762 57.509 16.5784 57.5217V57.8417C16.5762 57.8543 16.5696 57.8657 16.5598 57.874C16.55 57.8822 16.5376 57.8868 16.5248 57.8868C16.512 57.8868 16.4996 57.8822 16.4898 57.874C16.48 57.8657 16.4734 57.8543 16.4712 57.8417Z" fill="#263238"/>
<path d="M17.8006 61.3716L18.1046 61.4548C18.1182 61.4587 18.1297 61.4677 18.1366 61.48C18.1435 61.4923 18.1453 61.5069 18.1414 61.5204C18.1376 61.534 18.1286 61.5455 18.1163 61.5524C18.104 61.5593 18.0894 61.5611 18.0758 61.5572L17.7718 61.4756C17.7597 61.4705 17.7497 61.4611 17.744 61.4492C17.7382 61.4373 17.737 61.4237 17.7405 61.411C17.744 61.3982 17.7521 61.3872 17.7632 61.38C17.7742 61.3727 17.7876 61.3698 17.8006 61.3716Z" fill="white"/>
<path d="M17.7253 61.7439L18.0357 61.8191C18.1029 61.8351 18.0741 61.9391 18.0069 61.9231L17.6965 61.8479C17.6293 61.8319 17.6581 61.7279 17.7253 61.7439Z" fill="#263238"/>
<path d="M18.6952 61.2924L19.0696 61.4972C19.1304 61.5308 19.0696 61.6236 19.0152 61.5916L18.6408 61.3852C18.58 61.3516 18.6408 61.2588 18.6952 61.2924Z" fill="white"/>
<path d="M19.1049 60.5527L19.5017 60.3351C19.514 60.3281 19.5286 60.3263 19.5423 60.33C19.5559 60.3338 19.5675 60.3428 19.5745 60.3551C19.5815 60.3674 19.5834 60.382 19.5796 60.3956C19.5759 60.4093 19.5668 60.4209 19.5545 60.4279L19.1593 60.6423C19.0985 60.6759 19.0441 60.5831 19.1049 60.5495V60.5527Z" fill="#263238"/>
<path d="M18.8998 60.2362C18.9302 60.0874 18.9606 59.937 18.9894 59.7882C19.0038 59.721 19.1078 59.7498 19.0934 59.817C19.0646 59.9658 19.0342 60.1146 19.0038 60.265C18.991 60.3322 18.887 60.3034 18.8998 60.2362Z" fill="white"/>
<path d="M18.399 60.6682L18.199 60.4602C18.151 60.409 18.2278 60.3338 18.2758 60.3834L18.4758 60.593C18.5238 60.6426 18.447 60.7194 18.399 60.6682Z" fill="#263238"/>
<path d="M44.3109 53.3129C44.3822 53.4184 44.4204 53.5427 44.4206 53.6699C44.4209 53.7972 44.3832 53.9217 44.3124 54.0274C44.2416 54.1331 44.1408 54.2154 44.023 54.2636C43.9053 54.3118 43.7758 54.3238 43.6511 54.298C43.5265 54.2723 43.4124 54.21 43.3233 54.119C43.2343 54.0281 43.1744 53.9127 43.1513 53.7875C43.1282 53.6624 43.1429 53.5332 43.1935 53.4165C43.2442 53.2997 43.3285 53.2007 43.4357 53.1321C43.5764 53.0422 43.7466 53.0107 43.9101 53.0445C44.0736 53.0783 44.2174 53.1746 44.3109 53.3129Z" fill="#C8EBBB"/>
<path opacity="0.2" d="M44.3109 53.3129C44.3822 53.4184 44.4204 53.5427 44.4206 53.6699C44.4209 53.7972 44.3832 53.9217 44.3124 54.0274C44.2416 54.1331 44.1408 54.2154 44.023 54.2636C43.9053 54.3118 43.7758 54.3238 43.6511 54.298C43.5265 54.2723 43.4124 54.21 43.3233 54.119C43.2343 54.0281 43.1744 53.9127 43.1513 53.7875C43.1282 53.6624 43.1429 53.5332 43.1935 53.4165C43.2442 53.2997 43.3285 53.2007 43.4357 53.1321C43.5764 53.0422 43.7466 53.0107 43.9101 53.0445C44.0736 53.0783 44.2174 53.1746 44.3109 53.3129Z" fill="black"/>
<path d="M55.3475 64.0795C47.7283 63.2795 45.9891 62.3595 43.3587 61.4459C41.7587 60.8939 39.7539 60.4267 38.9347 58.9516C38.3683 57.9308 38.1907 56.0491 39.2755 55.6187C41.2854 54.8176 43.1816 53.7563 44.9155 52.462C45.7971 51.8044 46.6451 51.0812 47.6467 50.6268C48.6483 50.1724 50.9811 49.9436 52.9571 50.918C55.3443 50.6716 60.5747 49.2524 65.4371 50.822C67.7203 51.5596 69.3843 53.9003 69.6387 56.2875C69.8979 58.7211 69.0659 60.8955 67.2051 62.4859C65.3443 64.0763 57.7811 64.3355 55.3475 64.0795Z" fill="#C8EBBB"/>
<path opacity="0.5" d="M39.8403 57.615C39.8403 58.2806 39.7235 58.8182 39.5811 58.8182C39.4387 58.8182 39.3203 58.2806 39.3203 57.615C39.3203 56.9494 39.4371 56.4102 39.5811 56.4102C39.7251 56.4102 39.8403 56.9494 39.8403 57.615Z" fill="black"/>
<path opacity="0.5" d="M40.8139 58.8198C40.957 58.8198 41.0731 58.2803 41.0731 57.615C41.0731 56.9496 40.957 56.4102 40.8139 56.4102C40.6707 56.4102 40.5547 56.9496 40.5547 57.615C40.5547 58.2803 40.6707 58.8198 40.8139 58.8198Z" fill="black"/>
<path opacity="0.2" d="M42.3633 60.6522C42.4913 60.6666 44.1009 60.4554 44.7441 59.9658C45.3873 59.4762 44.8529 60.5594 43.3425 60.7434C43.0136 60.7965 42.6767 60.7652 42.3633 60.6522Z" fill="black"/>
<path d="M38.8178 21.2516C39.5538 21.5092 39.7778 22.5556 39.1954 23.5508C38.613 24.546 37.5954 24.8804 37.005 24.3748C36.4946 23.938 36.4866 23.01 36.9298 22.2484C37.373 21.4868 38.1842 21.0292 38.8178 21.2516Z" fill="#C8EBBB"/>
<path d="M38.562 21.1609C39.2548 21.4041 39.4452 22.4089 38.882 23.3721C38.3188 24.3353 37.3508 24.6713 36.794 24.1961C36.314 23.7833 36.314 22.8857 36.746 22.1433C37.178 21.4009 37.9572 20.9513 38.562 21.1609Z" fill="#C8EBBB"/>
<path opacity="0.4" d="M38.562 21.1609C39.2548 21.4041 39.4452 22.4089 38.882 23.3721C38.3188 24.3353 37.3508 24.6713 36.794 24.1961C36.314 23.7833 36.314 22.8857 36.746 22.1433C37.178 21.4009 37.9572 20.9513 38.562 21.1609Z" fill="white"/>
<path d="M38.3154 21.5331C38.3447 21.5442 38.3731 21.5576 38.4002 21.5731C38.8178 21.8259 38.8914 22.5171 38.517 23.1619C38.1426 23.8067 37.5026 24.0899 37.077 23.8563C37.0498 23.8398 37.0236 23.8217 36.9986 23.8019C36.6226 23.5091 36.6114 22.8275 36.9442 22.2563C37.277 21.6851 37.8722 21.3539 38.3154 21.5331Z" fill="#C8EBBB"/>
<path opacity="0.3" d="M38.4008 21.5702C38.8184 21.823 38.892 22.5142 38.5176 23.159C38.1432 23.8038 37.5032 24.087 37.0776 23.8534C36.7576 23.5174 36.7704 22.8774 37.0872 22.3334C37.404 21.7894 37.9512 21.4662 38.4008 21.5702Z" fill="white"/>
<path d="M51.414 20.0279L48.054 21.7879C46.8748 20.9879 45.8844 20.8919 44.694 21.6711C44.3141 21.9015 43.9172 22.1026 43.5068 22.2727C43.2368 22.394 42.9588 22.4966 42.6748 22.5799C42.402 22.6467 42.1158 22.6354 41.8491 22.5474C41.5823 22.4595 41.3456 22.2983 41.166 22.0823C42.6972 21.3191 43.3788 20.7287 44.9084 19.9671C45.1548 20.3687 45.6204 20.3719 46.1068 20.2295C46.7836 20.0295 47.5004 19.5447 47.7148 19.4583C48.3275 19.2225 48.9913 19.151 49.6402 19.2509C50.2891 19.3508 50.9006 19.6187 51.414 20.0279Z" fill="#C8EBBB"/>
<path opacity="0.3" d="M50.7562 19.9757C49.7418 19.1453 48.313 19.4397 47.6362 19.7069C47.2666 19.8525 45.4074 21.0461 44.8442 20.2173C43.313 20.9789 43.1914 21.3101 41.6602 22.0717C41.905 22.2781 42.5978 22.7341 44.1466 21.6493C45.3114 20.8333 46.8234 20.6717 48.0026 21.4669C49.0698 20.9085 49.6874 20.5325 50.7562 19.9757Z" fill="white"/>
<path d="M41.8974 21.8711C41.779 21.9431 41.6734 22.0215 41.5566 22.0935L41.9486 22.2967C41.9943 22.232 42.0143 22.1527 42.0048 22.0741C41.9954 21.9954 41.9571 21.9231 41.8974 21.8711Z" fill="#C8EBBB"/>
<path opacity="0.1" d="M46.1029 20.2272C45.9253 20.4896 44.1829 21.7744 43.5029 22.2704C43.2329 22.3917 42.9549 22.4943 42.6709 22.5776C42.3981 22.6444 42.1119 22.6331 41.8452 22.5451C41.5784 22.4572 41.3417 22.296 41.1621 22.08C42.6933 21.3168 43.3749 20.7264 44.9045 19.9648C45.1509 20.3664 45.6165 20.3696 46.1029 20.2272Z" fill="black"/>
<path d="M30.9282 28.5267C30.7565 28.238 30.6742 27.905 30.6918 27.5696C30.7094 27.2342 30.8261 26.9115 31.0271 26.6425C31.2281 26.3734 31.5045 26.17 31.8211 26.0581C32.1378 25.9461 32.4805 25.9306 32.806 26.0134C33.1314 26.0963 33.425 26.2739 33.6495 26.5237C33.8741 26.7734 34.0195 27.0842 34.0673 27.4166C34.1152 27.7491 34.0634 28.0882 33.9184 28.3912C33.7735 28.6942 33.5419 28.9473 33.253 29.1187C33.0615 29.2325 32.8494 29.3075 32.629 29.3393C32.4085 29.3712 32.1839 29.3593 31.968 29.3043C31.7521 29.2493 31.5491 29.1523 31.3707 29.0189C31.1923 28.8855 31.042 28.7182 30.9282 28.5267Z" fill="#C8EBBB"/>
<path d="M30.7523 28.6408C30.5812 28.3519 30.4997 28.0188 30.5179 27.6836C30.5361 27.3484 30.6533 27.0261 30.8547 26.7575C31.0561 26.4888 31.3326 26.286 31.6492 26.1745C31.9659 26.063 32.3085 26.0479 32.6338 26.1311C32.959 26.2143 33.2523 26.3921 33.4765 26.642C33.7007 26.8918 33.8458 27.2026 33.8934 27.5349C33.941 27.8672 33.8891 28.2062 33.744 28.509C33.599 28.8118 33.3675 29.0648 33.0787 29.236C32.6912 29.4652 32.2286 29.5313 31.7924 29.4197C31.3562 29.3081 30.9821 29.028 30.7523 28.6408Z" fill="#C8EBBB"/>
<path opacity="0.4" d="M30.7523 28.6408C30.5812 28.3519 30.4997 28.0188 30.5179 27.6836C30.5361 27.3484 30.6533 27.0261 30.8547 26.7575C31.0561 26.4888 31.3326 26.286 31.6492 26.1745C31.9659 26.063 32.3085 26.0479 32.6338 26.1311C32.959 26.2143 33.2523 26.3921 33.4765 26.642C33.7007 26.8918 33.8458 27.2026 33.8934 27.5349C33.941 27.8672 33.8891 28.2062 33.744 28.509C33.599 28.8118 33.3675 29.0648 33.0787 29.236C32.6912 29.4652 32.2286 29.5313 31.7924 29.4197C31.3562 29.3081 30.9821 29.028 30.7523 28.6408Z" fill="white"/>
<path d="M32.8579 28.856C32.8171 28.8804 32.7749 28.9023 32.7315 28.9216C32.4359 29.0511 32.1022 29.0633 31.7981 28.9557C31.4939 28.8482 31.242 28.6289 31.0936 28.3425C30.9452 28.056 30.9113 27.7238 30.9989 27.4132C31.0864 27.1027 31.2888 26.8371 31.5651 26.6704C31.6516 26.621 31.7441 26.5829 31.8403 26.5568C32.1377 26.4647 32.4587 26.4852 32.742 26.6144C33.0254 26.7436 33.2513 26.9724 33.3768 27.2575C33.5023 27.5425 33.5187 27.8637 33.4227 28.1599C33.3267 28.4562 33.1251 28.7068 32.8563 28.864L32.8579 28.856Z" fill="#C8EBBB"/>
<path opacity="0.3" d="M32.8577 28.856C32.817 28.8804 32.7748 28.9023 32.7313 28.9216C32.434 29.0103 32.1144 28.9872 31.8329 28.8564C31.5514 28.7257 31.3276 28.4965 31.2035 28.212C31.0795 27.9275 31.0639 27.6074 31.1597 27.3122C31.2554 27.017 31.4559 26.7671 31.7233 26.6096C31.7612 26.5896 31.8002 26.572 31.8401 26.5568C32.1376 26.4647 32.4586 26.4852 32.7419 26.6144C33.0253 26.7436 33.2512 26.9724 33.3767 27.2575C33.5022 27.5425 33.5185 27.8637 33.4225 28.1599C33.3265 28.4562 33.125 28.7068 32.8561 28.864L32.8577 28.856Z" fill="white"/>
<g opacity="0.4">
<path d="M31.5937 27.8185C31.4081 27.6009 31.4785 27.3385 31.7537 27.1385L31.6401 26.9353L31.8225 26.8281L31.9361 27.0313C32.099 26.9499 32.2789 26.9082 32.4609 26.9097L32.5121 27.1833C32.36 27.1769 32.2086 27.207 32.0705 27.2713L32.2433 27.5817C32.4513 27.5273 32.6881 27.4777 32.8577 27.6761C33.0273 27.8745 32.9697 28.1561 32.6785 28.3577L32.7921 28.5609L32.6097 28.6681L32.4945 28.4649C32.3655 28.5275 32.225 28.5629 32.0817 28.5689L32.0193 28.3017C32.1376 28.302 32.2545 28.2763 32.3617 28.2265L32.1809 27.9065C31.9841 27.9577 31.7537 27.9993 31.5937 27.8185ZM32.3937 27.8457L32.5425 28.1113C32.6305 28.0313 32.6449 27.9513 32.5937 27.8841C32.5425 27.8169 32.4801 27.8393 32.4001 27.8393L32.3937 27.8457ZM31.8449 27.6009C31.87 27.6238 31.901 27.6392 31.9343 27.6454C31.9677 27.6516 32.0021 27.6484 32.0337 27.6361L31.8929 27.3849C31.8161 27.4601 31.7985 27.5385 31.8513 27.6009H31.8449Z" fill="white"/>
</g>
<path d="M29.3824 38.3437C32.0016 35.5917 29.7616 32.8333 32.368 30.0781H27.8688C25.2544 32.8301 27.4992 35.5901 24.8848 38.3405L29.3824 38.3437Z" fill="#C8EBBB"/>
<path opacity="0.3" d="M28.9975 37.9731H25.9143C26.0743 37.7795 26.0167 37.6211 25.8279 37.6211C27.3447 35.3507 26.1335 33.0739 27.6503 30.8035C27.7687 30.7878 27.8829 30.7487 27.9862 30.6886C28.0894 30.6284 28.1797 30.5484 28.2519 30.4531H31.3351C31.1751 30.6467 31.2327 30.8051 31.4231 30.8051C29.9063 33.0755 31.1175 35.3523 29.6007 37.6227C29.4819 37.638 29.3673 37.6769 29.2637 37.737C29.1601 37.7972 29.0696 37.8775 28.9975 37.9731Z" fill="white"/>
<path opacity="0.4" d="M28.3824 34.0079C28.3956 34.0074 28.4086 34.0102 28.4203 34.0161C28.4321 34.022 28.4422 34.0307 28.4496 34.0415C28.4687 34.0702 28.4823 34.1022 28.4896 34.1359H28.248C28.2575 34.0988 28.2768 34.0651 28.304 34.0383C28.3252 34.0183 28.3534 34.0074 28.3824 34.0079Z" fill="white"/>
<path opacity="0.4" d="M28.7676 34.3086H29.0012C28.9932 34.3437 28.9755 34.3759 28.95 34.4014C28.9404 34.4112 28.929 34.4189 28.9163 34.4242C28.9037 34.4294 28.8901 34.432 28.8764 34.4318C28.8634 34.4326 28.8504 34.4301 28.8386 34.4245C28.8269 34.4189 28.8168 34.4104 28.8092 34.3998C28.789 34.3727 28.7749 34.3416 28.7676 34.3086Z" fill="white"/>
<path opacity="0.4" d="M28.5032 35.497C28.8516 35.4929 29.1861 35.3597 29.442 35.1233C29.698 34.8869 29.8571 34.564 29.8888 34.217C29.9272 33.505 29.4424 32.9258 28.7496 32.9258C28.4013 32.9296 28.0667 33.0626 27.811 33.2992C27.5553 33.5357 27.3965 33.8588 27.3656 34.2058C27.3256 34.9178 27.8104 35.497 28.5032 35.497ZM28.836 34.7114C28.7722 34.7148 28.7094 34.6943 28.66 34.6538C28.617 34.616 28.585 34.5674 28.5672 34.513C28.5459 34.4462 28.5304 34.3776 28.5208 34.3082H28.2328C28.2371 34.4 28.2605 34.4899 28.3016 34.5722L28.0872 34.6586C28.034 34.5495 28.0072 34.4295 28.0088 34.3082H27.8248C27.8248 34.2506 27.8328 34.193 27.836 34.1354H28.0248C28.0384 34.0215 28.0889 33.9153 28.1688 33.833C28.2012 33.8002 28.2399 33.7741 28.2824 33.7562C28.325 33.7384 28.3706 33.7291 28.4168 33.729C28.4811 33.725 28.5446 33.7456 28.5944 33.7866C28.6375 33.8252 28.67 33.8742 28.6888 33.929C28.7105 33.9964 28.7271 34.0654 28.7384 34.1354H29.02C29.0198 34.0736 29.0106 34.0121 28.9928 33.953C28.9783 33.8964 28.9551 33.8424 28.924 33.793L29.1384 33.6986C29.1747 33.7555 29.2007 33.8183 29.2152 33.8842C29.2348 33.9643 29.244 34.0465 29.2424 34.129H29.4264C29.4264 34.1866 29.4184 34.2442 29.4152 34.3018H29.2264C29.2094 34.4137 29.1592 34.5179 29.0824 34.601C29.0514 34.6361 29.0136 34.6646 28.9712 34.6847C28.9288 34.7048 28.8828 34.716 28.836 34.7178V34.7114Z" fill="white"/>
</svg>
