<svg width="80" height="80" viewBox="0 0 80 80" fill="none" xmlns="http://www.w3.org/2000/svg">
<path d="M22.881 19.3321C26.2794 17.5369 30.633 17.1721 34.0922 19.0121C37.0714 20.6025 38.1434 23.8233 39.1882 26.8121C40.649 30.9913 43.1674 35.7977 48.3338 32.9417C51.865 30.9881 55.4938 27.4409 59.8874 29.3609C63.8874 31.1065 64.7274 36.1193 63.553 39.9209C59.7386 52.2217 44.2586 56.8937 32.8826 53.1209C22.449 49.6665 10.6234 37.0585 16.5834 25.4729C17.8762 22.9593 20.1818 20.7545 22.881 19.3321Z" fill="#65C541"/>
<path d="M22.881 19.3321C26.2794 17.5369 30.633 17.1721 34.0922 19.0121C37.0714 20.6025 38.1434 23.8233 39.1882 26.8121C40.649 30.9913 43.1674 35.7977 48.3338 32.9417C51.865 30.9881 55.4938 27.4409 59.8874 29.3609C63.8874 31.1065 64.7274 36.1193 63.553 39.9209C59.7386 52.2217 44.2586 56.8937 32.8826 53.1209C22.449 49.6665 10.6234 37.0585 16.5834 25.4729C17.8762 22.9593 20.1818 20.7545 22.881 19.3321Z" fill="white"/>
<path d="M40.0009 68.4115C57.1341 68.4115 71.0233 67.6006 71.0233 66.6003C71.0233 65.6 57.1341 64.7891 40.0009 64.7891C22.8677 64.7891 8.97852 65.6 8.97852 66.6003C8.97852 67.6006 22.8677 68.4115 40.0009 68.4115Z" fill="#F5F5F5"/>
<path d="M63.8689 42.5391V46.1391L65.0033 45.5407C65.3857 45.3391 65.6625 44.7631 65.7121 44.0703L65.7233 43.8943C65.7745 43.1743 65.4529 42.5391 65.0385 42.5391H63.8689ZM65.1345 45.1375L64.1233 45.6703V43.0079H65.0529C65.3249 43.0079 65.5329 43.4239 65.5025 43.8975L65.4641 44.4527C65.4385 44.7743 65.3121 45.0431 65.1345 45.1375Z" fill="#263238"/>
<path opacity="0.4" d="M63.8689 42.5391V46.1391L65.0033 45.5407C65.3857 45.3391 65.6625 44.7631 65.7121 44.0703L65.7233 43.8943C65.7745 43.1743 65.4529 42.5391 65.0385 42.5391H63.8689ZM65.1345 45.1375L64.1233 45.6703V43.0079H65.0529C65.3249 43.0079 65.5329 43.4239 65.5025 43.8975L65.4641 44.4527C65.4385 44.7743 65.3121 45.0431 65.1345 45.1375Z" fill="white"/>
<path d="M65.2843 47.332H61.5195L62.0267 42.2072L64.5899 42.1992L65.2843 47.332Z" fill="#263238"/>
<path opacity="0.6" d="M65.2843 47.332H61.5195L62.0267 42.2072L64.5899 42.1992L65.2843 47.332Z" fill="white"/>
<path d="M67.5814 47.793H56.207V63.3738H67.5814V47.793Z" fill="#263238"/>
<path opacity="0.4" d="M67.5814 47.793H56.207V63.3738H67.5814V47.793Z" fill="white"/>
<path d="M69.2486 48.3906H56.7014C56.4284 48.3906 56.207 48.612 56.207 48.885V49.037C56.207 49.3101 56.4284 49.5314 56.7014 49.5314H69.2486C69.5217 49.5314 69.743 49.3101 69.743 49.037V48.885C69.743 48.612 69.5217 48.3906 69.2486 48.3906Z" fill="#263238"/>
<path opacity="0.7" d="M69.2486 48.3906H56.7014C56.4284 48.3906 56.207 48.612 56.207 48.885V49.037C56.207 49.3101 56.4284 49.5314 56.7014 49.5314H69.2486C69.5217 49.5314 69.743 49.3101 69.743 49.037V48.885C69.743 48.612 69.5217 48.3906 69.2486 48.3906Z" fill="white"/>
<path d="M69.2091 48.6484H64.6715C64.3772 48.6484 64.1387 48.887 64.1387 49.1812V50.7396C64.1387 51.0339 64.3772 51.2724 64.6715 51.2724H69.2091C69.5033 51.2724 69.7419 51.0339 69.7419 50.7396V49.1812C69.7419 48.887 69.5033 48.6484 69.2091 48.6484Z" fill="#263238"/>
<path opacity="0.5" d="M69.2091 48.6484H64.6715C64.3772 48.6484 64.1387 48.887 64.1387 49.1812V50.7396C64.1387 51.0339 64.3772 51.2724 64.6715 51.2724H69.2091C69.5033 51.2724 69.7419 51.0339 69.7419 50.7396V49.1812C69.7419 48.887 69.5033 48.6484 69.2091 48.6484Z" fill="white"/>
<path d="M67.1206 48.2536H56.6678C56.5456 48.2536 56.4284 48.2051 56.342 48.1187C56.2556 48.0323 56.207 47.915 56.207 47.7928C56.207 47.6706 56.2556 47.5534 56.342 47.467C56.4284 47.3806 56.5456 47.332 56.6678 47.332H67.1206C67.2428 47.332 67.3601 47.3806 67.4465 47.467C67.5329 47.5534 67.5814 47.6706 67.5814 47.7928C67.5814 47.915 67.5329 48.0323 67.4465 48.1187C67.3601 48.2051 67.2428 48.2536 67.1206 48.2536Z" fill="#263238"/>
<path opacity="0.5" d="M67.1206 48.2536H56.6678C56.5456 48.2536 56.4284 48.2051 56.342 48.1187C56.2556 48.0323 56.207 47.915 56.207 47.7928C56.207 47.6706 56.2556 47.5534 56.342 47.467C56.4284 47.3806 56.5456 47.332 56.6678 47.332H67.1206C67.2428 47.332 67.3601 47.3806 67.4465 47.467C67.5329 47.5534 67.5814 47.6706 67.5814 47.7928C67.5814 47.915 67.5329 48.0323 67.4465 48.1187C67.3601 48.2051 67.2428 48.2536 67.1206 48.2536Z" fill="white"/>
<path d="M69.7431 58.6445H65.7207V63.3709H69.7431V58.6445Z" fill="#263238"/>
<path opacity="0.6" d="M69.7431 58.6445H65.7207V63.3709H69.7431V58.6445Z" fill="white"/>
<path d="M60.4691 47.3324H59.2419L58.9219 44.4844H60.7091L60.4691 47.3324Z" fill="#263238"/>
<path opacity="0.6" d="M60.4691 47.3324H59.2419L58.9219 44.4844H60.7091L60.4691 47.3324Z" fill="white"/>
<path d="M65.6582 54.668H56.207V63.3688H65.6582V54.668Z" fill="#263238"/>
<path opacity="0.7" d="M65.6582 54.668H56.207V63.3688H65.6582V54.668Z" fill="white"/>
<path d="M65.6582 52.0742H56.207V54.5222H65.6582V52.0742Z" fill="#263238"/>
<path opacity="0.6" d="M65.6582 52.0742H56.207V54.5222H65.6582V52.0742Z" fill="white"/>
<path d="M57.4609 57.4062H56.9121V60.5742H57.4609V57.4062Z" fill="#263238"/>
<path opacity="0.4" d="M57.4609 57.4062H56.9121V60.5742H57.4609V57.4062Z" fill="white"/>
<path d="M62.4279 52.3672H59.4375V53.0072H62.4279V52.3672Z" fill="#263238"/>
<path opacity="0.4" d="M62.4279 52.3672H59.4375V53.0072H62.4279V52.3672Z" fill="white"/>
<path d="M67.7314 49.1328H66.1506V49.536H67.7314V49.1328Z" fill="#263238"/>
<path opacity="0.4" d="M67.7314 49.1328H66.1506V49.536H67.7314V49.1328Z" fill="white"/>
<path d="M62.7343 42.2056L62.1071 43.2136L61.7871 42.1992L62.7343 42.2056Z" fill="#263238"/>
<path opacity="0.4" d="M62.7343 42.2056L62.1071 43.2136L61.7871 42.1992L62.7343 42.2056Z" fill="white"/>
<path d="M64.5806 42.1981H61.9902V42.1853C62.015 41.9555 62.1233 41.7427 62.2947 41.5875C62.4661 41.4323 62.6886 41.3456 62.9198 41.3438H63.651C63.8842 41.3459 64.1084 41.4344 64.2801 41.5923C64.4518 41.7501 64.5589 41.966 64.5806 42.1981Z" fill="#263238"/>
<path opacity="0.5" d="M64.5806 42.1981H61.9902V42.1853C62.015 41.9555 62.1233 41.7427 62.2947 41.5875C62.4661 41.4323 62.6886 41.3456 62.9198 41.3438H63.651C63.8842 41.3459 64.1084 41.4344 64.2801 41.5923C64.4518 41.7501 64.5589 41.966 64.5806 42.1981Z" fill="white"/>
<path d="M55.9746 65.4803C55.9746 65.6432 56.0229 65.8025 56.1135 65.938C56.204 66.0735 56.3327 66.1792 56.4833 66.2415C56.6338 66.3039 56.7995 66.3202 56.9594 66.2884C57.1192 66.2566 57.266 66.1781 57.3813 66.0629C57.4965 65.9477 57.575 65.8008 57.6068 65.641C57.6386 65.4812 57.6223 65.3155 57.5599 65.1649C57.4975 65.0144 57.3919 64.8857 57.2564 64.7951C57.1209 64.7046 56.9616 64.6563 56.7986 64.6563C56.6903 64.656 56.5831 64.6772 56.483 64.7185C56.383 64.7599 56.292 64.8206 56.2155 64.8971C56.1389 64.9737 56.0782 65.0646 56.0369 65.1647C55.9956 65.2647 55.9744 65.372 55.9746 65.4803Z" fill="#263238"/>
<path opacity="0.3" d="M56.4788 65.4802C56.4788 65.5434 56.4975 65.6053 56.5327 65.6579C56.5679 65.7106 56.6178 65.7516 56.6763 65.7758C56.7348 65.8 56.7991 65.8064 56.8612 65.794C56.9233 65.7817 56.9803 65.7512 57.025 65.7064C57.0698 65.6617 57.1003 65.6047 57.1126 65.5426C57.125 65.4805 57.1186 65.4162 57.0944 65.3577C57.0702 65.2992 57.0292 65.2492 56.9765 65.2141C56.9239 65.1789 56.862 65.1602 56.7988 65.1602C56.7139 65.1602 56.6325 65.1939 56.5725 65.2539C56.5125 65.3139 56.4788 65.3953 56.4788 65.4802Z" fill="black"/>
<path d="M56.7986 65.4799L55.9746 65.1695C56.0161 65.0094 56.1048 64.8654 56.2293 64.7564C56.3537 64.6474 56.508 64.5784 56.6722 64.5583C56.8375 64.531 57.0072 64.5529 57.1602 64.6211C57.3132 64.6894 57.4429 64.8011 57.533 64.9423L56.7986 65.4799Z" fill="#263238"/>
<path opacity="0.3" d="M56.7986 65.4799L55.9746 65.1695C56.0161 65.0094 56.1048 64.8654 56.2293 64.7564C56.3537 64.6474 56.508 64.5784 56.6722 64.5583C56.8375 64.531 57.0072 64.5529 57.1602 64.6211C57.3132 64.6894 57.4429 64.8011 57.533 64.9423L56.7986 65.4799Z" fill="white"/>
<path d="M57.3894 63.3672H56.207V64.5496H57.3894V63.3672Z" fill="#263238"/>
<path opacity="0.3" d="M57.3894 63.3672H56.207V64.5496H57.3894V63.3672Z" fill="white"/>
<path d="M64.1719 65.4802C64.1719 65.6432 64.2202 65.8025 64.3107 65.938C64.4013 66.0735 64.53 66.1792 64.6805 66.2415C64.8311 66.3039 64.9968 66.3202 65.1566 66.2884C65.3165 66.2566 65.4633 66.1781 65.5785 66.0629C65.6938 65.9477 65.7722 65.8008 65.804 65.641C65.8358 65.4812 65.8195 65.3155 65.7572 65.1649C65.6948 65.0144 65.5892 64.8857 65.4537 64.7951C65.3182 64.7046 65.1589 64.6562 64.9959 64.6562C64.7773 64.6562 64.5678 64.7431 64.4132 64.8976C64.2587 65.0521 64.1719 65.2617 64.1719 65.4802Z" fill="#263238"/>
<path opacity="0.3" d="M64.6699 65.4802C64.6699 65.5434 64.6887 65.6053 64.7239 65.6579C64.759 65.7106 64.809 65.7516 64.8675 65.7758C64.9259 65.8 64.9903 65.8064 65.0523 65.794C65.1144 65.7817 65.1714 65.7512 65.2162 65.7064C65.2609 65.6617 65.2914 65.6047 65.3038 65.5426C65.3161 65.4805 65.3098 65.4162 65.2856 65.3577C65.2613 65.2992 65.2203 65.2492 65.1677 65.2141C65.1151 65.1789 65.0532 65.1602 64.9899 65.1602C64.9051 65.1602 64.8237 65.1939 64.7636 65.2539C64.7036 65.3139 64.6699 65.3953 64.6699 65.4802Z" fill="black"/>
<path d="M64.9959 65.4796L64.1719 65.1692C64.2135 65.0089 64.3024 64.8648 64.4272 64.7558C64.5519 64.6467 64.7066 64.5778 64.8711 64.558C65.0361 64.5311 65.2055 64.5531 65.3582 64.6214C65.5109 64.6896 65.6402 64.8011 65.7303 64.942L64.9959 65.4796Z" fill="#263238"/>
<path opacity="0.3" d="M64.9959 65.4796L64.1719 65.1692C64.2135 65.0089 64.3024 64.8648 64.4272 64.7558C64.5519 64.6467 64.7066 64.5778 64.8711 64.558C65.0361 64.5311 65.2055 64.5531 65.3582 64.6214C65.5109 64.6896 65.6402 64.8011 65.7303 64.942L64.9959 65.4796Z" fill="white"/>
<path d="M65.6572 63.375H64.4844V64.5478H65.6572V63.375Z" fill="#263238"/>
<path opacity="0.3" d="M65.6572 63.375H64.4844V64.5478H65.6572V63.375Z" fill="white"/>
<path d="M68.373 65.4802C68.373 65.6432 68.4214 65.8025 68.5119 65.938C68.6025 66.0735 68.7312 66.1792 68.8817 66.2415C69.0323 66.3039 69.198 66.3202 69.3578 66.2884C69.5176 66.2566 69.6645 66.1781 69.7797 66.0629C69.8949 65.9477 69.9734 65.8008 70.0052 65.641C70.037 65.4812 70.0207 65.3155 69.9583 65.1649C69.896 65.0144 69.7903 64.8857 69.6548 64.7951C69.5193 64.7046 69.36 64.6562 69.197 64.6562C68.9785 64.6562 68.7689 64.7431 68.6144 64.8976C68.4599 65.0521 68.373 65.2617 68.373 65.4802Z" fill="#263238"/>
<path opacity="0.3" d="M68.8711 65.4802C68.8711 65.5434 68.8899 65.6053 68.925 65.6579C68.9602 65.7106 69.0102 65.7516 69.0686 65.7758C69.1271 65.8 69.1914 65.8064 69.2535 65.794C69.3156 65.7817 69.3726 65.7512 69.4174 65.7064C69.4621 65.6617 69.4926 65.6047 69.5049 65.5426C69.5173 65.4805 69.511 65.4162 69.4867 65.3577C69.4625 65.2992 69.4215 65.2492 69.3689 65.2141C69.3162 65.1789 69.2544 65.1602 69.1911 65.1602C69.1062 65.1602 69.0248 65.1939 68.9648 65.2539C68.9048 65.3139 68.8711 65.3953 68.8711 65.4802Z" fill="black"/>
<path d="M69.197 65.4796L68.373 65.1692C68.4146 65.0089 68.5036 64.8648 68.6283 64.7558C68.7531 64.6467 68.9078 64.5778 69.0722 64.558C69.2373 64.5311 69.4067 64.5531 69.5594 64.6214C69.7121 64.6896 69.8414 64.8011 69.9314 64.942L69.197 65.4796Z" fill="#263238"/>
<path opacity="0.3" d="M69.197 65.4796L68.373 65.1692C68.4146 65.0089 68.5036 64.8648 68.6283 64.7558C68.7531 64.6467 68.9078 64.5778 69.0722 64.558C69.2373 64.5311 69.4067 64.5531 69.5594 64.6214C69.7121 64.6896 69.8414 64.8011 69.9314 64.942L69.197 65.4796Z" fill="white"/>
<path d="M69.7275 63.3945H68.5723V64.5497H69.7275V63.3945Z" fill="#263238"/>
<path opacity="0.3" d="M69.7275 63.3945H68.5723V64.5497H69.7275V63.3945Z" fill="white"/>
<path d="M28.0416 40.5312H34.1376V40.7777C34.1376 41.0323 34.0364 41.2764 33.8564 41.4565C33.6763 41.6365 33.4322 41.7377 33.1776 41.7377H28.9952C28.7405 41.7377 28.4964 41.6365 28.3163 41.4565C28.1363 41.2764 28.0352 41.0323 28.0352 40.7777V40.5312H28.0416Z" fill="#65C541"/>
<path opacity="0.3" d="M28.0416 40.5312H34.1376V40.7777C34.1376 41.0323 34.0364 41.2764 33.8564 41.4565C33.6763 41.6365 33.4322 41.7377 33.1776 41.7377H28.9952C28.7405 41.7377 28.4964 41.6365 28.3163 41.4565C28.1363 41.2764 28.0352 41.0323 28.0352 40.7777V40.5312H28.0416Z" fill="white"/>
<path d="M32.2239 41.7305H29.9551V63.9305H32.2239V41.7305Z" fill="#263238"/>
<path opacity="0.5" d="M32.2239 41.7305H29.9551V63.9305H32.2239V41.7305Z" fill="white"/>
<path d="M36.4948 63.9297H25.6836V64.9009H36.4948V63.9297Z" fill="#263238"/>
<path opacity="0.3" d="M36.4948 63.9297H25.6836V64.9009H36.4948V63.9297Z" fill="white"/>
<path d="M36.4963 66.6175C36.9699 66.6175 37.3539 66.2336 37.3539 65.7599C37.3539 65.2863 36.9699 64.9023 36.4963 64.9023C36.0226 64.9023 35.6387 65.2863 35.6387 65.7599C35.6387 66.2336 36.0226 66.6175 36.4963 66.6175Z" fill="#263238"/>
<path opacity="0.3" d="M36.4959 66.1871C36.731 66.1871 36.9215 65.9966 36.9215 65.7615C36.9215 65.5265 36.731 65.3359 36.4959 65.3359C36.2609 65.3359 36.0703 65.5265 36.0703 65.7615C36.0703 65.9966 36.2609 66.1871 36.4959 66.1871Z" fill="black"/>
<path d="M35.6387 65.3311L36.0819 65.7615H36.4963V64.9023H35.6387V65.3311Z" fill="#263238"/>
<path opacity="0.2" d="M35.6387 65.3311L36.0819 65.7615H36.4963V64.9023H35.6387V65.3311Z" fill="white"/>
<path d="M25.6838 66.6175C26.1574 66.6175 26.5414 66.2336 26.5414 65.7599C26.5414 65.2863 26.1574 64.9023 25.6838 64.9023C25.2101 64.9023 24.8262 65.2863 24.8262 65.7599C24.8262 66.2336 25.2101 66.6175 25.6838 66.6175Z" fill="#263238"/>
<path opacity="0.3" d="M25.6837 66.1871C25.9187 66.1871 26.1093 65.9966 26.1093 65.7615C26.1093 65.5265 25.9187 65.3359 25.6837 65.3359C25.4486 65.3359 25.2581 65.5265 25.2581 65.7615C25.2581 65.9966 25.4486 66.1871 25.6837 66.1871Z" fill="black"/>
<path d="M26.5428 65.3311L26.098 65.7615H25.6836V64.9023H26.5428V65.3311Z" fill="#263238"/>
<path opacity="0.2" d="M26.5428 65.3311L26.098 65.7615H25.6836V64.9023H26.5428V65.3311Z" fill="white"/>
<path d="M33.9578 35.5195H28.2218C27.5988 35.5195 27.0938 36.0246 27.0938 36.6475V39.4027C27.0938 40.0257 27.5988 40.5307 28.2218 40.5307H33.9578C34.5807 40.5307 35.0857 40.0257 35.0857 39.4027V36.6475C35.0857 36.0246 34.5807 35.5195 33.9578 35.5195Z" fill="#65C541"/>
<path opacity="0.5" d="M33.9578 35.5195H28.2218C27.5988 35.5195 27.0938 36.0246 27.0938 36.6475V39.4027C27.0938 40.0257 27.5988 40.5307 28.2218 40.5307H33.9578C34.5807 40.5307 35.0857 40.0257 35.0857 39.4027V36.6475C35.0857 36.0246 34.5807 35.5195 33.9578 35.5195Z" fill="white"/>
<path d="M32.7087 35.9844H28.0527V39.3156H32.7087V35.9844Z" fill="#E0E0E0"/>
<path d="M34.5464 40.0025C34.7779 40.0025 34.9656 39.8148 34.9656 39.5833C34.9656 39.3517 34.7779 39.1641 34.5464 39.1641C34.3149 39.1641 34.1272 39.3517 34.1272 39.5833C34.1272 39.8148 34.3149 40.0025 34.5464 40.0025Z" fill="#263238"/>
<path d="M34.6187 38.6083C34.8104 38.6083 34.9659 38.5438 34.9659 38.4643C34.9659 38.3848 34.8104 38.3203 34.6187 38.3203C34.4269 38.3203 34.2715 38.3848 34.2715 38.4643C34.2715 38.5438 34.4269 38.6083 34.6187 38.6083Z" fill="#263238"/>
<path d="M34.6187 38.1903C34.8104 38.1903 34.9659 38.1259 34.9659 38.0463C34.9659 37.9668 34.8104 37.9023 34.6187 37.9023C34.4269 37.9023 34.2715 37.9668 34.2715 38.0463C34.2715 38.1259 34.4269 38.1903 34.6187 38.1903Z" fill="#263238"/>
<path d="M34.6187 37.7724C34.8104 37.7724 34.9659 37.7079 34.9659 37.6284C34.9659 37.5488 34.8104 37.4844 34.6187 37.4844C34.4269 37.4844 34.2715 37.5488 34.2715 37.6284C34.2715 37.7079 34.4269 37.7724 34.6187 37.7724Z" fill="#263238"/>
<path d="M34.6187 37.3505C34.8104 37.3505 34.9659 37.286 34.9659 37.2065C34.9659 37.127 34.8104 37.0625 34.6187 37.0625C34.4269 37.0625 34.2715 37.127 34.2715 37.2065C34.2715 37.286 34.4269 37.3505 34.6187 37.3505Z" fill="#263238"/>
<path d="M34.6187 36.9286C34.8104 36.9286 34.9659 36.8642 34.9659 36.7846C34.9659 36.7051 34.8104 36.6406 34.6187 36.6406C34.4269 36.6406 34.2715 36.7051 34.2715 36.7846C34.2715 36.8642 34.4269 36.9286 34.6187 36.9286Z" fill="#263238"/>
<path d="M34.6187 36.5107C34.8104 36.5107 34.9659 36.4462 34.9659 36.3667C34.9659 36.2871 34.8104 36.2227 34.6187 36.2227C34.4269 36.2227 34.2715 36.2871 34.2715 36.3667C34.2715 36.4462 34.4269 36.5107 34.6187 36.5107Z" fill="#263238"/>
<path d="M33.4766 40.4101C33.5499 40.4101 33.6094 40.3507 33.6094 40.2773C33.6094 40.204 33.5499 40.1445 33.4766 40.1445C33.4032 40.1445 33.3438 40.204 33.3438 40.2773C33.3438 40.3507 33.4032 40.4101 33.4766 40.4101Z" fill="#263238"/>
<path d="M32.9023 40.4101C32.9757 40.4101 33.0351 40.3507 33.0351 40.2773C33.0351 40.204 32.9757 40.1445 32.9023 40.1445C32.829 40.1445 32.7695 40.204 32.7695 40.2773C32.7695 40.3507 32.829 40.4101 32.9023 40.4101Z" fill="#263238"/>
<path d="M32.7514 35.2969H28.0122C27.5049 35.2969 27.0938 35.7081 27.0938 36.2153V39.0825C27.0938 39.5897 27.5049 40.0009 28.0122 40.0009H32.7514C33.2586 40.0009 33.6698 39.5897 33.6698 39.0825V36.2153C33.6698 35.7081 33.2586 35.2969 32.7514 35.2969Z" fill="#65C541"/>
<path opacity="0.2" d="M32.7514 35.2969H28.0122C27.5049 35.2969 27.0938 35.7081 27.0938 36.2153V39.0825C27.0938 39.5897 27.5049 40.0009 28.0122 40.0009H32.7514C33.2586 40.0009 33.6698 39.5897 33.6698 39.0825V36.2153C33.6698 35.7081 33.2586 35.2969 32.7514 35.2969Z" fill="white"/>
<path d="M33.0378 36.0234H27.7578V39.3962H33.0378V36.0234Z" fill="#263238"/>
<path opacity="0.7" d="M33.0378 36.0234H27.7578V39.3962H33.0378V36.0234Z" fill="white"/>
<path d="M29.3206 37.9527C29.2849 37.9292 29.2562 37.8966 29.2374 37.8583C29.2157 37.8124 29.2053 37.7619 29.207 37.7111C29.2053 37.6603 29.2157 37.6099 29.2374 37.5639C29.2557 37.5253 29.2846 37.4926 29.3206 37.4695C29.3581 37.4481 29.4006 37.4371 29.4438 37.4375C29.487 37.4369 29.5295 37.448 29.567 37.4695C29.6034 37.4921 29.6323 37.525 29.6502 37.5639C29.6718 37.6099 29.6823 37.6603 29.6806 37.7111C29.6823 37.7619 29.6718 37.8124 29.6502 37.8583C29.6319 37.897 29.603 37.9297 29.567 37.9527C29.5295 37.9743 29.487 37.9853 29.4438 37.9847C29.4006 37.9852 29.3581 37.9741 29.3206 37.9527ZM29.503 37.7111C29.503 37.6231 29.4838 37.5783 29.4438 37.5783C29.4038 37.5783 29.3846 37.6231 29.3846 37.7111C29.3846 37.7991 29.4038 37.8439 29.4438 37.8439C29.4838 37.8439 29.503 37.7991 29.503 37.7111Z" fill="#65C541"/>
<path d="M29.8399 37.9527C29.8034 37.9298 29.774 37.8971 29.7551 37.8583C29.7344 37.812 29.724 37.7618 29.7247 37.7111C29.7238 37.6604 29.7342 37.6102 29.7551 37.5639C29.7735 37.5248 29.803 37.492 29.8399 37.4695C29.8767 37.4479 29.9188 37.4369 29.9615 37.4375C30.0047 37.4369 30.0472 37.448 30.0847 37.4695C30.1216 37.492 30.151 37.5248 30.1695 37.5639C30.1903 37.6102 30.2007 37.6604 30.1999 37.7111C30.2005 37.7618 30.1901 37.812 30.1695 37.8583C30.1505 37.8971 30.1211 37.9298 30.0847 37.9527C30.0472 37.9743 30.0047 37.9853 29.9615 37.9847C29.9188 37.9854 29.8767 37.9743 29.8399 37.9527ZM30.0223 37.7111C30.0223 37.6231 30.0015 37.5783 29.9615 37.5783C29.9215 37.5783 29.9023 37.6231 29.9023 37.7111C29.9023 37.7991 29.9231 37.8439 29.9615 37.8439C29.9999 37.8439 30.0223 37.7991 30.0223 37.7111Z" fill="#65C541"/>
<path d="M29.3833 38.9293C29.3469 38.9067 29.3179 38.8739 29.3001 38.8349C29.2784 38.789 29.268 38.7385 29.2697 38.6877C29.2683 38.6375 29.2787 38.5876 29.3001 38.5421C29.3175 38.5029 29.3466 38.4699 29.3833 38.4477C29.4203 38.4249 29.4631 38.4132 29.5065 38.4141C29.5499 38.4135 29.5926 38.4251 29.6297 38.4477C29.6661 38.4704 29.695 38.5032 29.7129 38.5421C29.7343 38.5876 29.7448 38.6375 29.7433 38.6877C29.745 38.7385 29.7346 38.789 29.7129 38.8349C29.6951 38.8742 29.6659 38.9072 29.6291 38.9297C29.5923 38.9523 29.5496 38.9633 29.5065 38.9613C29.4632 38.9627 29.4205 38.9516 29.3833 38.9293ZM29.5657 38.6877C29.5657 38.5997 29.5465 38.5565 29.5065 38.5565C29.4665 38.5565 29.4457 38.5997 29.4457 38.6877C29.4457 38.7757 29.4665 38.8205 29.5065 38.8205C29.5465 38.8205 29.5657 38.7757 29.5657 38.6877Z" fill="#65C541"/>
<path d="M29.8989 38.9293C29.8629 38.9062 29.8341 38.8735 29.8157 38.8349C29.7941 38.789 29.7836 38.7385 29.7853 38.6877C29.7839 38.6375 29.7943 38.5876 29.8157 38.5421C29.8336 38.5032 29.8626 38.4704 29.8989 38.4477C29.936 38.4251 29.9787 38.4135 30.0221 38.4141C30.0656 38.4132 30.1084 38.4249 30.1453 38.4477C30.1821 38.4699 30.2111 38.5029 30.2285 38.5421C30.25 38.5876 30.2604 38.6375 30.2589 38.6877C30.2606 38.7385 30.2502 38.789 30.2285 38.8349C30.2107 38.8739 30.1818 38.9067 30.1453 38.9293C30.1082 38.9516 30.0654 38.9627 30.0221 38.9613C29.9789 38.9625 29.9361 38.9514 29.8989 38.9293ZM30.0781 38.6877C30.0781 38.5997 30.0573 38.5565 30.0173 38.5565C29.9773 38.5565 29.9581 38.5997 29.9581 38.6877C29.9581 38.7757 29.9773 38.8205 30.0173 38.8205C30.0573 38.8205 30.0781 38.7757 30.0781 38.6877Z" fill="#65C541"/>
<path d="M30.6934 38.9293C30.6565 38.9068 30.627 38.874 30.6086 38.8349C30.5877 38.7887 30.5773 38.7384 30.5782 38.6877C30.5774 38.6375 30.5877 38.5878 30.6086 38.5421C30.6266 38.5028 30.6562 38.4698 30.6934 38.4477C30.7298 38.4249 30.772 38.4132 30.815 38.4141C30.8584 38.4132 30.9012 38.4249 30.9382 38.4477C30.9754 38.4698 31.005 38.5028 31.023 38.5421C31.0438 38.5878 31.0542 38.6375 31.0534 38.6877C31.0542 38.7384 31.0438 38.7887 31.023 38.8349C31.0046 38.874 30.9751 38.9068 30.9382 38.9293C30.901 38.9516 30.8583 38.9627 30.815 38.9613C30.7722 38.9627 30.7299 38.9516 30.6934 38.9293ZM30.879 38.6877C30.879 38.5997 30.8582 38.5565 30.8182 38.5565C30.7782 38.5565 30.759 38.5997 30.759 38.6877C30.759 38.7757 30.7782 38.8205 30.8182 38.8205C30.8582 38.8205 30.879 38.7757 30.879 38.6877Z" fill="#65C541"/>
<path d="M31.2095 38.9293C31.1731 38.9067 31.1441 38.8739 31.1263 38.8349C31.1046 38.789 31.0942 38.7385 31.0959 38.6877C31.0944 38.6375 31.1049 38.5876 31.1263 38.5421C31.1437 38.5029 31.1727 38.4699 31.2095 38.4477C31.2465 38.4249 31.2892 38.4132 31.3327 38.4141C31.3761 38.4135 31.4188 38.4251 31.4559 38.4477C31.4922 38.4704 31.5212 38.5032 31.5391 38.5421C31.5605 38.5876 31.5709 38.6375 31.5695 38.6877C31.5712 38.7385 31.5608 38.789 31.5391 38.8349C31.5212 38.8742 31.492 38.9072 31.4552 38.9297C31.4185 38.9523 31.3758 38.9633 31.3327 38.9613C31.2894 38.9627 31.2466 38.9516 31.2095 38.9293ZM31.3919 38.6877C31.3919 38.5997 31.3727 38.5565 31.3327 38.5565C31.2927 38.5565 31.2719 38.5997 31.2719 38.6877C31.2719 38.7757 31.2927 38.8205 31.3327 38.8205C31.3727 38.8205 31.3919 38.7757 31.3919 38.6877Z" fill="#65C541"/>
<path d="M30.78 37.9527C30.7435 37.9298 30.7141 37.8971 30.6952 37.8583C30.6751 37.8119 30.6652 37.7617 30.6664 37.7111C30.6651 37.6605 30.6749 37.6103 30.6952 37.5639C30.7136 37.5248 30.7431 37.492 30.78 37.4695C30.8174 37.448 30.86 37.4369 30.9032 37.4375C30.9459 37.4369 30.9879 37.4479 31.0248 37.4695C31.0617 37.492 31.0912 37.5248 31.1096 37.5639C31.1304 37.6102 31.1408 37.6604 31.14 37.7111C31.1406 37.7618 31.1302 37.812 31.1096 37.8583C31.0906 37.8971 31.0613 37.9298 31.0248 37.9527C30.9879 37.9743 30.9459 37.9854 30.9032 37.9847C30.86 37.9853 30.8174 37.9743 30.78 37.9527ZM30.9624 37.7111C30.9624 37.6231 30.9432 37.5783 30.9032 37.5783C30.8632 37.5783 30.8424 37.6231 30.8424 37.7111C30.8424 37.7991 30.8632 37.8439 30.9032 37.8439C30.9432 37.8439 30.9624 37.7991 30.9624 37.7111Z" fill="#65C541"/>
<path d="M31.2974 37.9528C31.2613 37.9297 31.2325 37.897 31.2142 37.8584C31.1925 37.8124 31.1821 37.7619 31.1838 37.7112C31.1821 37.6604 31.1925 37.6099 31.2142 37.564C31.232 37.525 31.2609 37.4921 31.2974 37.4696C31.335 37.4485 31.3774 37.4375 31.4206 37.4375C31.4637 37.4375 31.5061 37.4485 31.5438 37.4696C31.5802 37.4921 31.6091 37.525 31.627 37.564C31.6486 37.6099 31.6591 37.6604 31.6574 37.7112C31.6591 37.7619 31.6486 37.8124 31.627 37.8584C31.6087 37.897 31.5798 37.9297 31.5438 37.9528C31.5061 37.9738 31.4637 37.9848 31.4206 37.9848C31.3774 37.9848 31.335 37.9738 31.2974 37.9528ZM31.4798 37.7112C31.4798 37.6232 31.4606 37.5784 31.4206 37.5784C31.3806 37.5784 31.3614 37.6232 31.3614 37.7112C31.3614 37.7992 31.3806 37.844 31.4206 37.844C31.4606 37.844 31.4798 37.7992 31.4798 37.7112Z" fill="#65C541"/>
<path d="M30.4435 38.5117H30.5187L30.3955 38.8637H30.3203L30.4435 38.5117Z" fill="#65C541"/>
<path d="M30.8303 36.6875H27.9375V36.7243H30.8303V36.6875Z" fill="#65C541"/>
<path d="M31.0428 37.0158V36.4414H31.0156V37.0158V37.0446H31.0428H32.798V37.0158H31.0428Z" fill="#65C541"/>
<path d="M31.5694 34.6263H29.5534C29.4579 34.6263 29.3663 34.5883 29.2988 34.5208C29.2313 34.4533 29.1934 34.3617 29.1934 34.2663C29.1934 34.1708 29.2313 34.0792 29.2988 34.0117C29.3663 33.9442 29.4579 33.9062 29.5534 33.9062H31.5694C31.6648 33.9062 31.7564 33.9442 31.8239 34.0117C31.8914 34.0792 31.9294 34.1708 31.9294 34.2663C31.9294 34.3617 31.8914 34.4533 31.8239 34.5208C31.7564 34.5883 31.6648 34.6263 31.5694 34.6263Z" fill="#65C541"/>
<path opacity="0.1" d="M31.5694 34.6263H29.5534C29.4579 34.6263 29.3663 34.5883 29.2988 34.5208C29.2313 34.4533 29.1934 34.3617 29.1934 34.2663C29.1934 34.1708 29.2313 34.0792 29.2988 34.0117C29.3663 33.9442 29.4579 33.9062 29.5534 33.9062H31.5694C31.6648 33.9062 31.7564 33.9442 31.8239 34.0117C31.8914 34.0792 31.9294 34.1708 31.9294 34.2663C31.9294 34.3617 31.8914 34.4533 31.8239 34.5208C31.7564 34.5883 31.6648 34.6263 31.5694 34.6263Z" fill="white"/>
<path d="M29.1943 34.082V35.306H28.9062V34.37C28.9063 34.2936 28.9366 34.2204 28.9906 34.1664C29.0446 34.1124 29.1179 34.082 29.1943 34.082Z" fill="#263238"/>
<path opacity="0.3" d="M29.1943 34.082V35.306H28.9062V34.37C28.9063 34.2936 28.9366 34.2204 28.9906 34.1664C29.0446 34.1124 29.1179 34.082 29.1943 34.082Z" fill="white"/>
<path d="M31.9297 34.082V35.306H32.2177V34.37C32.2177 34.3322 32.2102 34.2948 32.1958 34.2598C32.1813 34.2249 32.1601 34.1931 32.1333 34.1664C32.1066 34.1396 32.0748 34.1184 32.0399 34.104C32.005 34.0895 31.9675 34.082 31.9297 34.082Z" fill="#263238"/>
<path opacity="0.3" d="M31.9297 34.082V35.306H32.2177V34.37C32.2177 34.3322 32.2102 34.2948 32.1958 34.2598C32.1813 34.2249 32.1601 34.1931 32.1333 34.1664C32.1066 34.1396 32.0748 34.1184 32.0399 34.104C32.005 34.0895 31.9675 34.082 31.9297 34.082Z" fill="white"/>
<path d="M31.1033 51.6719H14.7129V53.7839H31.1033V51.6719Z" fill="#263238"/>
<path opacity="0.2" d="M31.1033 51.6719H14.7129V53.7839H31.1033V51.6719Z" fill="white"/>
<path d="M12.886 66.545C13.8952 66.545 14.7132 65.727 14.7132 64.7178C14.7132 63.7087 13.8952 62.8906 12.886 62.8906C11.8769 62.8906 11.0588 63.7087 11.0588 64.7178C11.0588 65.727 11.8769 66.545 12.886 66.545Z" fill="#263238"/>
<path opacity="0.2" d="M13.7331 64.7152C13.7331 64.8829 13.6834 65.0469 13.5902 65.1863C13.497 65.3258 13.3646 65.4345 13.2096 65.4986C13.0547 65.5628 12.8842 65.5796 12.7197 65.5469C12.5552 65.5142 12.4041 65.4334 12.2855 65.3148C12.1669 65.1962 12.0861 65.0451 12.0534 64.8806C12.0207 64.7161 12.0375 64.5456 12.1017 64.3907C12.1658 64.2357 12.2745 64.1033 12.414 64.0101C12.5534 63.9169 12.7174 63.8672 12.8851 63.8672C12.9965 63.867 13.1069 63.8888 13.2099 63.9313C13.3129 63.9738 13.4064 64.0363 13.4852 64.1151C13.564 64.1939 13.6264 64.2874 13.669 64.3904C13.7115 64.4934 13.7333 64.6038 13.7331 64.7152Z" fill="black"/>
<path d="M52.9665 53.3832L12.9453 59.6289L13.1205 60.7513L53.1417 54.5056L52.9665 53.3832Z" fill="#263238"/>
<path opacity="0.3" d="M52.9665 53.3832L12.9453 59.6289L13.1205 60.7513L53.1417 54.5056L52.9665 53.3832Z" fill="white"/>
<path d="M12.9454 54.5082L52.9666 60.7539L53.1417 59.6315L13.1205 53.3858L12.9454 54.5082Z" fill="#263238"/>
<path opacity="0.2" d="M12.9454 54.5082L52.9666 60.7539L53.1417 59.6315L13.1205 53.3858L12.9454 54.5082Z" fill="white"/>
<path d="M26.982 47.92L13.7612 43.4672C13.6165 43.4189 13.4586 43.4298 13.3219 43.4976C13.1852 43.5653 13.0808 43.6844 13.0316 43.8288L12.262 46.1152C12.2307 46.2082 12.218 46.3064 12.2246 46.4043C12.2313 46.5022 12.2572 46.5978 12.3009 46.6857C12.3446 46.7735 12.4052 46.8519 12.4793 46.9162C12.5533 46.9806 12.6394 47.0297 12.7324 47.0608L25.8988 51.6544H53.0076C53.1612 51.6544 53.3086 51.5934 53.4172 51.4848C53.5258 51.3761 53.5868 51.2288 53.5868 51.0752V48.3856C53.5868 48.3243 53.5747 48.2637 53.5512 48.2071C53.5277 48.1505 53.4933 48.0991 53.4499 48.0558C53.4065 48.0126 53.355 47.9783 53.2983 47.955C53.2416 47.9317 53.1809 47.9198 53.1196 47.92H26.982Z" fill="#263238"/>
<path d="M11.0845 53.7832H10.2125C10.0501 53.7823 9.89467 53.7172 9.78014 53.6021C9.66561 53.487 9.60132 53.3312 9.60132 53.1688V44.8488C9.60132 44.6858 9.66605 44.5296 9.78127 44.4143C9.89649 44.2991 10.0528 44.2344 10.2157 44.2344H10.4733C10.6225 44.2343 10.7666 44.2884 10.8788 44.3868C10.9909 44.4851 11.0635 44.6209 11.0829 44.7688L11.6973 49.4616C11.699 49.4882 11.699 49.5149 11.6973 49.5416V53.1688C11.6973 53.3314 11.6328 53.4875 11.5179 53.6027C11.4031 53.7178 11.2472 53.7828 11.0845 53.7832Z" fill="#65C541"/>
<path opacity="0.5" d="M11.0845 53.7832H10.2125C10.0501 53.7823 9.89467 53.7172 9.78014 53.6021C9.66561 53.487 9.60132 53.3312 9.60132 53.1688V44.8488C9.60132 44.6858 9.66605 44.5296 9.78127 44.4143C9.89649 44.2991 10.0528 44.2344 10.2157 44.2344H10.4733C10.6225 44.2343 10.7666 44.2884 10.8788 44.3868C10.9909 44.4851 11.0635 44.6209 11.0829 44.7688L11.6973 49.4616C11.699 49.4882 11.699 49.5149 11.6973 49.5416V53.1688C11.6973 53.3314 11.6328 53.4875 11.5179 53.6027C11.4031 53.7178 11.2472 53.7828 11.0845 53.7832Z" fill="white"/>
<path d="M54.2588 53.1465H55.1308C55.2937 53.1465 55.45 53.0817 55.5652 52.9665C55.6805 52.8513 55.7452 52.695 55.7452 52.5321V44.2121C55.7452 44.0491 55.6805 43.8928 55.5652 43.7776C55.45 43.6624 55.2937 43.5977 55.1308 43.5977H54.8812C54.7323 43.5979 54.5886 43.6523 54.4768 43.7506C54.3649 43.8489 54.2926 43.9844 54.2732 44.1321L53.6572 48.8249C53.6556 48.8515 53.6556 48.8782 53.6572 48.9049V52.5273C53.6559 52.6888 53.7183 52.8444 53.8309 52.9603C53.9435 53.0762 54.0972 53.1431 54.2588 53.1465Z" fill="#65C541"/>
<path opacity="0.5" d="M54.2588 53.1465H55.1308C55.2937 53.1465 55.45 53.0817 55.5652 52.9665C55.6805 52.8513 55.7452 52.695 55.7452 52.5321V44.2121C55.7452 44.0491 55.6805 43.8928 55.5652 43.7776C55.45 43.6624 55.2937 43.5977 55.1308 43.5977H54.8812C54.7323 43.5979 54.5886 43.6523 54.4768 43.7506C54.3649 43.8489 54.2926 43.9844 54.2732 44.1321L53.6572 48.8249C53.6556 48.8515 53.6556 48.8782 53.6572 48.9049V52.5273C53.6559 52.6888 53.7183 52.8444 53.8309 52.9603C53.9435 53.0762 54.0972 53.1431 54.2588 53.1465Z" fill="white"/>
<path d="M28.0896 51.6719H11.6992V53.7839H28.0896V51.6719Z" fill="#65C541"/>
<path opacity="0.4" d="M28.0896 51.6719H11.6992V53.7839H28.0896V51.6719Z" fill="white"/>
<path d="M53.6438 51.6719H28.3398V53.7839H53.6438V51.6719Z" fill="#65C541"/>
<path opacity="0.4" d="M53.6438 51.6719H28.3398V53.7839H53.6438V51.6719Z" fill="white"/>
<path d="M53.5859 60.3477H12.7539V62.4821H53.5859V60.3477Z" fill="#65C541"/>
<path opacity="0.4" d="M53.5859 60.3477H12.7539V62.4821H53.5859V60.3477Z" fill="white"/>
<path d="M9.52121 40.801L7.85081 45.313C7.68021 45.7782 7.70096 46.292 7.9085 46.7418C8.11603 47.1917 8.49343 47.5409 8.95801 47.713L25.2812 53.761C26.0524 54.0458 30.7212 51.7082 29.414 50.2266C28.1068 48.745 24.4812 44.3418 21.8188 43.361L11.926 39.6986C11.4609 39.5263 10.9464 39.5456 10.4955 39.7523C10.0446 39.959 9.69422 40.3362 9.52121 40.801ZM21.5212 45.4602C21.5599 45.3545 21.62 45.2579 21.6976 45.1764C21.7752 45.0948 21.8687 45.03 21.9723 44.9861C22.076 44.9421 22.1876 44.9199 22.3001 44.9209C22.4127 44.9218 22.5239 44.9458 22.6268 44.9914C23.9404 45.5818 25.1356 46.6058 26.254 47.9162C26.3723 48.0553 26.4411 48.2297 26.4496 48.412C26.4581 48.5944 26.4058 48.7744 26.3008 48.9238C26.1959 49.0732 26.0444 49.1836 25.87 49.2375C25.6955 49.2914 25.5081 49.2859 25.3372 49.2218L21.5292 47.8122C21.3254 47.7351 21.1604 47.5803 21.0705 47.3818C20.9805 47.1832 20.9729 46.9572 21.0492 46.753L21.5212 45.4602ZM10.6412 41.7098C10.6861 41.5884 10.7545 41.4769 10.8425 41.3819C10.9305 41.2868 11.0364 41.2101 11.1541 41.156C11.2718 41.1019 11.399 41.0715 11.5284 41.0666C11.6578 41.0617 11.787 41.0824 11.9084 41.1274L17.838 43.3226C18.0351 43.3958 18.2036 43.5302 18.3188 43.7062C18.434 43.8821 18.4898 44.0903 18.478 44.3002L18.43 45.1978C18.4216 45.3522 18.3771 45.5024 18.3 45.6363C18.2229 45.7702 18.1154 45.8842 17.9861 45.9689C17.8569 46.0536 17.7095 46.1067 17.5559 46.124C17.4023 46.1413 17.2468 46.1222 17.102 46.0682L10.9292 43.785C10.8077 43.7401 10.6963 43.6717 10.6012 43.5837C10.5062 43.4957 10.4294 43.3898 10.3754 43.2722C10.3213 43.1545 10.2909 43.0273 10.286 42.8978C10.2811 42.7684 10.3018 42.6393 10.3468 42.5178L10.6412 41.7098Z" fill="#65C541"/>
<path opacity="0.7" d="M9.52121 40.801L7.85081 45.313C7.68021 45.7782 7.70096 46.292 7.9085 46.7418C8.11603 47.1917 8.49343 47.5409 8.95801 47.713L25.2812 53.761C26.0524 54.0458 30.7212 51.7082 29.414 50.2266C28.1068 48.745 24.4812 44.3418 21.8188 43.361L11.926 39.6986C11.4609 39.5263 10.9464 39.5456 10.4955 39.7523C10.0446 39.959 9.69422 40.3362 9.52121 40.801ZM21.5212 45.4602C21.5599 45.3545 21.62 45.2579 21.6976 45.1764C21.7752 45.0948 21.8687 45.03 21.9723 44.9861C22.076 44.9421 22.1876 44.9199 22.3001 44.9209C22.4127 44.9218 22.5239 44.9458 22.6268 44.9914C23.9404 45.5818 25.1356 46.6058 26.254 47.9162C26.3723 48.0553 26.4411 48.2297 26.4496 48.412C26.4581 48.5944 26.4058 48.7744 26.3008 48.9238C26.1959 49.0732 26.0444 49.1836 25.87 49.2375C25.6955 49.2914 25.5081 49.2859 25.3372 49.2218L21.5292 47.8122C21.3254 47.7351 21.1604 47.5803 21.0705 47.3818C20.9805 47.1832 20.9729 46.9572 21.0492 46.753L21.5212 45.4602ZM10.6412 41.7098C10.6861 41.5884 10.7545 41.4769 10.8425 41.3819C10.9305 41.2868 11.0364 41.2101 11.1541 41.156C11.2718 41.1019 11.399 41.0715 11.5284 41.0666C11.6578 41.0617 11.787 41.0824 11.9084 41.1274L17.838 43.3226C18.0351 43.3958 18.2036 43.5302 18.3188 43.7062C18.434 43.8821 18.4898 44.0903 18.478 44.3002L18.43 45.1978C18.4216 45.3522 18.3771 45.5024 18.3 45.6363C18.2229 45.7702 18.1154 45.8842 17.9861 45.9689C17.8569 46.0536 17.7095 46.1067 17.5559 46.124C17.4023 46.1413 17.2468 46.1222 17.102 46.0682L10.9292 43.785C10.8077 43.7401 10.6963 43.6717 10.6012 43.5837C10.5062 43.4957 10.4294 43.3898 10.3754 43.2722C10.3213 43.1545 10.2909 43.0273 10.286 42.8978C10.2811 42.7684 10.3018 42.6393 10.3468 42.5178L10.6412 41.7098Z" fill="white"/>
<path d="M13.4499 58.9844H13.8643C14.0489 58.9844 14.2259 59.0577 14.3565 59.1882C14.487 59.3188 14.5603 59.4958 14.5603 59.6804V60.3476H12.7539V59.6804C12.7539 59.4958 12.8272 59.3188 12.9578 59.1882C13.0883 59.0577 13.2653 58.9844 13.4499 58.9844Z" fill="#263238"/>
<path opacity="0.1" d="M13.4499 58.9844H13.8643C14.0489 58.9844 14.2259 59.0577 14.3565 59.1882C14.487 59.3188 14.5603 59.4958 14.5603 59.6804V60.3476H12.7539V59.6804C12.7539 59.4958 12.8272 59.3188 12.9578 59.1882C13.0883 59.0577 13.2653 58.9844 13.4499 58.9844Z" fill="white"/>
<path d="M13.8626 55.1484H13.4482C13.2636 55.1484 13.0866 55.0751 12.956 54.9446C12.8255 54.8141 12.7522 54.637 12.7522 54.4524V53.7852H14.5586V54.4524C14.5586 54.637 14.4853 54.8141 14.3547 54.9446C14.2242 55.0751 14.0472 55.1484 13.8626 55.1484Z" fill="#263238"/>
<path opacity="0.1" d="M13.8626 55.1484H13.4482C13.2636 55.1484 13.0866 55.0751 12.956 54.9446C12.8255 54.8141 12.7522 54.637 12.7522 54.4524V53.7852H14.5586V54.4524C14.5586 54.637 14.4853 54.8141 14.3547 54.9446C14.2242 55.0751 14.0472 55.1484 13.8626 55.1484Z" fill="white"/>
<path d="M52.9554 55.1484H52.5362C52.3517 55.1484 52.1746 55.0751 52.0441 54.9446C51.9136 54.814 51.8402 54.637 51.8402 54.4524V53.7852H53.6562V54.4524C53.6563 54.5442 53.6381 54.6351 53.6028 54.7199C53.5675 54.8046 53.5158 54.8816 53.4507 54.9463C53.3856 55.011 53.3083 55.0621 53.2233 55.0968C53.1383 55.1315 53.0473 55.1491 52.9554 55.1484Z" fill="#263238"/>
<path opacity="0.1" d="M52.9554 55.1484H52.5362C52.3517 55.1484 52.1746 55.0751 52.0441 54.9446C51.9136 54.814 51.8402 54.637 51.8402 54.4524V53.7852H53.6562V54.4524C53.6563 54.5442 53.6381 54.6351 53.6028 54.7199C53.5675 54.8046 53.5158 54.8816 53.4507 54.9463C53.3856 55.011 53.3083 55.0621 53.2233 55.0968C53.1383 55.1315 53.0473 55.1491 52.9554 55.1484Z" fill="white"/>
<path d="M52.5426 58.9844H52.9618C53.1464 58.9844 53.3234 59.0577 53.4539 59.1882C53.5845 59.3188 53.6578 59.4958 53.6578 59.6804V60.3476H51.8418V59.6804C51.8418 59.5886 51.86 59.4977 51.8952 59.4129C51.9305 59.3282 51.9822 59.2512 52.0473 59.1865C52.1125 59.1218 52.1898 59.0707 52.2748 59.036C52.3598 59.0013 52.4508 58.9838 52.5426 58.9844Z" fill="#263238"/>
<path opacity="0.1" d="M52.5426 58.9844H52.9618C53.1464 58.9844 53.3234 59.0577 53.4539 59.1882C53.5845 59.3188 53.6578 59.4958 53.6578 59.6804V60.3476H51.8418V59.6804C51.8418 59.5886 51.86 59.4977 51.8952 59.4129C51.9305 59.3282 51.9822 59.2512 52.0473 59.1865C52.1125 59.1218 52.1898 59.0707 52.2748 59.036C52.3598 59.0013 52.4508 58.9838 52.5426 58.9844Z" fill="white"/>
<path d="M33.2699 58.1763C33.9552 57.8932 34.2813 57.1082 33.9982 56.4228C33.7152 55.7375 32.9301 55.4114 32.2448 55.6945C31.5595 55.9776 31.2334 56.7626 31.5164 57.4479C31.7995 58.1333 32.5846 58.4593 33.2699 58.1763Z" fill="#263238"/>
<path opacity="0.1" d="M33.2699 58.1763C33.9552 57.8932 34.2813 57.1082 33.9982 56.4228C33.7152 55.7375 32.9301 55.4114 32.2448 55.6945C31.5595 55.9776 31.2334 56.7626 31.5164 57.4479C31.7995 58.1333 32.5846 58.4593 33.2699 58.1763Z" fill="white"/>
<path d="M51.3613 51.793H40.8125C37.9821 51.793 33.0525 54.6618 31.3149 55.5978C29.5773 56.5338 33.1421 60.3466 33.9629 60.3466H51.3613C51.6073 60.3468 51.8509 60.2985 52.0782 60.2045C52.3055 60.1105 52.512 59.9727 52.686 59.7988C52.86 59.625 52.9981 59.4186 53.0923 59.1913C53.1864 58.9641 53.2349 58.7205 53.2349 58.4746V53.665C53.2349 53.419 53.1864 53.1754 53.0923 52.9482C52.9981 52.721 52.86 52.5146 52.686 52.3407C52.512 52.1668 52.3055 52.029 52.0782 51.935C51.8509 51.841 51.6073 51.7928 51.3613 51.793ZM40.3581 55.2458C40.3577 55.4645 40.2705 55.674 40.1157 55.8285C39.9609 55.983 39.7512 56.0698 39.5325 56.0698H35.4717C35.2898 56.0694 35.1131 56.009 34.9691 55.8979C34.825 55.7867 34.7217 55.6312 34.6752 55.4553C34.6287 55.2794 34.6416 55.0931 34.7118 54.9253C34.7821 54.7575 34.9058 54.6176 35.0637 54.5274C36.5677 53.6874 38.0445 53.1418 39.4797 53.0442C39.5921 53.037 39.7049 53.0529 39.8109 53.0909C39.9169 53.129 40.0141 53.1884 40.0962 53.2655C40.1784 53.3426 40.2439 53.4357 40.2887 53.539C40.3334 53.6424 40.3565 53.7539 40.3565 53.8666L40.3581 55.2458ZM51.8637 54.985C51.8639 55.1145 51.8386 55.2429 51.7891 55.3626C51.7397 55.4824 51.6671 55.5912 51.5756 55.6829C51.4841 55.7746 51.3753 55.8474 51.2557 55.897C51.136 55.9466 51.0077 55.9722 50.8781 55.9722H44.2877C44.133 55.9721 43.9805 55.9357 43.8425 55.8659C43.7045 55.7961 43.5848 55.6948 43.4931 55.5703C43.4014 55.4457 43.3403 55.3014 43.3146 55.1488C43.2889 54.9963 43.2994 54.8399 43.3453 54.6922L43.6109 53.8346C43.6731 53.6331 43.7981 53.4569 43.9677 53.3317C44.1373 53.2064 44.3425 53.1388 44.5533 53.1386H50.8813C51.0109 53.1386 51.1392 53.1641 51.2589 53.2137C51.3785 53.2634 51.4873 53.3361 51.5788 53.4278C51.6703 53.5195 51.7429 53.6283 51.7923 53.7481C51.8418 53.8679 51.8671 53.9962 51.8669 54.1258L51.8637 54.985Z" fill="#65C541"/>
<path opacity="0.7" d="M51.3613 51.793H40.8125C37.9821 51.793 33.0525 54.6618 31.3149 55.5978C29.5773 56.5338 33.1421 60.3466 33.9629 60.3466H51.3613C51.6073 60.3468 51.8509 60.2985 52.0782 60.2045C52.3055 60.1105 52.512 59.9727 52.686 59.7988C52.86 59.625 52.9981 59.4186 53.0923 59.1913C53.1864 58.9641 53.2349 58.7205 53.2349 58.4746V53.665C53.2349 53.419 53.1864 53.1754 53.0923 52.9482C52.9981 52.721 52.86 52.5146 52.686 52.3407C52.512 52.1668 52.3055 52.029 52.0782 51.935C51.8509 51.841 51.6073 51.7928 51.3613 51.793ZM40.3581 55.2458C40.3577 55.4645 40.2705 55.674 40.1157 55.8285C39.9609 55.983 39.7512 56.0698 39.5325 56.0698H35.4717C35.2898 56.0694 35.1131 56.009 34.9691 55.8979C34.825 55.7867 34.7217 55.6312 34.6752 55.4553C34.6287 55.2794 34.6416 55.0931 34.7118 54.9253C34.7821 54.7575 34.9058 54.6176 35.0637 54.5274C36.5677 53.6874 38.0445 53.1418 39.4797 53.0442C39.5921 53.037 39.7049 53.0529 39.8109 53.0909C39.9169 53.129 40.0141 53.1884 40.0962 53.2655C40.1784 53.3426 40.2439 53.4357 40.2887 53.539C40.3334 53.6424 40.3565 53.7539 40.3565 53.8666L40.3581 55.2458ZM51.8637 54.985C51.8639 55.1145 51.8386 55.2429 51.7891 55.3626C51.7397 55.4824 51.6671 55.5912 51.5756 55.6829C51.4841 55.7746 51.3753 55.8474 51.2557 55.897C51.136 55.9466 51.0077 55.9722 50.8781 55.9722H44.2877C44.133 55.9721 43.9805 55.9357 43.8425 55.8659C43.7045 55.7961 43.5848 55.6948 43.4931 55.5703C43.4014 55.4457 43.3403 55.3014 43.3146 55.1488C43.2889 54.9963 43.2994 54.8399 43.3453 54.6922L43.6109 53.8346C43.6731 53.6331 43.7981 53.4569 43.9677 53.3317C44.1373 53.2064 44.3425 53.1388 44.5533 53.1386H50.8813C51.0109 53.1386 51.1392 53.1641 51.2589 53.2137C51.3785 53.2634 51.4873 53.3361 51.5788 53.4278C51.6703 53.5195 51.7429 53.6283 51.7923 53.7481C51.8418 53.8679 51.8671 53.9962 51.8669 54.1258L51.8637 54.985Z" fill="white"/>
<path d="M47.9036 51.4492H43.0332V51.8956H47.9036V51.4492Z" fill="#263238"/>
<path opacity="0.2" d="M47.9036 51.4492H43.0332V51.8956H47.9036V51.4492Z" fill="white"/>
<path d="M18.4535 50.9845L13.8906 49.2812L13.7345 49.6995L18.2974 51.4027L18.4535 50.9845Z" fill="#263238"/>
<path opacity="0.2" d="M18.4535 50.9845L13.8906 49.2812L13.7345 49.6995L18.2974 51.4027L18.4535 50.9845Z" fill="white"/>
<path d="M14.7123 63.1164L13.3731 64.9532H12.7539V62.4844H14.7123V63.1164Z" fill="#263238"/>
<path opacity="0.1" d="M14.7123 63.1164L13.3731 64.9532H12.7539V62.4844H14.7123V63.1164Z" fill="white"/>
<path d="M53.4561 66.545C54.4652 66.545 55.2833 65.727 55.2833 64.7178C55.2833 63.7087 54.4652 62.8906 53.4561 62.8906C52.447 62.8906 51.6289 63.7087 51.6289 64.7178C51.6289 65.727 52.447 66.545 53.4561 66.545Z" fill="#263238"/>
<path opacity="0.2" d="M52.6077 64.7152C52.6077 64.8829 52.6574 65.0469 52.7506 65.1863C52.8438 65.3258 52.9762 65.4344 53.1311 65.4986C53.2861 65.5628 53.4566 65.5796 53.6211 65.5469C53.7856 65.5142 53.9367 65.4334 54.0553 65.3148C54.1739 65.1962 54.2546 65.0451 54.2874 64.8806C54.3201 64.7161 54.3033 64.5456 54.2391 64.3907C54.1749 64.2357 54.0662 64.1033 53.9268 64.0101C53.7873 63.9169 53.6234 63.8672 53.4557 63.8672C53.3443 63.8672 53.234 63.8891 53.1311 63.9317C53.0283 63.9743 52.9348 64.0368 52.856 64.1156C52.7773 64.1943 52.7148 64.2878 52.6722 64.3907C52.6296 64.4936 52.6077 64.6038 52.6077 64.7152Z" fill="black"/>
<path d="M51.6309 63.1164L52.9701 64.9532H53.5893V62.4844H51.6309V63.1164Z" fill="#263238"/>
<path opacity="0.1" d="M51.6309 63.1164L52.9701 64.9532H53.5893V62.4844H51.6309V63.1164Z" fill="white"/>
<path d="M19.519 20.5508H19.127V64.8788H19.519V20.5508Z" fill="#263238"/>
<path opacity="0.5" d="M19.519 20.5508H19.127V64.8788H19.519V20.5508Z" fill="white"/>
<path d="M16.962 21.7381H16.002V21.4789H16.7252L16.7268 21.2773H16.962V21.7381Z" fill="#263238"/>
<path opacity="0.1" d="M16.962 21.7381H16.002V21.4789H16.7252L16.7268 21.2773H16.962V21.7381Z" fill="white"/>
<path d="M21.7148 21.7381H22.6748V21.4789H21.9532L21.95 21.2773H21.7148V21.7381Z" fill="#263238"/>
<path opacity="0.1" d="M21.7148 21.7381H22.6748V21.4789H21.9532L21.95 21.2773H21.7148V21.7381Z" fill="white"/>
<path d="M20.2455 46.8402C18.9303 46.8402 18.8823 44.3282 18.8455 42.309C18.8359 41.8738 18.8295 41.4626 18.8087 41.1218C18.7911 40.8386 18.7591 40.4162 18.7207 39.893C18.5287 37.277 18.1703 32.4066 18.3863 29.6338C18.6055 26.7954 17.8631 22.8162 16.9127 21.7474C16.865 21.6813 16.8046 21.6254 16.7351 21.5828C16.6656 21.5402 16.5884 21.5119 16.5079 21.4994C16.4647 21.4998 16.422 21.5089 16.3824 21.5262C16.3428 21.5435 16.3071 21.5687 16.2775 21.6002C15.4391 22.3858 15.3175 26.8194 15.3175 26.8642L14.6567 42.1394L14.4551 42.1298L15.1159 26.8578C15.1159 26.6738 15.2455 22.2946 16.1447 21.453C16.1931 21.402 16.2514 21.3615 16.3161 21.334C16.3808 21.3065 16.4504 21.2925 16.5207 21.293C16.6292 21.306 16.7338 21.3411 16.8282 21.3962C16.9226 21.4512 17.0047 21.525 17.0695 21.613C18.0663 22.733 18.8199 26.7154 18.5911 29.6482C18.3767 32.4066 18.7351 37.2674 18.9271 39.8786C18.9655 40.4018 18.9975 40.8258 19.0151 41.1106C19.0359 41.4546 19.0439 41.8674 19.0519 42.3058C19.0855 44.133 19.1335 46.6386 20.2503 46.6386C21.1911 46.6386 21.4151 45.221 21.6519 43.7218C21.7434 43.0268 21.884 42.3393 22.0727 41.6642C22.6791 39.725 22.1431 28.909 22.1383 28.8642L22.3399 28.8402C22.3591 29.0178 22.8839 39.7426 22.2663 41.7202C22.0807 42.3864 21.9422 43.0649 21.8519 43.7506C21.6007 45.341 21.3591 46.8402 20.2455 46.8402Z" fill="#65C541"/>
<path d="M14.8607 66.608C15.1947 66.608 15.4655 66.3373 15.4655 66.0032C15.4655 65.6692 15.1947 65.3984 14.8607 65.3984C14.5266 65.3984 14.2559 65.6692 14.2559 66.0032C14.2559 66.3373 14.5266 66.608 14.8607 66.608Z" fill="#263238"/>
<path opacity="0.3" d="M15.1011 66.0056C15.1011 66.0531 15.087 66.0995 15.0606 66.139C15.0343 66.1784 14.9968 66.2092 14.9529 66.2274C14.9091 66.2455 14.8608 66.2503 14.8143 66.241C14.7677 66.2318 14.725 66.2089 14.6914 66.1753C14.6578 66.1418 14.635 66.099 14.6257 66.0524C14.6164 66.0059 14.6212 65.9576 14.6394 65.9138C14.6575 65.8699 14.6883 65.8324 14.7278 65.8061C14.7672 65.7797 14.8136 65.7656 14.8611 65.7656C14.9247 65.7656 14.9858 65.7909 15.0308 65.8359C15.0758 65.8809 15.1011 65.942 15.1011 66.0056Z" fill="black"/>
<path d="M14.8613 66.0067L15.4661 65.7795C15.4357 65.6616 15.3704 65.5556 15.2788 65.4753C15.1871 65.3951 15.0734 65.3444 14.9525 65.3299C14.8299 65.3082 14.7037 65.3234 14.5898 65.3736C14.4758 65.4237 14.3793 65.5065 14.3125 65.6115L14.8613 66.0067Z" fill="#263238"/>
<path opacity="0.2" d="M14.8613 66.0067L15.4661 65.7795C15.4357 65.6616 15.3704 65.5556 15.2788 65.4753C15.1871 65.3951 15.0734 65.3444 14.9525 65.3299C14.8299 65.3082 14.7037 65.3234 14.5898 65.3736C14.4758 65.4237 14.3793 65.5065 14.3125 65.6115L14.8613 66.0067Z" fill="black"/>
<path d="M23.8216 66.608C24.1556 66.608 24.4264 66.3373 24.4264 66.0032C24.4264 65.6692 24.1556 65.3984 23.8216 65.3984C23.4876 65.3984 23.2168 65.6692 23.2168 66.0032C23.2168 66.3373 23.4876 66.608 23.8216 66.608Z" fill="#263238"/>
<path opacity="0.3" d="M23.582 66.0056C23.582 66.0531 23.5961 66.0995 23.6225 66.139C23.6488 66.1784 23.6863 66.2092 23.7302 66.2274C23.774 66.2455 23.8223 66.2503 23.8689 66.241C23.9154 66.2318 23.9582 66.2089 23.9917 66.1753C24.0253 66.1418 24.0482 66.099 24.0574 66.0524C24.0667 66.0059 24.0619 65.9576 24.0438 65.9138C24.0256 65.8699 23.9948 65.8324 23.9554 65.8061C23.9159 65.7797 23.8695 65.7656 23.822 65.7656C23.7584 65.7656 23.6973 65.7909 23.6523 65.8359C23.6073 65.8809 23.582 65.942 23.582 66.0056Z" fill="black"/>
<path d="M23.8216 66.0056L23.2168 65.7784C23.2471 65.6607 23.3121 65.5549 23.4035 65.4747C23.4948 65.3945 23.6082 65.3437 23.7288 65.3288C23.8501 65.3086 23.9748 65.3245 24.0871 65.3746C24.1995 65.4247 24.2947 65.5067 24.3608 65.6104L23.8216 66.0056Z" fill="#263238"/>
<path opacity="0.2" d="M23.8216 66.0056L23.2168 65.7784C23.2471 65.6607 23.3121 65.5549 23.4035 65.4747C23.4948 65.3945 23.6082 65.3437 23.7288 65.3288C23.8501 65.3086 23.9748 65.3245 24.0871 65.3746C24.1995 65.4247 24.2947 65.5067 24.3608 65.6104L23.8216 66.0056Z" fill="black"/>
<path d="M14.7675 42.125H14.2715V43.6114H14.7675V42.125Z" fill="#263238"/>
<path opacity="0.1" d="M14.7675 42.125H14.2715V43.6114H14.7675V42.125Z" fill="white"/>
<path d="M14.6482 44.5077H14.3906V44.0613V43.6133H14.6482V44.0613V44.5077Z" fill="#263238"/>
<path opacity="0.5" d="M14.6482 44.5077H14.3906V44.0613V43.6133H14.6482V44.0613V44.5077Z" fill="white"/>
<path d="M14.5194 45.4054L14.457 44.5078H14.5802L14.5194 45.4054Z" fill="#65C541"/>
<path opacity="0.5" d="M14.5194 45.4054L14.457 44.5078H14.5802L14.5194 45.4054Z" fill="white"/>
<path d="M21.92 23.0643L21.76 23.0339C21.76 23.0259 21.92 22.2339 21.9488 21.8931C21.9904 21.4707 22.152 21.3203 22.2784 21.3203C22.4048 21.3203 22.5088 21.5267 22.584 21.9315C22.6256 22.1491 22.624 22.9779 22.624 23.0131H22.464C22.464 23.0131 22.464 22.1651 22.4272 21.9619C22.412 21.7916 22.3572 21.6273 22.2672 21.4819C22.2544 21.4819 22.1456 21.5875 22.1072 21.9139C22.0688 22.2403 21.9312 23.0307 21.92 23.0643Z" fill="#65C541"/>
<path d="M23.2437 28.0566C23.1749 28.3078 22.5717 29.0006 22.2645 29.0006C21.9573 29.0006 21.2293 28.4886 21.1445 28.159C21.0597 27.8294 21.3957 27.1814 21.4405 26.719C21.4853 26.2566 21.2469 24.2726 21.2709 23.8278C21.2949 23.383 21.4309 23.2134 21.6341 23.0438C21.8373 22.8742 22.7301 22.847 22.8869 23.0438C23.0437 23.2406 23.2389 23.407 23.2389 23.7606C23.2389 24.1142 22.9893 26.3894 23.0005 26.7526C23.0117 27.1158 23.3125 27.807 23.2437 28.0566Z" fill="#65C541"/>
<path opacity="0.6" d="M23.2437 28.0566C23.1749 28.3078 22.5717 29.0006 22.2645 29.0006C21.9573 29.0006 21.2293 28.4886 21.1445 28.159C21.0597 27.8294 21.3957 27.1814 21.4405 26.719C21.4853 26.2566 21.2469 24.2726 21.2709 23.8278C21.2949 23.383 21.4309 23.2134 21.6341 23.0438C21.8373 22.8742 22.7301 22.847 22.8869 23.0438C23.0437 23.2406 23.2389 23.407 23.2389 23.7606C23.2389 24.1142 22.9893 26.3894 23.0005 26.7526C23.0117 27.1158 23.3125 27.807 23.2437 28.0566Z" fill="white"/>
<path d="M23.1304 27.9341C23.0744 28.1357 22.444 28.6957 22.196 28.6957C21.948 28.6957 21.4056 28.2237 21.3416 27.9565C21.2776 27.6893 21.5544 26.9469 21.5912 26.5693C21.628 26.1917 21.4312 24.5933 21.452 24.2349C21.612 23.8941 23.0424 23.8957 23.0424 24.1805C23.0424 24.4653 22.8408 26.3037 22.8488 26.5965C22.8568 26.8893 23.1848 27.7325 23.1304 27.9341Z" fill="#65C541"/>
<path opacity="0.2" d="M23.1304 27.9341C23.0744 28.1357 22.444 28.6957 22.196 28.6957C21.948 28.6957 21.4056 28.2237 21.3416 27.9565C21.2776 27.6893 21.5544 26.9469 21.5912 26.5693C21.628 26.1917 21.4312 24.5933 21.452 24.2349C21.612 23.8941 23.0424 23.8957 23.0424 24.1805C23.0424 24.4653 22.8408 26.3037 22.8488 26.5965C22.8568 26.8893 23.1848 27.7325 23.1304 27.9341Z" fill="white"/>
<path d="M22.7198 23.0474H21.7358C21.6976 23.0474 21.661 23.0322 21.634 23.0052C21.607 22.9782 21.5918 22.9416 21.5918 22.9034C21.5916 22.8844 21.5952 22.8655 21.6023 22.8478C21.6094 22.8302 21.62 22.8141 21.6334 22.8006C21.6468 22.787 21.6628 22.7763 21.6803 22.7689C21.6979 22.7616 21.7168 22.7578 21.7358 22.7578H22.7198C22.7389 22.7578 22.7577 22.7616 22.7753 22.7689C22.7929 22.7763 22.8088 22.787 22.8222 22.8006C22.8356 22.8141 22.8462 22.8302 22.8533 22.8478C22.8604 22.8655 22.864 22.8844 22.8638 22.9034C22.8638 22.9416 22.8486 22.9782 22.8216 23.0052C22.7946 23.0322 22.758 23.0474 22.7198 23.0474Z" fill="#65C541"/>
<path opacity="0.2" d="M22.7198 23.0474H21.7358C21.6976 23.0474 21.661 23.0322 21.634 23.0052C21.607 22.9782 21.5918 22.9416 21.5918 22.9034C21.5916 22.8844 21.5952 22.8655 21.6023 22.8478C21.6094 22.8302 21.62 22.8141 21.6334 22.8006C21.6468 22.787 21.6628 22.7763 21.6803 22.7689C21.6979 22.7616 21.7168 22.7578 21.7358 22.7578H22.7198C22.7389 22.7578 22.7577 22.7616 22.7753 22.7689C22.7929 22.7763 22.8088 22.787 22.8222 22.8006C22.8356 22.8141 22.8462 22.8302 22.8533 22.8478C22.8604 22.8655 22.864 22.8844 22.8638 22.9034C22.8638 22.9416 22.8486 22.9782 22.8216 23.0052C22.7946 23.0322 22.758 23.0474 22.7198 23.0474Z" fill="white"/>
<path d="M23.8229 64.8633H14.8613V65.3209H23.8229V64.8633Z" fill="#263238"/>
<path opacity="0.1" d="M23.8229 64.8633H14.8613V65.3209H23.8229V64.8633Z" fill="white"/>
<path d="M22.6756 20.5508H16.002V21.0004H22.6756V20.5508Z" fill="#263238"/>
<path opacity="0.1" d="M22.6756 20.5508H16.002V21.0004H22.6756V20.5508Z" fill="white"/>
<path d="M16.346 20.5508H16.002V21.7364H16.346V20.5508Z" fill="#263238"/>
<path opacity="0.1" d="M16.346 20.5508H16.002V21.7364H16.346V20.5508Z" fill="white"/>
<path d="M22.676 20.5508H22.332V21.7364H22.676V20.5508Z" fill="#263238"/>
<path opacity="0.1" d="M22.676 20.5508H22.332V21.7364H22.676V20.5508Z" fill="white"/>
</svg>
