<svg width="80" height="80" viewBox="0 0 80 80" fill="none" xmlns="http://www.w3.org/2000/svg">
<path d="M72.0354 12.707H28.7632V72.0006H72.0354V12.707Z" fill="#677074"/>
<path d="M70.3245 68.4729H62.311H32.3679V15.1016H70.3245V61.8334V68.4729Z" fill="#D0EDC5"/>
<path d="M69.7262 67.4804H61.784H32.1104V14.3945H69.7262V60.8766V67.4804Z" fill="#E9F7E4"/>
<path d="M65.6827 63.3526L61.3503 66.8802H31.4072V14.5312H69.3638V60.3674L65.6827 63.3526Z" fill="#F2FAEF"/>
<path d="M65.684 63.3446C65.684 63.3446 65.7607 63.2786 65.9159 63.1519L66.61 62.5845L69.3562 60.3487V60.3594C69.3562 52.8295 69.3419 36.0924 69.3294 14.5233L69.3704 14.5661H31.7439H31.4138L31.4602 14.5197C31.4602 34.201 31.4602 52.3566 31.4495 66.8687L31.4138 66.8312L61.3569 66.8526H61.3462L64.6009 64.2136L65.4163 63.5552C65.5947 63.4088 65.6893 63.3375 65.6893 63.3375L65.4217 63.5605L64.6062 64.2368L61.3623 66.8883L31.4085 66.9133H31.371V66.8758C31.371 52.3638 31.371 34.2081 31.3621 14.5269V14.4805H31.7386H69.3651H69.4079V14.5215C69.3954 36.0977 69.3847 52.8277 69.3811 60.3576L66.6243 62.5827L65.9266 63.1662L65.684 63.3446Z" fill="#3C474C"/>
<path d="M45.2653 10.875H55.6413C56.3109 10.875 56.9531 11.141 57.4266 11.6145C57.9001 12.088 58.1661 12.7302 58.1661 13.3998V16.1995H42.6316V13.5069C42.6321 12.8087 42.9098 12.1393 43.4036 11.6458C43.8975 11.1522 44.5671 10.875 45.2653 10.875Z" fill="#CDEDC2"/>
<path d="M46.4375 10.8728L45.8701 8H54.815L54.3172 10.8728H46.4375Z" fill="#CDEDC2"/>
<path d="M63.8931 24.8081C63.8931 24.8331 60.7328 24.8545 56.8366 24.8545C52.9404 24.8545 49.7788 24.8331 49.7788 24.8081C49.7788 24.7831 52.9378 24.7617 56.8366 24.7617C60.7354 24.7617 63.8931 24.7813 63.8931 24.8081Z" fill="#3C474C"/>
<path d="M63.8931 26.1362C63.8931 26.1612 60.7328 26.1826 56.8366 26.1826C52.9404 26.1826 49.7788 26.1612 49.7788 26.1362C49.7788 26.1113 52.9378 26.0898 56.8366 26.0898C60.7354 26.0898 63.8931 26.1095 63.8931 26.1362Z" fill="#3C474C"/>
<path d="M63.8931 27.4605C63.8931 27.4854 60.7328 27.5068 56.8366 27.5068C52.9404 27.5068 49.7788 27.4854 49.7788 27.4605C49.7788 27.4355 52.9378 27.4141 56.8366 27.4141C60.7354 27.4141 63.8931 27.4337 63.8931 27.4605Z" fill="#3C474C"/>
<path d="M63.8931 28.7886C63.8931 28.8136 60.7328 28.835 56.8366 28.835C52.9404 28.835 49.7788 28.8136 49.7788 28.7886C49.7788 28.7636 52.9378 28.7422 56.8366 28.7422C60.7354 28.7422 63.8931 28.7618 63.8931 28.7886Z" fill="#3C474C"/>
<path d="M63.8931 30.1206C63.8931 30.1474 60.7328 30.167 56.8366 30.167C52.9404 30.167 49.7788 30.1474 49.7788 30.1206C49.7788 30.0938 52.9378 30.0742 56.8366 30.0742C60.7354 30.0742 63.8931 30.0956 63.8931 30.1206Z" fill="#3C474C"/>
<path d="M41.7715 45.1294H35.3782V38.7344H41.7715V45.1294ZM35.5566 44.951H41.5931V38.9128H35.5566V44.951Z" fill="#CDEDC2"/>
<path d="M36.6479 42.0652L37.4973 41.1534L38.9123 42.2846L42.1509 39.1406L42.9271 40.056L38.8498 44.0779L36.6479 42.0652Z" fill="#CDEDC2"/>
<path d="M64.37 40.2808C64.37 40.3057 59.9181 40.3272 54.4294 40.3272C48.9408 40.3272 44.4871 40.3057 44.4871 40.2808C44.4871 40.2558 48.9372 40.2344 54.4294 40.2344C59.9217 40.2344 64.37 40.254 64.37 40.2808Z" fill="#3C474C"/>
<path d="M64.37 41.6089C64.37 41.6357 59.9181 41.6553 54.4294 41.6553C48.9408 41.6553 44.4871 41.6357 44.4871 41.6089C44.4871 41.5821 48.9372 41.5625 54.4294 41.5625C59.9217 41.5625 64.37 41.5839 64.37 41.6089Z" fill="#3C474C"/>
<path d="M64.37 42.9331C64.37 42.9599 59.9181 42.9795 54.4294 42.9795C48.9408 42.9795 44.4871 42.9599 44.4871 42.9331C44.4871 42.9063 48.9372 42.8867 54.4294 42.8867C59.9217 42.8867 64.37 42.9081 64.37 42.9331Z" fill="#3C474C"/>
<path d="M64.37 44.2651C64.37 44.2901 59.9181 44.3115 54.4294 44.3115C48.9408 44.3115 44.4871 44.2901 44.4871 44.2651C44.4871 44.2402 48.9372 44.2188 54.4294 44.2188C59.9217 44.2188 64.37 44.2402 64.37 44.2651Z" fill="#3C474C"/>
<path d="M41.7715 56.9849H35.3782V50.5898H41.7715V56.9849ZM35.5566 56.8065H41.5931V50.7683H35.5566V56.8065Z" fill="#CDEDC2"/>
<path d="M36.6477 53.9167L37.4971 53.0049L38.912 54.1362L42.1506 50.9922L42.9268 51.9058L38.8496 55.9277L36.6477 53.9167Z" fill="#CDEDC2"/>
<path d="M64.37 52.1323C64.37 52.1591 59.9181 52.1787 54.4294 52.1787C48.9408 52.1787 44.4871 52.1591 44.4871 52.1323C44.4871 52.1056 48.9372 52.0859 54.4294 52.0859C59.9217 52.0859 64.37 52.1145 64.37 52.1323Z" fill="#3C474C"/>
<path d="M64.37 53.4605C64.37 53.4854 59.9181 53.5068 54.4294 53.5068C48.9408 53.5068 44.4871 53.4854 44.4871 53.4605C44.4871 53.4355 48.9372 53.4141 54.4294 53.4141C59.9217 53.4141 64.37 53.4355 64.37 53.4605Z" fill="#3C474C"/>
<path d="M64.37 54.7925C64.37 54.8175 59.9181 54.8389 54.4294 54.8389C48.9408 54.8389 44.4871 54.8175 44.4871 54.7925C44.4871 54.7675 48.9372 54.7461 54.4294 54.7461C59.9217 54.7461 64.37 54.7657 64.37 54.7925Z" fill="#3C474C"/>
<path d="M64.37 56.1206C64.37 56.1474 59.9181 56.167 54.4294 56.167C48.9408 56.167 44.4871 56.1474 44.4871 56.1206C44.4871 56.0938 48.9372 56.0742 54.4294 56.0742C59.9217 56.0742 64.37 56.0956 64.37 56.1206Z" fill="#3C474C"/>
<path d="M62.541 58.2148L58.3799 66.8332H61.3508L62.541 58.2148Z" fill="#E0E0E0"/>
<path d="M61.3511 66.8801L62.5412 58.2617L69.3646 60.3672L61.3511 66.8801Z" fill="#FAFAFA"/>
<path d="M61.3511 66.8818L63.6457 64.9922L69.336 60.3333L69.3521 60.4118L66.7166 59.6017L62.5359 58.3045L62.5912 58.2688C62.2343 60.7669 61.9292 62.917 61.7133 64.4408C61.4974 65.9236 61.3868 66.6891 61.3564 66.8818C61.3557 66.8687 61.3557 66.8556 61.3564 66.8426L61.3725 66.7248C61.3868 66.6124 61.4064 66.4554 61.4332 66.2555C61.4885 65.8362 61.567 65.2349 61.6669 64.4712C61.8739 62.9349 62.163 60.774 62.5002 58.2492V58.1992L62.5484 58.2135L66.7398 59.5054L69.3735 60.319L69.4556 60.344L69.3896 60.3975C67.086 62.255 65.0714 63.8788 63.6297 65.0368L61.9471 66.3876L61.4974 66.7444L61.3832 66.8354L61.3511 66.8818Z" fill="#3C474C"/>
<g opacity="0.3">
<path d="M54.1956 8L53.7031 10.8728H54.3169L54.8148 8H54.0314" fill="#263238"/>
</g>
<g clip-path="url(#clip0_3280_334239)">
<path d="M14.7424 52.9196L14.7318 52.9139C16.1414 53.55 17.7283 53.6762 19.2207 53.271C20.7649 52.8599 22.1097 51.9072 23.0098 50.5869C22.9916 50.6137 22.9772 50.6425 22.958 50.6694L24.3202 50.5273L24.5247 51.7772C23.5515 53.1559 22.1925 54.216 20.6185 54.8242L20.6991 55.1228C21.0908 56.5829 20.9631 58.2869 20.8277 60.0917C20.6511 62.4437 20.4678 64.8763 21.4661 66.7473C22.405 68.5031 24.2703 69.5495 26.4629 69.5495H26.4936C28.5374 69.5399 30.394 68.6087 31.114 67.2311C31.6305 66.2423 31.6871 64.8974 31.7476 63.4756C31.8446 61.1784 31.953 58.5759 33.9248 56.3305L37.7158 52.0096L39.1587 53.2758L35.3677 57.5957C33.8432 59.3343 33.753 61.4798 33.6656 63.5563C33.5994 65.1268 33.5313 66.7511 32.8161 68.1201C31.7591 70.1418 29.2814 71.457 26.5022 71.4694H26.4619C23.5484 71.4694 21.0495 70.0448 19.7727 67.6516C18.5113 65.2891 18.7244 62.4513 18.9135 59.9477C19.0364 58.3119 19.1526 56.7653 18.8454 55.622L18.7638 55.3167C18.3308 55.383 17.8979 55.4252 17.4659 55.4252C16.2591 55.42 15.067 55.16 13.9677 54.662L13.7603 53.4073L14.7424 52.9196Z" fill="#3C474C"/>
<path d="M41.3521 55.2018C42.0238 54.4361 42.3639 53.4349 42.2975 52.4184C42.231 51.4019 41.7635 50.4535 40.9978 49.7817C40.2321 49.11 39.2309 48.7699 38.2144 48.8363C37.198 48.9027 36.2495 49.3702 35.5777 50.136C34.906 50.9017 34.5659 51.9029 34.6323 52.9194C34.6988 53.9358 35.1663 54.8843 35.932 55.556C36.3111 55.8887 36.7521 56.1434 37.2297 56.3056C37.7072 56.4678 38.2121 56.5344 38.7154 56.5015C39.7318 56.435 40.6803 55.9675 41.3521 55.2018Z" fill="#CDEDC2"/>
<path d="M39.9087 53.9309C40.0828 53.7428 40.2175 53.5216 40.3048 53.2806C40.392 53.0395 40.4301 52.7835 40.4169 52.5275C40.4036 52.2714 40.3391 52.0207 40.2274 51.79C40.1156 51.5593 39.9588 51.3533 39.7661 51.1841C39.5735 51.015 39.3489 50.8862 39.1056 50.8052C38.8624 50.7243 38.6054 50.6929 38.3498 50.7129C38.0942 50.7329 37.8453 50.8038 37.6175 50.9216C37.3898 51.0393 37.188 51.2015 37.024 51.3985C36.7037 51.7831 36.5463 52.2776 36.5853 52.7766C36.6243 53.2756 36.8567 53.7397 37.2328 54.0699C37.6089 54.4001 38.0992 54.5703 38.599 54.5444C39.0989 54.5184 39.5688 54.2983 39.9087 53.9309Z" fill="#3C474C"/>
<path d="M13.9602 54.6682L14.7416 52.9152C13.8273 52.5092 13.0156 51.9037 12.3659 51.1431C11.7162 50.3824 11.2451 49.4859 10.9871 48.5195L10.2402 45.7384C10.109 45.2465 10.1781 44.7227 10.4323 44.2817C10.6866 43.8406 11.1053 43.5184 11.5967 43.3854L11.0975 41.5308C10.1146 41.7962 9.27719 42.4405 8.7688 43.3225C8.2604 44.2045 8.12256 45.2522 8.38552 46.2356L9.13239 49.0167C9.46426 50.2593 10.0701 51.4119 10.9055 52.3898C11.7409 53.3677 12.7847 54.1462 13.9602 54.6682ZM24.5258 51.7748C25.2621 50.7381 25.7601 49.5514 25.9842 48.2997C26.2082 47.048 26.1528 45.7623 25.8218 44.5346L25.0749 41.7535C24.8099 40.7705 24.1658 39.9329 23.2839 39.4242C22.4021 38.9156 21.3544 38.7776 20.3709 39.0405L20.8692 40.8952C21.3609 40.7635 21.8849 40.8324 22.3259 41.0867C22.7669 41.3411 23.0889 41.7601 23.2212 42.2517L23.968 45.0337C24.2259 45.9888 24.2692 46.9892 24.0948 47.9629C23.9203 48.9367 23.5325 49.8598 22.9591 50.666L24.5258 51.7748Z" fill="#CDEDC2"/>
<path d="M20.9027 42.8742C21.2715 42.775 21.5858 42.5334 21.7765 42.2025C21.9671 41.8716 22.0185 41.4785 21.9194 41.1097L21.1725 38.3286C21.071 37.9625 20.8288 37.6513 20.4989 37.4629C20.1689 37.2745 19.7779 37.2242 19.4109 37.3228C19.044 37.4215 18.731 37.6612 18.54 37.9897C18.349 38.3181 18.2956 38.7088 18.3914 39.0765L19.1383 41.8575C19.2375 42.2263 19.4791 42.5406 19.81 42.7313C20.1409 42.9219 20.5339 42.9733 20.9027 42.8742ZM12.5585 45.1157C12.9273 45.0166 13.2416 44.7749 13.4323 44.4441C13.6229 44.1132 13.6743 43.7201 13.5752 43.3513L12.8283 40.5702C12.7291 40.2013 12.4875 39.8869 12.1565 39.6961C11.8255 39.5054 11.4323 39.4539 11.0634 39.5531C10.6944 39.6523 10.38 39.8939 10.1893 40.2249C9.99852 40.5559 9.94708 40.9491 10.0462 41.318L10.7931 44.0991C10.8925 44.468 11.1343 44.7823 11.4654 44.9729C11.7964 45.1635 12.1896 45.2149 12.5585 45.1157Z" fill="#3C474C"/>
</g>
<path d="M35.6119 28.3895H36.8203L38.1367 25.9336L39.4727 28.8807L39.7011 28.2741H41.3737L43.1542 24.2292L44.3012 27.9966H46.3961C46.9811 27.3161 47.2874 26.4398 47.2537 25.5431C47.22 24.6464 46.8488 23.7955 46.2144 23.1609C45.5461 22.4926 44.6397 22.1172 43.6946 22.1172C42.7494 22.1172 41.843 22.4926 41.1747 23.1609L40.8063 23.5293L40.4379 23.1584C39.7649 22.5149 38.8667 22.1603 37.9356 22.1706C37.0045 22.1809 36.1144 22.5552 35.4558 23.2135C34.7971 23.8718 34.4224 24.7617 34.4116 25.6928C34.4009 26.6239 34.755 27.5222 35.3983 28.1955L35.6119 28.3895Z" fill="#F472B6"/>
<path d="M43.8388 28.5955L43.048 25.9922L41.7807 28.873H40.1303L39.5286 30.4816L38.0918 27.3258L37.1929 29.0105H36.2351L40.8057 33.581L45.7938 28.5955H43.8388Z" fill="#F472B6"/>
<defs>
<clipPath id="clip0_3280_334239">
<rect width="34.5595" height="34.5595" fill="white" transform="matrix(-1 0 0 1 42.5596 37.0859)"/>
</clipPath>
</defs>
</svg>
