<svg width="80" height="80" viewBox="0 0 80 80" fill="none" xmlns="http://www.w3.org/2000/svg">
<path d="M68.3314 17.8657C69.0978 29.7937 54.6994 42.6657 44.3202 46.0257C34.3186 49.2689 14.3186 48.0609 13.2962 34.0049C12.9122 28.7249 15.9634 22.9649 20.485 20.2129C27.7554 15.7921 33.4546 21.6913 40.621 22.6401C46.3154 23.3937 50.725 20.8545 54.997 17.3873C58.5554 14.5025 67.7554 8.91691 68.3314 17.8657Z" fill="#65C541"/>
<path d="M68.3314 17.8657C69.0978 29.7937 54.6994 42.6657 44.3202 46.0257C34.3186 49.2689 14.3186 48.0609 13.2962 34.0049C12.9122 28.7249 15.9634 22.9649 20.485 20.2129C27.7554 15.7921 33.4546 21.6913 40.621 22.6401C46.3154 23.3937 50.725 20.8545 54.997 17.3873C58.5554 14.5025 67.7554 8.91691 68.3314 17.8657Z" fill="white"/>
<path d="M41.8759 66.2552C59.0091 66.2552 72.8983 65.4443 72.8983 64.444C72.8983 63.4437 59.0091 62.6328 41.8759 62.6328C24.7427 62.6328 10.8535 63.4437 10.8535 64.444C10.8535 65.4443 24.7427 66.2552 41.8759 66.2552Z" fill="#F5F5F5"/>
<path d="M25.3825 40.4556C28.7666 37.0715 28.7666 31.5847 25.3825 28.2006C21.9984 24.8165 16.5116 24.8165 13.1275 28.2006C9.74338 31.5847 9.74338 37.0715 13.1275 40.4556C16.5116 43.8398 21.9984 43.8398 25.3825 40.4556Z" fill="white"/>
<path d="M25.3825 40.4556C28.7666 37.0715 28.7666 31.5847 25.3825 28.2006C21.9984 24.8165 16.5116 24.8165 13.1275 28.2006C9.74338 31.5847 9.74338 37.0715 13.1275 40.4556C16.5116 43.8398 21.9984 43.8398 25.3825 40.4556Z" fill="#263238"/>
<path opacity="0.2" d="M26.4293 35.5552C27.1051 31.5935 24.4413 27.8342 20.4797 27.1584C16.518 26.4827 12.7587 29.1464 12.0829 33.1081C11.4072 37.0697 14.0709 40.8291 18.0326 41.5048C21.9942 42.1806 25.7536 39.5168 26.4293 35.5552Z" fill="white"/>
<path d="M26.7768 35.0275C27.0469 31.1695 24.1383 27.823 20.2802 27.5529C16.4222 27.2829 13.0757 30.1915 12.8056 34.0496C12.5356 37.9076 15.4442 41.2541 19.3023 41.5241C23.1603 41.7942 26.5068 38.8856 26.7768 35.0275Z" fill="#EC4899"/>
<path opacity="0.4" d="M26.7768 35.0275C27.0469 31.1695 24.1383 27.823 20.2802 27.5529C16.4222 27.2829 13.0757 30.1915 12.8056 34.0496C12.5356 37.9076 15.4442 41.2541 19.3023 41.5241C23.1603 41.7942 26.5068 38.8856 26.7768 35.0275Z" fill="white"/>
<path d="M22.1318 33.6636L22.5878 35.6396C22.6072 35.715 22.6106 35.7937 22.5979 35.8705C22.5853 35.9474 22.5567 36.0208 22.5142 36.086C22.4728 36.1527 22.4186 36.2104 22.3545 36.2557C22.2905 36.3011 22.218 36.3331 22.1414 36.35L20.4038 36.7516L20.7238 38.142C20.7426 38.2171 20.7455 38.2954 20.7323 38.3717C20.7191 38.448 20.69 38.5208 20.647 38.5852C20.6057 38.6508 20.5512 38.7071 20.4871 38.7506C20.4229 38.7941 20.3504 38.8239 20.2742 38.838C20.1978 38.8571 20.1184 38.8607 20.0407 38.8486C19.9629 38.8366 19.8883 38.809 19.8214 38.7676C19.7547 38.7284 19.6969 38.6756 19.6518 38.6128C19.6066 38.55 19.575 38.4785 19.559 38.4028L19.239 36.9964L17.5158 37.3948C17.4415 37.4127 17.3644 37.4154 17.2891 37.4028C17.2137 37.3901 17.1417 37.3624 17.0774 37.3212C17.0105 37.282 16.9526 37.2293 16.9071 37.1665C16.8617 37.1037 16.8298 37.0322 16.8134 36.9564C16.7952 36.8816 16.7923 36.804 16.805 36.7281C16.8176 36.6522 16.8455 36.5796 16.887 36.5148C16.9266 36.4485 16.9794 36.3912 17.0422 36.3463C17.1049 36.3014 17.1763 36.27 17.2518 36.254L21.2838 35.3244L21.095 34.5036L17.0742 35.43C16.9998 35.449 16.9222 35.4527 16.8463 35.4408C16.7704 35.429 16.6977 35.4019 16.6326 35.3612C16.5658 35.3211 16.5081 35.2675 16.4632 35.2039C16.4183 35.1403 16.3872 35.0679 16.3718 34.9916L15.9174 33.0236C15.8824 32.8723 15.909 32.7133 15.9912 32.5816C16.0734 32.4499 16.2045 32.3562 16.3558 32.3212L18.071 31.926L17.751 30.534C17.7324 30.4604 17.7288 30.3838 17.7404 30.3088C17.7519 30.2338 17.7784 30.1618 17.8182 30.0972C17.8604 30.0272 17.9171 29.967 17.9844 29.9206C18.0517 29.8743 18.1281 29.8428 18.2086 29.8284C18.2826 29.8104 18.3595 29.8077 18.4346 29.8203C18.5096 29.833 18.5814 29.8608 18.6454 29.902C18.7111 29.9424 18.7679 29.9957 18.8125 30.0587C18.857 30.1216 18.8884 30.193 18.9046 30.2684L19.2246 31.6588L20.9846 31.2556C21.0607 31.2372 21.1398 31.2343 21.2171 31.2472C21.2943 31.2602 21.3682 31.2886 21.4342 31.3308C21.501 31.3692 21.559 31.421 21.6047 31.4829C21.6505 31.5449 21.6828 31.6157 21.6998 31.6908C21.7335 31.8455 21.7053 32.0073 21.6213 32.1416C21.5373 32.2758 21.4041 32.3719 21.2502 32.4092L17.2182 33.3388L17.3942 34.1548L21.4118 33.2284C21.4879 33.21 21.567 33.2071 21.6443 33.22C21.7215 33.233 21.7954 33.2614 21.8614 33.3036C21.9292 33.3412 21.9884 33.3927 22.035 33.4548C22.0816 33.5168 22.1146 33.588 22.1318 33.6636Z" fill="#C8EBBB"/>
<g opacity="0.7">
<path d="M22.1337 33.6636L22.5897 35.6396C22.6091 35.715 22.6126 35.7937 22.5999 35.8705C22.5872 35.9474 22.5587 36.0208 22.5161 36.086C22.4748 36.1527 22.4205 36.2104 22.3565 36.2557C22.2924 36.3011 22.22 36.3331 22.1433 36.35L20.4057 36.7516L20.7257 38.142C20.7446 38.2171 20.7475 38.2954 20.7342 38.3717C20.721 38.448 20.692 38.5208 20.6489 38.5852C20.6076 38.6508 20.5532 38.7071 20.489 38.7506C20.4248 38.7941 20.3524 38.8239 20.2761 38.838C20.1998 38.8571 20.1204 38.8607 20.0426 38.8486C19.9648 38.8366 19.8903 38.809 19.8233 38.7676C19.7567 38.7284 19.6989 38.6756 19.6537 38.6128C19.6085 38.55 19.5769 38.4785 19.5609 38.4028L19.2409 36.9964L17.5177 37.3948C17.4435 37.4127 17.3664 37.4154 17.291 37.4028C17.2157 37.3901 17.1437 37.3624 17.0793 37.3212C17.0125 37.282 16.9545 37.2293 16.9091 37.1665C16.8636 37.1037 16.8317 37.0322 16.8153 36.9564C16.7972 36.8816 16.7943 36.804 16.8069 36.7281C16.8196 36.6522 16.8475 36.5796 16.8889 36.5148C16.9285 36.4485 16.9813 36.3912 17.0441 36.3463C17.1069 36.3014 17.1783 36.27 17.2537 36.254L21.2857 35.3244L21.0969 34.5036L17.0761 35.43C17.0017 35.449 16.9242 35.4527 16.8483 35.4408C16.7724 35.429 16.6997 35.4019 16.6345 35.3612C16.5678 35.3211 16.5101 35.2675 16.4652 35.2039C16.4203 35.1403 16.3891 35.0679 16.3737 34.9916L15.9193 33.0236C15.8844 32.8723 15.9109 32.7133 15.9931 32.5816C16.0753 32.4499 16.2065 32.3562 16.3577 32.3212L18.0729 31.926L17.7529 30.534C17.7344 30.4604 17.7308 30.3838 17.7423 30.3088C17.7539 30.2338 17.7803 30.1618 17.8201 30.0972C17.8623 30.0272 17.919 29.967 17.9863 29.9206C18.0537 29.8743 18.1301 29.8428 18.2105 29.8284C18.2845 29.8104 18.3614 29.8077 18.4365 29.8203C18.5116 29.833 18.5833 29.8608 18.6473 29.902C18.7131 29.9424 18.7699 29.9957 18.8144 30.0587C18.859 30.1216 18.8903 30.193 18.9065 30.2684L19.2265 31.6588L20.9865 31.2556C21.0627 31.2372 21.1418 31.2343 21.219 31.2472C21.2963 31.2602 21.3702 31.2886 21.4361 31.3308C21.5029 31.3692 21.561 31.421 21.6067 31.4829C21.6524 31.5449 21.6848 31.6157 21.7017 31.6908C21.7355 31.8455 21.7073 32.0073 21.6233 32.1416C21.5393 32.2758 21.4061 32.3719 21.2521 32.4092L17.2201 33.3388L17.3961 34.1548L21.4137 33.2284C21.4899 33.21 21.569 33.2071 21.6462 33.22C21.7235 33.233 21.7974 33.2614 21.8633 33.3036C21.9312 33.3412 21.9903 33.3927 22.0369 33.4548C22.0835 33.5168 22.1165 33.588 22.1337 33.6636Z" fill="white"/>
</g>
<path d="M37.7461 27.438C39.9021 24.8868 39.5817 21.0708 37.0304 18.9149C34.4792 16.7589 30.6632 17.0793 28.5072 19.6306C26.3513 22.1818 26.6717 25.9978 29.223 28.1537C31.7742 30.3097 35.5902 29.9893 37.7461 27.438Z" fill="#C8EBBB"/>
<path opacity="0.4" d="M37.7461 27.438C39.9021 24.8868 39.5817 21.0708 37.0304 18.9149C34.4792 16.7589 30.6632 17.0793 28.5072 19.6306C26.3513 22.1818 26.6717 25.9978 29.223 28.1537C31.7742 30.3097 35.5902 29.9893 37.7461 27.438Z" fill="white"/>
<path opacity="0.2" d="M37.0425 26.7644C38.8295 24.6027 38.5258 21.4016 36.3641 19.6145C34.2024 17.8275 31.0013 18.1312 29.2142 20.2929C27.4272 22.4546 27.7309 25.6557 29.8926 27.4428C32.0543 29.2298 35.2554 28.9261 37.0425 26.7644Z" fill="black"/>
<path d="M37.1956 26.8208C38.8306 24.6816 38.4218 21.6219 36.2825 19.9869C34.1433 18.352 31.0837 18.7607 29.4487 20.9C27.8137 23.0392 28.2225 26.0989 30.3617 27.7338C32.501 29.3688 35.5606 28.96 37.1956 26.8208Z" fill="white"/>
<path d="M37.1956 26.8208C38.8306 24.6816 38.4218 21.6219 36.2825 19.9869C34.1433 18.352 31.0837 18.7607 29.4487 20.9C27.8137 23.0392 28.2225 26.0989 30.3617 27.7338C32.501 29.3688 35.5606 28.96 37.1956 26.8208Z" fill="#263238"/>
<path d="M35.1255 24.0295L34.7815 25.4023C34.769 25.4545 34.7458 25.5036 34.7133 25.5463C34.6807 25.589 34.6397 25.6244 34.5927 25.6503C34.5452 25.6792 34.4924 25.6982 34.4374 25.7062C34.3824 25.7141 34.3264 25.7109 34.2727 25.6967L33.0743 25.3943L32.8311 26.3543C32.8187 26.4068 32.7955 26.4561 32.763 26.4991C32.7305 26.542 32.6894 26.5778 32.6423 26.6039C32.5969 26.6321 32.5463 26.6508 32.4934 26.6587C32.4406 26.6667 32.3868 26.6639 32.3351 26.6503C32.2819 26.6378 32.2317 26.6148 32.1874 26.5827C32.1432 26.5505 32.1058 26.5099 32.0775 26.4631C32.0486 26.4175 32.0294 26.3663 32.0212 26.3129C32.0129 26.2595 32.0157 26.205 32.0295 26.1527L32.2743 25.1767L31.0743 24.8839C31.0223 24.8715 30.9734 24.8486 30.9304 24.8167C30.8875 24.7848 30.8516 24.7445 30.8247 24.6983C30.7957 24.653 30.7765 24.6021 30.7683 24.549C30.76 24.4958 30.7629 24.4415 30.7767 24.3895C30.7886 24.3369 30.8113 24.2873 30.8432 24.2439C30.8751 24.2004 30.9157 24.1639 30.9623 24.1367C31.0083 24.1087 31.0595 24.0902 31.1129 24.0825C31.1662 24.0748 31.2206 24.078 31.2727 24.0919L34.0727 24.7943L34.2167 24.2247L31.4247 23.5239C31.3724 23.5122 31.3231 23.4898 31.2799 23.4582C31.2366 23.4265 31.2004 23.3863 31.1735 23.3399C31.1445 23.2943 31.1255 23.243 31.1178 23.1895C31.1101 23.136 31.1138 23.0815 31.1287 23.0295L31.4711 21.6615C31.484 21.6094 31.5071 21.5603 31.539 21.5172C31.571 21.474 31.6112 21.4376 31.6573 21.4101C31.7035 21.3826 31.7546 21.3645 31.8077 21.3568C31.8609 21.3492 31.9151 21.3521 31.9671 21.3655L33.1543 21.6631L33.3975 20.7031C33.4092 20.649 33.4321 20.5978 33.4646 20.5529C33.4971 20.5079 33.5386 20.4702 33.5864 20.4421C33.6342 20.414 33.6873 20.3961 33.7423 20.3896C33.7974 20.383 33.8532 20.3879 33.9063 20.4039C33.9578 20.4159 34.0064 20.4384 34.0488 20.4701C34.0912 20.5018 34.1266 20.5419 34.1527 20.5879C34.181 20.6336 34.1997 20.6845 34.2077 20.7376C34.2156 20.7907 34.2127 20.8448 34.1991 20.8967L33.9559 21.8567L35.1719 22.1623C35.2252 22.1751 35.2754 22.1985 35.3194 22.2313C35.3634 22.264 35.4003 22.3053 35.4279 22.3527C35.457 22.3977 35.4766 22.4482 35.4854 22.501C35.4942 22.5539 35.4921 22.608 35.4791 22.6599C35.4657 22.7132 35.4419 22.7633 35.4089 22.8073C35.3759 22.8513 35.3345 22.8882 35.2871 22.9159C35.2398 22.9453 35.1871 22.9648 35.132 22.973C35.077 22.9813 35.0209 22.9782 34.9671 22.9639L32.1655 22.2615L32.0247 22.8279L34.8151 23.5271C34.8684 23.5399 34.9186 23.5633 34.9626 23.5961C35.0066 23.6288 35.0435 23.6701 35.0711 23.7175C35.1019 23.7626 35.1227 23.8138 35.1321 23.8676C35.1415 23.9215 35.1392 23.9767 35.1255 24.0295Z" fill="white"/>
<g opacity="0.7">
<path d="M35.1274 24.0295L34.7834 25.4023C34.771 25.4545 34.7477 25.5036 34.7152 25.5463C34.6827 25.589 34.6416 25.6244 34.5946 25.6503C34.5472 25.6792 34.4943 25.6982 34.4394 25.7062C34.3844 25.7141 34.3283 25.7109 34.2746 25.6967L33.0762 25.3943L32.833 26.3543C32.8207 26.4068 32.7975 26.4561 32.765 26.4991C32.7325 26.542 32.6913 26.5778 32.6442 26.6039C32.5989 26.6321 32.5482 26.6508 32.4954 26.6587C32.4426 26.6667 32.3887 26.6639 32.337 26.6503C32.2838 26.6378 32.2336 26.6148 32.1894 26.5827C32.1451 26.5505 32.1078 26.5099 32.0794 26.4631C32.0506 26.4175 32.0314 26.3663 32.0231 26.3129C32.0149 26.2595 32.0177 26.205 32.0314 26.1527L32.2762 25.1767L31.0762 24.8839C31.0242 24.8715 30.9753 24.8486 30.9324 24.8167C30.8895 24.7848 30.8535 24.7445 30.8266 24.6983C30.7977 24.653 30.7785 24.6021 30.7702 24.549C30.762 24.4958 30.7648 24.4415 30.7786 24.3895C30.7906 24.3369 30.8132 24.2873 30.8452 24.2439C30.8771 24.2004 30.9176 24.1639 30.9642 24.1367C31.0102 24.1087 31.0615 24.0902 31.1148 24.0825C31.1682 24.0748 31.2226 24.078 31.2746 24.0919L34.0746 24.7943L34.2186 24.2247L31.4266 23.5239C31.3743 23.5122 31.325 23.4898 31.2818 23.4582C31.2386 23.4265 31.2024 23.3863 31.1754 23.3399C31.1464 23.2943 31.1275 23.243 31.1197 23.1895C31.112 23.136 31.1157 23.0815 31.1306 23.0295L31.473 21.6615C31.4859 21.6094 31.509 21.5603 31.541 21.5172C31.573 21.474 31.6132 21.4376 31.6593 21.4101C31.7054 21.3826 31.7565 21.3645 31.8097 21.3568C31.8629 21.3492 31.917 21.3521 31.969 21.3655L33.1562 21.6631L33.3994 20.7031C33.4112 20.649 33.434 20.5978 33.4666 20.5529C33.4991 20.5079 33.5405 20.4702 33.5883 20.4421C33.6361 20.414 33.6892 20.3961 33.7443 20.3896C33.7993 20.383 33.8552 20.3879 33.9082 20.4039C33.9598 20.4159 34.0083 20.4384 34.0507 20.4701C34.0932 20.5018 34.1285 20.5419 34.1546 20.5879C34.1829 20.6336 34.2016 20.6845 34.2096 20.7376C34.2176 20.7907 34.2147 20.8448 34.201 20.8967L33.9578 21.8567L35.1738 22.1623C35.2272 22.1751 35.2774 22.1985 35.3214 22.2313C35.3654 22.264 35.4023 22.3053 35.4298 22.3527C35.459 22.3977 35.4786 22.4482 35.4874 22.501C35.4962 22.5539 35.494 22.608 35.481 22.6599C35.4677 22.7132 35.4438 22.7633 35.4108 22.8073C35.3779 22.8513 35.3365 22.8882 35.289 22.9159C35.2418 22.9453 35.189 22.9648 35.134 22.973C35.079 22.9813 35.0228 22.9782 34.969 22.9639L32.1674 22.2615L32.0266 22.8279L34.817 23.5271C34.8704 23.5399 34.9206 23.5633 34.9646 23.5961C35.0086 23.6288 35.0455 23.6701 35.073 23.7175C35.1039 23.7626 35.1247 23.8138 35.134 23.8676C35.1434 23.9215 35.1412 23.9767 35.1274 24.0295Z" fill="white"/>
</g>
<path d="M18.3963 60.0781H18.2363V61.8845H18.3963V60.0781Z" fill="white"/>
<path opacity="0.1" d="M18.3963 60.0781H18.2363V61.8845H18.3963V60.0781Z" fill="black"/>
<path d="M65.5135 45.7695H65.3535V48.2447H65.5135V45.7695Z" fill="white"/>
<path d="M65.5135 49.543H65.3535V50.8854H65.5135V49.543Z" fill="#C8EBBB"/>
<path opacity="0.1" d="M65.5135 45.7695H65.3535V48.2447H65.5135V45.7695Z" fill="white"/>
<path opacity="0.1" d="M65.5135 49.543H65.3535V50.8854H65.5135V49.543Z" fill="black"/>
<path d="M62.5473 35.0352H21.2049C19.875 35.0352 18.7969 36.1133 18.7969 37.4432V61.6432C18.7969 62.9731 19.875 64.0512 21.2049 64.0512H62.5473C63.8772 64.0512 64.9553 62.9731 64.9553 61.6432V37.4432C64.9553 36.1133 63.8772 35.0352 62.5473 35.0352Z" fill="white"/>
<path d="M62.5473 35.0352H21.2049C19.875 35.0352 18.7969 36.1133 18.7969 37.4432V61.6432C18.7969 62.9731 19.875 64.0512 21.2049 64.0512H62.5473C63.8772 64.0512 64.9553 62.9731 64.9553 61.6432V37.4432C64.9553 36.1133 63.8772 35.0352 62.5473 35.0352Z" fill="#263238"/>
<path d="M57.4819 45.1385C58.2741 45.1385 59.0339 44.8237 59.5941 44.2635C60.1543 43.7033 60.4691 42.9435 60.4691 42.1513C60.4691 41.359 60.1543 40.5992 59.5941 40.039C59.0339 39.4788 58.2741 39.1641 57.4819 39.1641H53.6259C52.8336 39.1641 52.0738 39.4788 51.5136 40.039C50.9534 40.5992 50.6387 41.359 50.6387 42.1513C50.6387 42.9435 50.9534 43.7033 51.5136 44.2635C52.0738 44.8237 52.8336 45.1385 53.6259 45.1385H57.4819Z" fill="white"/>
<path d="M31.433 45.1367H24.3178C23.7452 45.1367 23.281 45.6009 23.281 46.1735V50.8247C23.281 51.3973 23.7452 51.8615 24.3178 51.8615H31.433C32.0056 51.8615 32.4698 51.3973 32.4698 50.8247V46.1735C32.4698 45.6009 32.0056 45.1367 31.433 45.1367Z" fill="#C8EBBB"/>
<path opacity="0.3" d="M31.433 45.1367H24.3178C23.7452 45.1367 23.281 45.6009 23.281 46.1735V50.8247C23.281 51.3973 23.7452 51.8615 24.3178 51.8615H31.433C32.0056 51.8615 32.4698 51.3973 32.4698 50.8247V46.1735C32.4698 45.6009 32.0056 45.1367 31.433 45.1367Z" fill="white"/>
<path d="M36.3562 38.4297H24.0154C23.6098 38.4297 23.281 38.7581 23.281 39.1633C23.281 39.5684 23.6098 39.8969 24.0154 39.8969H36.3562C36.7618 39.8969 37.0906 39.5684 37.0906 39.1633C37.0906 38.7581 36.7618 38.4297 36.3562 38.4297Z" fill="#C8EBBB"/>
<path opacity="0.3" d="M36.3562 38.4297H24.0154C23.6098 38.4297 23.281 38.7581 23.281 39.1633C23.281 39.5684 23.6098 39.8969 24.0154 39.8969H36.3562C36.7618 39.8969 37.0906 39.5684 37.0906 39.1633C37.0906 38.7581 36.7618 38.4297 36.3562 38.4297Z" fill="white"/>
<path d="M29.9082 55.1992H24.3578C23.7631 55.1992 23.281 55.6813 23.281 56.276V57.2824C23.281 57.8771 23.7631 58.3592 24.3578 58.3592H29.9082C30.5029 58.3592 30.985 57.8771 30.985 57.2824V56.276C30.985 55.6813 30.5029 55.1992 29.9082 55.1992Z" fill="#C8EBBB"/>
<path opacity="0.3" d="M29.9082 55.1992H24.3578C23.7631 55.1992 23.281 55.6813 23.281 56.276V57.2824C23.281 57.8771 23.7631 58.3592 24.3578 58.3592H29.9082C30.5029 58.3592 30.985 57.8771 30.985 57.2824V56.276C30.985 55.6813 30.5029 55.1992 29.9082 55.1992Z" fill="white"/>
<path d="M39.7346 55.1992H34.1842C33.5895 55.1992 33.1074 55.6813 33.1074 56.276V57.2824C33.1074 57.8771 33.5895 58.3592 34.1842 58.3592H39.7346C40.3293 58.3592 40.8114 57.8771 40.8114 57.2824V56.276C40.8114 55.6813 40.3293 55.1992 39.7346 55.1992Z" fill="#C8EBBB"/>
<path opacity="0.3" d="M39.7346 55.1992H34.1842C33.5895 55.1992 33.1074 55.6813 33.1074 56.276V57.2824C33.1074 57.8771 33.5895 58.3592 34.1842 58.3592H39.7346C40.3293 58.3592 40.8114 57.8771 40.8114 57.2824V56.276C40.8114 55.6813 40.3293 55.1992 39.7346 55.1992Z" fill="white"/>
<path d="M49.5645 55.1992H44.0141C43.4194 55.1992 42.9373 55.6813 42.9373 56.276V57.2824C42.9373 57.8771 43.4194 58.3592 44.0141 58.3592H49.5645C50.1592 58.3592 50.6413 57.8771 50.6413 57.2824V56.276C50.6413 55.6813 50.1592 55.1992 49.5645 55.1992Z" fill="#C8EBBB"/>
<path opacity="0.3" d="M49.5645 55.1992H44.0141C43.4194 55.1992 42.9373 55.6813 42.9373 56.276V57.2824C42.9373 57.8771 43.4194 58.3592 44.0141 58.3592H49.5645C50.1592 58.3592 50.6413 57.8771 50.6413 57.2824V56.276C50.6413 55.6813 50.1592 55.1992 49.5645 55.1992Z" fill="white"/>
<path d="M59.3909 55.1992H53.8405C53.2458 55.1992 52.7637 55.6813 52.7637 56.276V57.2824C52.7637 57.8771 53.2458 58.3592 53.8405 58.3592H59.3909C59.9856 58.3592 60.4677 57.8771 60.4677 57.2824V56.276C60.4677 55.6813 59.9856 55.1992 59.3909 55.1992Z" fill="#C8EBBB"/>
<path opacity="0.3" d="M59.3909 55.1992H53.8405C53.2458 55.1992 52.7637 55.6813 52.7637 56.276V57.2824C52.7637 57.8771 53.2458 58.3592 53.8405 58.3592H59.3909C59.9856 58.3592 60.4677 57.8771 60.4677 57.2824V56.276C60.4677 55.6813 59.9856 55.1992 59.3909 55.1992Z" fill="white"/>
</svg>
