<svg width="80" height="80" viewBox="0 0 80 80" fill="none" xmlns="http://www.w3.org/2000/svg">
<path d="M64.9658 10.1094H14.3242V17.3864H64.9658V10.1094Z" fill="white"/>
<path d="M64.9682 17.4959H14.3179C14.2889 17.4959 14.2611 17.4844 14.2405 17.4638C14.22 17.4433 14.2085 17.4155 14.2085 17.3865V10.1094C14.2085 10.0804 14.22 10.0526 14.2405 10.0321C14.2611 10.0115 14.2889 10 14.3179 10H64.9616C64.9907 10 65.0185 10.0115 65.039 10.0321C65.0595 10.0526 65.0711 10.0804 65.0711 10.1094V17.3865C65.0711 17.4144 65.0605 17.4413 65.0414 17.4616C65.0223 17.4819 64.9961 17.4942 64.9682 17.4959ZM14.4339 17.277H64.8588V10.2189H14.4339V17.277Z" fill="#1E293B"/>
<path d="M64.9685 10.1094H41.7236V17.3864H64.9685V10.1094Z" fill="white"/>
<path d="M64.9681 17.4959H41.7232C41.6942 17.4959 41.6663 17.4844 41.6458 17.4638C41.6253 17.4433 41.6138 17.4155 41.6138 17.3865V10.1094C41.6138 10.0804 41.6253 10.0526 41.6458 10.0321C41.6663 10.0115 41.6942 10 41.7232 10H64.9681C64.9971 10 65.025 10.0115 65.0455 10.0321C65.066 10.0526 65.0775 10.0804 65.0775 10.1094V17.3865C65.0775 17.4155 65.066 17.4433 65.0455 17.4638C65.025 17.4844 64.9971 17.4959 64.9681 17.4959ZM41.8326 17.277H64.8587V10.2189H41.8326V17.277Z" fill="#1E293B"/>
<path d="M67.1564 16.668H12.1377V18.3576H67.1564V16.668Z" fill="white"/>
<path d="M67.1564 18.467H12.129C12.0999 18.467 12.0721 18.4555 12.0516 18.435C12.0311 18.4145 12.0195 18.3866 12.0195 18.3576V16.668C12.0195 16.639 12.0311 16.6112 12.0516 16.5906C12.0721 16.5701 12.0999 16.5586 12.129 16.5586H67.1564C67.1852 16.5592 67.2128 16.5709 67.2332 16.5913C67.2536 16.6117 67.2653 16.6392 67.2658 16.668V18.3576C67.2658 18.3866 67.2543 18.4145 67.2338 18.435C67.2132 18.4555 67.1854 18.467 67.1564 18.467ZM12.2471 18.2482H67.047V16.7775H12.2471V18.2482Z" fill="#1E293B"/>
<path d="M66.8656 17.7773H42.4805V69.8896H66.8656V17.7773Z" fill="white"/>
<path d="M66.8652 69.9991H42.48C42.451 69.9991 42.4232 69.9876 42.4027 69.967C42.3821 69.9465 42.3706 69.9187 42.3706 69.8896V17.7774C42.3706 17.7484 42.3821 17.7205 42.4027 17.7C42.4232 17.6795 42.451 17.668 42.48 17.668H66.8652C66.8942 17.668 66.922 17.6795 66.9426 17.7C66.9631 17.7205 66.9746 17.7484 66.9746 17.7774V69.8896C66.9746 69.9187 66.9631 69.9465 66.9426 69.967C66.922 69.9876 66.8942 69.9991 66.8652 69.9991ZM42.5895 69.7802H66.7558V17.8868H42.5895V69.7802Z" fill="#1E293B"/>
<path d="M66.8675 20.3398H42.1082V21.642H66.8675V20.3398Z" fill="#1E293B"/>
<path d="M66.8679 21.7547H42.1128C42.0838 21.7547 42.056 21.7431 42.0355 21.7226C42.0149 21.7021 42.0034 21.6743 42.0034 21.6452V20.3321C42.0034 20.3031 42.0149 20.2752 42.0355 20.2547C42.056 20.2342 42.0838 20.2227 42.1128 20.2227H66.8679C66.8969 20.2227 66.9247 20.2342 66.9452 20.2547C66.9658 20.2752 66.9773 20.3031 66.9773 20.3321V21.6452C66.9767 21.6741 66.965 21.7016 66.9446 21.722C66.9242 21.7424 66.8967 21.7541 66.8679 21.7547ZM42.2179 21.5358H66.7584V20.4415H42.2179V21.5358Z" fill="#1E293B"/>
<path d="M66.8675 61.6367H42.1082V62.9389H66.8675V61.6367Z" fill="#1E293B"/>
<path d="M66.8679 63.0515H42.1128C42.0838 63.0515 42.056 63.04 42.0355 63.0195C42.0149 62.999 42.0034 62.9711 42.0034 62.9421V61.629C42.0034 61.5999 42.0149 61.5721 42.0355 61.5516C42.056 61.5311 42.0838 61.5195 42.1128 61.5195H66.8679C66.8969 61.5195 66.9247 61.5311 66.9452 61.5516C66.9658 61.5721 66.9773 61.5999 66.9773 61.629V62.9421C66.9767 62.971 66.965 62.9985 66.9446 63.0189C66.9242 63.0393 66.8967 63.051 66.8679 63.0515ZM42.2179 62.8327H66.7584V61.7384H42.2179V62.8327Z" fill="#1E293B"/>
<path d="M68.0321 17.7773H42.4805V20.7604H68.0321V17.7773Z" fill="#C8EBBB"/>
<path d="M68.1389 20.8699H42.3706V17.668H68.1389V20.8699ZM42.5895 20.651H67.9201V17.8868H42.5895V20.651Z" fill="#475569"/>
<path d="M68.0302 17.7773H44.5051V20.7604H68.0302V17.7773Z" fill="#C8EBBB"/>
<path d="M68.1392 20.8699H44.3953V17.668H68.1392V20.8699ZM44.6141 20.651H67.9203V17.8868H44.6141V20.651Z" fill="#475569"/>
<path d="M68.0321 59.1758H42.4805V62.1588H68.0321V59.1758Z" fill="#C8EBBB"/>
<path d="M68.1389 62.2683H42.3706V59.0664H68.1389V62.2683ZM42.5895 62.0494H67.9201V59.2853H42.5895V62.0494Z" fill="#475569"/>
<path d="M68.0301 59.1758H44.2446V62.1588H68.0301V59.1758Z" fill="#C8EBBB"/>
<path d="M68.1394 62.2683H44.135V59.0664H68.1394V62.2683ZM44.3539 62.0494H67.9205V59.2853H44.3539V62.0494Z" fill="#475569"/>
<path d="M21.7702 21.2734H11.8384V62.1145H21.7702V21.2734Z" fill="#1E293B"/>
<path d="M21.7697 62.2262H11.8379C11.8091 62.2256 11.7816 62.2139 11.7612 62.1935C11.7408 62.1731 11.7291 62.1456 11.7285 62.1168V21.2735C11.7291 21.2446 11.7408 21.2171 11.7612 21.1967C11.7816 21.1763 11.8091 21.1646 11.8379 21.1641H21.7697C21.7987 21.1641 21.8266 21.1756 21.8471 21.1961C21.8676 21.2166 21.8791 21.2445 21.8791 21.2735V62.1168C21.8791 62.1458 21.8676 62.1736 21.8471 62.1941C21.8266 62.2146 21.7987 62.2262 21.7697 62.2262ZM11.9474 62.0073H21.6603V21.3829H11.9474V62.0073Z" fill="#1E293B"/>
<path d="M11.1099 17.7773V22.3887H22.7837V26.536H11.1099V30.9001H22.7837V35.0474H11.1099V39.4136H22.7837V43.561H11.1099V47.9272H22.7837V52.0746H11.1099V56.4408H22.7837V60.5881H11.1099V69.8896H30.5554V17.7773H11.1099Z" fill="#C8EBBB"/>
<path d="M30.6644 69.9991H11V60.4766H22.6739V56.5503H11V51.9542H22.6739V48.0367H11V43.4516H22.6739V39.5231H11V34.938H22.6739V30.9986H11V26.4267H22.6739V22.4872H11V17.668H30.6644V69.9991ZM11.2189 69.7802H30.4455V17.8868H11.2189V22.2793H22.8927V26.6565H11.2189V30.8016H22.8927V35.1788H11.2189V39.3261H22.8927V43.6924H11.2189V47.8397H22.8927V52.2059H11.2189V56.3642H22.8927V60.7283H11.2189V69.7802Z" fill="#475569"/>
<path d="M42.6159 17.7773H23.1704V69.8896H42.6159V17.7773Z" fill="white"/>
<path d="M42.6165 69.9991H23.171C23.1419 69.9991 23.1141 69.9876 23.0936 69.967C23.0731 69.9465 23.0615 69.9187 23.0615 69.8896V17.7774C23.0615 17.7484 23.0731 17.7205 23.0936 17.7C23.1141 17.6795 23.1419 17.668 23.171 17.668H42.6165C42.6455 17.668 42.6733 17.6795 42.6939 17.7C42.7144 17.7205 42.7259 17.7484 42.7259 17.7774V69.8896C42.7259 69.9187 42.7144 69.9465 42.6939 69.967C42.6733 69.9876 42.6455 69.9991 42.6165 69.9991ZM23.2804 69.7802H42.507V17.8868H23.2913L23.2804 69.7802Z" fill="#1E293B"/>
<path d="M40.3857 17.7773H20.9402V69.8896H40.3857V17.7773Z" fill="white"/>
<path d="M40.3863 69.9991H20.9407C20.9117 69.9991 20.8839 69.9876 20.8634 69.967C20.8428 69.9465 20.8313 69.9187 20.8313 69.8896V17.7774C20.8313 17.7484 20.8428 17.7205 20.8634 17.7C20.8839 17.6795 20.9117 17.668 20.9407 17.668H40.3863C40.4153 17.668 40.4431 17.6795 40.4636 17.7C40.4842 17.7205 40.4957 17.7484 40.4957 17.7774V69.8896C40.4957 69.9187 40.4842 69.9465 40.4636 69.967C40.4431 69.9876 40.4153 69.9991 40.3863 69.9991ZM21.0502 69.7802H40.2768V17.8868H21.0502V69.7802Z" fill="#1E293B"/>
<path d="M35.9365 20.125H25.5867V30.4748H35.9365V20.125Z" fill="#C8EBBB"/>
<path d="M36.0464 30.5821H25.48V20.0156H36.0486L36.0464 30.5821ZM25.6967 30.3632H35.8276V20.2345H25.6988L25.6967 30.3632Z" fill="#475569"/>
<path d="M46.7442 22.4766H43.365V26.1315H46.7442V22.4766Z" fill="#1E293B"/>
<path d="M46.7437 26.2432H43.3646C43.3355 26.2432 43.3077 26.2316 43.2872 26.2111C43.2667 26.1906 43.2551 26.1628 43.2551 26.1337V22.4766C43.2551 22.4476 43.2667 22.4198 43.2872 22.3992C43.3077 22.3787 43.3355 22.3672 43.3646 22.3672H46.7437C46.7727 22.3672 46.8006 22.3787 46.8211 22.3992C46.8416 22.4198 46.8532 22.4476 46.8532 22.4766V26.1337C46.8532 26.1628 46.8416 26.1906 46.8211 26.2111C46.8006 26.2316 46.7727 26.2432 46.7437 26.2432ZM43.474 26.0243H46.6343V22.586H43.474V26.0243Z" fill="#1E293B"/>
<path d="M51.4949 22.4766H48.1157V26.1315H51.4949V22.4766Z" fill="#1E293B"/>
<path d="M51.4976 26.2432H48.1163C48.0874 26.2426 48.0599 26.2309 48.0395 26.2105C48.0191 26.1901 48.0074 26.1626 48.0068 26.1337V22.4766C48.0068 22.4476 48.0184 22.4198 48.0389 22.3992C48.0594 22.3787 48.0872 22.3672 48.1163 22.3672H51.4976C51.5266 22.3672 51.5545 22.3787 51.575 22.3992C51.5955 22.4198 51.6071 22.4476 51.6071 22.4766V26.1337C51.6065 26.1626 51.5948 26.1901 51.5744 26.2105C51.554 26.2309 51.5265 26.2426 51.4976 26.2432ZM48.2257 26.0243H51.3882V22.586H48.2257V26.0243Z" fill="#1E293B"/>
<path d="M56.249 22.4766H52.8699V26.1315H56.249V22.4766Z" fill="#1E293B"/>
<path d="M56.2486 26.2432H52.8694C52.8404 26.2432 52.8126 26.2316 52.7921 26.2111C52.7715 26.1906 52.76 26.1628 52.76 26.1337V22.4766C52.76 22.4476 52.7715 22.4198 52.7921 22.3992C52.8126 22.3787 52.8404 22.3672 52.8694 22.3672H56.2486C56.2776 22.3672 56.3055 22.3787 56.326 22.3992C56.3465 22.4198 56.358 22.4476 56.358 22.4766V26.1337C56.358 26.1628 56.3465 26.1906 56.326 26.2111C56.3055 26.2316 56.2776 26.2432 56.2486 26.2432ZM52.9789 26.0243H56.1392V22.586H52.9789V26.0243Z" fill="#1E293B"/>
<path d="M60.9998 22.4766H57.6206V26.1315H60.9998V22.4766Z" fill="#1E293B"/>
<path d="M61.0003 26.2432H57.6211C57.5923 26.2426 57.5648 26.2309 57.5444 26.2105C57.524 26.1901 57.5123 26.1626 57.5117 26.1337V22.4766C57.5117 22.4476 57.5232 22.4198 57.5438 22.3992C57.5643 22.3787 57.5921 22.3672 57.6211 22.3672H61.0003C61.0293 22.3672 61.0572 22.3787 61.0777 22.3992C61.0982 22.4198 61.1097 22.4476 61.1097 22.4766V26.1337C61.1097 26.1628 61.0982 26.1906 61.0777 26.2111C61.0572 26.2316 61.0293 26.2432 61.0003 26.2432ZM57.7306 26.0243H60.8909V22.586H57.7306V26.0243Z" fill="#1E293B"/>
<path d="M65.7517 22.4766H62.3726V26.1315H65.7517V22.4766Z" fill="#1E293B"/>
<path d="M65.7491 26.2432H62.3721C62.3433 26.2426 62.3158 26.2309 62.2954 26.2105C62.275 26.1901 62.2633 26.1626 62.2627 26.1337V22.4766C62.2627 22.4476 62.2742 22.4198 62.2947 22.3992C62.3153 22.3787 62.3431 22.3672 62.3721 22.3672H65.7491C65.7781 22.3672 65.806 22.3787 65.8265 22.3992C65.847 22.4198 65.8585 22.4476 65.8585 22.4766V26.1337C65.8585 26.1628 65.847 26.1906 65.8265 26.2111C65.806 26.2316 65.7781 26.2432 65.7491 26.2432ZM62.4794 26.0243H65.6397V22.586H62.4816L62.4794 26.0243Z" fill="#1E293B"/>
<path d="M46.7442 28.8477H43.365V32.5026H46.7442V28.8477Z" fill="#1E293B"/>
<path d="M46.7437 32.6121H43.3646C43.3355 32.6121 43.3077 32.6005 43.2872 32.58C43.2667 32.5595 43.2551 32.5317 43.2551 32.5026V28.8477C43.2551 28.8187 43.2667 28.7909 43.2872 28.7703C43.3077 28.7498 43.3355 28.7383 43.3646 28.7383H46.7437C46.7727 28.7383 46.8006 28.7498 46.8211 28.7703C46.8416 28.7909 46.8532 28.8187 46.8532 28.8477V32.5026C46.8532 32.5317 46.8416 32.5595 46.8211 32.58C46.8006 32.6005 46.7727 32.6121 46.7437 32.6121ZM43.474 32.3932H46.6343V28.9571H43.474V32.3932Z" fill="#1E293B"/>
<path d="M51.4949 28.8477H48.1157V32.5026H51.4949V28.8477Z" fill="#1E293B"/>
<path d="M51.4976 32.6121H48.1163C48.0872 32.6121 48.0594 32.6005 48.0389 32.58C48.0184 32.5595 48.0068 32.5317 48.0068 32.5026V28.8477C48.0068 28.8187 48.0184 28.7909 48.0389 28.7703C48.0594 28.7498 48.0872 28.7383 48.1163 28.7383H51.4976C51.5266 28.7383 51.5545 28.7498 51.575 28.7703C51.5955 28.7909 51.6071 28.8187 51.6071 28.8477V32.5026C51.6071 32.5317 51.5955 32.5595 51.575 32.58C51.5545 32.6005 51.5266 32.6121 51.4976 32.6121ZM48.2257 32.3932H51.3882V28.9571H48.2257V32.3932Z" fill="#1E293B"/>
<path d="M56.249 28.8477H52.8699V32.5026H56.249V28.8477Z" fill="#1E293B"/>
<path d="M56.2486 32.6121H52.8694C52.8404 32.6121 52.8126 32.6005 52.7921 32.58C52.7715 32.5595 52.76 32.5317 52.76 32.5026V28.8477C52.76 28.8187 52.7715 28.7909 52.7921 28.7703C52.8126 28.7498 52.8404 28.7383 52.8694 28.7383H56.2486C56.2776 28.7383 56.3055 28.7498 56.326 28.7703C56.3465 28.7909 56.358 28.8187 56.358 28.8477V32.5026C56.358 32.5317 56.3465 32.5595 56.326 32.58C56.3055 32.6005 56.2776 32.6121 56.2486 32.6121ZM52.9789 32.3932H56.1392V28.9571H52.9789V32.3932Z" fill="#1E293B"/>
<path d="M60.9998 28.8477H57.6206V32.5026H60.9998V28.8477Z" fill="#1E293B"/>
<path d="M61.0003 32.6121H57.6211C57.5921 32.6121 57.5643 32.6005 57.5438 32.58C57.5232 32.5595 57.5117 32.5317 57.5117 32.5026V28.8477C57.5117 28.8187 57.5232 28.7909 57.5438 28.7703C57.5643 28.7498 57.5921 28.7383 57.6211 28.7383H61.0003C61.0293 28.7383 61.0572 28.7498 61.0777 28.7703C61.0982 28.7909 61.1097 28.8187 61.1097 28.8477V32.5026C61.1097 32.5317 61.0982 32.5595 61.0777 32.58C61.0572 32.6005 61.0293 32.6121 61.0003 32.6121ZM57.7306 32.3932H60.8909V28.9571H57.7306V32.3932Z" fill="#1E293B"/>
<path d="M65.7517 28.8477H62.3726V32.5026H65.7517V28.8477Z" fill="#1E293B"/>
<path d="M65.7491 32.6121H62.3721C62.3431 32.6121 62.3153 32.6005 62.2947 32.58C62.2742 32.5595 62.2627 32.5317 62.2627 32.5026V28.8477C62.2627 28.8187 62.2742 28.7909 62.2947 28.7703C62.3153 28.7498 62.3431 28.7383 62.3721 28.7383H65.7491C65.7781 28.7383 65.806 28.7498 65.8265 28.7703C65.847 28.7909 65.8585 28.8187 65.8585 28.8477V32.5026C65.8585 32.5317 65.847 32.5595 65.8265 32.58C65.806 32.6005 65.7781 32.6121 65.7491 32.6121ZM62.4794 32.3932H65.6397V28.9571H62.4816L62.4794 32.3932Z" fill="#1E293B"/>
<path d="M46.7442 35.2109H43.365V38.8659H46.7442V35.2109Z" fill="#1E293B"/>
<path d="M46.7437 38.9775H43.3646C43.3355 38.9775 43.3077 38.966 43.2872 38.9455C43.2667 38.925 43.2551 38.8971 43.2551 38.8681V35.211C43.2551 35.182 43.2667 35.1541 43.2872 35.1336C43.3077 35.1131 43.3355 35.1016 43.3646 35.1016H46.7437C46.7727 35.1016 46.8006 35.1131 46.8211 35.1336C46.8416 35.1541 46.8532 35.182 46.8532 35.211V38.8681C46.8532 38.8971 46.8416 38.925 46.8211 38.9455C46.8006 38.966 46.7727 38.9775 46.7437 38.9775ZM43.474 38.7587H46.6343V35.3204H43.474V38.7587Z" fill="#1E293B"/>
<path d="M51.4949 35.2109H48.1157V38.8659H51.4949V35.2109Z" fill="#1E293B"/>
<path d="M51.4976 38.9775H48.1163C48.0874 38.977 48.0599 38.9653 48.0395 38.9449C48.0191 38.9245 48.0074 38.897 48.0068 38.8681V35.211C48.0068 35.182 48.0184 35.1541 48.0389 35.1336C48.0594 35.1131 48.0872 35.1016 48.1163 35.1016H51.4976C51.5266 35.1016 51.5545 35.1131 51.575 35.1336C51.5955 35.1541 51.6071 35.182 51.6071 35.211V38.8681C51.6065 38.897 51.5948 38.9245 51.5744 38.9449C51.554 38.9653 51.5265 38.977 51.4976 38.9775ZM48.2257 38.7587H51.3882V35.3204H48.2257V38.7587Z" fill="#1E293B"/>
<path d="M56.249 35.2109H52.8699V38.8659H56.249V35.2109Z" fill="#1E293B"/>
<path d="M56.2486 38.9775H52.8694C52.8404 38.9775 52.8126 38.966 52.7921 38.9455C52.7715 38.925 52.76 38.8971 52.76 38.8681V35.211C52.76 35.182 52.7715 35.1541 52.7921 35.1336C52.8126 35.1131 52.8404 35.1016 52.8694 35.1016H56.2486C56.2776 35.1016 56.3055 35.1131 56.326 35.1336C56.3465 35.1541 56.358 35.182 56.358 35.211V38.8681C56.358 38.8971 56.3465 38.925 56.326 38.9455C56.3055 38.966 56.2776 38.9775 56.2486 38.9775ZM52.9789 38.7587H56.1392V35.3204H52.9789V38.7587Z" fill="#1E293B"/>
<path d="M60.9998 35.2109H57.6206V38.8659H60.9998V35.2109Z" fill="#1E293B"/>
<path d="M61.0003 38.9775H57.6211C57.5923 38.977 57.5648 38.9653 57.5444 38.9449C57.524 38.9245 57.5123 38.897 57.5117 38.8681V35.211C57.5117 35.182 57.5232 35.1541 57.5438 35.1336C57.5643 35.1131 57.5921 35.1016 57.6211 35.1016H61.0003C61.0293 35.1016 61.0572 35.1131 61.0777 35.1336C61.0982 35.1541 61.1097 35.182 61.1097 35.211V38.8681C61.1097 38.8971 61.0982 38.925 61.0777 38.9455C61.0572 38.966 61.0293 38.9775 61.0003 38.9775ZM57.7306 38.7587H60.8909V35.3204H57.7306V38.7587Z" fill="#1E293B"/>
<path d="M65.7517 35.2109H62.3726V38.8659H65.7517V35.2109Z" fill="#1E293B"/>
<path d="M65.7491 38.9775H62.3721C62.3433 38.977 62.3158 38.9653 62.2954 38.9449C62.275 38.9245 62.2633 38.897 62.2627 38.8681V35.211C62.2627 35.182 62.2742 35.1541 62.2947 35.1336C62.3153 35.1131 62.3431 35.1016 62.3721 35.1016H65.7491C65.7781 35.1016 65.806 35.1131 65.8265 35.1336C65.847 35.1541 65.8585 35.182 65.8585 35.211V38.8681C65.8585 38.8971 65.847 38.925 65.8265 38.9455C65.806 38.966 65.7781 38.9775 65.7491 38.9775ZM62.4794 38.7587H65.6397V35.3204H62.4816L62.4794 38.7587Z" fill="#1E293B"/>
<path d="M46.7442 41.582H43.365V45.237H46.7442V41.582Z" fill="#1E293B"/>
<path d="M46.7437 45.3464H43.3646C43.3355 45.3464 43.3077 45.3349 43.2872 45.3144C43.2667 45.2939 43.2551 45.266 43.2551 45.237V41.5821C43.2551 41.5531 43.2667 41.5252 43.2872 41.5047C43.3077 41.4842 43.3355 41.4727 43.3646 41.4727H46.7437C46.7727 41.4727 46.8006 41.4842 46.8211 41.5047C46.8416 41.5252 46.8532 41.5531 46.8532 41.5821V45.237C46.8532 45.266 46.8416 45.2939 46.8211 45.3144C46.8006 45.3349 46.7727 45.3464 46.7437 45.3464ZM43.474 45.1276H46.6343V41.6915H43.474V45.1276Z" fill="#1E293B"/>
<path d="M51.4949 41.582H48.1157V45.237H51.4949V41.582Z" fill="#1E293B"/>
<path d="M51.4976 45.3464H48.1163C48.0872 45.3464 48.0594 45.3349 48.0389 45.3144C48.0184 45.2939 48.0068 45.266 48.0068 45.237V41.5821C48.0068 41.5531 48.0184 41.5252 48.0389 41.5047C48.0594 41.4842 48.0872 41.4727 48.1163 41.4727H51.4976C51.5266 41.4727 51.5545 41.4842 51.575 41.5047C51.5955 41.5252 51.6071 41.5531 51.6071 41.5821V45.237C51.6071 45.266 51.5955 45.2939 51.575 45.3144C51.5545 45.3349 51.5266 45.3464 51.4976 45.3464ZM48.2257 45.1276H51.3882V41.6915H48.2257V45.1276Z" fill="#1E293B"/>
<path d="M56.249 41.582H52.8699V45.237H56.249V41.582Z" fill="#1E293B"/>
<path d="M56.2486 45.3464H52.8694C52.8404 45.3464 52.8126 45.3349 52.7921 45.3144C52.7715 45.2939 52.76 45.266 52.76 45.237V41.5821C52.76 41.5531 52.7715 41.5252 52.7921 41.5047C52.8126 41.4842 52.8404 41.4727 52.8694 41.4727H56.2486C56.2776 41.4727 56.3055 41.4842 56.326 41.5047C56.3465 41.5252 56.358 41.5531 56.358 41.5821V45.237C56.358 45.266 56.3465 45.2939 56.326 45.3144C56.3055 45.3349 56.2776 45.3464 56.2486 45.3464ZM52.9789 45.1276H56.1392V41.6915H52.9789V45.1276Z" fill="#1E293B"/>
<path d="M60.9998 41.582H57.6206V45.237H60.9998V41.582Z" fill="#1E293B"/>
<path d="M61.0003 45.3464H57.6211C57.5921 45.3464 57.5643 45.3349 57.5438 45.3144C57.5232 45.2939 57.5117 45.266 57.5117 45.237V41.5821C57.5117 41.5531 57.5232 41.5252 57.5438 41.5047C57.5643 41.4842 57.5921 41.4727 57.6211 41.4727H61.0003C61.0293 41.4727 61.0572 41.4842 61.0777 41.5047C61.0982 41.5252 61.1097 41.5531 61.1097 41.5821V45.237C61.1097 45.266 61.0982 45.2939 61.0777 45.3144C61.0572 45.3349 61.0293 45.3464 61.0003 45.3464ZM57.7306 45.1276H60.8909V41.6915H57.7306V45.1276Z" fill="#1E293B"/>
<path d="M65.7517 41.582H62.3726V45.237H65.7517V41.582Z" fill="#1E293B"/>
<path d="M65.7491 45.3464H62.3721C62.3431 45.3464 62.3153 45.3349 62.2947 45.3144C62.2742 45.2939 62.2627 45.266 62.2627 45.237V41.5821C62.2627 41.5531 62.2742 41.5252 62.2947 41.5047C62.3153 41.4842 62.3431 41.4727 62.3721 41.4727H65.7491C65.7781 41.4727 65.806 41.4842 65.8265 41.5047C65.847 41.5252 65.8585 41.5531 65.8585 41.5821V45.237C65.8585 45.266 65.847 45.2939 65.8265 45.3144C65.806 45.3349 65.7781 45.3464 65.7491 45.3464ZM62.4794 45.1276H65.6397V41.6915H62.4816L62.4794 45.1276Z" fill="#1E293B"/>
<path d="M46.7442 47.9492H43.365V51.6041H46.7442V47.9492Z" fill="#1E293B"/>
<path d="M46.7437 51.7153H43.3646C43.3355 51.7153 43.3077 51.7038 43.2872 51.6833C43.2667 51.6628 43.2551 51.6349 43.2551 51.6059V47.9532C43.2551 47.9242 43.2667 47.8963 43.2872 47.8758C43.3077 47.8553 43.3355 47.8438 43.3646 47.8438H46.7437C46.7727 47.8438 46.8006 47.8553 46.8211 47.8758C46.8416 47.8963 46.8532 47.9242 46.8532 47.9532V51.6103C46.852 51.6386 46.84 51.6653 46.8196 51.6849C46.7992 51.7044 46.772 51.7154 46.7437 51.7153ZM43.474 51.4965H46.6343V48.0582H43.474V51.4965Z" fill="#1E293B"/>
<path d="M51.4949 47.9492H48.1157V51.6041H51.4949V47.9492Z" fill="#1E293B"/>
<path d="M51.4976 51.7153H48.1163C48.0874 51.7148 48.0599 51.7031 48.0395 51.6827C48.0191 51.6623 48.0074 51.6348 48.0068 51.6059V47.9532C48.0074 47.9243 48.0191 47.8968 48.0395 47.8764C48.0599 47.856 48.0874 47.8443 48.1163 47.8438H51.4976C51.5265 47.8443 51.554 47.856 51.5744 47.8764C51.5948 47.8968 51.6065 47.9243 51.6071 47.9532V51.6103C51.6054 51.6384 51.5932 51.6648 51.5729 51.6843C51.5526 51.7037 51.5257 51.7148 51.4976 51.7153ZM48.2257 51.4965H51.3882V48.0582H48.2257V51.4965Z" fill="#1E293B"/>
<path d="M56.249 47.9492H52.8699V51.6041H56.249V47.9492Z" fill="#1E293B"/>
<path d="M56.2486 51.7153H52.8694C52.8404 51.7153 52.8126 51.7038 52.7921 51.6833C52.7715 51.6628 52.76 51.6349 52.76 51.6059V47.9532C52.76 47.9242 52.7715 47.8963 52.7921 47.8758C52.8126 47.8553 52.8404 47.8438 52.8694 47.8438H56.2486C56.2776 47.8438 56.3055 47.8553 56.326 47.8758C56.3465 47.8963 56.358 47.9242 56.358 47.9532V51.6103C56.3569 51.6386 56.3449 51.6653 56.3245 51.6849C56.3041 51.7044 56.2769 51.7154 56.2486 51.7153ZM52.9789 51.4965H56.1392V48.0582H52.9789V51.4965Z" fill="#1E293B"/>
<path d="M60.9998 47.9492H57.6206V51.6041H60.9998V47.9492Z" fill="#1E293B"/>
<path d="M61.0003 51.7153H57.6211C57.5923 51.7148 57.5648 51.7031 57.5444 51.6827C57.524 51.6623 57.5123 51.6348 57.5117 51.6059V47.9532C57.5123 47.9243 57.524 47.8968 57.5444 47.8764C57.5648 47.856 57.5923 47.8443 57.6211 47.8438H61.0003C61.0293 47.8438 61.0572 47.8553 61.0777 47.8758C61.0982 47.8963 61.1097 47.9242 61.1097 47.9532V51.6103C61.1086 51.6386 61.0966 51.6653 61.0762 51.6849C61.0558 51.7044 61.0286 51.7154 61.0003 51.7153ZM57.7306 51.4965H60.8909V48.0582H57.7306V51.4965Z" fill="#1E293B"/>
<path d="M65.7517 47.9492H62.3726V51.6041H65.7517V47.9492Z" fill="#1E293B"/>
<path d="M65.7491 51.7153H62.3721C62.3433 51.7148 62.3158 51.7031 62.2954 51.6827C62.275 51.6623 62.2633 51.6348 62.2627 51.6059V47.9532C62.2633 47.9243 62.275 47.8968 62.2954 47.8764C62.3158 47.856 62.3433 47.8443 62.3721 47.8438H65.7491C65.7781 47.8438 65.806 47.8553 65.8265 47.8758C65.847 47.8963 65.8585 47.9242 65.8585 47.9532V51.6103C65.8574 51.6386 65.8454 51.6653 65.825 51.6849C65.8046 51.7044 65.7774 51.7154 65.7491 51.7153ZM62.4794 51.4965H65.6397V48.0582H62.4816L62.4794 51.4965Z" fill="#1E293B"/>
<path d="M46.7442 54.3164H43.365V57.9713H46.7442V54.3164Z" fill="#1E293B"/>
<path d="M46.7437 58.0808H43.3646C43.3355 58.0808 43.3077 58.0693 43.2872 58.0488C43.2667 58.0282 43.2551 58.0004 43.2551 57.9714V54.3165C43.2551 54.2874 43.2667 54.2596 43.2872 54.2391C43.3077 54.2186 43.3355 54.207 43.3646 54.207H46.7437C46.7727 54.207 46.8006 54.2186 46.8211 54.2391C46.8416 54.2596 46.8532 54.2874 46.8532 54.3165V57.9714C46.8532 58.0004 46.8416 58.0282 46.8211 58.0488C46.8006 58.0693 46.7727 58.0808 46.7437 58.0808ZM43.474 57.862H46.6343V54.4259H43.474V57.862Z" fill="#1E293B"/>
<path d="M51.4949 54.3164H48.1157V57.9713H51.4949V54.3164Z" fill="#1E293B"/>
<path d="M51.4976 58.0808H48.1163C48.0872 58.0808 48.0594 58.0693 48.0389 58.0488C48.0184 58.0282 48.0068 58.0004 48.0068 57.9714V54.3165C48.0068 54.2874 48.0184 54.2596 48.0389 54.2391C48.0594 54.2186 48.0872 54.207 48.1163 54.207H51.4976C51.5266 54.207 51.5545 54.2186 51.575 54.2391C51.5955 54.2596 51.6071 54.2874 51.6071 54.3165V57.9714C51.6071 58.0004 51.5955 58.0282 51.575 58.0488C51.5545 58.0693 51.5266 58.0808 51.4976 58.0808ZM48.2257 57.862H51.3882V54.4259H48.2257V57.862Z" fill="#1E293B"/>
<path d="M56.249 54.3164H52.8699V57.9713H56.249V54.3164Z" fill="#1E293B"/>
<path d="M56.2486 58.0808H52.8694C52.8404 58.0808 52.8126 58.0693 52.7921 58.0488C52.7715 58.0282 52.76 58.0004 52.76 57.9714V54.3165C52.76 54.2874 52.7715 54.2596 52.7921 54.2391C52.8126 54.2186 52.8404 54.207 52.8694 54.207H56.2486C56.2776 54.207 56.3055 54.2186 56.326 54.2391C56.3465 54.2596 56.358 54.2874 56.358 54.3165V57.9714C56.358 58.0004 56.3465 58.0282 56.326 58.0488C56.3055 58.0693 56.2776 58.0808 56.2486 58.0808ZM52.9789 57.862H56.1392V54.4259H52.9789V57.862Z" fill="#1E293B"/>
<path d="M60.9998 54.3164H57.6206V57.9713H60.9998V54.3164Z" fill="#1E293B"/>
<path d="M61.0003 58.0808H57.6211C57.5921 58.0808 57.5643 58.0693 57.5438 58.0488C57.5232 58.0282 57.5117 58.0004 57.5117 57.9714V54.3165C57.5117 54.2874 57.5232 54.2596 57.5438 54.2391C57.5643 54.2186 57.5921 54.207 57.6211 54.207H61.0003C61.0293 54.207 61.0572 54.2186 61.0777 54.2391C61.0982 54.2596 61.1097 54.2874 61.1097 54.3165V57.9714C61.1097 58.0004 61.0982 58.0282 61.0777 58.0488C61.0572 58.0693 61.0293 58.0808 61.0003 58.0808ZM57.7306 57.862H60.8909V54.4259H57.7306V57.862Z" fill="#1E293B"/>
<path d="M65.7517 54.3164H62.3726V57.9713H65.7517V54.3164Z" fill="#1E293B"/>
<path d="M65.7491 58.0808H62.3721C62.3431 58.0808 62.3153 58.0693 62.2947 58.0488C62.2742 58.0282 62.2627 58.0004 62.2627 57.9714V54.3165C62.2627 54.2874 62.2742 54.2596 62.2947 54.2391C62.3153 54.2186 62.3431 54.207 62.3721 54.207H65.7491C65.7781 54.207 65.806 54.2186 65.8265 54.2391C65.847 54.2596 65.8585 54.2874 65.8585 54.3165V57.9714C65.8585 58.0004 65.847 58.0282 65.8265 58.0488C65.806 58.0693 65.7781 58.0808 65.7491 58.0808ZM62.4794 57.862H65.6397V54.4259H62.4816L62.4794 57.862Z" fill="#1E293B"/>
<path d="M49.0001 63.9805H44.542V69.8918H49.0001V63.9805Z" fill="#1E293B"/>
<path d="M48.9985 69.9991H44.5425C44.5135 69.9991 44.4857 69.9876 44.4652 69.9671C44.4446 69.9465 44.4331 69.9187 44.4331 69.8897V63.9805C44.4331 63.9515 44.4446 63.9237 44.4652 63.9031C44.4857 63.8826 44.5135 63.8711 44.5425 63.8711H48.9985C49.0275 63.8711 49.0553 63.8826 49.0759 63.9031C49.0964 63.9237 49.1079 63.9515 49.1079 63.9805V69.8897C49.1079 69.9041 49.1051 69.9183 49.0996 69.9316C49.0941 69.9448 49.086 69.9569 49.0759 69.9671C49.0657 69.9772 49.0536 69.9853 49.0404 69.9908C49.0271 69.9963 49.0128 69.9991 48.9985 69.9991ZM44.652 69.7803H48.8978V64.09H44.652V69.7803Z" fill="#1E293B"/>
<path d="M65.1346 63.9805H60.6765V69.8918H65.1346V63.9805Z" fill="#1E293B"/>
<path d="M65.1342 69.9991H60.6761C60.6471 69.9991 60.6192 69.9876 60.5987 69.9671C60.5782 69.9465 60.5667 69.9187 60.5667 69.8897V63.9805C60.5667 63.9515 60.5782 63.9237 60.5987 63.9031C60.6192 63.8826 60.6471 63.8711 60.6761 63.8711H65.1342C65.1632 63.8711 65.1911 63.8826 65.2116 63.9031C65.2321 63.9237 65.2436 63.9515 65.2436 63.9805V69.8897C65.2436 69.9187 65.2321 69.9465 65.2116 69.9671C65.1911 69.9876 65.1632 69.9991 65.1342 69.9991ZM60.7855 69.7803H65.0248V64.09H60.7855V69.7803Z" fill="#1E293B"/>
<path d="M59.0847 63.9805H50.604V69.8918H59.0847V63.9805Z" fill="#1E293B"/>
<path d="M59.0831 69.9991H50.6045C50.5755 69.9991 50.5477 69.9876 50.5272 69.9671C50.5066 69.9465 50.4951 69.9187 50.4951 69.8897V63.9805C50.4951 63.9515 50.5066 63.9237 50.5272 63.9031C50.5477 63.8826 50.5755 63.8711 50.6045 63.8711H59.0831C59.1121 63.8711 59.14 63.8826 59.1605 63.9031C59.181 63.9237 59.1925 63.9515 59.1925 63.9805V69.8897C59.1925 69.9187 59.181 69.9465 59.1605 69.9671C59.14 69.9876 59.1121 69.9991 59.0831 69.9991ZM50.714 69.7803H58.9649V64.09H50.714V69.7803Z" fill="#1E293B"/>
<path d="M28.4473 29.2673V21.3359H30.0624V24.5969H31.4631V21.3359H33.0783V29.2673H31.4631V25.7525H30.0624V29.2673H28.4473Z" fill="#475569"/>
<path d="M35.8662 32.2695H25.8337V65.293H35.8662V32.2695Z" fill="white"/>
<path d="M35.8667 65.4025H25.8343C25.8053 65.4025 25.7774 65.391 25.7569 65.3704C25.7364 65.3499 25.7249 65.3221 25.7249 65.293V32.2696C25.7249 32.2406 25.7364 32.2127 25.7569 32.1922C25.7774 32.1717 25.8053 32.1602 25.8343 32.1602H35.8667C35.8958 32.1602 35.9236 32.1717 35.9441 32.1922C35.9646 32.2127 35.9762 32.2406 35.9762 32.2696V65.293C35.9762 65.3221 35.9646 65.3499 35.9441 65.3704C35.9236 65.391 35.8958 65.4025 35.8667 65.4025ZM25.9437 65.1836H35.7661V32.379H25.9437V65.1836Z" fill="#1E293B"/>
<path d="M30.7896 65.3917C30.7606 65.3917 30.7328 65.3801 30.7122 65.3596C30.6917 65.3391 30.6802 65.3112 30.6802 65.2822V32.3594C30.6807 32.3306 30.6924 32.3031 30.7128 32.2827C30.7333 32.2623 30.7608 32.2506 30.7896 32.25C30.8186 32.25 30.8465 32.2615 30.867 32.282C30.8875 32.3026 30.899 32.3304 30.899 32.3594V65.2822C30.899 65.3112 30.8875 65.3391 30.867 65.3596C30.8465 65.3801 30.8186 65.3917 30.7896 65.3917Z" fill="#1E293B"/>
<path d="M35.7662 36.0665H25.8782C25.8492 36.0665 25.8214 36.055 25.8008 36.0345C25.7803 36.0139 25.7688 35.9861 25.7688 35.9571C25.7688 35.9281 25.7803 35.9002 25.8008 35.8797C25.8214 35.8592 25.8492 35.8477 25.8782 35.8477H35.7662C35.7952 35.8477 35.8231 35.8592 35.8436 35.8797C35.8641 35.9002 35.8757 35.9281 35.8757 35.9571C35.8757 35.9861 35.8641 36.0139 35.8436 36.0345C35.8231 36.055 35.7952 36.0665 35.7662 36.0665Z" fill="#1E293B"/>
<path d="M35.7662 39.8556H25.8782C25.8492 39.8556 25.8214 39.844 25.8008 39.8235C25.7803 39.803 25.7688 39.7752 25.7688 39.7461C25.7688 39.7171 25.7803 39.6893 25.8008 39.6688C25.8214 39.6482 25.8492 39.6367 25.8782 39.6367H35.7662C35.7952 39.6367 35.8231 39.6482 35.8436 39.6688C35.8641 39.6893 35.8757 39.7171 35.8757 39.7461C35.8757 39.7752 35.8641 39.803 35.8436 39.8235C35.8231 39.844 35.7952 39.8556 35.7662 39.8556Z" fill="#1E293B"/>
<path d="M35.7662 43.629H25.8782C25.8494 43.6285 25.8219 43.6167 25.8015 43.5963C25.7811 43.5759 25.7694 43.5484 25.7688 43.5196C25.7688 43.4906 25.7803 43.4627 25.8008 43.4422C25.8214 43.4217 25.8492 43.4102 25.8782 43.4102H35.7662C35.7952 43.4102 35.8231 43.4217 35.8436 43.4422C35.8641 43.4627 35.8757 43.4906 35.8757 43.5196C35.8757 43.5486 35.8641 43.5764 35.8436 43.597C35.8231 43.6175 35.7952 43.629 35.7662 43.629Z" fill="#1E293B"/>
<path d="M35.7662 47.4064H25.8782C25.8494 47.4058 25.8219 47.3941 25.8015 47.3737C25.7811 47.3533 25.7694 47.3258 25.7688 47.2969C25.7688 47.2679 25.7803 47.2401 25.8008 47.2195C25.8214 47.199 25.8492 47.1875 25.8782 47.1875H35.7662C35.7952 47.1875 35.8231 47.199 35.8436 47.2195C35.8641 47.2401 35.8757 47.2679 35.8757 47.2969C35.8757 47.326 35.8641 47.3538 35.8436 47.3743C35.8231 47.3948 35.7952 47.4064 35.7662 47.4064Z" fill="#1E293B"/>
<path d="M35.7662 51.1837H25.8782C25.8492 51.1837 25.8214 51.1722 25.8008 51.1517C25.7803 51.1311 25.7688 51.1033 25.7688 51.0743C25.7694 51.0454 25.7811 51.0179 25.8015 50.9975C25.8219 50.9771 25.8494 50.9654 25.8782 50.9648H35.7662C35.7952 50.9648 35.8231 50.9764 35.8436 50.9969C35.8641 51.0174 35.8757 51.0453 35.8757 51.0743C35.8757 51.1033 35.8641 51.1311 35.8436 51.1517C35.8231 51.1722 35.7952 51.1837 35.7662 51.1837Z" fill="#1E293B"/>
<path d="M35.7662 54.9571H25.8782C25.8492 54.9571 25.8214 54.9456 25.8008 54.9251C25.7803 54.9046 25.7688 54.8767 25.7688 54.8477C25.7694 54.8189 25.7811 54.7914 25.8015 54.771C25.8219 54.7506 25.8494 54.7388 25.8782 54.7383H35.7662C35.7952 54.7383 35.8231 54.7498 35.8436 54.7703C35.8641 54.7909 35.8757 54.8187 35.8757 54.8477C35.8757 54.8767 35.8641 54.9046 35.8436 54.9251C35.8231 54.9456 35.7952 54.9571 35.7662 54.9571Z" fill="#1E293B"/>
<path d="M35.7662 58.7423H25.8782C25.8492 58.7423 25.8214 58.7308 25.8008 58.7102C25.7803 58.6897 25.7688 58.6619 25.7688 58.6329C25.7688 58.6038 25.7803 58.576 25.8008 58.5555C25.8214 58.535 25.8492 58.5234 25.8782 58.5234H35.7662C35.7952 58.5234 35.8231 58.535 35.8436 58.5555C35.8641 58.576 35.8757 58.6038 35.8757 58.6329C35.8757 58.6619 35.8641 58.6897 35.8436 58.7102C35.8231 58.7308 35.7952 58.7423 35.7662 58.7423Z" fill="#1E293B"/>
<path d="M35.7662 62.5235H25.8782C25.8492 62.5235 25.8214 62.512 25.8008 62.4915C25.7803 62.471 25.7688 62.4431 25.7688 62.4141C25.7688 62.3851 25.7803 62.3573 25.8008 62.3367C25.8214 62.3162 25.8492 62.3047 25.8782 62.3047H35.7662C35.7952 62.3047 35.8231 62.3162 35.8436 62.3367C35.8641 62.3573 35.8757 62.3851 35.8757 62.4141C35.8757 62.4431 35.8641 62.471 35.8436 62.4915C35.8231 62.512 35.7952 62.5235 35.7662 62.5235Z" fill="#1E293B"/>
<path d="M27.6831 35.1383C27.6617 35.138 27.6408 35.1315 27.6231 35.1194C27.6054 35.1074 27.5916 35.0904 27.5834 35.0706C27.5753 35.0508 27.5731 35.029 27.5772 35.008C27.5813 34.987 27.5915 34.9676 27.6065 34.9523L29.6681 32.8907C29.6886 32.8706 29.7161 32.8594 29.7447 32.8594C29.7734 32.8594 29.8009 32.8706 29.8213 32.8907C29.8316 32.9008 29.8397 32.9129 29.8453 32.9263C29.8508 32.9396 29.8537 32.9539 29.8537 32.9684C29.8537 32.9828 29.8508 32.9971 29.8453 33.0104C29.8397 33.0238 29.8316 33.0359 29.8213 33.046L27.7619 35.1055C27.741 35.1264 27.7127 35.1383 27.6831 35.1383Z" fill="#1E293B"/>
<path d="M26.9982 34.8191C26.9686 34.819 26.9403 34.8072 26.9194 34.7862C26.8992 34.7654 26.8879 34.7375 26.8879 34.7085C26.8879 34.6795 26.8992 34.6517 26.9194 34.6308L27.6373 33.9152C27.6474 33.9049 27.6595 33.8968 27.6729 33.8912C27.6862 33.8857 27.7005 33.8828 27.715 33.8828C27.7294 33.8828 27.7437 33.8857 27.7571 33.8912C27.7704 33.8968 27.7825 33.9049 27.7927 33.9152C27.8129 33.936 27.8241 33.9639 27.8241 33.9929C27.8241 34.0219 27.8129 34.0497 27.7927 34.0706L27.0748 34.7862C27.0546 34.8069 27.0271 34.8187 26.9982 34.8191Z" fill="#1E293B"/>
<path d="M27.683 39.023C27.6542 39.0226 27.6266 39.0108 27.6064 38.9902C27.5862 38.9694 27.575 38.9415 27.575 38.9125C27.575 38.8835 27.5862 38.8556 27.6064 38.8348L29.6681 36.7753C29.6779 36.7649 29.6898 36.7565 29.7029 36.7508C29.7161 36.7451 29.7303 36.7422 29.7447 36.7422C29.759 36.7422 29.7732 36.7451 29.7864 36.7508C29.7996 36.7565 29.8114 36.7649 29.8213 36.7753C29.8315 36.7855 29.8397 36.7976 29.8452 36.811C29.8508 36.8243 29.8536 36.8386 29.8536 36.853C29.8536 36.8675 29.8508 36.8818 29.8452 36.8951C29.8397 36.9085 29.8315 36.9206 29.8213 36.9307L27.7618 38.9902C27.7409 39.0111 27.7126 39.023 27.683 39.023Z" fill="#1E293B"/>
<path d="M26.9982 38.6941C26.9686 38.694 26.9403 38.6822 26.9194 38.6612C26.8992 38.6404 26.8879 38.6126 26.8879 38.5835C26.8879 38.5545 26.8992 38.5267 26.9194 38.5058L27.6373 37.7902C27.6474 37.7799 27.6595 37.7718 27.6729 37.7662C27.6862 37.7607 27.7005 37.7578 27.715 37.7578C27.7294 37.7578 27.7437 37.7607 27.7571 37.7662C27.7704 37.7718 27.7825 37.7799 27.7927 37.7902C27.8129 37.811 27.8241 37.8389 27.8241 37.8679C27.8241 37.8969 27.8129 37.9247 27.7927 37.9456L27.0748 38.6612C27.0546 38.6819 27.0271 38.6937 26.9982 38.6941Z" fill="#1E293B"/>
<path d="M27.683 42.9044C27.6542 42.904 27.6266 42.8922 27.6064 42.8716C27.5862 42.8507 27.575 42.8229 27.575 42.7939C27.575 42.7649 27.5862 42.737 27.6064 42.7162L29.6681 40.6567C29.6884 40.6364 29.7159 40.625 29.7447 40.625C29.7734 40.625 29.801 40.6364 29.8213 40.6567C29.8416 40.677 29.853 40.7046 29.853 40.7333C29.853 40.7621 29.8416 40.7896 29.8213 40.8099L27.7618 42.8716C27.7409 42.8925 27.7126 42.9043 27.683 42.9044Z" fill="#1E293B"/>
<path d="M26.9982 42.5747C26.9837 42.5751 26.9693 42.5725 26.9557 42.5673C26.9422 42.562 26.9299 42.5541 26.9194 42.544C26.8992 42.5232 26.8879 42.4954 26.8879 42.4664C26.8879 42.4373 26.8992 42.4095 26.9194 42.3887L27.6373 41.673C27.6474 41.6627 27.6595 41.6546 27.6729 41.649C27.6862 41.6435 27.7005 41.6406 27.715 41.6406C27.7294 41.6406 27.7437 41.6435 27.7571 41.649C27.7704 41.6546 27.7825 41.6627 27.7927 41.673C27.8127 41.6934 27.8239 41.7209 27.8239 41.7496C27.8239 41.7782 27.8127 41.8057 27.7927 41.8262L27.0748 42.544C27.0647 42.554 27.0527 42.5618 27.0396 42.567C27.0264 42.5723 27.0124 42.5749 26.9982 42.5747Z" fill="#1E293B"/>
<path d="M27.683 46.5485C27.6546 46.5478 27.6275 46.5369 27.6064 46.5178C27.5862 46.497 27.575 46.4691 27.575 46.4401C27.575 46.4111 27.5862 46.3833 27.6064 46.3625L29.6681 44.3008C29.6885 44.2808 29.716 44.2695 29.7447 44.2695C29.7733 44.2695 29.8008 44.2808 29.8213 44.3008C29.8315 44.311 29.8397 44.3231 29.8452 44.3364C29.8508 44.3498 29.8536 44.3641 29.8536 44.3785C29.8536 44.393 29.8508 44.4073 29.8452 44.4206C29.8397 44.4339 29.8315 44.446 29.8213 44.4562L27.7618 46.5178C27.7402 46.5374 27.7122 46.5483 27.683 46.5485Z" fill="#1E293B"/>
<path d="M26.9982 46.2173C26.9691 46.2172 26.941 46.2063 26.9194 46.1867C26.8992 46.1659 26.8879 46.138 26.8879 46.109C26.8879 46.08 26.8992 46.0521 26.9194 46.0313L27.6373 45.3134C27.6579 45.2928 27.6858 45.2812 27.715 45.2812C27.7441 45.2812 27.7721 45.2928 27.7927 45.3134C27.8133 45.334 27.8248 45.362 27.8248 45.3911C27.8248 45.4203 27.8133 45.4482 27.7927 45.4688L27.0748 46.1867C27.0538 46.2058 27.0266 46.2166 26.9982 46.2173Z" fill="#1E293B"/>
<path d="M27.6831 50.3707C27.6617 50.3704 27.6408 50.3638 27.6231 50.3518C27.6054 50.3397 27.5916 50.3227 27.5834 50.3029C27.5753 50.2831 27.5731 50.2613 27.5772 50.2403C27.5813 50.2193 27.5915 50.1999 27.6065 50.1846L29.6681 48.123C29.678 48.1125 29.6898 48.1042 29.703 48.0985C29.7162 48.0928 29.7304 48.0898 29.7447 48.0898C29.7591 48.0898 29.7733 48.0928 29.7865 48.0985C29.7996 48.1042 29.8115 48.1125 29.8213 48.123C29.8316 48.1332 29.8397 48.1453 29.8453 48.1586C29.8508 48.172 29.8537 48.1863 29.8537 48.2007C29.8537 48.2151 29.8508 48.2295 29.8453 48.2428C29.8397 48.2561 29.8316 48.2682 29.8213 48.2784L27.7619 50.3378C27.741 50.3588 27.7127 50.3706 27.6831 50.3707Z" fill="#1E293B"/>
<path d="M26.9982 50.0417C26.9686 50.0416 26.9403 50.0298 26.9194 50.0089C26.8992 49.9881 26.8879 49.9602 26.8879 49.9312C26.8879 49.9022 26.8992 49.8743 26.9194 49.8535L27.6373 49.1378C27.6474 49.1276 27.6595 49.1194 27.6729 49.1139C27.6862 49.1083 27.7005 49.1055 27.715 49.1055C27.7294 49.1055 27.7437 49.1083 27.7571 49.1139C27.7704 49.1194 27.7825 49.1276 27.7927 49.1378C27.8129 49.1587 27.8241 49.1865 27.8241 49.2155C27.8241 49.2445 27.8129 49.2724 27.7927 49.2932L27.0748 50.0089C27.0546 50.0295 27.0271 50.0413 26.9982 50.0417Z" fill="#1E293B"/>
<path d="M27.683 53.9547C27.6546 53.9541 27.6275 53.9432 27.6064 53.9241C27.5862 53.9033 27.575 53.8754 27.575 53.8464C27.575 53.8174 27.5862 53.7895 27.6064 53.7687L29.6681 51.7071C29.6885 51.687 29.716 51.6758 29.7447 51.6758C29.7733 51.6758 29.8008 51.687 29.8213 51.7071C29.8315 51.7172 29.8397 51.7293 29.8452 51.7427C29.8508 51.756 29.8536 51.7703 29.8536 51.7848C29.8536 51.7992 29.8508 51.8135 29.8452 51.8268C29.8397 51.8402 29.8315 51.8523 29.8213 51.8624L27.7618 53.9241C27.7402 53.9437 27.7122 53.9546 27.683 53.9547Z" fill="#1E293B"/>
<path d="M26.9982 53.6236C26.9691 53.6234 26.941 53.6125 26.9194 53.5929C26.8992 53.5721 26.8879 53.5442 26.8879 53.5152C26.8879 53.4862 26.8992 53.4584 26.9194 53.4375L27.6373 52.7197C27.6579 52.6991 27.6858 52.6875 27.715 52.6875C27.7441 52.6875 27.7721 52.6991 27.7927 52.7197C27.8133 52.7403 27.8248 52.7682 27.8248 52.7974C27.8248 52.8265 27.8133 52.8545 27.7927 52.8751L27.0748 53.5929C27.0538 53.612 27.0266 53.6229 26.9982 53.6236Z" fill="#1E293B"/>
<path d="M27.6831 57.8375C27.6617 57.8372 27.6408 57.8307 27.6231 57.8186C27.6054 57.8066 27.5916 57.7896 27.5834 57.7698C27.5753 57.75 27.5731 57.7282 27.5772 57.7072C27.5813 57.6862 27.5915 57.6668 27.6065 57.6515L29.6681 55.5899C29.6886 55.5698 29.7161 55.5586 29.7447 55.5586C29.7734 55.5586 29.8009 55.5698 29.8213 55.5899C29.8316 55.6001 29.8397 55.6121 29.8453 55.6255C29.8508 55.6388 29.8537 55.6531 29.8537 55.6676C29.8537 55.682 29.8508 55.6963 29.8453 55.7097C29.8397 55.723 29.8316 55.7351 29.8213 55.7453L27.7619 57.8025C27.7517 57.8133 27.7395 57.8219 27.726 57.8279C27.7125 57.834 27.6979 57.8372 27.6831 57.8375Z" fill="#1E293B"/>
<path d="M26.998 57.5064C26.9684 57.5063 26.9401 57.4945 26.9192 57.4735C26.8992 57.4531 26.8879 57.4256 26.8879 57.3969C26.8879 57.3683 26.8992 57.3408 26.9192 57.3203L27.6371 56.6025C27.6577 56.5819 27.6856 56.5703 27.7148 56.5703C27.7439 56.5703 27.7719 56.5819 27.7925 56.6025C27.8131 56.6231 27.8246 56.651 27.8246 56.6802C27.8246 56.7093 27.8131 56.7373 27.7925 56.7579L27.0746 57.4735C27.0544 57.4942 27.0269 57.506 26.998 57.5064Z" fill="#1E293B"/>
<path d="M27.683 61.779C27.6546 61.7783 27.6275 61.7674 27.6064 61.7483C27.5862 61.7275 27.575 61.6996 27.575 61.6706C27.575 61.6416 27.5862 61.6137 27.6064 61.5929L29.6681 59.5313C29.6885 59.5112 29.716 59.5 29.7447 59.5C29.7733 59.5 29.8008 59.5112 29.8213 59.5313C29.8315 59.5415 29.8397 59.5536 29.8452 59.5669C29.8508 59.5802 29.8536 59.5945 29.8536 59.609C29.8536 59.6234 29.8508 59.6377 29.8452 59.6511C29.8397 59.6644 29.8315 59.6765 29.8213 59.6867L27.7618 61.7417C27.7413 61.7637 27.7131 61.777 27.683 61.779Z" fill="#1E293B"/>
<path d="M26.9982 61.4478C26.9691 61.4476 26.941 61.4367 26.9194 61.4171C26.8992 61.3963 26.8879 61.3685 26.8879 61.3394C26.8879 61.3104 26.8992 61.2826 26.9194 61.2618L27.6373 60.5439C27.6475 60.5337 27.6596 60.5256 27.6729 60.5201C27.6863 60.5146 27.7005 60.5117 27.715 60.5117C27.7294 60.5117 27.7437 60.5146 27.757 60.5201C27.7703 60.5256 27.7825 60.5337 27.7927 60.5439C27.8029 60.5541 27.811 60.5662 27.8165 60.5796C27.822 60.5929 27.8248 60.6072 27.8248 60.6216C27.8248 60.636 27.822 60.6503 27.8165 60.6636C27.811 60.677 27.8029 60.6891 27.7927 60.6993L27.0748 61.4171C27.0538 61.4362 27.0266 61.4471 26.9982 61.4478Z" fill="#1E293B"/>
<path d="M27.683 64.8844C27.6546 64.8837 27.6275 64.8729 27.6064 64.8538C27.5862 64.833 27.575 64.8051 27.575 64.7761C27.575 64.7471 27.5862 64.7192 27.6064 64.6984L29.6681 62.6367C29.6885 62.6167 29.716 62.6055 29.7447 62.6055C29.7733 62.6055 29.8008 62.6167 29.8213 62.6367C29.8315 62.6469 29.8397 62.659 29.8452 62.6724C29.8508 62.6857 29.8536 62.7 29.8536 62.7144C29.8536 62.7289 29.8508 62.7432 29.8452 62.7565C29.8397 62.7699 29.8315 62.782 29.8213 62.7921L27.7618 64.8538C27.7402 64.8734 27.7122 64.8843 27.683 64.8844Z" fill="#1E293B"/>
<path d="M26.9982 64.5533C26.9691 64.5531 26.941 64.5422 26.9194 64.5226C26.8992 64.5018 26.8879 64.4739 26.8879 64.4449C26.8879 64.4159 26.8992 64.3881 26.9194 64.3672L27.6373 63.6494C27.6579 63.6288 27.6858 63.6172 27.715 63.6172C27.7441 63.6172 27.7721 63.6288 27.7927 63.6494C27.8133 63.67 27.8248 63.6979 27.8248 63.7271C27.8248 63.7562 27.8133 63.7842 27.7927 63.8048L27.0748 64.5226C27.0538 64.5417 27.0266 64.5526 26.9982 64.5533Z" fill="#1E293B"/>
<path d="M32.4419 35.1385C32.4205 35.1382 32.3996 35.1316 32.3819 35.1196C32.3642 35.1076 32.3504 35.0906 32.3422 35.0708C32.3341 35.051 32.3319 35.0292 32.336 35.0082C32.3401 34.9871 32.3503 34.9678 32.3653 34.9525L34.4247 32.8909C34.4456 32.8707 34.4734 32.8594 34.5024 32.8594C34.5314 32.8594 34.5593 32.8707 34.5801 32.8909C34.5904 32.901 34.5985 32.9131 34.6041 32.9265C34.6096 32.9398 34.6125 32.9541 34.6125 32.9686C34.6125 32.983 34.6096 32.9973 34.6041 33.0106C34.5985 33.024 34.5904 33.0361 34.5801 33.0462L32.5207 35.1057C32.4998 35.1266 32.4715 35.1384 32.4419 35.1385Z" fill="#1E293B"/>
<path d="M31.7547 34.8189C31.7259 34.8185 31.6983 34.8067 31.6781 34.786C31.6679 34.7759 31.6597 34.7638 31.6542 34.7504C31.6486 34.7371 31.6458 34.7228 31.6458 34.7084C31.6458 34.6939 31.6486 34.6796 31.6542 34.6663C31.6597 34.6529 31.6679 34.6408 31.6781 34.6307L32.3938 33.915C32.4144 33.8944 32.4423 33.8828 32.4715 33.8828C32.5006 33.8828 32.5286 33.8944 32.5492 33.915C32.5698 33.9356 32.5814 33.9635 32.5814 33.9927C32.5814 34.0218 32.5698 34.0498 32.5492 34.0704L31.8269 34.7773C31.8091 34.8 31.7833 34.8149 31.7547 34.8189Z" fill="#1E293B"/>
<path d="M32.4417 39.022C32.4274 39.022 32.4133 39.019 32.4001 39.0134C32.387 39.0077 32.3751 38.9995 32.3651 38.9892C32.3549 38.979 32.3467 38.9669 32.3412 38.9536C32.3356 38.9403 32.3328 38.926 32.3328 38.9115C32.3328 38.8971 32.3356 38.8828 32.3412 38.8694C32.3467 38.8561 32.3549 38.844 32.3651 38.8338L34.4246 36.7744C34.4348 36.7642 34.4469 36.7561 34.4602 36.7505C34.4736 36.745 34.4879 36.7422 34.5023 36.7422C34.5167 36.7422 34.531 36.745 34.5443 36.7505C34.5577 36.7561 34.5698 36.7642 34.58 36.7744C34.5902 36.7846 34.5983 36.7967 34.6038 36.81C34.6093 36.8233 34.6122 36.8376 34.6122 36.8521C34.6122 36.8665 34.6093 36.8808 34.6038 36.8941C34.5983 36.9074 34.5902 36.9196 34.58 36.9298L32.5205 38.9892C32.4996 39.0102 32.4713 39.022 32.4417 39.022Z" fill="#1E293B"/>
<path d="M31.7547 38.6939C31.7259 38.6935 31.6983 38.6817 31.6781 38.661C31.6679 38.6509 31.6597 38.6388 31.6542 38.6254C31.6486 38.6121 31.6458 38.5978 31.6458 38.5834C31.6458 38.5689 31.6486 38.5546 31.6542 38.5413C31.6597 38.5279 31.6679 38.5158 31.6781 38.5057L32.3938 37.79C32.404 37.7798 32.4161 37.7717 32.4294 37.7662C32.4428 37.7607 32.4571 37.7578 32.4715 37.7578C32.4859 37.7578 32.5002 37.7607 32.5135 37.7662C32.5269 37.7717 32.539 37.7798 32.5492 37.79C32.5594 37.8002 32.5675 37.8123 32.573 37.8256C32.5785 37.839 32.5814 37.8533 32.5814 37.8677C32.5814 37.8821 32.5785 37.8964 32.573 37.9097C32.5675 37.9231 32.5594 37.9352 32.5492 37.9454L31.8269 38.661C31.8077 38.6805 31.782 38.6922 31.7547 38.6939Z" fill="#1E293B"/>
<path d="M32.4417 42.905C32.4274 42.905 32.4133 42.902 32.4001 42.8964C32.387 42.8907 32.3751 42.8825 32.3651 42.8722C32.3549 42.862 32.3467 42.8499 32.3412 42.8366C32.3356 42.8233 32.3328 42.809 32.3328 42.7945C32.3328 42.7801 32.3356 42.7658 32.3412 42.7524C32.3467 42.7391 32.3549 42.727 32.3651 42.7168L34.4246 40.6574C34.4348 40.6471 34.4469 40.639 34.4602 40.6334C34.4735 40.6279 34.4878 40.625 34.5023 40.625C34.5167 40.625 34.531 40.6279 34.5444 40.6334C34.5577 40.639 34.5698 40.6471 34.58 40.6574C34.5904 40.6672 34.5988 40.6791 34.6045 40.6922C34.6102 40.7054 34.6131 40.7196 34.6131 40.734C34.6131 40.7483 34.6102 40.7625 34.6045 40.7757C34.5988 40.7889 34.5904 40.8007 34.58 40.8106L32.5205 42.8722C32.4996 42.8932 32.4713 42.905 32.4417 42.905Z" fill="#1E293B"/>
<path d="M31.7546 42.5747C31.7332 42.5744 31.7123 42.5678 31.6946 42.5558C31.6769 42.5437 31.6631 42.5267 31.655 42.5069C31.6468 42.4871 31.6447 42.4654 31.6487 42.4443C31.6528 42.4233 31.663 42.4039 31.678 42.3887L32.3937 41.673C32.4039 41.6627 32.416 41.6546 32.4293 41.649C32.4426 41.6435 32.4569 41.6406 32.4714 41.6406C32.4858 41.6406 32.5001 41.6435 32.5135 41.649C32.5268 41.6546 32.5389 41.6627 32.5491 41.673C32.5595 41.6828 32.5679 41.6947 32.5736 41.7079C32.5793 41.721 32.5822 41.7352 32.5822 41.7496C32.5822 41.7639 32.5793 41.7782 32.5736 41.7913C32.5679 41.8045 32.5595 41.8164 32.5491 41.8262L31.8268 42.544C31.8074 42.5628 31.7817 42.5737 31.7546 42.5747Z" fill="#1E293B"/>
<path d="M32.4417 46.5487C32.4133 46.5484 32.3859 46.5375 32.3651 46.518C32.3549 46.5079 32.3467 46.4958 32.3412 46.4824C32.3356 46.4691 32.3328 46.4548 32.3328 46.4403C32.3328 46.4259 32.3356 46.4116 32.3412 46.3983C32.3467 46.3849 32.3549 46.3728 32.3651 46.3627L34.4246 44.301C34.4454 44.2808 34.4733 44.2695 34.5023 44.2695C34.5313 44.2695 34.5592 44.2808 34.58 44.301C34.5902 44.3112 34.5984 44.3233 34.6039 44.3366C34.6095 44.35 34.6123 44.3643 34.6123 44.3787C34.6123 44.3932 34.6095 44.4075 34.6039 44.4208C34.5984 44.4341 34.5902 44.4462 34.58 44.4564L32.5205 46.518C32.4989 46.5376 32.4709 46.5485 32.4417 46.5487Z" fill="#1E293B"/>
<path d="M31.7547 46.2205C31.7263 46.2198 31.6991 46.209 31.6781 46.1899C31.6679 46.1797 31.6597 46.1676 31.6542 46.1543C31.6486 46.1409 31.6458 46.1266 31.6458 46.1122C31.6458 46.0977 31.6486 46.0834 31.6542 46.0701C31.6597 46.0568 31.6679 46.0447 31.6781 46.0345L32.3938 45.3166C32.4146 45.2965 32.4425 45.2852 32.4715 45.2852C32.5005 45.2852 32.5284 45.2965 32.5492 45.3166C32.5594 45.3268 32.5676 45.3389 32.5731 45.3522C32.5787 45.3656 32.5815 45.3799 32.5815 45.3943C32.5815 45.4088 32.5787 45.4231 32.5731 45.4364C32.5676 45.4498 32.5594 45.4619 32.5492 45.472L31.8269 46.1899C31.8071 46.208 31.7816 46.2188 31.7547 46.2205Z" fill="#1E293B"/>
<path d="M32.4419 50.3697C32.4205 50.3694 32.3996 50.3628 32.3819 50.3508C32.3642 50.3387 32.3504 50.3217 32.3422 50.3019C32.3341 50.2821 32.3319 50.2604 32.336 50.2393C32.3401 50.2183 32.3503 50.199 32.3653 50.1837L34.4247 48.122C34.4349 48.1118 34.447 48.1037 34.4604 48.0982C34.4737 48.0927 34.488 48.0898 34.5024 48.0898C34.5169 48.0898 34.5311 48.0927 34.5445 48.0982C34.5578 48.1037 34.5699 48.1118 34.5801 48.122C34.5903 48.1322 34.5984 48.1443 34.6039 48.1577C34.6095 48.171 34.6123 48.1853 34.6123 48.1997C34.6123 48.2141 34.6095 48.2284 34.6039 48.2418C34.5984 48.2551 34.5903 48.2672 34.5801 48.2774L32.5207 50.3369C32.4998 50.3578 32.4715 50.3696 32.4419 50.3697Z" fill="#1E293B"/>
<path d="M31.7547 50.0415C31.7259 50.0411 31.6983 50.0293 31.6781 50.0087C31.6679 49.9985 31.6597 49.9864 31.6542 49.9731C31.6486 49.9598 31.6458 49.9455 31.6458 49.931C31.6458 49.9166 31.6486 49.9023 31.6542 49.8889C31.6597 49.8756 31.6679 49.8635 31.6781 49.8533L32.3938 49.1377C32.4144 49.117 32.4423 49.1055 32.4715 49.1055C32.5006 49.1055 32.5286 49.117 32.5492 49.1377C32.5698 49.1583 32.5814 49.1862 32.5814 49.2153C32.5814 49.2445 32.5698 49.2724 32.5492 49.293L31.8269 50.0087C31.8077 50.0281 31.782 50.0398 31.7547 50.0415Z" fill="#1E293B"/>
<path d="M32.4417 53.9549C32.4133 53.9547 32.3859 53.9437 32.3651 53.9243C32.3549 53.9141 32.3467 53.902 32.3412 53.8887C32.3356 53.8753 32.3328 53.861 32.3328 53.8466C32.3328 53.8321 32.3356 53.8178 32.3412 53.8045C32.3467 53.7912 32.3549 53.7791 32.3651 53.7689L34.4246 51.7073C34.4454 51.6871 34.4733 51.6758 34.5023 51.6758C34.5313 51.6758 34.5592 51.6871 34.58 51.7073C34.5902 51.7174 34.5984 51.7295 34.6039 51.7429C34.6095 51.7562 34.6123 51.7705 34.6123 51.785C34.6123 51.7994 34.6095 51.8137 34.6039 51.827C34.5984 51.8404 34.5902 51.8525 34.58 51.8626L32.5205 53.9243C32.4989 53.9439 32.4709 53.9548 32.4417 53.9549Z" fill="#1E293B"/>
<path d="M31.7547 53.6268C31.7263 53.6261 31.6991 53.6152 31.6781 53.5961C31.6679 53.586 31.6597 53.5739 31.6542 53.5605C31.6486 53.5472 31.6458 53.5329 31.6458 53.5184C31.6458 53.504 31.6486 53.4897 31.6542 53.4764C31.6597 53.463 31.6679 53.4509 31.6781 53.4407L32.3938 52.7229C32.4146 52.7027 32.4425 52.6914 32.4715 52.6914C32.5005 52.6914 32.5284 52.7027 32.5492 52.7229C32.5594 52.7331 32.5676 52.7452 32.5731 52.7585C32.5787 52.7718 32.5815 52.7861 32.5815 52.8006C32.5815 52.815 32.5787 52.8293 32.5731 52.8427C32.5676 52.856 32.5594 52.8681 32.5492 52.8783L31.8269 53.5961C31.8071 53.6143 31.7816 53.6251 31.7547 53.6268Z" fill="#1E293B"/>
<path d="M32.4419 57.8377C32.4205 57.8374 32.3996 57.8309 32.3819 57.8188C32.3642 57.8068 32.3504 57.7898 32.3422 57.77C32.3341 57.7502 32.3319 57.7284 32.336 57.7074C32.3401 57.6864 32.3503 57.667 32.3653 57.6517L34.4247 55.5901C34.4456 55.5699 34.4734 55.5586 34.5024 55.5586C34.5314 55.5586 34.5593 55.5699 34.5801 55.5901C34.5904 55.6003 34.5985 55.6123 34.6041 55.6257C34.6096 55.639 34.6125 55.6533 34.6125 55.6678C34.6125 55.6822 34.6096 55.6965 34.6041 55.7099C34.5985 55.7232 34.5904 55.7353 34.5801 55.7455L32.5207 57.8027C32.5105 57.8135 32.4983 57.8221 32.4848 57.8281C32.4713 57.8342 32.4567 57.8374 32.4419 57.8377Z" fill="#1E293B"/>
<path d="M31.7545 57.5057C31.7257 57.5053 31.6981 57.4935 31.6779 57.4728C31.6675 57.463 31.6591 57.4512 31.6534 57.438C31.6477 57.4248 31.6448 57.4106 31.6448 57.3962C31.6448 57.3819 31.6477 57.3677 31.6534 57.3545C31.6591 57.3413 31.6675 57.3295 31.6779 57.3196L32.3936 56.6018C32.4144 56.5816 32.4423 56.5703 32.4713 56.5703C32.5003 56.5703 32.5282 56.5816 32.549 56.6018C32.5592 56.612 32.5674 56.6241 32.5729 56.6374C32.5785 56.6507 32.5814 56.665 32.5814 56.6795C32.5814 56.6939 32.5785 56.7082 32.5729 56.7216C32.5674 56.7349 32.5592 56.747 32.549 56.7572L31.8268 57.4728C31.8075 57.4923 31.7818 57.5039 31.7545 57.5057Z" fill="#1E293B"/>
<path d="M32.4417 61.7792C32.4133 61.7789 32.3859 61.7679 32.3651 61.7485C32.3549 61.7383 32.3467 61.7262 32.3412 61.7129C32.3356 61.6996 32.3328 61.6853 32.3328 61.6708C32.3328 61.6564 32.3356 61.6421 32.3412 61.6287C32.3467 61.6154 32.3549 61.6033 32.3651 61.5931L34.4246 59.5315C34.4454 59.5113 34.4733 59.5 34.5023 59.5C34.5313 59.5 34.5592 59.5113 34.58 59.5315C34.5902 59.5417 34.5984 59.5538 34.6039 59.5671C34.6095 59.5804 34.6123 59.5947 34.6123 59.6092C34.6123 59.6236 34.6095 59.6379 34.6039 59.6513C34.5984 59.6646 34.5902 59.6767 34.58 59.6869L32.5205 61.7419C32.5 61.7639 32.4718 61.7772 32.4417 61.7792Z" fill="#1E293B"/>
<path d="M31.7547 61.451C31.7263 61.4503 31.6991 61.4394 31.6781 61.4204C31.6679 61.4102 31.6597 61.3981 31.6542 61.3847C31.6486 61.3714 31.6458 61.3571 31.6458 61.3427C31.6458 61.3282 31.6486 61.3139 31.6542 61.3006C31.6597 61.2872 31.6679 61.2751 31.6781 61.265L32.3938 60.5471C32.4146 60.5269 32.4425 60.5156 32.4715 60.5156C32.5005 60.5156 32.5284 60.5269 32.5492 60.5471C32.5594 60.5573 32.5676 60.5694 32.5731 60.5827C32.5787 60.5961 32.5815 60.6104 32.5815 60.6248C32.5815 60.6392 32.5787 60.6535 32.5731 60.6669C32.5676 60.6802 32.5594 60.6923 32.5492 60.7025L31.8269 61.4204C31.8071 61.4385 31.7816 61.4493 31.7547 61.451Z" fill="#1E293B"/>
<path d="M32.4417 64.8846C32.4133 64.8843 32.3859 64.8734 32.3651 64.854C32.3549 64.8438 32.3467 64.8317 32.3412 64.8184C32.3356 64.805 32.3328 64.7907 32.3328 64.7763C32.3328 64.7618 32.3356 64.7475 32.3412 64.7342C32.3467 64.7209 32.3549 64.7088 32.3651 64.6986L34.4246 62.6369C34.4454 62.6168 34.4733 62.6055 34.5023 62.6055C34.5313 62.6055 34.5592 62.6168 34.58 62.6369C34.5902 62.6471 34.5984 62.6592 34.6039 62.6726C34.6095 62.6859 34.6123 62.7002 34.6123 62.7146C34.6123 62.7291 34.6095 62.7434 34.6039 62.7567C34.5984 62.7701 34.5902 62.7822 34.58 62.7923L32.5205 64.854C32.4989 64.8736 32.4709 64.8845 32.4417 64.8846Z" fill="#1E293B"/>
<path d="M31.7547 64.5565C31.7263 64.5558 31.6991 64.5449 31.6781 64.5258C31.6679 64.5156 31.6597 64.5035 31.6542 64.4902C31.6486 64.4769 31.6458 64.4626 31.6458 64.4481C31.6458 64.4337 31.6486 64.4194 31.6542 64.406C31.6597 64.3927 31.6679 64.3806 31.6781 64.3704L32.3938 63.6526C32.4146 63.6324 32.4425 63.6211 32.4715 63.6211C32.5005 63.6211 32.5284 63.6324 32.5492 63.6526C32.5594 63.6628 32.5676 63.6748 32.5731 63.6882C32.5787 63.7015 32.5815 63.7158 32.5815 63.7303C32.5815 63.7447 32.5787 63.759 32.5731 63.7724C32.5676 63.7857 32.5594 63.7978 32.5492 63.808L31.8269 64.5258C31.8071 64.544 31.7816 64.5548 31.7547 64.5565Z" fill="#1E293B"/>
<path d="M43.4541 15.6229V11.2305H44.3492V13.036H45.124V11.2305H46.0191V15.6229H45.124V13.6751H44.3492V15.6229H43.4541Z" fill="#475569"/>
<path d="M47.9239 15.6855C47.6576 15.6982 47.3929 15.6384 47.1579 15.5126C46.9711 15.3976 46.8291 15.2224 46.7552 15.0158C46.6683 14.7677 46.6268 14.506 46.6326 14.2432V12.6062C46.6267 12.3441 46.6682 12.0831 46.7552 11.8358C46.8288 11.6313 46.9711 11.4588 47.1579 11.3478C47.3981 11.237 47.6594 11.1797 47.9239 11.1797C48.1884 11.1797 48.4497 11.237 48.6899 11.3478C48.8763 11.4598 49.0191 11.6319 49.0948 11.8358C49.1829 12.0821 49.2245 12.3426 49.2174 12.604V14.2498C49.2243 14.5127 49.1827 14.7746 49.0948 15.0224C49.0201 15.2291 48.8773 15.4043 48.6899 15.5192C48.4538 15.6415 48.1895 15.6989 47.9239 15.6855ZM47.9239 15.0399C48.0155 15.0473 48.1065 15.0191 48.1778 14.9611C48.236 14.9012 48.2742 14.8247 48.2872 14.7422C48.3052 14.6477 48.314 14.5517 48.3135 14.4555V12.3895C48.3142 12.2948 48.3054 12.2002 48.2872 12.1072C48.2742 12.0247 48.236 11.9483 48.1778 11.8883C48.1056 11.8321 48.0151 11.8048 47.9239 11.8117C47.8354 11.8053 47.7478 11.8327 47.6788 11.8883C47.6204 11.9478 47.5828 12.0246 47.5715 12.1072C47.5515 12.1999 47.5419 12.2946 47.5431 12.3895V14.4687C47.5429 14.5647 47.551 14.6607 47.5672 14.7554C47.5784 14.838 47.6161 14.9147 47.6744 14.9742C47.7458 15.0279 47.8354 15.0515 47.9239 15.0399Z" fill="#475569"/>
<path d="M50.9587 15.6844C50.7236 15.6922 50.4904 15.6411 50.2802 15.5356C50.0983 15.4339 49.9546 15.2756 49.871 15.0847C49.7699 14.8417 49.7157 14.5818 49.7112 14.3187L50.4816 14.1874C50.4847 14.34 50.5038 14.4918 50.5385 14.6404C50.5586 14.7423 50.6071 14.8364 50.6785 14.9118C50.7426 14.9715 50.8274 15.0037 50.9149 15.0016C50.9606 15.0069 51.0068 14.9994 51.0485 14.9801C51.0902 14.9608 51.1258 14.9304 51.1513 14.8921C51.1935 14.8159 51.2147 14.7298 51.2125 14.6426C51.2182 14.4781 51.1723 14.3158 51.0812 14.1786C50.979 14.0404 50.8616 13.9141 50.7311 13.8022L50.2758 13.4061C50.1172 13.2747 49.9825 13.1171 49.8775 12.9399C49.7686 12.745 49.7148 12.524 49.7221 12.3008C49.7119 12.1475 49.735 11.9938 49.7898 11.8503C49.8446 11.7068 49.9298 11.5767 50.0395 11.4692C50.2828 11.2629 50.5965 11.1586 50.9149 11.1781C51.1012 11.1714 51.2864 11.2089 51.4555 11.2875C51.5891 11.3522 51.7026 11.4521 51.7838 11.5764C51.862 11.6974 51.9177 11.8317 51.9479 11.9726C51.9782 12.1168 51.9972 12.2631 52.0048 12.4103L51.2388 12.5241C51.2342 12.406 51.2225 12.2884 51.2038 12.1717C51.1946 12.0848 51.1612 12.0021 51.1075 11.9332C51.0799 11.9031 51.046 11.8795 51.0081 11.8644C50.9702 11.8492 50.9294 11.8428 50.8886 11.8456C50.8432 11.8428 50.7978 11.852 50.757 11.8724C50.7163 11.8928 50.6817 11.9235 50.6566 11.9616C50.6065 12.0384 50.5799 12.1282 50.58 12.2199C50.5747 12.3553 50.6114 12.4891 50.6851 12.6029C50.7711 12.7162 50.8687 12.8204 50.9762 12.9136L51.4139 13.3032C51.5972 13.4615 51.7571 13.645 51.8888 13.8482C52.0262 14.0763 52.0946 14.3393 52.0858 14.6054C52.0889 14.8005 52.0406 14.993 51.9457 15.1635C51.8541 15.3282 51.7174 15.4633 51.5518 15.5531C51.3687 15.6472 51.1644 15.6924 50.9587 15.6844Z" fill="#475569"/>
<path d="M52.489 15.6245V11.232H53.8809C54.1093 11.2207 54.3364 11.2722 54.5375 11.3808C54.7055 11.4827 54.836 11.6363 54.9096 11.8185C54.9934 12.0346 55.0329 12.2653 55.0256 12.497C55.0396 12.7527 54.9844 13.0075 54.8658 13.2345C54.7667 13.4059 54.6124 13.5386 54.4281 13.611C54.2257 13.6887 54.0102 13.7266 53.7934 13.7226H53.3863V15.6267L52.489 15.6245ZM53.382 13.0923H53.6971C53.8016 13.0974 53.9056 13.0756 53.9991 13.0288C54.0348 13.0071 54.0657 12.9785 54.0902 12.9447C54.1146 12.9109 54.132 12.8725 54.1414 12.8318C54.1705 12.7182 54.1838 12.6011 54.1808 12.4839C54.1825 12.3715 54.1722 12.2592 54.1501 12.149C54.1434 12.1055 54.1281 12.0638 54.1052 12.0263C54.0823 11.9887 54.0522 11.9561 54.0166 11.9301C53.9185 11.8716 53.8045 11.8448 53.6905 11.8535H53.382V13.0923Z" fill="#475569"/>
<path d="M55.4634 15.6229V11.2305H56.3388V15.6229H55.4634Z" fill="#475569"/>
<path d="M57.4329 15.6264V11.9058H56.7544V11.2383H58.9999V11.9058H58.3324V15.6264H57.4329Z" fill="#475569"/>
<path d="M59.022 15.6229L59.8733 11.2305H60.8648L61.7095 15.6229H60.8801L60.7247 14.6578H60.0287L59.8624 15.6229H59.022ZM60.1163 14.1084H60.6415L60.3767 12.3357L60.1163 14.1084Z" fill="#475569"/>
<path d="M62.123 15.6229V11.2305H63.0182V15.0145H64.0468V15.6229H62.123Z" fill="#475569"/>
</svg>
