<svg width="80" height="80" viewBox="0 0 80 80" fill="none" xmlns="http://www.w3.org/2000/svg">
<g clip-path="url(#clip0_3280_334355)">
<path d="M46.2682 44.8867H26.8804V71.8797H46.2682V44.8867Z" fill="#CDEDC2"/>
<path d="M46.3421 71.957H26.804V44.8125H46.3421V71.957ZM26.9558 71.8055H46.1903V44.964H26.9558V71.8055Z" fill="#263238"/>
<path d="M35.5838 58.6692H28.2957V48.4219H35.5838V58.6692ZM28.4475 58.5177H35.4319V48.5734H28.4475V58.5177Z" fill="#263238"/>
<path d="M44.4253 58.6692H37.1372V48.4219H44.4253V58.6692ZM37.289 58.5177H44.2735V48.5734H37.289V58.5177Z" fill="#263238"/>
<path d="M44.5777 60.2344H28.0945V71.8798H44.5777V60.2344Z" fill="#263238"/>
<path d="M44.6544 71.9532H28.0193V60.1562H44.6544V71.9532ZM28.1711 71.8017H44.5026V60.3077H28.1711V71.8017Z" fill="#263238"/>
<path d="M53.0852 36.9453H45.3477V71.8802H53.0852V36.9453Z" fill="#263238"/>
<path d="M53.1679 71.9536H45.2725V36.8672H53.1679V71.9536ZM45.4319 71.8021H53.0161V37.0187H45.4243L45.4319 71.8021Z" fill="#263238"/>
<path d="M48.7734 27.0703H46.4548V34.8183H48.7734V27.0703Z" fill="#B4D3A8"/>
<path d="M48.8488 34.8901H46.3784V26.9922H48.8488V34.8901ZM46.5303 34.7387H48.6969V27.1437H46.5303V34.7387Z" fill="#263238"/>
<path d="M54.1585 11.1719H33.5969C33.3177 11.1719 33.0913 11.3977 33.0913 11.6763V27.9902C33.0913 28.2688 33.3177 28.4947 33.5969 28.4947H54.1585C54.4377 28.4947 54.6641 28.2688 54.6641 27.9902V11.6763C54.6641 11.3977 54.4377 11.1719 54.1585 11.1719Z" fill="#F2FAEF"/>
<path d="M54.1592 28.568H33.5992C33.4445 28.568 33.2962 28.5067 33.1869 28.3976C33.0775 28.2886 33.0161 28.1406 33.0161 27.9863V11.6739C33.0165 11.5199 33.0781 11.3723 33.1874 11.2636C33.2967 11.1548 33.4448 11.0937 33.5992 11.0938H54.1592C54.3136 11.0937 54.4617 11.1548 54.571 11.2636C54.6803 11.3723 54.7419 11.5199 54.7423 11.6739V27.9863C54.7423 28.1406 54.6808 28.2886 54.5715 28.3976C54.4621 28.5067 54.3138 28.568 54.1592 28.568ZM33.5992 11.2452C33.4851 11.2452 33.3756 11.2903 33.2948 11.3707C33.214 11.451 33.1684 11.5601 33.1679 11.6739V27.9863C33.1679 28.1004 33.2134 28.2099 33.2942 28.2905C33.3751 28.3712 33.4848 28.4165 33.5992 28.4165H54.1592C54.2736 28.4165 54.3833 28.3712 54.4641 28.2905C54.545 28.2099 54.5904 28.1004 54.5904 27.9863V11.6739C54.59 11.5601 54.5444 11.451 54.4636 11.3707C54.3828 11.2903 54.2733 11.2452 54.1592 11.2452H33.5992Z" fill="#263238"/>
<path d="M53.7144 12.6289H34.0457V27.0297H53.7144V12.6289Z" fill="#263238"/>
<path d="M53.7886 27.107H33.9695V12.5547H53.7886V27.107ZM34.1213 26.9555H53.6367V12.7062H34.1213V26.9555Z" fill="#263238"/>
<path d="M40.1747 15.2699L40.0669 15.4577C42.6512 16.0218 45.3364 15.927 47.8743 15.182L47.771 15.0078C46.3699 15.4053 44.9201 15.6062 43.4635 15.6046C42.3586 15.6051 41.2567 15.4929 40.1747 15.2699Z" fill="#3C474C"/>
<path d="M48.5468 16.303L48.3221 15.9258C46.7527 16.4326 45.1128 16.6882 43.4633 16.6832C42.1676 16.6868 40.8763 16.5342 39.6173 16.2287L39.3364 16.7165C42.3784 17.5051 45.5881 17.361 48.5468 16.303Z" fill="#3C474C"/>
<path d="M50.7845 20.0543L48.7059 16.5703C46.977 17.2045 45.1487 17.5266 43.3066 17.5216C41.9135 17.525 40.526 17.3457 39.1797 16.9884L37.0723 20.648C38.8093 21.1691 44.4803 22.493 50.7845 20.0543Z" fill="#3C474C"/>
<path d="M48.157 15.6634L48.0355 15.4453C46.5534 15.8943 45.0126 16.1209 43.4637 16.1179C42.2675 16.1189 41.0748 15.9873 39.9077 15.7255L39.7756 15.9558C42.5443 16.6186 45.4415 16.5175 48.157 15.6634Z" fill="#3C474C"/>
<path d="M47.6102 14.7357L47.3399 14.2812C47.3399 14.2812 43.2404 15.7809 40.6698 14.407L40.3342 14.9886C42.746 15.4734 45.2381 15.3867 47.6102 14.7357Z" fill="#3C474C"/>
<path d="M43.4493 24.4211C42.535 24.4181 41.6219 24.3533 40.7163 24.2272C39.0124 23.9918 37.3419 23.5581 35.7391 22.9351L35.6875 23.0244C35.6875 23.0244 39.289 25.8358 44.7065 25.3057C50.124 24.7755 52.3165 22.6185 52.3165 22.6185L52.0478 22.1641C49.4336 23.6654 46.4656 24.4445 43.4493 24.4211Z" fill="#3C474C"/>
<path d="M51.2887 20.8966L50.941 20.3164C48.4305 21.2888 45.7599 21.7846 43.0668 21.7782C40.9842 21.7868 38.9112 21.4966 36.9114 20.9163L36.5364 21.5661C38.6074 22.3977 44.7841 24.3093 51.2887 20.8966Z" fill="#3C474C"/>
<path d="M40.7717 23.9352C43.6566 24.329 47.8427 24.27 51.8967 21.9175L51.4412 21.1602C48.925 22.4848 46.1219 23.1744 43.277 23.1687C42.4501 23.1685 41.6243 23.1123 40.8051 23.0006C39.2884 22.7944 37.8029 22.4027 36.3821 21.8342L35.8962 22.6764C37.467 23.2832 39.1031 23.7056 40.7717 23.9352Z" fill="#3C474C"/>
<path d="M46.1256 17.9204C46.1256 17.9204 44.3355 18.496 43.4685 18.3521C42.6015 18.2082 40.6975 17.5174 39.7151 18.093C38.7328 18.6687 38.4443 19.4185 38.7039 20.4848C38.9636 21.5512 38.9636 21.9254 42.0534 22.7025C45.1433 23.4795 46.2122 23.6825 46.9911 23.3932C47.77 23.1039 48.637 22.7873 48.9847 21.6936C49.3324 20.6 48.4928 18.9292 47.9446 18.5838C47.3965 18.2385 47.0199 17.6613 46.1256 17.9204Z" fill="#263238"/>
<path d="M46.2092 23.5938C45.4318 23.5938 44.2611 23.3348 42.0352 22.7758C38.9985 22.0094 38.9013 21.6246 38.6539 20.5961L38.6311 20.5022C38.3563 19.3752 38.6781 18.6133 39.6772 18.0271C40.4683 17.5636 41.8029 17.8862 42.7823 18.1225C43.0556 18.1892 43.2924 18.2452 43.4807 18.274C44.3188 18.4133 46.0847 17.8498 46.1014 17.8453C46.8302 17.6348 47.2386 17.9529 47.6319 18.2619C47.744 18.3531 47.8611 18.4381 47.9826 18.5163C48.5535 18.8769 49.4114 20.5855 49.0531 21.714C48.6947 22.8425 47.808 23.1697 47.023 23.459C46.7623 23.5533 46.4865 23.599 46.2092 23.5938ZM40.7431 17.9422C40.402 17.9272 40.0628 18.0013 39.7592 18.1573C38.8285 18.7042 38.5278 19.4161 38.7844 20.4658L38.8072 20.5613C39.0395 21.5247 39.1261 21.8852 42.0793 22.6289C45.198 23.4136 46.2198 23.5999 46.9714 23.3227C47.7685 23.0197 48.5839 22.7259 48.9179 21.6701C49.252 20.6143 48.4351 18.9768 47.9097 18.6406C47.7848 18.559 47.6642 18.471 47.5484 18.377C47.1673 18.074 46.8074 17.7968 46.153 17.9862C46.0649 18.015 44.331 18.5663 43.4625 18.4209C43.2681 18.3876 43.0298 18.33 42.7519 18.2694C42.14 18.1225 41.3914 17.9422 40.737 17.9422H40.7431Z" fill="#263238"/>
<path d="M40.8418 22.0972C40.8418 22.0972 40.1767 21.0884 40.4364 20.2795C40.696 19.4707 41.6784 19.0117 42.1977 19.0677C42.7169 19.1238 43.0935 19.9024 43.0935 19.9887C43.0935 20.075 43.4685 19.9599 43.5262 20.1038L43.5839 20.2553C43.5839 20.2553 44.1624 20.687 44.047 20.946C43.9316 21.2051 43.5262 21.4641 43.757 21.5216C43.9878 21.5792 44.5162 20.8021 45.2587 20.7733C45.7311 20.7573 46.2042 20.7766 46.6738 20.8309C46.6738 20.8309 46.3276 19.8796 46.5007 19.6494C46.6738 19.4192 47.0777 19.5631 47.108 19.2177C47.1384 18.8723 46.8772 18.6118 47.0215 18.4603L47.1657 18.3164C47.1657 18.3164 48.2923 19.2101 48.2058 19.5282C48.1192 19.8463 47.9173 19.7872 47.6577 19.9599C47.398 20.1326 47.0503 20.1326 47.0792 20.3644C47.108 20.5961 47.4269 20.9975 47.5711 21.0839C47.7154 21.1702 48.1481 21.5156 48.1481 22.0064C48.1481 22.4971 46.9061 23.0425 46.3868 23.2182C45.9807 23.3387 45.5653 23.4254 45.1448 23.4772C45.1448 23.4772 41.7361 22.9607 40.8418 22.0972Z" fill="#3C474C"/>
<path d="M52.3946 13.7852H50.0032V13.9366H52.3946V13.7852Z" fill="#CDEDC2"/>
<path d="M52.3946 14.3828H50.0032V14.5343H52.3946V14.3828Z" fill="#CDEDC2"/>
<path d="M52.3946 14.9766H50.0032V15.128H52.3946V14.9766Z" fill="#CDEDC2"/>
<path d="M37.3802 13.7852H34.9888V13.9366H37.3802V13.7852Z" fill="#CDEDC2"/>
<path d="M37.3802 14.3828H34.9888V14.5343H37.3802V14.3828Z" fill="#CDEDC2"/>
<path d="M37.3802 14.9766H34.9888V15.128H37.3802V14.9766Z" fill="#CDEDC2"/>
<path d="M52.3946 24.9219H50.0032V25.0734H52.3946V24.9219Z" fill="#CDEDC2"/>
<path d="M52.3946 25.5156H50.0032V25.6671H52.3946V25.5156Z" fill="#CDEDC2"/>
<path d="M52.3946 26.1133H50.0032V26.2648H52.3946V26.1133Z" fill="#CDEDC2"/>
<path d="M30.7882 33.8086L24.8833 43.0305H49.6325L54.6552 35.1931C54.7797 34.9987 54.8494 34.7745 54.8572 34.5439C54.8649 34.3133 54.8103 34.0849 54.6992 33.8826C54.588 33.6804 54.4243 33.5116 54.2253 33.3941C54.0263 33.2766 53.7993 33.2147 53.5681 33.2148H31.8753C31.6587 33.2146 31.4455 33.2689 31.2554 33.3727C31.0654 33.4764 30.9047 33.6264 30.7882 33.8086Z" fill="#CDEDC2"/>
<path d="M49.6757 43.1062H24.7458L30.7251 33.7692C30.8487 33.5766 31.0189 33.418 31.22 33.3081C31.4211 33.1983 31.6467 33.1407 31.876 33.1406H53.5688C53.8134 33.141 54.0535 33.2069 54.2639 33.3315C54.4743 33.456 54.6474 33.6346 54.765 33.8487C54.8826 34.0627 54.9404 34.3043 54.9324 34.5483C54.9245 34.7922 54.851 35.0296 54.7197 35.2355L49.6757 43.1062ZM25.0192 42.9548H49.5953L54.5922 35.1522C54.7088 34.9691 54.774 34.7582 54.7809 34.5414C54.7879 34.3246 54.7365 34.1099 54.6319 33.9197C54.5274 33.7295 54.3736 33.5708 54.1866 33.4601C53.9996 33.3495 53.7862 33.2909 53.5688 33.2906H31.876C31.6722 33.29 31.4716 33.3409 31.2929 33.4387C31.1142 33.5364 30.9633 33.6778 30.8542 33.8495L25.0192 42.9548Z" fill="#263238"/>
<path d="M35.6315 32.1733L30.4555 40.2546C30.3717 40.3858 30.3247 40.537 30.3196 40.6925C30.3144 40.848 30.3513 41.002 30.4262 41.1384C30.5012 41.2748 30.6115 41.3886 30.7457 41.4679C30.8798 41.5472 31.0329 41.589 31.1888 41.5891H45.1972C45.343 41.5889 45.4864 41.5522 45.6143 41.4824C45.7422 41.4125 45.8504 41.3117 45.929 41.1892L51.1036 33.1064C51.1875 32.9755 51.2345 32.8244 51.2397 32.6691C51.245 32.5138 51.2083 32.3599 51.1335 32.2237C51.0586 32.0874 50.9484 31.9736 50.8144 31.8944C50.6804 31.8152 50.5275 31.7734 50.3717 31.7734H36.3634C36.2175 31.7733 36.074 31.8099 35.9461 31.8798C35.8181 31.9497 35.71 32.0506 35.6315 32.1733Z" fill="#F2FAEF"/>
<path d="M45.198 41.6624H31.1897C31.0201 41.6624 30.8537 41.6168 30.7078 41.5306C30.562 41.4444 30.442 41.3206 30.3605 41.1723C30.2791 41.0239 30.239 40.8565 30.2447 40.6874C30.2503 40.5183 30.3014 40.3539 30.3925 40.2113L35.5671 32.1301C35.6525 31.9965 35.7704 31.8866 35.9097 31.8106C36.0491 31.7346 36.2054 31.6949 36.3642 31.6953H50.3726C50.5422 31.6948 50.7087 31.74 50.8547 31.826C51.0008 31.9121 51.1208 32.0358 51.2023 32.1842C51.2837 32.3326 51.3235 32.5002 51.3175 32.6692C51.3115 32.8383 51.2599 33.0027 51.1682 33.1449L45.9936 41.2262C45.9086 41.3599 45.7911 41.47 45.652 41.5463C45.5129 41.6226 45.3567 41.6625 45.198 41.6624ZM36.3642 31.8468C36.231 31.8463 36.0999 31.8796 35.983 31.9434C35.8662 32.0073 35.7675 32.0996 35.6961 32.2118L30.5216 40.2931C30.4468 40.4126 30.4053 40.5499 30.4014 40.6908C30.3975 40.8316 30.4313 40.971 30.4994 41.0945C30.5674 41.218 30.6673 41.3211 30.7886 41.3932C30.91 41.4654 31.0484 41.5039 31.1897 41.5049H45.198C45.3312 41.5053 45.4624 41.4721 45.5792 41.4082C45.696 41.3444 45.7947 41.2521 45.8661 41.1398L51.0422 33.0647C51.1175 32.9452 51.1594 32.8078 51.1636 32.6668C51.1677 32.5257 51.134 32.3861 51.0658 32.2625C50.9976 32.1388 50.8976 32.0357 50.7759 31.9636C50.6543 31.8916 50.5155 31.8533 50.3741 31.8529L36.3642 31.8468Z" fill="#263238"/>
<path d="M36.5941 33.0147L32.3883 39.5827C32.3199 39.6892 32.2814 39.8121 32.277 39.9385C32.2726 40.0649 32.3025 40.1902 32.3634 40.3011C32.4242 40.4121 32.514 40.5046 32.6231 40.5691C32.7322 40.6335 32.8567 40.6674 32.9835 40.6673H44.3712C44.4896 40.6676 44.6062 40.6383 44.7104 40.5823C44.8146 40.5262 44.9031 40.445 44.9679 40.3461L49.1722 33.7721C49.2406 33.6656 49.2791 33.5427 49.2835 33.4163C49.2879 33.2898 49.258 33.1646 49.1972 33.0536C49.1363 32.9427 49.0465 32.8501 48.9374 32.7857C48.8283 32.7213 48.7038 32.6873 48.577 32.6875H37.1893C37.0706 32.688 36.9539 32.7182 36.8499 32.7753C36.7459 32.8325 36.658 32.9148 36.5941 33.0147Z" fill="#F2FAEF"/>
<path d="M44.3705 40.7391H32.9829C32.8425 40.7392 32.7046 40.7016 32.5838 40.6303C32.463 40.5589 32.3636 40.4564 32.2962 40.3335C32.2288 40.2106 32.1958 40.0719 32.2007 39.9319C32.2055 39.7919 32.2481 39.6558 32.3239 39.5379L36.5298 32.9699C36.6004 32.8591 36.6981 32.768 36.8135 32.7049C36.929 32.6419 37.0586 32.609 37.1902 32.6094H48.5779C48.7183 32.6092 48.8562 32.6468 48.977 32.7182C49.0978 32.7896 49.1972 32.8921 49.2646 33.015C49.332 33.1378 49.365 33.2766 49.3601 33.4166C49.3552 33.5566 49.3127 33.6927 49.2369 33.8106L45.031 40.3801C44.9601 40.4905 44.8623 40.5813 44.7469 40.644C44.6314 40.7068 44.502 40.7395 44.3705 40.7391ZM37.1918 32.7609C37.0856 32.7606 36.981 32.7871 36.8878 32.838C36.7947 32.8888 36.7159 32.9623 36.6588 33.0517L32.453 39.6197C32.3919 39.7147 32.3576 39.8244 32.3537 39.9373C32.3498 40.0501 32.3764 40.1619 32.4308 40.261C32.4851 40.36 32.5652 40.4426 32.6627 40.5001C32.7601 40.5576 32.8712 40.5878 32.9844 40.5876H44.3721C44.478 40.5883 44.5823 40.5622 44.6753 40.5116C44.7683 40.4609 44.8468 40.3875 44.9035 40.2983L49.1108 33.7288C49.1714 33.6336 49.2053 33.524 49.2089 33.4114C49.2126 33.2987 49.1859 33.1871 49.1316 33.0883C49.0773 32.9894 48.9975 32.9069 48.9003 32.8493C48.8032 32.7917 48.6924 32.7612 48.5794 32.7609H37.1918Z" fill="#263238"/>
<path d="M37.1909 32.6914C37.072 32.6915 36.9551 32.7213 36.8508 32.7782C36.7465 32.8351 36.6583 32.9173 36.5941 33.0171L32.3883 39.5851C32.3199 39.6916 32.2814 39.8145 32.277 39.9409C32.2726 40.0673 32.3025 40.1926 32.3634 40.3035C32.4242 40.4145 32.514 40.507 32.6231 40.5715C32.7322 40.6359 32.8567 40.6698 32.9835 40.6696H40.9427L46.052 32.6914H37.1909Z" fill="#263238"/>
<path d="M40.9846 40.7391H32.9843C32.8439 40.7392 32.7061 40.7016 32.5852 40.6303C32.4644 40.5589 32.3651 40.4564 32.2977 40.3335C32.2303 40.2106 32.1973 40.0719 32.2021 39.9319C32.207 39.7919 32.2496 39.6558 32.3254 39.5379L36.5312 32.9699C36.6019 32.8591 36.6995 32.768 36.815 32.7049C36.9305 32.6419 37.0601 32.609 37.1917 32.6094H46.191L46.1166 32.726L40.9846 40.7391ZM37.1887 32.7609C37.0825 32.7606 36.9779 32.7871 36.8847 32.838C36.7916 32.8888 36.7128 32.9623 36.6557 33.0517L32.4499 39.6197C32.3888 39.7147 32.3545 39.8244 32.3506 39.9373C32.3467 40.0501 32.3733 40.1619 32.4277 40.261C32.482 40.36 32.5622 40.4426 32.6596 40.5001C32.757 40.5576 32.8681 40.5878 32.9813 40.5876H40.898L45.9086 32.7609H37.1887Z" fill="#263238"/>
<path d="M36.4876 34.3594L35.9243 35.2394H38.1442L38.7075 34.3594H36.4876Z" fill="#F2FAEF"/>
<path d="M38.1859 35.3128H35.7869L36.4474 34.2812H38.8463L38.1859 35.3128ZM36.0602 35.1613H38.0978L38.5655 34.4327H36.5309L36.0602 35.1613Z" fill="#263238"/>
<path d="M39.1451 34.3594L38.5818 35.2394H40.8001L41.3634 34.3594H39.1451Z" fill="#F2FAEF"/>
<path d="M40.8412 35.3128H38.4392L39.0997 34.2812H41.4987L40.8412 35.3128ZM38.7156 35.1613H40.7547L41.2208 34.4327H39.1862L38.7156 35.1613Z" fill="#263238"/>
<path d="M41.8011 34.3594L41.2378 35.2394H43.4561L44.0194 34.3594H41.8011Z" fill="#F2FAEF"/>
<path d="M43.4969 35.3128H41.0979L41.7599 34.2812H44.1574L43.4969 35.3128ZM41.3712 35.1613H43.4104L43.8765 34.4327H41.8419L41.3712 35.1613Z" fill="#263238"/>
<path d="M35.6031 35.7109L35.0398 36.591H37.2596L37.8229 35.7109H35.6031Z" fill="#F2FAEF"/>
<path d="M37.3001 36.6644H34.9011L35.5616 35.6328H37.9606L37.3001 36.6644ZM35.1744 36.5129H37.2242L37.6797 35.7843H35.6451L35.1744 36.5129Z" fill="#263238"/>
<path d="M38.2606 35.7109L37.6973 36.591H39.9156L40.4789 35.7109H38.2606Z" fill="#F2FAEF"/>
<path d="M39.9573 36.6644H37.5583L38.2188 35.6328H40.6178L39.9573 36.6644ZM37.8317 36.5129H39.8693L40.3369 35.7843H38.3008L37.8317 36.5129Z" fill="#263238"/>
<path d="M40.9154 35.7109L40.3521 36.591H42.5704L43.1337 35.7109H40.9154Z" fill="#F2FAEF"/>
<path d="M42.6112 36.6644H40.2122L40.8681 35.6328H43.2671L42.6112 36.6644ZM40.4855 36.5129H42.5246L42.9938 35.7843H40.9562L40.4855 36.5129Z" fill="#263238"/>
<path d="M34.7171 37.0625L34.1538 37.9411H36.3736L36.937 37.0625H34.7171Z" fill="#F2FAEF"/>
<path d="M36.4154 38.0105H34.0164L34.6768 36.9805H37.0728L36.4154 38.0105ZM34.2897 37.859H36.3273L36.7934 37.1319H34.7604L34.2897 37.859Z" fill="#263238"/>
<path d="M37.3749 37.0625L36.8101 37.9411H39.0299L39.5932 37.0625H37.3749Z" fill="#F2FAEF"/>
<path d="M39.0704 38.0105H36.6714L37.3319 36.9805H39.7309L39.0704 38.0105ZM36.9447 37.859H38.9823L39.45 37.1319H37.4154L36.9447 37.859Z" fill="#263238"/>
<path d="M40.0308 37.0625L39.4675 37.9411H41.6858L42.2492 37.0625H40.0308Z" fill="#F2FAEF"/>
<path d="M41.7266 38.0105H39.3276L39.9881 36.9805H42.3871L41.7266 38.0105ZM39.6009 37.859H41.6401L42.1062 37.1319H40.0716L39.6009 37.859Z" fill="#263238"/>
<path d="M33.8326 38.4102L33.2693 39.2902H35.4891L36.0524 38.4102H33.8326Z" fill="#F2FAEF"/>
<path d="M35.5293 39.3675H33.1243L33.7848 38.3359H36.1838L35.5293 39.3675ZM33.4036 39.216H35.4413L35.9074 38.4874H33.8743L33.4036 39.216Z" fill="#263238"/>
<path d="M36.4876 38.4102L35.9243 39.2902H38.1442L38.7075 38.4102H36.4876Z" fill="#F2FAEF"/>
<path d="M38.1859 39.3675H35.7869L36.4474 38.3359H38.8463L38.1859 39.3675ZM36.0602 39.216H38.0978L38.5655 38.4874H36.5309L36.0602 39.216Z" fill="#263238"/>
<path d="M39.1451 38.4102L38.5818 39.2902H40.8001L41.3634 38.4102H39.1451Z" fill="#F2FAEF"/>
<path d="M40.8412 39.3675H38.4392L39.0997 38.3359H41.4987L40.8412 39.3675ZM38.7156 39.216H40.7547L41.2208 38.4874H39.1862L38.7156 39.216Z" fill="#263238"/>
<path d="M20.9316 45.7251C20.9316 45.7251 22.0188 46.6566 23.3686 46.849C24.7184 47.0414 41.7862 46.849 41.7862 46.849C42.9716 46.8097 44.1432 46.5827 45.2572 46.1765C47.0883 45.5024 50.3665 43.0985 50.3665 43.0985L50.5183 41.4883L20.9316 45.7251Z" fill="#263238"/>
<path d="M28.764 47.0106C26.0309 47.0106 23.8156 46.9894 23.3571 46.9243C22.0012 46.7304 20.9277 45.82 20.8807 45.7822L20.7546 45.6731L20.9201 45.6489L50.607 41.3984L50.4339 43.1389L50.4066 43.1586C50.3732 43.1828 47.0981 45.5822 45.2776 46.2472C44.1563 46.6542 42.9778 46.8826 41.7854 46.9243C41.3238 46.9303 34.0554 47.0106 28.764 47.0106ZM21.1175 45.7746C21.447 46.023 22.3398 46.6259 23.3784 46.7743C24.7084 46.9637 41.6138 46.7743 41.7839 46.7743C42.9603 46.7338 44.123 46.5084 45.229 46.1063C46.9417 45.4747 49.9784 43.2889 50.2942 43.0556L50.437 41.5757L21.1175 45.7746Z" fill="#263238"/>
<path d="M25.7705 41.4961L20.684 44.924C20.6054 44.977 20.5459 45.0537 20.5142 45.1429C20.4825 45.2322 20.4804 45.3292 20.5081 45.4197C20.5358 45.5102 20.5919 45.5895 20.6681 45.6459C20.7443 45.7023 20.8366 45.7327 20.9315 45.7329H41.0528C43.1285 45.7327 45.1569 45.1134 46.8772 43.9546L50.5212 41.4961H25.7705Z" fill="#788D70"/>
<path d="M41.0525 45.8023H20.9313C20.8203 45.802 20.7124 45.7662 20.6233 45.7002C20.5342 45.6342 20.4687 45.5415 20.4362 45.4357C20.4038 45.3298 20.4062 45.2164 20.4431 45.112C20.48 45.0076 20.5495 44.9177 20.6413 44.8556L25.746 41.4141H50.7715L46.9195 44.0104C45.1878 45.1802 43.1439 45.8045 41.0525 45.8023ZM25.7931 41.561L20.7263 44.9813C20.6615 45.0253 20.6126 45.0889 20.5866 45.1627C20.5605 45.2364 20.5589 45.3166 20.5818 45.3914C20.6047 45.4661 20.6509 45.5317 20.7138 45.5784C20.7767 45.625 20.8529 45.6504 20.9313 45.6508H41.0525C43.1137 45.6532 45.128 45.0379 46.8344 43.8846L50.2826 41.5655L25.7931 41.561Z" fill="#263238"/>
<path d="M27.9979 42.8091C28.4239 42.8091 28.7692 42.6796 28.7692 42.5198C28.7692 42.36 28.4239 42.2305 27.9979 42.2305C27.5719 42.2305 27.2266 42.36 27.2266 42.5198C27.2266 42.6796 27.5719 42.8091 27.9979 42.8091Z" fill="#F2FAEF"/>
<path d="M27.9974 42.887C27.5753 42.887 27.1501 42.7613 27.1501 42.5219C27.1501 42.0448 28.8446 42.0448 28.8446 42.5219C28.8446 42.7613 28.418 42.887 27.9974 42.887ZM27.9974 42.3099C27.5783 42.3099 27.302 42.4386 27.302 42.5219C27.302 42.6052 27.5783 42.7355 27.9974 42.7355C28.4165 42.7355 28.6928 42.6068 28.6928 42.5219C28.6928 42.4371 28.418 42.3099 27.9974 42.3099Z" fill="#263238"/>
<path d="M30.8895 42.8091C31.3155 42.8091 31.6608 42.6796 31.6608 42.5198C31.6608 42.36 31.3155 42.2305 30.8895 42.2305C30.4635 42.2305 30.1182 42.36 30.1182 42.5198C30.1182 42.6796 30.4635 42.8091 30.8895 42.8091Z" fill="#F2FAEF"/>
<path d="M30.8902 42.887C30.4681 42.887 30.043 42.7613 30.043 42.5219C30.043 42.0448 31.7374 42.0448 31.7374 42.5219C31.7374 42.7613 31.3108 42.887 30.8902 42.887ZM30.8902 42.3099C30.4711 42.3099 30.1948 42.4386 30.1948 42.5219C30.1948 42.6052 30.4711 42.7355 30.8902 42.7355C31.3093 42.7355 31.5856 42.6068 31.5856 42.5219C31.5856 42.4371 31.3032 42.3099 30.8902 42.3099Z" fill="#263238"/>
<path d="M26.4897 43.4831C26.4897 43.6437 26.145 43.7724 25.7183 43.7724C25.2917 43.7724 24.947 43.6437 24.947 43.4831C24.947 43.3226 25.2932 43.1953 25.7183 43.1953C26.1435 43.1953 26.4897 43.3241 26.4897 43.4831Z" fill="#F2FAEF"/>
<path d="M25.7178 43.8491C25.2973 43.8491 24.8706 43.7233 24.8706 43.484C24.8706 43.0053 26.5651 43.0053 26.5651 43.484C26.5651 43.7233 26.1399 43.8491 25.7178 43.8491ZM25.7178 43.2719C25.3003 43.2719 25.0224 43.3992 25.0224 43.484C25.0224 43.5688 25.3003 43.6976 25.7178 43.6976C26.1354 43.6976 26.4133 43.5688 26.4133 43.484C26.4133 43.3992 26.1399 43.2719 25.7178 43.2719Z" fill="#263238"/>
<path d="M29.3825 43.4831C29.3825 43.6437 29.0378 43.7724 28.6112 43.7724C28.1845 43.7724 27.8398 43.6437 27.8398 43.4831C27.8398 43.3226 28.186 43.1953 28.6112 43.1953C29.0363 43.1953 29.3825 43.3241 29.3825 43.4831Z" fill="#F2FAEF"/>
<path d="M28.6109 43.8491C28.1903 43.8491 27.7637 43.7233 27.7637 43.484C27.7637 43.0053 29.4582 43.0053 29.4582 43.484C29.4582 43.7233 29.033 43.8491 28.6109 43.8491ZM28.6109 43.2719C28.1934 43.2719 27.9155 43.3992 27.9155 43.484C27.9155 43.5688 28.1934 43.6976 28.6109 43.6976C29.0285 43.6976 29.3063 43.5688 29.3063 43.484C29.3063 43.3992 29.0254 43.2719 28.6109 43.2719Z" fill="#263238"/>
<path d="M23.4415 44.7349C23.8675 44.7349 24.2128 44.6054 24.2128 44.4456C24.2128 44.2858 23.8675 44.1562 23.4415 44.1562C23.0155 44.1562 22.6702 44.2858 22.6702 44.4456C22.6702 44.6054 23.0155 44.7349 23.4415 44.7349Z" fill="#F2FAEF"/>
<path d="M23.441 44.8139C23.0189 44.8139 22.5938 44.6882 22.5938 44.4488C22.5938 43.9702 24.2882 43.9702 24.2882 44.4488C24.2882 44.6882 23.8631 44.8139 23.441 44.8139ZM23.441 44.2368C23.0219 44.2368 22.7456 44.364 22.7456 44.4488C22.7456 44.5337 23.0219 44.6624 23.441 44.6624C23.8601 44.6624 24.1364 44.5337 24.1364 44.4488C24.1364 44.364 23.8631 44.2368 23.441 44.2368Z" fill="#263238"/>
<path d="M26.3331 44.7349C26.7591 44.7349 27.1044 44.6054 27.1044 44.4456C27.1044 44.2858 26.7591 44.1562 26.3331 44.1562C25.9071 44.1562 25.5618 44.2858 25.5618 44.4456C25.5618 44.6054 25.9071 44.7349 26.3331 44.7349Z" fill="#F2FAEF"/>
<path d="M26.3338 44.8139C25.9117 44.8139 25.4866 44.6882 25.4866 44.4488C25.4866 43.9702 27.1811 43.9702 27.1811 44.4488C27.1811 44.6882 26.7483 44.8139 26.3338 44.8139ZM26.3338 44.2368C25.9147 44.2368 25.6384 44.364 25.6384 44.4488C25.6384 44.5337 25.9147 44.6624 26.3338 44.6624C26.7529 44.6624 27.0292 44.5337 27.0292 44.4488C27.0292 44.364 26.7483 44.2368 26.3338 44.2368Z" fill="#263238"/>
<path d="M33.7823 42.8091C34.2083 42.8091 34.5536 42.6796 34.5536 42.5198C34.5536 42.36 34.2083 42.2305 33.7823 42.2305C33.3563 42.2305 33.011 42.36 33.011 42.5198C33.011 42.6796 33.3563 42.8091 33.7823 42.8091Z" fill="#F2FAEF"/>
<path d="M33.7818 42.887C33.3612 42.887 32.9346 42.7613 32.9346 42.5219C32.9346 42.0448 34.6291 42.0448 34.6291 42.5219C34.6291 42.7613 34.2024 42.887 33.7818 42.887ZM33.7818 42.3099C33.3627 42.3099 33.0864 42.4386 33.0864 42.5219C33.0864 42.6052 33.3627 42.7355 33.7818 42.7355C34.2009 42.7355 34.4772 42.6068 34.4772 42.5219C34.4772 42.4371 34.1994 42.3099 33.7818 42.3099Z" fill="#263238"/>
<path d="M31.9675 43.4831C31.9675 43.6437 31.6228 43.7724 31.1961 43.7724C30.7695 43.7724 30.4248 43.6437 30.4248 43.4831C30.4248 43.3226 30.771 43.1953 31.1961 43.1953C31.6213 43.1953 31.9675 43.3241 31.9675 43.4831Z" fill="#F2FAEF"/>
<path d="M31.1971 43.8491C30.7765 43.8491 30.3499 43.7233 30.3499 43.484C30.3499 43.0053 32.0443 43.0053 32.0443 43.484C32.0443 43.7233 31.6192 43.8491 31.1971 43.8491ZM31.1971 43.2719C30.7795 43.2719 30.5017 43.3992 30.5017 43.484C30.5017 43.5688 30.7795 43.6976 31.1971 43.6976C31.6146 43.6976 31.8925 43.5688 31.8925 43.484C31.8925 43.3992 31.6162 43.2719 31.1971 43.2719Z" fill="#263238"/>
<path d="M28.9434 44.7349C29.3694 44.7349 29.7148 44.6054 29.7148 44.4456C29.7148 44.2858 29.3694 44.1562 28.9434 44.1562C28.5175 44.1562 28.1721 44.2858 28.1721 44.4456C28.1721 44.6054 28.5175 44.7349 28.9434 44.7349Z" fill="#F2FAEF"/>
<path d="M28.9429 44.8139C28.5224 44.8139 28.0957 44.6882 28.0957 44.4488C28.0957 43.9702 29.7902 43.9702 29.7902 44.4488C29.7841 44.6882 29.365 44.8139 28.9429 44.8139ZM28.9429 44.2368C28.5254 44.2368 28.2475 44.364 28.2475 44.4488C28.2475 44.5337 28.5254 44.6624 28.9429 44.6624C29.3605 44.6624 29.6323 44.5276 29.6323 44.4488C29.6323 44.3701 29.362 44.2368 28.9429 44.2368Z" fill="#263238"/>
<path d="M36.6751 42.8091C37.1011 42.8091 37.4465 42.6796 37.4465 42.5198C37.4465 42.36 37.1011 42.2305 36.6751 42.2305C36.2491 42.2305 35.9038 42.36 35.9038 42.5198C35.9038 42.6796 36.2491 42.8091 36.6751 42.8091Z" fill="#F2FAEF"/>
<path d="M36.6749 42.887C36.2543 42.887 35.8276 42.7613 35.8276 42.5219C35.8276 42.0448 37.5221 42.0448 37.5221 42.5219C37.5282 42.7613 37.0955 42.887 36.6749 42.887ZM36.6749 42.3099C36.2573 42.3099 35.9795 42.4386 35.9795 42.5219C35.9795 42.6052 36.2573 42.7355 36.6749 42.7355C37.0924 42.7355 37.3703 42.6068 37.3703 42.5219C37.3703 42.4371 37.0924 42.3099 36.6749 42.3099Z" fill="#263238"/>
<path d="M39.567 42.8091C39.993 42.8091 40.3383 42.6796 40.3383 42.5198C40.3383 42.36 39.993 42.2305 39.567 42.2305C39.141 42.2305 38.7957 42.36 38.7957 42.5198C38.7957 42.6796 39.141 42.8091 39.567 42.8091Z" fill="#F2FAEF"/>
<path d="M39.5677 42.887C39.1471 42.887 38.7205 42.7613 38.7205 42.5219C38.7205 42.0448 40.4149 42.0448 40.4149 42.5219C40.4134 42.7613 39.9883 42.887 39.5677 42.887ZM39.5677 42.3099C39.1502 42.3099 38.8723 42.4386 38.8723 42.5219C38.8723 42.6052 39.1502 42.7355 39.5677 42.7355C39.9852 42.7355 40.2631 42.6068 40.2631 42.5219C40.2631 42.4371 39.9852 42.3099 39.5677 42.3099Z" fill="#263238"/>
<path d="M42.4598 42.8091C42.8858 42.8091 43.2311 42.6796 43.2311 42.5198C43.2311 42.36 42.8858 42.2305 42.4598 42.2305C42.0338 42.2305 41.6885 42.36 41.6885 42.5198C41.6885 42.6796 42.0338 42.8091 42.4598 42.8091Z" fill="#F2FAEF"/>
<path d="M42.4593 42.887C42.0387 42.887 41.6121 42.7613 41.6121 42.5219C41.6121 42.0448 43.3065 42.0448 43.3065 42.5219C43.3065 42.7613 42.8799 42.887 42.4593 42.887ZM42.4593 42.3099C42.0418 42.3099 41.7639 42.4386 41.7639 42.5219C41.7639 42.6052 42.0418 42.7355 42.4593 42.7355C42.8769 42.7355 43.1547 42.6068 43.1547 42.5219C43.1547 42.4371 42.8769 42.3099 42.4593 42.3099Z" fill="#263238"/>
<path d="M46.1239 42.5183C46.1239 42.6788 45.7793 42.8076 45.3526 42.8076C44.926 42.8076 44.5813 42.6788 44.5813 42.5183C44.5813 42.3577 44.9275 42.2305 45.3526 42.2305C45.7778 42.2305 46.1239 42.3592 46.1239 42.5183Z" fill="#F2FAEF"/>
<path d="M45.3521 42.887C44.9315 42.887 44.5049 42.7613 44.5049 42.5219C44.5049 42.0448 46.1994 42.0448 46.1994 42.5219C46.1994 42.7613 45.7742 42.887 45.3521 42.887ZM45.3521 42.3099C44.9346 42.3099 44.6567 42.4386 44.6567 42.5219C44.6567 42.6052 44.9346 42.7355 45.3521 42.7355C45.7697 42.7355 46.0475 42.6068 46.0475 42.5219C46.0475 42.4371 45.7712 42.3099 45.3521 42.3099Z" fill="#263238"/>
<path d="M38.9928 43.6667C38.9928 43.8258 38.6482 43.956 38.2215 43.956C37.7949 43.956 37.4502 43.8258 37.4502 43.6667C37.4502 43.5077 37.7964 43.3789 38.2215 43.3789C38.6467 43.3789 38.9928 43.5077 38.9928 43.6667Z" fill="#F2FAEF"/>
<path d="M38.2225 44.0287C37.8019 44.0287 37.3752 43.903 37.3752 43.6637C37.3752 43.185 39.0697 43.185 39.0697 43.6637C39.0697 43.903 38.6446 44.0287 38.2225 44.0287ZM38.2225 43.4516C37.8049 43.4516 37.5271 43.5789 37.5271 43.6637C37.5271 43.7485 37.8049 43.8773 38.2225 43.8773C38.64 43.8773 38.9179 43.7485 38.9179 43.6637C38.9179 43.5789 38.6416 43.4516 38.2225 43.4516Z" fill="#263238"/>
<path d="M41.8871 43.6667C41.8871 43.8258 41.5409 43.956 41.1158 43.956C40.6907 43.956 40.3445 43.8258 40.3445 43.6667C40.3445 43.5077 40.6892 43.3789 41.1158 43.3789C41.5425 43.3789 41.8871 43.5077 41.8871 43.6667Z" fill="#F2FAEF"/>
<path d="M41.1165 44.0287C40.6944 44.0287 40.2693 43.903 40.2693 43.6637C40.2693 43.185 41.9638 43.185 41.9638 43.6637C41.9638 43.903 41.5371 44.0287 41.1165 44.0287ZM41.1165 43.4516C40.6975 43.4516 40.4211 43.5789 40.4211 43.6637C40.4211 43.7485 40.6975 43.8773 41.1165 43.8773C41.5356 43.8773 41.8119 43.7485 41.8119 43.6637C41.8119 43.5789 41.5341 43.4516 41.1165 43.4516Z" fill="#263238"/>
<path d="M44.78 43.6667C44.78 43.8258 44.4338 43.956 44.0086 43.956C43.5835 43.956 43.2373 43.8258 43.2373 43.6667C43.2373 43.5077 43.582 43.3789 44.0086 43.3789C44.4353 43.3789 44.78 43.5077 44.78 43.6667Z" fill="#F2FAEF"/>
<path d="M44.0081 44.0287C43.586 44.0287 43.1609 43.903 43.1609 43.6637C43.1609 43.185 44.8554 43.185 44.8554 43.6637C44.8554 43.903 44.4287 44.0287 44.0081 44.0287ZM44.0081 43.4516C43.5891 43.4516 43.3127 43.5789 43.3127 43.6637C43.3127 43.7485 43.5891 43.8773 44.0081 43.8773C44.4272 43.8773 44.7035 43.7485 44.7035 43.6637C44.7035 43.5789 44.4257 43.4516 44.0081 43.4516Z" fill="#263238"/>
<path d="M37.6503 44.8088C37.6503 44.9679 37.3041 45.0967 36.879 45.0967C36.4538 45.0967 36.1077 44.9679 36.1077 44.8088C36.1077 44.6498 36.4523 44.5195 36.879 44.5195C37.3056 44.5195 37.6503 44.6483 37.6503 44.8088Z" fill="#F2FAEF"/>
<path d="M36.8785 45.1718C36.4579 45.1718 36.0312 45.0475 36.0312 44.8082C36.0312 44.3296 37.7257 44.3296 37.7257 44.8082C37.7257 45.0475 37.2991 45.1718 36.8785 45.1718ZM36.8785 44.5946C36.4609 44.5946 36.1831 44.7234 36.1831 44.8082C36.1831 44.893 36.4609 45.0203 36.8785 45.0203C37.296 45.0203 37.5739 44.893 37.5739 44.8082C37.5739 44.7234 37.296 44.5946 36.8785 44.5946Z" fill="#263238"/>
<path d="M40.5419 44.8091C40.5419 44.9681 40.1972 45.0969 39.7706 45.0969C39.3439 45.0969 38.9993 44.9681 38.9993 44.8091C38.9993 44.65 39.35 44.5273 39.7706 44.5273C40.1912 44.5273 40.5419 44.6485 40.5419 44.8091Z" fill="#F2FAEF"/>
<path d="M39.7713 45.1718C39.3507 45.1718 38.9241 45.0475 38.9241 44.8082C38.9241 44.3296 40.6186 44.3296 40.6186 44.8082C40.6186 45.0475 40.1919 45.1718 39.7713 45.1718ZM39.7713 44.5946C39.3538 44.5946 39.0759 44.7234 39.0759 44.8082C39.0759 44.893 39.3538 45.0203 39.7713 45.0203C40.1889 45.0203 40.4667 44.893 40.4667 44.8082C40.4667 44.7234 40.1889 44.5946 39.7713 44.5946Z" fill="#263238"/>
<path d="M43.4347 44.8091C43.4347 44.9681 43.0901 45.0969 42.6634 45.0969C42.2368 45.0969 41.8921 44.9681 41.8921 44.8091C41.8921 44.65 42.2352 44.5273 42.6634 44.5273C43.0916 44.5273 43.4347 44.6485 43.4347 44.8091Z" fill="#F2FAEF"/>
<path d="M42.6629 45.1718C42.2423 45.1718 41.8157 45.0475 41.8157 44.8082C41.8157 44.3296 43.5102 44.3296 43.5102 44.8082C43.5102 45.0475 43.0835 45.1718 42.6629 45.1718ZM42.6629 44.5946C42.2454 44.5946 41.9675 44.7234 41.9675 44.8082C41.9675 44.893 42.2454 45.0203 42.6629 45.0203C43.0805 45.0203 43.3583 44.893 43.3583 44.8082C43.3583 44.7234 43.0805 44.5946 42.6629 44.5946Z" fill="#263238"/>
<path d="M35.6336 44.1471C35.6336 44.647 34.6634 45.056 33.4639 45.056C32.2644 45.056 31.2942 44.6516 31.2942 44.1471C31.2942 43.6427 32.2659 43.2383 33.4639 43.2383C34.6619 43.2383 35.6336 43.6473 35.6336 44.1471Z" fill="#F2FAEF"/>
<path d="M33.4634 45.132C32.2047 45.132 31.2178 44.7018 31.2178 44.1519C31.2178 43.6021 32.2047 43.1719 33.4634 43.1719C34.7221 43.1719 35.706 43.5975 35.706 44.1474C35.706 44.6972 34.7237 45.132 33.4634 45.132ZM33.4634 43.3234C32.3292 43.3234 31.3696 43.7036 31.3696 44.1519C31.3696 44.6003 32.3292 44.9805 33.4634 44.9805C34.5976 44.9805 35.5542 44.5973 35.5542 44.1474C35.5542 43.6975 34.5992 43.3143 33.4634 43.3143V43.3234Z" fill="#263238"/>
<path d="M13.0401 57.0149C13.0401 57.0149 16.8147 57.486 19.5508 57.2966C22.2868 57.1073 23.8022 56.0742 23.8022 56.0742L24.1681 67.3683C24.1681 67.3683 21.8101 68.4044 16.8101 68.78C16.8101 68.78 12.7531 69.4389 10.6775 68.4983L11.5263 56.7331L13.0401 57.0149Z" fill="#263238"/>
<path d="M13.8731 69.0843C12.7511 69.0843 11.5318 68.9677 10.6497 68.5678L10.6011 68.5466V68.4936L11.4605 56.6497L13.0517 56.9526C13.1625 56.9663 16.8749 57.4177 19.5442 57.2344C22.2135 57.0511 23.7379 56.0332 23.7531 56.0226L23.8669 55.9453L24.2511 67.4287L24.204 67.4499C24.1797 67.4605 21.7747 68.4951 16.8187 68.8677C15.8434 69.0112 14.859 69.0836 13.8731 69.0843ZM10.7605 68.4512C12.8057 69.3418 16.761 68.7132 16.802 68.7072C21.3571 68.3633 23.7379 67.4635 24.0901 67.3196L23.7197 56.2089C23.3158 56.4482 21.8566 57.2162 19.5503 57.3737C16.8385 57.56 13.0638 57.0965 13.0213 57.092L11.5956 56.8254L10.7605 68.4512Z" fill="#263238"/>
<path d="M10.115 25.1992C10.115 25.1992 12.5671 22.7529 13.9822 22.1879C15.3973 21.6229 20.0207 24.4464 20.3047 24.6342C20.5886 24.8221 21.7927 34.1605 22.5108 38.058C23.229 41.9555 24.0778 57.0137 24.0778 57.0137C22.4321 57.7496 20.6818 58.2258 18.8896 58.4255C16.0594 58.7072 13.1335 58.4255 12.8511 58.4255C12.5687 58.4255 12.6628 39.9772 11.3418 35.083C10.0209 30.1888 10.115 25.1992 10.115 25.1992Z" fill="#CDEDC2"/>
<path d="M16.1285 58.6255C14.8318 58.6255 13.7401 58.5543 13.192 58.5195C13.0204 58.5073 12.8883 58.4998 12.8519 58.4998C12.7107 58.4998 12.6849 58.4998 12.5558 53.6101C12.404 47.9146 12.155 38.3823 11.2682 35.1013C9.96093 30.2541 10.0384 25.2463 10.0399 25.1963V25.166L10.0611 25.1448C10.1629 25.0448 12.5421 22.6803 13.9557 22.1153C15.465 21.5093 20.3009 24.5389 20.3465 24.5707C20.5211 24.6858 20.8232 26.6035 21.5202 31.2841C21.8952 33.7971 22.2794 36.3949 22.583 38.0429C23.2936 41.898 24.1439 56.8578 24.1515 57.0077V57.0592L24.1059 57.0804C22.4513 57.8179 20.6927 58.2966 18.8919 58.4998C17.9505 58.5937 16.994 58.6255 16.1285 58.6255ZM12.8974 58.3498L13.2011 58.368C14.1121 58.4271 16.5248 58.5831 18.8813 58.3483C20.6472 58.1484 22.3725 57.6821 23.9981 56.9653C23.9435 55.9944 23.1236 41.8026 22.4357 38.0702C22.1321 36.4206 21.7434 33.8213 21.3729 31.3068C20.9174 28.3 20.4163 24.8933 20.2569 24.6888C19.6572 24.292 15.3268 21.7335 14.0134 22.2561C12.7 22.7787 10.4392 24.9827 10.1917 25.2296C10.1917 25.6568 10.1674 30.4313 11.417 35.0619C12.3068 38.361 12.5588 47.904 12.7092 53.6056C12.7699 55.9807 12.8246 58.0453 12.8974 58.3498Z" fill="#263238"/>
<path d="M13.54 16.1016C13.54 16.1016 11.3414 16.8499 10.107 18.348C8.87253 19.846 9.19594 21.9334 9.67878 22.3621C10.1616 22.7907 11.6086 22.3621 12.1992 21.9334C12.7899 21.5047 13.2712 20.4353 13.2712 19.2583C13.2712 18.0814 13.0009 17.5451 13.6918 17.1134C13.6918 17.1134 14.0198 16.2621 13.54 16.1016Z" fill="#263238"/>
<path d="M10.2994 22.6135C10.058 22.6308 9.81844 22.5615 9.62373 22.4181C9.12875 21.9788 8.75979 19.8612 10.0458 18.2995C11.2787 16.8029 13.4895 16.0364 13.5122 16.0273H13.5365H13.5608C13.6171 16.0453 13.669 16.0747 13.7132 16.1139C13.7574 16.153 13.7929 16.2009 13.8174 16.2546C13.9693 16.5848 13.7764 17.1195 13.7688 17.1422L13.7597 17.1664L13.737 17.1801C13.2496 17.483 13.2708 17.8193 13.3149 18.4964C13.3285 18.7176 13.3437 18.9675 13.3437 19.2538C13.3437 20.3929 12.8882 21.5259 12.2399 21.9894C11.6603 22.3662 10.9904 22.5817 10.2994 22.6135ZM13.5396 16.1818C13.2921 16.2697 11.3 17.018 10.1658 18.3964C8.92377 19.9112 9.3155 21.9379 9.7285 22.3045C10.1415 22.6711 11.5505 22.3045 12.1579 21.8728C12.7652 21.4411 13.1995 20.358 13.1995 19.2583C13.1995 18.9736 13.1843 18.7266 13.1706 18.5009C13.1266 17.8193 13.0992 17.4043 13.6428 17.0604C13.6762 16.9574 13.8022 16.5515 13.6884 16.3136C13.6574 16.2524 13.6042 16.2053 13.5396 16.1818Z" fill="#263238"/>
<path d="M24.2446 26.3945C24.2446 26.3945 25.725 26.749 26.4356 30.0572C27.1462 33.3655 28.8301 40.9074 28.8893 46.7559C28.9485 52.6044 31.1835 58.8649 31.3035 59.0421C31.4234 59.2194 31.8364 60.9916 31.8364 60.9916C31.8364 60.9916 29.7638 62.2913 29.2309 62.4095C28.698 62.5276 27.2176 62.5867 27.2176 62.5867C27.2176 62.5867 25.3819 51.894 25.4411 47.8178C25.5003 43.7416 24.483 33.2473 24.483 31.5341C24.483 29.8209 24.2446 26.3945 24.2446 26.3945Z" fill="white"/>
<path d="M27.1548 62.6608L27.1426 62.5957C27.1244 62.4881 25.3069 51.85 25.3646 47.8132C25.4026 45.2593 25.0093 40.0955 24.7224 36.3237C24.5462 34.0046 24.4065 32.1718 24.4065 31.531C24.4065 29.839 24.1727 26.4308 24.1697 26.396V26.293L24.2699 26.3172C24.3321 26.3324 25.8049 26.7216 26.5171 30.0375L26.6203 30.5191C27.3658 33.9743 28.9161 41.1634 28.9722 46.7513C29.0315 52.5801 31.2285 58.7558 31.3728 58.9966C31.4957 59.1799 31.8738 60.7871 31.9163 60.9658L31.9285 61.0188L31.8829 61.0476C31.7979 61.1006 29.7937 62.3549 29.2531 62.4745C28.7126 62.5942 27.2869 62.6517 27.2261 62.6548L27.1548 62.6608ZM24.3291 26.502C24.3716 27.12 24.5584 30.0117 24.5584 31.5295C24.5584 32.1642 24.6981 33.994 24.8742 36.3101C25.1612 40.0849 25.5544 45.2472 25.5165 47.8132C25.4618 51.6697 27.1274 61.5975 27.2808 62.5063C27.5753 62.4927 28.7581 62.4351 29.2152 62.3336C29.6722 62.2322 31.4426 61.1446 31.7508 60.9537C31.5899 60.2705 31.3196 59.1996 31.2407 59.0815C31.1146 58.8951 28.8751 52.6407 28.8113 46.7543C28.7551 41.1831 27.2079 34.0031 26.4639 30.5464L26.3591 30.0647C25.7807 27.3594 24.6707 26.6535 24.3291 26.502Z" fill="#263238"/>
<path d="M19.104 23.8328C19.104 23.8328 19.8556 33.2001 20.2109 36.2129C20.5662 39.2258 23.4267 64.2996 23.4267 64.2996C25.2529 64.4837 27.0839 63.9991 28.5785 62.9363L29.2299 61.6957C29.2299 61.6957 27.3942 53.6024 27.0389 50.941C26.7884 49.0596 26.6608 41.7645 26.6077 37.6535C26.5801 35.9889 26.345 34.3342 25.9077 32.7275C25.7526 32.2007 25.6508 31.6598 25.6041 31.1128C25.5449 29.8131 25.7817 28.5134 25.1896 27.3259C24.5974 26.1383 21.6472 24.2327 21.1143 23.8192C20.5814 23.4057 19.8996 22.9512 19.3788 22.8831C18.858 22.8149 19.1571 23.183 19.104 23.8328Z" fill="white"/>
<path d="M24.1372 64.4113C23.8962 64.4139 23.6553 64.4008 23.416 64.3719L23.3583 64.3628V64.3052C23.3294 64.0553 20.4916 39.1981 20.1409 36.2201C19.7902 33.2421 19.0431 23.9293 19.0355 23.8369V23.8233C19.0478 23.6444 19.0422 23.4648 19.0188 23.2871C18.9976 23.0992 18.9824 22.9629 19.0705 22.8766C19.1173 22.843 19.1711 22.8204 19.2279 22.8105C19.2846 22.8005 19.3429 22.8034 19.3984 22.819C19.9435 22.8917 20.6632 23.3764 21.1703 23.7703C21.266 23.8445 21.4436 23.9702 21.6684 24.1278C22.6765 24.8397 24.7734 26.3196 25.2669 27.3087C25.7117 28.1964 25.6966 29.1628 25.6829 30.0989C25.6829 30.4337 25.6738 30.7806 25.6829 31.1199C25.7294 31.662 25.8311 32.1979 25.9866 32.7195C26.4265 34.3324 26.6627 35.9938 26.6896 37.6652C26.7442 41.8201 26.8702 49.0698 27.1208 50.942C27.4715 53.5671 29.292 61.6059 29.3102 61.6877V61.715L28.6376 62.995L28.6239 63.0056C26.9507 64.2204 25.1211 64.4113 24.1372 64.4113ZM23.4965 64.2295C23.8988 64.2734 26.3419 64.4688 28.5207 62.8874L29.1508 61.6877C29.0324 61.1682 27.306 53.508 26.9644 50.9557C26.7123 49.0758 26.5863 41.8186 26.5317 37.6606C26.5048 36.002 26.2701 34.3533 25.8332 32.7528C25.6764 32.2208 25.5746 31.6741 25.5295 31.1214C25.5144 30.776 25.5189 30.4276 25.5295 30.0914C25.5447 29.131 25.5569 28.2252 25.1302 27.3648C24.6534 26.415 22.5763 24.9503 21.5788 24.2459C21.3525 24.0944 21.1734 23.9596 21.0762 23.8839C20.5827 23.5022 19.8888 23.0311 19.3772 22.9629C19.242 22.9447 19.1934 22.9629 19.1752 22.9796C19.157 22.9962 19.154 23.131 19.1676 23.2659C19.1933 23.451 19.1994 23.6384 19.1858 23.8248C19.2086 24.1156 19.945 33.2527 20.2897 36.1974C20.6283 39.1102 23.3401 62.8662 23.4965 64.2295Z" fill="#263238"/>
<path d="M21.3405 50.6507C21.3405 50.6507 21.9842 51.1324 20.4811 52.685C18.9779 54.2376 15.8167 55.763 15.0575 59.562C14.2983 63.361 14.3059 64.8334 14.3059 64.8334L14.6551 64.7001C14.6551 64.7001 14.7629 61.9735 15.4872 59.7226C16.2114 57.4716 16.131 57.2611 17.499 55.816C18.867 54.3709 20.7437 53.3545 21.2539 52.4972C21.7641 51.6398 21.8704 50.9461 21.843 50.5977L21.3405 50.6507Z" fill="white"/>
<path d="M14.2361 64.9417V64.8251C14.2361 64.8099 14.2452 63.3027 14.9953 59.5386C15.5677 56.6439 17.5233 55.0609 19.0948 53.7825C19.562 53.4198 20.0081 53.0309 20.431 52.6176C21.2676 51.7542 21.4225 51.2407 21.4042 50.962C21.4052 50.913 21.3963 50.8642 21.378 50.8187C21.3598 50.7732 21.3325 50.7318 21.298 50.6969L21.1537 50.5818L21.9235 50.5V50.5773C21.9554 50.9787 21.8127 51.6997 21.3162 52.5222C21.0429 52.9766 20.4052 53.4765 19.646 54.0506C18.8995 54.5959 18.1969 55.1986 17.5446 55.8532C16.377 57.0862 16.2798 57.3997 15.8106 58.9069C15.7347 59.1478 15.6497 59.4204 15.5495 59.7309C14.8374 61.9425 14.7235 64.6615 14.722 64.6888V64.7387L14.2361 64.9417ZM21.4817 50.7106C21.5218 50.7849 21.5452 50.8671 21.55 50.9514C21.5758 51.2544 21.4194 51.8224 20.5357 52.7358C20.1091 53.1535 19.6584 53.546 19.1859 53.9112C17.6326 55.1685 15.6937 56.7332 15.138 59.5749C14.5094 62.7559 14.4077 64.3116 14.391 64.7251L14.5883 64.6494C14.6066 64.2661 14.7554 61.7713 15.4204 59.7022C15.5206 59.3992 15.6056 59.119 15.68 58.8781C16.1477 57.38 16.2585 57.0241 17.4489 55.7668C18.1092 55.1069 18.8199 54.4992 19.5746 53.9491C20.308 53.3856 20.9411 52.8979 21.2008 52.4646C21.6411 51.7239 21.7899 51.0771 21.7838 50.6863L21.4817 50.7106Z" fill="#263238"/>
<path d="M22.2121 46.4466C22.2121 46.3981 22.1407 41.5781 22.4353 38.0518C22.6085 35.9567 22.9548 33.8795 23.4708 31.8413L21.0718 28.1619L22.4717 28.4936C22.3867 28.0756 22.0876 26.6411 21.8385 26.0837C21.793 25.9791 21.7414 25.8549 21.6867 25.7186L21.8279 25.6641C21.8795 25.7974 21.9296 25.9201 21.9798 26.0215C22.2834 26.6896 22.6296 28.5027 22.6448 28.58L22.6676 28.6951L21.4073 28.3921L23.6348 31.8064L23.6256 31.8397C23.1058 33.8809 22.7584 35.9618 22.5871 38.0609C22.2925 41.5781 22.3639 46.392 22.3639 46.4405L22.2121 46.4466Z" fill="#263238"/>
<path d="M21.2832 24.5523C21.1496 24.157 21.054 23.8556 21.054 23.8556L21.1982 23.8086C21.1982 23.8086 21.2939 24.1115 21.4275 24.5039L21.2832 24.5523Z" fill="#263238"/>
<path d="M25.7576 39.6775L22.8408 39.9865V35.2817L25.7576 34.9727V39.6775Z" fill="#CDEDC2"/>
<path d="M22.7644 40.0726V35.2148L25.8376 34.8906V39.7469L22.7644 40.0726ZM22.9162 35.3511V39.9045L25.6857 39.6106V35.0588L22.9162 35.3511Z" fill="#263238"/>
<path d="M25.4166 39.1607L23.1846 39.397V35.7964L25.4166 35.5586V39.1607Z" fill="white"/>
<path d="M24.5573 35.4412L23.9621 35.4684L23.915 34.3945L24.5102 34.3672L24.5573 35.4412Z" fill="#263238"/>
<path d="M23.8893 35.5439L23.8362 34.3185L24.5832 34.2852L24.6364 35.5091L23.8893 35.5439ZM23.9941 34.4639L24.0336 35.3864L24.4769 35.3652L24.4374 34.4427L23.9941 34.4639Z" fill="#263238"/>
<path d="M25.3898 12.4055C25.7897 13.3711 25.883 14.4359 25.6571 15.4562C25.282 17.1679 24.6929 17.9707 24.7461 18.5054C24.7992 19.0401 25.282 19.4688 25.068 19.8429C24.8539 20.2171 24.0491 20.4852 24.0491 20.4852C24.0491 20.4852 23.29 22.1438 22.4928 23.1072C21.6957 24.0706 19.3817 22.8936 19.3817 22.8936C19.3817 22.8936 18.5785 27.7621 18.0942 28.7739L17.6113 29.7903C17.6113 29.7903 14.0705 24.6538 13.4814 23.7434C13.1398 23.2336 12.8858 22.6704 12.7298 22.0772C12.7298 22.0772 13.8033 20.5261 14.0174 20.0974C14.2315 19.6687 14.4501 18.3448 14.4501 18.3448C14.4501 18.3448 13.161 15.2926 12.7313 13.5824C12.3016 11.8723 12.8391 9.83794 16.4862 8.60644C20.1333 7.37494 24.2101 9.46228 25.3898 12.4055Z" fill="white"/>
<path d="M17.626 29.9471L17.5516 29.838C17.5152 29.7865 14.0032 24.6878 13.4202 23.7896C13.0753 23.2739 12.8188 22.7047 12.661 22.1051V22.0733L12.6792 22.0476C12.6899 22.0309 13.7512 20.495 13.9607 20.0784C14.1536 19.6937 14.3509 18.5273 14.3798 18.3546C14.2674 18.0865 13.0755 15.2281 12.6686 13.6013C12.2693 12.0108 12.6048 9.84014 16.4721 8.53593C20.2209 7.26354 24.3205 9.51447 25.4608 12.3743C25.8697 13.3536 25.9646 14.4352 25.7325 15.4705C25.5766 16.1592 25.3643 16.834 25.0979 17.4882C24.9233 17.9335 24.7942 18.2546 24.823 18.497C24.8558 18.7045 24.9241 18.9049 25.025 19.0893C25.1556 19.3665 25.2801 19.627 25.1343 19.88C24.9308 20.2359 24.2613 20.4859 24.1049 20.5449C23.9986 20.7752 23.2956 22.2657 22.5531 23.1549C21.8106 24.044 19.8914 23.22 19.442 23.0034C19.3205 23.7244 18.6145 27.8643 18.1651 28.8095L17.626 29.9471ZM12.8144 22.1082C12.9735 22.6773 13.2209 23.2181 13.5477 23.7108C14.0822 24.5363 17.087 28.9004 17.6017 29.6471L18.0269 28.7489C18.5006 27.7537 19.3008 22.9322 19.3084 22.8837L19.3251 22.7807L19.4177 22.8277C19.4405 22.8398 21.68 23.9668 22.4362 23.061C23.2242 22.1173 23.9728 20.4738 23.9804 20.4571L23.994 20.4268L24.0259 20.4162C24.0335 20.4162 24.8048 20.1526 25.0022 19.8103C25.1085 19.6255 25.0022 19.4089 24.8868 19.1589C24.7792 18.9585 24.7063 18.7413 24.6712 18.5167C24.6439 18.238 24.7745 17.9032 24.9567 17.4367C25.2203 16.7904 25.4306 16.1237 25.5853 15.4432C25.8035 14.4395 25.7119 13.3933 25.3226 12.4425C24.202 9.64474 20.1966 7.44379 16.5161 8.6859C12.7597 9.95375 12.4272 12.0441 12.8113 13.5725C13.2365 15.2509 14.5058 18.2849 14.5195 18.3213L14.5271 18.341V18.3622C14.518 18.4182 14.3084 19.7164 14.0913 20.1496C13.8863 20.5449 12.9647 21.887 12.8144 22.1082Z" fill="#263238"/>
<path d="M19.3815 22.8954L18.2336 22.3516L18.8197 25.7386L19.3815 22.8954Z" fill="#263238"/>
<path d="M18.8145 26.1532L18.1343 22.2148L19.4689 22.845L18.8145 26.1532ZM18.3347 22.4814L18.8251 25.3201L19.2973 22.9359L18.3347 22.4814Z" fill="#263238"/>
<path d="M24.4259 17.812C24.3135 18.1256 24.1328 18.3483 24.0205 18.3089C23.9081 18.2695 23.9096 17.9817 24.0205 17.6681C24.1313 17.3546 24.3135 17.1319 24.4259 17.1728C24.5382 17.2137 24.5382 17.4985 24.4259 17.812Z" fill="#263238"/>
<path d="M23.2573 21.2562C23.0753 21.2145 22.9096 21.1206 22.7807 20.986C22.6517 20.8514 22.565 20.682 22.5315 20.4988L22.6833 20.4609C22.7115 20.6154 22.7838 20.7585 22.8915 20.873C22.9993 20.9875 23.1379 21.0685 23.2907 21.1062L23.2573 21.2562Z" fill="#263238"/>
<path d="M23.9692 16.8494L23.8933 16.7191C23.9267 16.6995 24.6996 16.2647 24.9698 16.6646L24.8438 16.7479C24.6844 16.5056 24.159 16.7403 23.9692 16.8494Z" fill="#263238"/>
<path d="M25.1767 11.389C25.1767 11.389 25.122 14.5458 23.0312 15.4562C20.9405 16.3665 21.0468 16.0499 21.0468 16.0499C21.0468 16.0499 20.403 16.8528 19.9201 16.8528C19.4373 16.8528 18.5248 16.4256 18.0419 16.6392C17.5591 16.8528 17.0231 17.0133 16.6481 17.7631C16.4837 18.0825 16.2391 18.3539 15.938 18.5506C15.637 18.7474 15.29 18.8628 14.9308 18.8856C14.3948 18.8856 14.1276 17.8692 13.376 16.4786C12.6244 15.0881 11.718 13.5294 12.2494 11.7632C12.7808 9.99697 14.7167 8.33831 17.3982 8.12775C20.0796 7.9172 22.1719 8.39587 23.2453 9.19869C24.3188 10.0015 25.658 9.78339 25.1767 11.389Z" fill="#263238"/>
<path d="M14.9298 18.9565C14.5002 18.9565 14.242 18.4172 13.8518 17.5932C13.7 17.2705 13.5238 16.904 13.3082 16.5056L13.2065 16.3162C12.4762 14.9787 11.6548 13.4594 12.1725 11.7432C12.6645 10.1254 14.5062 8.28045 17.3881 8.0502C19.9055 7.85025 22.1102 8.25469 23.2869 9.13628C23.5898 9.34858 23.9177 9.52306 24.2632 9.65585C24.9783 9.9588 25.5978 10.2269 25.2471 11.4024C25.2471 11.6084 25.1074 14.6349 23.0576 15.5271C21.5104 16.1981 21.1536 16.2072 21.0443 16.1617C20.8712 16.3617 20.3473 16.9191 19.9161 16.9191C19.6794 16.903 19.4452 16.8608 19.2177 16.7934C18.8108 16.6904 18.3477 16.5753 18.0698 16.6995L17.918 16.7646C17.4852 16.9494 17.0373 17.1403 16.7139 17.7871C16.5436 18.1195 16.2896 18.4021 15.9769 18.6071C15.6641 18.8121 15.3033 18.9325 14.9298 18.9565ZM18.6392 8.15169C18.2399 8.15169 17.8269 8.16835 17.4032 8.20168C14.5913 8.42586 12.7981 10.2178 12.3243 11.7871C11.8218 13.4427 12.628 14.9333 13.3432 16.2481L13.4449 16.4374C13.662 16.8388 13.8382 17.2084 13.993 17.5341C14.3574 18.2915 14.6004 18.805 14.9329 18.805C15.2777 18.7811 15.6103 18.6683 15.8983 18.4776C16.1862 18.287 16.4197 18.025 16.5757 17.7174C16.925 17.0221 17.4199 16.8085 17.8557 16.6237L18.0076 16.5586C18.3325 16.4071 18.8229 16.5359 19.2556 16.6449C19.4709 16.7085 19.6923 16.7491 19.9161 16.7661C20.2805 16.7661 20.8104 16.2072 20.979 15.9921L21.2447 15.6604L21.1308 16.0254C21.2249 16.0254 21.6045 15.9936 22.9984 15.3877C25.0193 14.5076 25.0968 11.4205 25.0983 11.3887V11.369C25.4141 10.3087 24.9313 10.1072 24.2009 9.79521C23.845 9.65677 23.507 9.47624 23.1943 9.25747C22.2468 8.54401 20.5918 8.15169 18.6392 8.15169Z" fill="#263238"/>
<path d="M18.2405 15.9806L18.2095 16.1289L23.474 17.2252L23.5051 17.0769L18.2405 15.9806Z" fill="#263238"/>
<path d="M24.0597 19.3726C24.0084 19.3718 23.9574 19.3647 23.9079 19.3514C23.6422 19.2757 23.4524 19.0121 23.3689 18.6107C23.3044 18.167 23.3349 17.7147 23.4584 17.2836C23.5819 16.8525 23.7957 16.4525 24.0855 16.1098C24.3664 15.8069 24.6686 15.6887 24.9343 15.7644C25.2 15.8402 25.3898 16.1038 25.4733 16.5067C25.5372 16.95 25.5065 17.4018 25.3833 17.8325C25.26 18.2633 25.047 18.6631 24.7581 19.006C24.6729 19.1114 24.567 19.1982 24.4469 19.2613C24.3268 19.3243 24.195 19.3622 24.0597 19.3726ZM24.7748 15.9008C24.6614 15.9127 24.5516 15.9471 24.4517 16.002C24.3518 16.0568 24.264 16.1311 24.1933 16.2204C23.9208 16.5456 23.7197 16.9242 23.6031 17.3317C23.4864 17.7393 23.4568 18.1667 23.5161 18.5864C23.586 18.9303 23.7393 19.1514 23.9489 19.212C24.1584 19.2726 24.4044 19.1636 24.6458 18.9091C24.9263 18.5897 25.1285 18.2096 25.2364 17.7988C25.3628 17.3926 25.3924 16.9626 25.323 16.543C25.2531 16.1992 25.0998 15.978 24.8918 15.919C24.854 15.9069 24.8145 15.9007 24.7748 15.9008Z" fill="#263238"/>
<path d="M19.1683 16.899C19.1683 16.899 17.8276 14.7056 17.0228 15.5614C16.2181 16.4173 16.5947 17.7563 16.9697 18.5046C17.3447 19.2529 18.3104 18.9863 18.7401 18.6652" fill="white"/>
<path d="M17.7907 19.0639C17.7008 19.0645 17.611 19.0543 17.5235 19.0336C17.3897 19.0038 17.2646 18.9438 17.1577 18.8582C17.0508 18.7726 16.9651 18.6636 16.907 18.5398C16.4394 17.6067 16.2116 16.3206 16.9738 15.5102C17.0411 15.4328 17.1259 15.3726 17.2213 15.3347C17.3167 15.2967 17.4198 15.2821 17.522 15.2921C18.3161 15.3739 19.1922 16.8069 19.2332 16.8599L19.1026 16.9387C19.1026 16.925 18.225 15.5163 17.5068 15.4421C17.4268 15.4334 17.3459 15.4445 17.2713 15.4743C17.1966 15.5042 17.1304 15.5519 17.0786 15.6133C16.3695 16.3706 16.5927 17.5824 17.0376 18.4716C17.0857 18.5756 17.1571 18.6671 17.2464 18.7391C17.3357 18.8111 17.4404 18.8616 17.5523 18.8866C17.7519 18.9173 17.9555 18.9082 18.1515 18.8598C18.3475 18.8115 18.5319 18.7248 18.6941 18.6049L18.7837 18.7261C18.4944 18.936 18.1483 19.0538 17.7907 19.0639Z" fill="#263238"/>
<path d="M12.8164 21.4336C12.8164 21.4336 16.1659 35.3557 16.3207 37.0629C17.0966 45.5289 13.1823 65.4783 13.1823 65.4783C13.1823 65.4783 12.0876 69.612 9.08273 69.1546C4.74327 68.4957 2.67983 66.4023 2.38375 66.0478L2.08008 65.6934C2.08008 65.6934 4.61877 48.8401 4.73265 47.5996C4.84652 46.359 4.67343 39.1805 4.73265 37.999C4.79186 36.8175 3.19759 30.6767 4.08583 28.6681C4.97406 26.6595 10.8501 22.347 12.8164 21.4336Z" fill="white"/>
<path d="M9.53104 69.2655C9.37547 69.2651 9.22015 69.2529 9.06642 69.2291C4.38989 68.5202 2.40236 66.1996 2.32037 66.0966L2 65.7164V65.6831C2.02581 65.5149 4.53717 48.8177 4.65408 47.5923C4.72241 46.8834 4.69204 44.2068 4.66623 41.8362C4.64649 40.0412 4.62827 38.4931 4.65408 37.9887C4.6723 37.6252 4.52958 36.7769 4.35041 35.7014C3.94805 33.3081 3.39689 30.0272 4.01486 28.6305C4.92587 26.5614 10.8763 22.2413 12.7788 21.3597L12.8623 21.3203L12.8836 21.4112C13.0202 21.9792 16.2361 35.3576 16.391 37.0496C17.1653 45.4368 13.2966 65.2923 13.2586 65.4922C13.2465 65.5361 12.2246 69.2655 9.53104 69.2655ZM2.16247 65.6709L2.43729 65.9997C2.45703 66.0239 4.46885 68.3778 9.0892 69.0792C11.9984 69.52 13.0992 65.4998 13.1098 65.4589C13.1478 65.2635 17.012 45.4292 16.2467 37.0693C16.0949 35.4606 13.0582 22.7518 12.7651 21.543C10.7913 22.5033 5.05037 26.6932 4.16062 28.6987C3.56087 30.0544 4.13025 33.4429 4.5068 35.6848C4.68901 36.7678 4.83173 37.6237 4.81047 38.0039C4.78466 38.5037 4.80288 40.1245 4.82262 41.8423C4.84843 44.2083 4.8788 46.891 4.81047 47.6074C4.69812 48.8086 2.29001 64.8257 2.16247 65.6709Z" fill="#263238"/>
<path d="M14.8852 45.1082C14.8852 45.1082 14.788 44.475 14.6726 43.7298L14.8244 43.707C14.9398 44.4523 15.037 45.0855 15.037 45.0855L14.8852 45.1082Z" fill="#263238"/>
<path d="M14.4749 42.4741C14.3474 41.6682 14.3064 41.4425 14.2942 41.3956C14.2821 41.3486 14.2669 41.2441 14.2456 41.0926C14.124 40.0901 13.8829 39.1056 13.5274 38.16C12.9414 36.6983 11.0981 31.3073 11.0814 31.2527L11.0662 31.2058L13.2617 29.1912L10.9128 29.6547V29.5592C10.9128 29.5335 10.9964 26.8933 10.9888 25.3906H11.1406C11.1482 26.7342 11.0829 28.9821 11.0677 29.4699L13.7628 28.9276L11.2408 31.2421C11.4245 31.7769 13.1129 36.7089 13.6702 38.0949C14.0296 39.0518 14.2737 40.0479 14.3975 41.0623C14.4172 41.2062 14.4324 41.3092 14.443 41.3532C14.4612 41.4274 14.522 41.7849 14.6267 42.4468L14.4749 42.4741Z" fill="#263238"/>
<path d="M11.1296 23.9136L10.9778 23.9046C10.9926 23.55 11.0528 23.1987 11.1569 22.8594L11.2997 22.9109C11.2009 23.2367 11.1438 23.5736 11.1296 23.9136Z" fill="#263238"/>
<path d="M77.254 71.897C77.2342 68.5478 77.6305 57.066 77.5075 55.4134C77.3633 53.4608 76.6375 52.1581 75.9892 51.5068C75.3408 50.8554 70.7691 50.4222 70.7691 50.4222C70.7691 50.4222 40.2334 45.11 38.8957 45.8143C37.5581 46.5187 21.1082 63.4401 20.8182 63.8021C20.5768 64.105 13.067 70.049 10.6877 71.897" fill="#BBE7AC"/>
<path d="M10.7345 71.9567L10.6418 71.837C13.1228 69.9102 20.5248 64.0466 20.7571 63.7558C20.8756 63.6043 37.4955 46.4678 38.8635 45.7468C40.2057 45.0409 69.5343 50.132 70.7778 50.3486C70.96 50.3653 75.3739 50.7925 76.0389 51.4544C76.4443 51.8604 77.4054 53.0555 77.5831 55.4079C77.6529 56.341 77.5573 60.4066 77.4647 64.345C77.3903 67.479 77.3204 70.4389 77.3295 71.9021H77.1777C77.1686 70.4359 77.2384 67.4745 77.3128 64.3405C77.4054 60.4112 77.5011 56.3501 77.4312 55.4231C77.2566 53.0585 76.2393 51.8725 75.9311 51.5665C75.3055 50.9424 70.8036 50.5062 70.7581 50.5062C60.201 48.6688 39.9719 45.3408 38.9334 45.8892C37.5668 46.6057 20.994 63.7118 20.8771 63.8573C20.6205 64.1693 12.9619 70.2268 10.7345 71.9567Z" fill="#263238"/>
<path d="M71.7596 50.5011C71.7596 50.5011 68.2673 54.7272 67.1923 55.7224C66.1173 56.7176 65.8638 57.0479 65.2823 57.5402C64.7007 58.0325 64.8662 58.2036 64.1192 58.5338C63.3722 58.8641 61.3862 58.8656 61.3862 58.8656C61.3862 58.8656 57.8939 66.1576 57.399 67.0695C56.904 67.9814 56.1539 69.7203 55.3234 69.9688C54.4928 70.2172 50.905 69.2705 50.498 69.0811C50.0911 68.8918 48.2554 67.0741 48.0064 66.9907C47.7574 66.9074 46.7614 67.9844 46.0128 68.151C45.2643 68.3177 42.1926 68.3101 42.1926 68.3101L47.0043 63.3114C47.0043 63.3114 56.9769 58.4642 57.6404 57.3008C58.3039 56.1375 62.7906 51.9143 65.0332 51.004C67.2759 50.0936 71.7596 50.5011 71.7596 50.5011Z" fill="#263238"/>
<path d="M54.9326 70.0904C53.686 70.0904 50.8482 69.333 50.458 69.1543C50.2317 69.0497 49.6274 68.5014 49.0444 67.9697C48.5889 67.5607 48.0848 67.0972 47.9815 67.0609C47.9087 67.0366 47.5837 67.2805 47.3469 67.4577C46.9491 67.7607 46.4541 68.1288 46.0289 68.2242C45.2819 68.3893 42.3181 68.3908 42.192 68.3908H42.0144L46.9703 63.2406C47.069 63.1922 56.9292 58.3934 57.5745 57.2604C58.2729 56.0486 62.746 51.8481 65.0038 50.9302C67.2373 50.0213 71.721 50.4243 71.7666 50.4288L71.9093 50.4409L71.8182 50.5515C71.7833 50.5939 68.3138 54.7928 67.2434 55.7789C66.7044 56.2758 66.3719 56.6075 66.1031 56.8756C65.8344 57.1437 65.6233 57.3543 65.3303 57.6042C65.1744 57.736 65.0334 57.8843 64.9097 58.0465C64.7181 58.3052 64.4539 58.5013 64.1505 58.61C63.4536 58.913 61.7439 58.9463 61.4281 58.9478C61.1381 59.5537 57.9359 66.2459 57.4591 67.1124C57.3741 67.2638 57.2815 67.4486 57.1813 67.6425C56.6787 68.6135 56.0531 69.8253 55.3365 70.0464C55.2045 70.0797 55.0686 70.0945 54.9326 70.0904ZM47.9755 66.9094C47.9939 66.9095 48.0123 66.912 48.0301 66.917C48.1562 66.9594 48.5357 67.3017 49.1461 67.8561C49.6942 68.356 50.3168 68.9164 50.5217 69.0164C50.9484 69.2148 54.4938 70.1388 55.2924 69.8995C55.9499 69.7041 56.583 68.4711 57.0446 67.5698C57.1448 67.3759 57.239 67.1942 57.324 67.0366C57.8159 66.1369 61.2717 58.9099 61.3097 58.8372L61.3294 58.7933H61.378C61.3977 58.7933 63.364 58.7933 64.0882 58.4691C64.3696 58.3711 64.6142 58.1898 64.7897 57.9496C64.9204 57.7801 65.0685 57.6248 65.2316 57.4861C65.5201 57.2392 65.7296 57.0316 65.9908 56.765C66.2519 56.4984 66.5981 56.1591 67.1356 55.6653C68.1013 54.7762 71.0438 51.2407 71.6041 50.5636C70.8191 50.5045 67.0308 50.2607 65.057 51.068C62.8751 51.9542 58.3762 56.1591 57.702 57.3331C57.0279 58.507 47.6004 63.0892 47.0447 63.3679L42.3651 68.2393C43.0317 68.2393 45.3639 68.2151 45.991 68.0757C46.3842 67.9879 46.8655 67.6213 47.2512 67.3365C47.6171 67.0669 47.8312 66.9109 47.9755 66.9109V66.9094Z" fill="#263238"/>
<path d="M51.2509 32.8227C51.2509 32.8227 45.6664 31.9911 45.5374 32.8227C45.4083 33.6543 42.2729 36.5824 39.6401 40.6162C37.0072 44.65 35.9171 46.5722 36.6185 46.8918C37.32 47.2114 55.106 52.9766 55.106 52.9766C55.106 52.9766 60.2411 57.2028 62.4883 57.9071C64.7354 58.6115 65.5052 55.7941 65.6981 55.5381C65.8909 55.2821 72.309 50.2228 74.5562 47.9809C76.8033 45.7391 77.8965 44.138 77.8297 43.4366C77.7629 42.7353 76.4177 42.1567 73.9777 40.2996C71.5377 38.4425 69.1645 36.905 63.0652 34.8555C59.2482 33.6044 55.2676 32.9195 51.2509 32.8227Z" fill="white"/>
<path d="M63.1888 58.0964C62.9453 58.0941 62.7037 58.0548 62.4721 57.9797C60.2675 57.2875 55.4087 53.3173 55.0747 53.0431C54.1637 52.7508 37.2917 47.278 36.5948 46.9614C36.5385 46.937 36.4885 46.9003 36.4485 46.8538C36.4085 46.8074 36.3796 46.7525 36.364 46.6933C36.1605 45.998 37.2872 44.0879 39.5784 40.5752C40.995 38.403 42.5695 36.5383 43.7189 35.1781C44.6998 34.0162 45.4088 33.1756 45.465 32.812C45.5971 31.9501 50.301 32.6045 51.2591 32.7469C51.4731 32.7469 57.1427 32.7802 63.1022 34.7812C69.3533 36.8822 71.6658 38.4303 74.0344 40.2343C74.8756 40.8751 75.5877 41.3628 76.1601 41.7491C77.2624 42.5065 77.8698 42.9215 77.9153 43.4153C77.9851 44.1833 76.7841 45.8632 74.619 48.0217C73.1143 49.5244 69.8073 52.2327 67.6193 54.0247C66.6506 54.829 65.8216 55.5046 65.77 55.5864C65.723 55.6685 65.6824 55.7541 65.6485 55.8424C65.3555 56.4953 64.6585 58.0964 63.1888 58.0964ZM47.0441 32.5272C46.2257 32.5272 45.6472 32.6106 45.6123 32.8302C45.55 33.2361 44.8668 34.042 43.8328 35.2705C42.6849 36.6338 41.1149 38.4893 39.7029 40.6524C37.4876 44.05 36.3215 46.0116 36.5067 46.6463C36.517 46.6848 36.5361 46.7204 36.5624 46.7504C36.5887 46.7803 36.6216 46.8038 36.6586 46.819C37.3524 47.1341 54.9593 52.8417 55.1369 52.8992L55.1628 52.9129C55.2144 52.9553 60.3115 57.139 62.5192 57.8298C64.3594 58.4069 65.1626 56.5619 65.5058 55.7743C65.5437 55.6749 65.5905 55.5791 65.6455 55.488C65.7108 55.3986 66.3014 54.9154 67.5206 53.9156C69.7071 52.1252 73.011 49.4198 74.5051 47.9233C76.605 45.8268 77.8212 44.15 77.7559 43.4365C77.7179 43.0109 77.1303 42.608 76.0659 41.8778C75.492 41.484 74.7784 40.9947 73.9402 40.3525C71.5792 38.5545 69.2789 37.02 63.0491 34.9206C57.0804 32.9135 51.4003 32.8938 51.2575 32.8938H51.2439C49.8535 32.6803 48.4505 32.5579 47.0441 32.5272Z" fill="#263238"/>
<path d="M34.7959 48.591C34.7959 48.591 31.1594 48.641 28.2791 50.4087C24.4285 52.7778 23.7863 57.4523 23.6572 58.6051C23.5282 59.7578 25.6478 61.8073 27.7021 63.0872C29.7565 64.3672 41.4372 68.1571 42.8432 67.9587C44.2492 67.7603 45.2179 67.0635 45.9239 65.9744C46.6299 64.8853 47.6973 63.4765 47.7854 60.9757C47.8735 58.4748 45.4107 53.2913 43.6858 51.3706C41.961 49.4499 35.8587 48.3698 34.7959 48.591Z" fill="white"/>
<path d="M42.7364 68.0439C40.8703 68.0439 29.7438 64.457 27.6606 63.1603C25.5532 61.8455 23.4502 59.7824 23.5823 58.6055C23.7752 56.865 24.6163 52.5797 28.2391 50.3515C31.0405 48.6277 34.5995 48.5232 34.7863 48.5187C35.9478 48.2869 42 49.3957 43.7446 51.3255C45.5423 53.3189 47.958 58.5585 47.8715 60.9851C47.791 63.3012 46.8572 64.7145 46.177 65.7475C46.1147 65.8399 46.0555 65.9308 45.9978 66.0187C45.2386 67.1941 44.2107 67.8546 42.8639 68.0379C42.8216 68.0427 42.779 68.0447 42.7364 68.0439ZM35.1947 48.6383C35.066 48.6354 34.9374 48.6451 34.8106 48.6671H34.7969C34.7605 48.6671 31.1528 48.7383 28.3196 50.4773C24.7545 52.6706 23.9255 56.9014 23.7342 58.6191C23.6112 59.7218 25.7187 61.7668 27.7426 63.0286C29.7347 64.2707 40.9523 67.8909 42.7288 67.8909C42.7662 67.8935 42.8037 67.8935 42.8411 67.8909C44.1424 67.7137 45.1323 67.076 45.8687 65.9399C45.9264 65.8506 45.9872 65.7612 46.0479 65.6673C46.757 64.5933 47.6392 63.2573 47.7181 60.9836C47.8031 58.5858 45.4117 53.4098 43.6307 51.43C42.0987 49.7305 36.9089 48.6383 35.1947 48.6383Z" fill="#263238"/>
<path d="M33.798 51.84C33.423 51.84 33.1284 51.6506 33.1284 51.4083C33.1284 51.1659 33.423 50.9766 33.798 50.9766C34.173 50.9766 34.4676 51.1659 34.4676 51.4083C34.4676 51.6506 34.173 51.84 33.798 51.84ZM33.798 51.128C33.5171 51.128 33.2803 51.2568 33.2803 51.4083C33.2803 51.5597 33.5171 51.6885 33.798 51.6885C34.0789 51.6885 34.3158 51.5597 34.3158 51.4083C34.3158 51.2568 34.0789 51.128 33.798 51.128Z" fill="#263238"/>
<path d="M53.0499 34.0482C53.0499 34.0482 51.4951 33.718 50.9774 34.0937C50.4596 34.4693 50.8346 35.413 50.8346 35.413L53.0499 34.0482Z" fill="#263238"/>
<path d="M50.7984 35.5232L50.765 35.4399C50.7483 35.399 50.3717 34.4387 50.932 34.0327C51.4923 33.6268 53 33.96 53.0653 33.9736L53.2505 34.013L50.7984 35.5232ZM51.8202 33.9888C51.4998 33.9888 51.1947 34.0297 51.0216 34.1554C50.6435 34.4296 50.8029 35.0643 50.8697 35.2975L52.8436 34.0857C52.5056 34.0262 52.1634 33.9938 51.8202 33.9888Z" fill="#263238"/>
<path d="M53.0503 34.0509C53.0503 34.0509 50.794 35.0642 50.2869 35.7944C49.7797 36.5245 50.1745 36.8638 49.4411 37.3697C48.7078 37.8756 48.0883 37.5939 47.9228 38.2695C47.8737 38.4613 47.8794 38.6629 47.9392 38.8517C47.999 39.0404 48.1106 39.2086 48.2614 39.3374C48.2614 39.3374 47.528 41.2505 47.4718 42.2063C47.4157 43.1621 48.3176 43.4999 48.6562 44.0059C48.9947 44.5118 49.3318 44.4603 48.4299 45.5812C47.528 46.7021 46.8508 47.096 46.8508 47.096C46.8508 47.096 50.0652 48.1639 51.4742 48.5017C52.8833 48.8395 53.6166 48.8395 53.6166 48.8395C53.6166 48.8395 54.2361 45.8024 55.1942 44.8466C56.1523 43.8907 58.0138 43.9468 59.1981 41.5838C60.3824 39.2207 59.4228 36.3548 57.3366 35.1173C55.2504 33.8797 54.2892 33.3768 53.0503 34.0509Z" fill="white"/>
<path d="M53.6753 48.9227H53.613C53.5827 48.9227 52.8539 48.9228 51.4524 48.5834C50.051 48.2441 46.8563 47.1853 46.8245 47.1747L46.665 47.1232L46.8093 47.0384C46.8169 47.0384 47.4865 46.6355 48.3671 45.5373C49.0747 44.6557 48.9896 44.5542 48.7634 44.28C48.701 44.2076 48.6427 44.1317 48.5888 44.0528C48.4661 43.891 48.3238 43.745 48.1652 43.6181C47.7841 43.2818 47.3513 42.9001 47.3923 42.2063C47.444 41.3232 48.0498 39.6767 48.1682 39.3646C48.0187 39.2264 47.9096 39.0502 47.8526 38.8549C47.7956 38.6596 47.7929 38.4525 47.8448 38.2558C47.9556 37.8165 48.2517 37.7378 48.5949 37.6499C48.8812 37.5886 49.1536 37.4745 49.3981 37.3136C49.5343 37.2345 49.6504 37.1249 49.737 36.9935C49.8237 36.8621 49.8787 36.7124 49.8976 36.5563C49.9459 36.2707 50.0574 35.9996 50.2241 35.7625C50.7342 35.0279 52.8903 34.0508 53.0148 33.9933C54.2933 33.2995 55.2756 33.8206 57.3725 35.0657C59.5741 36.3715 60.4213 39.3177 59.2613 41.6322C58.4748 43.203 57.4104 43.7105 56.4721 44.1588C56.006 44.383 55.5611 44.5936 55.2453 44.9162C54.313 45.8463 53.6935 48.841 53.6874 48.8712L53.6753 48.9227ZM47.0203 47.0808C47.6687 47.2944 50.2711 48.1411 51.4889 48.4365C52.165 48.6101 52.8557 48.7217 53.5523 48.7698C53.648 48.3153 54.2386 45.6963 55.1375 44.7996C55.4776 44.4618 55.9285 44.2452 56.4068 44.0164C57.3178 43.5787 58.3624 43.0818 59.1262 41.558C60.2513 39.3131 59.4298 36.4563 57.295 35.196C55.2483 33.9842 54.2917 33.4722 53.0862 34.1281C53.0634 34.1387 50.8451 35.14 50.3531 35.8458C50.1982 36.0667 50.0945 36.3192 50.0494 36.585C50.0278 36.7609 49.9659 36.9294 49.8685 37.0776C49.7711 37.2257 49.6407 37.3495 49.4877 37.4394C49.2285 37.6104 48.9396 37.7317 48.6359 37.7968C48.3033 37.8847 48.0847 37.9483 47.9951 38.2952C47.9481 38.4721 47.9516 38.6587 48.0053 38.8337C48.0589 39.0088 48.1606 39.1654 48.2988 39.2859L48.3428 39.3207L48.3231 39.3722C48.3231 39.3919 47.5943 41.2853 47.5396 42.2184C47.5032 42.838 47.8888 43.1788 48.2608 43.5075C48.4321 43.6417 48.5852 43.7975 48.7163 43.971C48.7674 44.0462 48.8226 44.1186 48.8818 44.1876C49.1718 44.536 49.2326 44.7057 48.4871 45.6357C48.0663 46.1804 47.5728 46.6651 47.0203 47.0763V47.0808Z" fill="#263238"/>
<path d="M49.2631 40.2108C48.9836 40.2139 48.7048 40.1803 48.4341 40.1108L48.4781 39.9594C49.1939 40.1263 49.9442 40.0654 50.6235 39.7852L50.6812 39.9245C50.2321 40.1123 49.7501 40.2096 49.2631 40.2108Z" fill="#263238"/>
<path d="M51.8191 37.1894C51.6673 37.4151 51.4593 37.5423 51.3636 37.4772C51.268 37.412 51.315 37.1742 51.4714 36.9485C51.6278 36.7228 51.8298 36.5956 51.9269 36.6622C52.0241 36.7289 51.974 36.9652 51.8191 37.1894Z" fill="#263238"/>
<path d="M52.6166 36.2739C52.5306 36.1716 52.4249 36.0875 52.3057 36.0269C52.1865 35.9662 52.0562 35.9302 51.9227 35.921C51.6971 35.9292 51.4818 36.0173 51.3153 36.1694L51.2075 36.0619C51.4006 35.881 51.6534 35.777 51.9181 35.7695H51.9287C52.0829 35.7782 52.2336 35.8181 52.3717 35.8868C52.5098 35.9556 52.6324 36.0518 52.7319 36.1694L52.6166 36.2739Z" fill="#263238"/>
<path d="M53.0068 33.2463C53.0068 33.2463 52.6287 34.6581 53.6673 36.1244C54.7058 37.5907 55.0338 38.1481 55.0824 37.677C55.1083 37.2851 55.1083 36.8919 55.0824 36.5C55.0824 36.5 55.5546 38.6661 55.79 39.2266C56.0253 39.7871 57.0168 41.2049 57.1109 41.3473C57.2051 41.4897 56.8756 42.4758 55.9782 43.3165C55.0809 44.1571 54.2336 45.481 53.6673 46.8458C53.1009 48.2106 54.0438 48.7287 54.5631 48.9665C55.0824 49.2043 58.479 49.7239 59.2336 51.1781C59.9882 52.6322 60.9326 53.532 60.5561 54.3787C60.1795 55.2255 60.8385 55.4618 62.1124 54.5196C63.3863 53.5774 65.3677 52.6368 64.519 50.3783C63.6702 48.1198 61.3107 48.6363 60.4194 48.0243C59.5281 47.4124 60.4194 47.6487 61.2697 46.8943C62.12 46.14 61.2697 44.0708 60.8446 43.3649C60.4194 42.659 62.9201 41.4821 62.8184 38.9873C62.7167 36.4925 60.6927 35.1277 57.2005 33.7159C53.7083 32.3042 53.1951 32.2572 53.0068 33.2463Z" fill="#263238"/>
<path d="M60.8048 55.2051C60.6992 55.2103 60.5951 55.1787 60.5103 55.1157C60.4101 55.0354 60.2734 54.8279 60.486 54.3583C60.735 53.7979 60.3645 53.2071 59.8498 52.3891C59.6357 52.0468 59.3943 51.6575 59.1665 51.2228C58.5941 50.1155 56.4183 49.5565 55.2492 49.2536C55.0061 49.1991 54.7667 49.1293 54.5325 49.0445C54.1453 48.8704 52.9716 48.3372 53.5972 46.8285C54.1757 45.4334 55.0457 44.1019 55.9264 43.2733C56.807 42.4447 57.1016 41.5147 57.0469 41.3905C57.0363 41.3768 57.0135 41.3435 56.9816 41.295C56.722 40.9179 55.9309 39.7682 55.7199 39.2622C55.5025 38.6094 55.322 37.9449 55.1793 37.2718C55.1793 37.4142 55.1702 37.5581 55.1581 37.6869C55.149 37.7793 55.1262 37.8883 55.0321 37.9126C54.8802 37.955 54.6904 37.7111 54.0269 36.7674C53.9009 36.5887 53.7612 36.3887 53.6048 36.1706C52.5708 34.7164 52.9079 33.3289 52.9322 33.238C52.9792 32.9881 53.0612 32.717 53.2996 32.5882C53.7688 32.3337 54.7375 32.6458 57.2337 33.6561C60.6576 35.0406 62.7984 36.416 62.8956 38.9941C62.9533 40.5089 62.0863 41.5313 61.4532 42.2781C61.0508 42.7522 60.7593 43.0961 60.9035 43.3384C61.394 44.1534 62.1774 46.1983 61.3135 46.9648C61.0424 47.1964 60.7345 47.3812 60.4025 47.5116C60.2795 47.5646 60.1246 47.6313 60.1216 47.6631C60.1185 47.6949 60.1489 47.7555 60.4617 47.966C60.7304 48.1493 61.1419 48.2281 61.6202 48.3175C62.683 48.5174 63.9964 48.7719 64.5931 50.3548C65.3523 52.377 63.8734 53.3965 62.6846 54.2159C62.4993 54.3432 62.3262 54.4628 62.1622 54.584C61.608 54.99 61.1313 55.2051 60.8048 55.2051ZM55.1566 36.4796C55.1566 36.5008 55.6288 38.6442 55.8596 39.1956C55.9962 39.5228 56.4153 40.1968 57.1061 41.2026L57.1745 41.3011C57.3096 41.5041 56.9103 42.5432 56.0311 43.3748C55.152 44.2064 54.3078 45.503 53.7369 46.8784C53.2267 48.1099 53.9814 48.6219 54.5948 48.8991C54.8214 48.9795 55.0526 49.0463 55.2871 49.0991C56.479 49.402 58.6974 49.9792 59.3017 51.1455C59.5234 51.5742 59.7663 51.9605 59.9789 52.3013C60.4966 53.1268 60.9066 53.7782 60.6242 54.4113C60.4996 54.6931 60.4921 54.9067 60.6059 54.9976C60.7684 55.1278 61.2497 55.0657 62.0666 54.4613C62.2336 54.3386 62.4082 54.2175 62.5935 54.0902C63.799 53.2586 65.1656 52.3179 64.4474 50.4063C63.8795 48.8916 62.6086 48.6583 61.5868 48.4644C61.0933 48.372 60.6667 48.2902 60.3721 48.0887C60.0775 47.8873 59.9561 47.7615 59.9667 47.6449C59.9773 47.5283 60.1185 47.4556 60.3402 47.3616C60.6585 47.238 60.9536 47.0618 61.2133 46.8406C62.0226 46.1226 61.1753 44.0716 60.7745 43.4066C60.5741 43.0734 60.8944 42.6962 61.3378 42.1721C61.9558 41.445 62.8 40.4483 62.7453 38.9911C62.6512 36.4948 60.5452 35.1481 57.179 33.7864C54.8863 32.8593 53.7931 32.4837 53.374 32.7124C53.2222 32.7927 53.1417 32.9502 53.0825 33.2608C52.9932 33.7483 53.0048 34.249 53.1165 34.7319C53.2283 35.2149 53.4378 35.6699 53.7323 36.0691L54.1544 36.6659C54.5583 37.2415 54.8817 37.7005 54.9911 37.749C55.0021 37.7199 55.0082 37.6892 55.0093 37.6581C55.035 37.2707 55.035 36.8821 55.0093 36.4948L55.1566 36.4796Z" fill="#263238"/>
<path d="M56.1654 40.6004C56.1654 40.6004 57.3695 40.0353 57.7233 40.7776C58.0771 41.5198 57.7233 42.2605 56.6604 42.8271C55.5976 43.3936 54.9614 42.8271 55.0677 42.4726" fill="white"/>
<path d="M55.8168 43.144C55.5916 43.1517 55.3707 43.0816 55.1913 42.9456C55.1128 42.8929 55.0519 42.818 55.0162 42.7306C54.9805 42.6432 54.9717 42.5472 54.9908 42.4548L55.1427 42.4987C55.1334 42.5625 55.1429 42.6276 55.1698 42.6862C55.1967 42.7448 55.24 42.7943 55.2945 42.829C55.5268 43.0183 56.0006 43.1001 56.6337 42.7623C57.6419 42.2261 58.0078 41.5338 57.6632 40.8128C57.3458 40.1478 56.2177 40.6613 56.2055 40.6719L56.1418 40.5356C56.1934 40.5114 57.4187 39.9479 57.7998 40.7477C58.1809 41.5475 57.7801 42.3245 56.7051 42.8971C56.4339 43.0513 56.1288 43.1361 55.8168 43.144Z" fill="#263238"/>
<path d="M60.8385 50.8056C59.9108 49.8347 58.6171 49.0016 56.6919 49.2424C57.24 49.1682 54.7848 49.1212 51.4718 48.5047C49.6027 48.1578 47.2978 47.1414 45.4575 46.1932C43.6173 45.245 41.4005 44.8299 38.8998 45.8175C36.399 46.8052 35.9739 47.9821 35.8327 48.1699C35.6915 48.3578 34.7957 48.5941 34.7957 48.5941C34.7957 48.5941 39.7485 48.8289 42.6273 51.4646C44.9155 53.561 45.8614 56.0437 46.3898 57.8493L46.4597 58.2719C46.4597 58.2719 47.0048 62.7647 47.0048 63.3085C46.9923 63.7523 46.889 64.1889 46.7011 64.5915C46.6024 64.7899 46.5037 65.0368 46.5037 65.0368C46.8177 65.0098 47.134 65.0261 47.4436 65.0853C48.0691 65.1837 48.5823 64.6414 49.2261 63.8023L49.3187 63.6781C50.4211 62.9813 51.6646 62.1421 51.868 62.0557C52.199 61.9149 56.162 67.5634 56.4444 67.2802C56.7268 66.9969 60.4073 60.1729 61.3031 57.6311C62.1989 55.0894 61.7814 51.8008 60.8385 50.8056Z" fill="#CDEDC2"/>
<path d="M56.4221 67.3643H56.4145C56.1731 67.3491 55.4625 66.4766 54.011 64.6271C53.1607 63.5441 52.1054 62.2035 51.8853 62.1278C51.7486 62.1929 51.243 62.5231 50.6599 62.9018C50.2561 63.1639 49.8036 63.4592 49.3709 63.7319C49.342 63.7698 49.3147 63.8076 49.2843 63.8455C48.6846 64.6286 48.1319 65.2694 47.4304 65.1588C47.1302 65.1025 46.8239 65.0857 46.5194 65.1088L46.3888 65.1285L46.4374 65.0058C46.4374 64.9952 46.5391 64.7544 46.6378 64.5514C46.8173 64.1616 46.916 63.7396 46.9278 63.3108C46.9278 62.7776 46.3888 58.3272 46.3827 58.2833L46.3144 57.8637C45.8134 56.1581 44.8796 53.6345 42.5747 51.5229C39.7506 48.9372 34.8402 48.6737 34.7901 48.6722L34.2966 48.6479L34.7749 48.5237C35.112 48.4343 35.6859 48.2495 35.771 48.1268C35.7861 48.1072 35.8044 48.0738 35.8302 48.0314C36.0291 47.686 36.6349 46.6333 38.8669 45.7487C41.0685 44.8792 43.2959 45.0064 45.4884 46.1289C47.1586 46.9817 49.5485 48.0738 51.4814 48.4328C53.4735 48.8024 55.1558 48.9675 56.0592 49.0569C56.5694 49.1069 56.7455 49.1236 56.8078 49.1554C58.3717 48.9948 59.7093 49.5204 60.8891 50.7565C61.8563 51.7683 62.289 55.0735 61.378 57.6592C60.5004 60.148 56.7941 67.0432 56.4995 67.3355C56.4785 67.3548 56.4507 67.3652 56.4221 67.3643ZM51.8807 61.9763C52.0918 61.9763 52.5974 62.5822 54.1309 64.5347C54.9903 65.6299 56.1609 67.1204 56.4084 67.2083C56.785 66.7538 60.3744 60.048 61.2368 57.6047C62.1053 55.1371 61.7121 51.8319 60.7813 50.8564C59.6046 49.6234 58.2684 49.1205 56.6984 49.3144V49.2735C56.6013 49.2569 56.3432 49.2311 56.0501 49.2023C55.1391 49.1145 53.4583 48.9494 51.4601 48.5767C49.509 48.2147 47.1009 47.1165 45.4247 46.2591C43.2731 45.1579 41.0882 45.0322 38.9291 45.885C36.7427 46.7499 36.1566 47.7678 35.9638 48.1026C35.9434 48.1409 35.9205 48.1778 35.8955 48.2132C35.8044 48.3344 35.4825 48.4601 35.2092 48.5495C36.4603 48.6737 40.2972 49.2235 42.6795 51.4078C45.0132 53.5436 45.9576 56.093 46.4647 57.8258L46.5361 58.256C46.5589 58.4439 47.0827 62.764 47.0827 63.3062C47.0728 63.7616 46.9695 64.2101 46.779 64.6241C46.7244 64.7332 46.6682 64.8604 46.6272 64.9482C46.9069 64.9415 47.1865 64.9618 47.4623 65.0088C48.0241 65.0967 48.4963 64.6362 49.172 63.7531L49.2646 63.6304L49.2858 63.6122C49.7201 63.3365 50.1771 63.0396 50.584 62.7746C51.2415 62.3474 51.7152 62.0384 51.8443 61.9839C51.8559 61.9792 51.8682 61.9767 51.8807 61.9763Z" fill="#263238"/>
<path d="M57.2676 64.7514C57.2175 64.4714 57.1286 64.1996 57.0034 63.944L57.1401 63.8789C57.2715 64.1468 57.3645 64.4319 57.4164 64.7257L57.2676 64.7514Z" fill="#263238"/>
<path d="M56.6868 63.4052C55.8517 62.2237 54.4578 61.5057 54.4426 61.4996L54.5125 61.3633C54.5261 61.3709 55.9534 62.1055 56.8113 63.3173L56.6868 63.4052Z" fill="#263238"/>
<path d="M56.8657 61.4486C56.6746 61.3377 56.478 61.2366 56.2766 61.1457L56.3389 61.0078C56.5454 61.1002 56.7488 61.2047 56.9462 61.3108L56.8657 61.4486Z" fill="#263238"/>
<path d="M55.3475 60.8094C54.8533 60.6661 54.3433 60.5842 53.8291 60.5655V60.4141C54.3558 60.4311 54.8782 60.5146 55.3839 60.6625L55.3475 60.8094Z" fill="#263238"/>
<path d="M55.0091 54.4514C54.6386 53.1336 53.3298 52.7185 53.3176 52.714L53.3617 52.5625C53.4194 52.5807 54.7631 53.0078 55.1548 54.4044L55.0091 54.4514Z" fill="#263238"/>
<path d="M52.7423 59.9769L52.6086 59.9042C52.6086 59.9042 52.9412 59.2983 53.3496 58.5L53.4847 58.5682C53.0763 59.371 52.7453 59.9648 52.7423 59.9769Z" fill="#263238"/>
<path d="M53.8322 57.8749L53.6956 57.8082C54.5139 56.142 54.9664 54.9741 55.0059 54.4258C55.0985 53.1261 55.053 51.7174 55.053 51.6992H55.2048C55.2048 51.7144 55.2504 53.1307 55.1577 54.4379C55.1167 55.012 54.6703 56.1678 53.8322 57.8749Z" fill="#263238"/>
<path d="M49.3724 51.9797C49.3724 51.9797 47.9573 50.0968 47.3909 49.7212C46.8246 49.3455 43.6633 47.3672 43.2397 47.2263C42.8161 47.0855 41.114 47.1794 39.9373 47.4142C38.7606 47.649 37.3409 48.0731 37.719 48.4503C38.0971 48.8274 41.6287 49.862 41.6287 49.862C41.6287 49.862 43.1866 51.086 44.3178 51.6979C45.4489 52.3099 45.9287 52.4038 45.9287 52.4038L47.8631 60.17L51.4009 57.4434L49.3724 51.9797Z" fill="white"/>
<path d="M47.8174 60.3032L45.8663 52.4688C45.7144 52.431 45.2316 52.2765 44.2872 51.7675C43.2137 51.1874 41.7455 50.0468 41.5997 49.9331C41.3218 49.8513 38.0437 48.8834 37.6656 48.5062C37.6305 48.4765 37.6047 48.4371 37.5915 48.393C37.5783 48.3489 37.5782 48.302 37.5912 48.2578C37.7218 47.8261 39.2614 47.4747 39.9219 47.349C41.1062 47.1127 42.8235 47.0172 43.2623 47.1626C43.7011 47.3081 46.9276 49.3318 47.4332 49.6665C48.0041 50.0467 49.3752 51.866 49.4329 51.9387L49.4435 51.9584L51.4979 57.4691L47.8174 60.3032ZM42.5031 47.2384C41.6491 47.2494 40.7977 47.3341 39.9584 47.4913C38.7057 47.7413 37.8144 48.067 37.7431 48.3017C37.7431 48.3245 37.7355 48.3548 37.7795 48.3987C38.0832 48.7016 40.6841 49.506 41.6635 49.7923L41.6893 49.8059C41.7045 49.818 43.2547 51.0329 44.3677 51.6342C45.4806 52.2356 45.9467 52.331 45.9513 52.3325L45.9984 52.3416L46.009 52.3886L47.9161 60.0426L51.3187 57.4176L49.3129 52.0205C49.2067 51.8796 47.8857 50.1392 47.3558 49.7862C46.7591 49.3893 43.6297 47.4368 43.2228 47.3005C42.9882 47.2485 42.7478 47.2276 42.5077 47.2384H42.5031Z" fill="#263238"/>
<path d="M41.5405 48.9985C41.2368 48.9985 39.5666 48.7092 39.0215 48.5729C38.7452 48.486 38.4469 48.5005 38.1804 48.6138L38.106 48.4805C38.1211 48.4729 38.4688 48.279 39.058 48.426C39.8773 48.6108 40.706 48.7514 41.5405 48.8471V48.9985Z" fill="#263238"/>
<path d="M42.0844 48.2839C42.0039 48.2748 40.1106 48.0718 39.8403 48.0112C39.6262 47.9627 38.4738 48.0824 38.0517 48.1324L38.0334 47.9809C38.1929 47.9612 39.5958 47.8007 39.8722 47.8612C40.1485 47.9218 42.0814 48.1294 42.1011 48.1309L42.0844 48.2839Z" fill="#263238"/>
<path d="M42.2977 47.7088C42.1732 47.6467 40.7793 47.5452 39.9336 47.4952L39.9412 47.3438C40.3147 47.3665 42.1808 47.4801 42.3706 47.5725L42.2977 47.7088Z" fill="#263238"/>
<path d="M51.0214 55.8359C51.0214 55.8359 48.7013 56.2207 48.4599 56.8963C48.2185 57.5719 47.8814 58.4853 47.8814 58.4853C47.8814 58.4853 46.3342 59.0639 46.4314 59.3532C46.5286 59.6425 47.1071 63.8354 48.0743 65.185C49.0414 66.5347 50.49 69.0886 50.49 69.0886C50.49 69.0886 53.4842 71.6424 55.0298 70.6306C56.5755 69.6187 57.0113 66.7755 56.3341 65.2335C55.6569 63.6915 53.7757 60.7029 53.0985 59.6425C52.4213 58.5822 51.0214 55.8359 51.0214 55.8359Z" fill="#CDEDC2"/>
<path d="M54.1604 70.9406C52.5723 70.9406 50.5437 69.229 50.4405 69.1411L50.4238 69.1214C50.4101 69.0957 48.9662 66.5539 48.0126 65.2239C47.2292 64.1288 46.6977 61.1947 46.4715 59.942C46.4184 59.6527 46.3774 59.4239 46.3607 59.3724C46.2544 59.0558 47.3218 58.615 47.8228 58.4227C47.8836 58.253 48.1751 57.4638 48.3892 56.8655C48.6427 56.1566 50.9127 55.7718 51.0083 55.7552L51.0645 55.7461L51.0888 55.7961C51.1025 55.8233 52.4963 58.5514 53.1629 59.5966C54.1028 61.0705 55.7729 63.7561 56.4046 65.2012C57.1137 66.816 56.6384 69.6682 55.073 70.6922C54.8001 70.8631 54.4825 70.9495 54.1604 70.9406ZM50.5498 69.0351C50.7396 69.1941 53.5516 71.5026 54.9895 70.562C56.4699 69.5925 56.9375 66.7887 56.2664 65.2603C55.6378 63.8273 53.9722 61.1492 53.0353 59.6799C52.4143 58.7074 51.1723 56.2929 50.9795 55.9157C50.3099 56.0339 48.7126 56.4126 48.5319 56.917C48.2905 57.5926 47.9519 58.509 47.9519 58.509L47.9413 58.5408L47.9079 58.5529C47.0621 58.8695 46.47 59.2225 46.5049 59.3255C46.5246 59.3861 46.5565 59.5603 46.6203 59.9162C46.845 61.1598 47.3719 64.0697 48.1387 65.1376C49.0603 66.4267 50.4359 68.8427 50.5498 69.0351Z" fill="#263238"/>
<path d="M50.7807 71.8168C50.7807 71.8168 46.5096 65.0367 37.5042 62.7919C32.7594 61.6088 33.1284 61.9194 28.1679 62.0648C26.7012 62.1011 23.6569 58.6172 23.6569 58.6172C23.6569 58.6172 22.1856 59.0125 21.894 59.885C21.7037 60.441 21.4596 60.9773 21.1652 61.4861C21.1652 61.4861 18.247 61.9194 12.8492 64.9792C7.45145 68.039 4.97046 71.9652 4.97046 71.9652" fill="#F8BFDB"/>
<path d="M5.03697 72.0011L4.90942 71.9208C4.93372 71.8815 7.46178 67.9401 12.814 64.909C17.8443 62.0613 20.7656 61.4766 21.1194 61.413C21.4029 60.9175 21.6393 60.3967 21.8254 59.8573C22.1291 58.956 23.5791 58.5561 23.6399 58.5395L23.6869 58.5273L23.7173 58.5622C23.7477 58.597 26.7191 61.9886 28.1418 61.9886H28.1676C29.1074 61.9613 29.8697 61.9265 30.4831 61.8992C33.1812 61.7795 33.6716 61.7568 37.5252 62.7187C46.4562 64.9439 50.8047 71.7073 50.8473 71.7754L50.7197 71.8557C50.6772 71.7891 46.359 65.0756 37.4888 62.8656C33.6534 61.9098 33.1706 61.931 30.4892 62.0507C29.8818 62.0779 29.112 62.1128 28.1721 62.14H28.1433C26.716 62.14 23.98 59.0908 23.6353 58.6985C23.3893 58.7727 22.2156 59.1635 21.9651 59.9103C21.7726 60.4715 21.5259 61.0128 21.2287 61.5266L21.2105 61.5569H21.1756C21.1467 61.5569 18.2057 62.028 12.8853 65.0408C7.56503 68.0537 5.05974 71.9617 5.03697 72.0011Z" fill="#263238"/>
<path d="M43.4128 71.9782C43.3289 71.6787 43.2275 71.3843 43.1091 71.0966L43.2503 71.0391C43.3696 71.3321 43.471 71.6321 43.554 71.9373L43.4128 71.9782Z" fill="#263238"/>
<path d="M42.6092 70.0909C40.3682 66.2268 35.3409 64.3348 35.2908 64.3182L35.3424 64.1758C35.394 64.1955 40.4714 66.1026 42.7413 70.0152L42.6092 70.0909Z" fill="#263238"/>
<path d="M19.4777 71.5649L19.3486 71.4847C21.2936 68.3188 25.3158 65.5771 27.5402 64.2305L27.6191 64.3592C25.4069 65.7028 21.4075 68.4248 19.4777 71.5649Z" fill="#263238"/>
<path d="M28.2827 63.9636L28.2068 63.8318C28.7868 63.4955 29.1497 63.3062 29.1527 63.3047L29.2226 63.4395C29.2226 63.4395 28.8597 63.6288 28.2827 63.9636Z" fill="#263238"/>
<path d="M24.4791 44.8162C24.4791 44.8162 23.7549 44.9237 23.3783 46.0477C23.0018 47.1716 24.5854 49.0454 24.8815 49.7406C25.1776 50.4359 25.873 51.6674 25.9003 52.1749C25.9277 52.6823 27.5402 53.2473 29.0646 52.1219C30.299 51.213 30.0303 49.8739 29.8162 49.5468C29.6021 49.2196 29.2225 49.0923 28.9841 48.9045C27.8575 47.9956 27.402 47.2186 26.9191 46.3627C26.4363 45.5069 25.8199 44.4148 24.4791 44.8162Z" fill="#F8BFDB"/>
<path d="M27.1885 52.8585C26.8717 52.8637 26.5577 52.7996 26.2684 52.6707C25.9966 52.5434 25.8341 52.3677 25.825 52.1844C25.8068 51.8481 25.4682 51.1514 25.1691 50.5364C25.0324 50.2561 24.9034 49.9911 24.8123 49.779C24.6794 49.5175 24.5303 49.2646 24.3659 49.0216C23.798 48.1249 23.0206 46.9009 23.303 46.0391C23.675 44.9257 24.3796 44.7727 24.457 44.7591C25.8524 44.344 26.5037 45.4998 26.9805 46.345C27.4223 47.1297 27.8794 47.9401 29.0288 48.8671C29.1135 48.9324 29.2028 48.9916 29.296 49.0443C29.523 49.1596 29.7212 49.3242 29.876 49.526C30.0825 49.8381 30.4074 51.2392 29.1062 52.1981C28.5539 52.6166 27.882 52.848 27.1885 52.8585ZM24.4904 44.8909C24.4615 44.8909 23.8056 45.0105 23.4518 46.0709C23.1876 46.86 23.9423 48.0522 24.4949 48.9247C24.6635 49.1762 24.8157 49.4383 24.9505 49.7093C25.04 49.9229 25.1676 50.1849 25.3042 50.4667C25.6246 51.1256 25.9556 51.8057 25.9753 52.1738C25.9753 52.2935 26.1181 52.4298 26.3322 52.5313C26.7968 52.7494 27.887 52.8979 29.0196 52.0632C30.2343 51.168 29.9428 49.882 29.7515 49.5972C29.6098 49.4137 29.4287 49.2641 29.2216 49.1595C29.1218 49.1041 29.0264 49.0413 28.9361 48.9716C27.764 48.0249 27.3009 47.2024 26.853 46.4071C26.3747 45.5589 25.781 44.5091 24.4995 44.8924L24.4904 44.8909Z" fill="#263238"/>
<path d="M23.1053 44.578C23.1053 44.578 23.453 45.0324 23.5077 45.3278C23.5623 45.6232 23.91 45.6762 24.2577 45.4884C24.6054 45.3005 24.4187 44.9794 24.4733 44.8189C24.528 44.6583 23.3194 43.7752 22.7561 43.0011C22.1928 42.2271 20.9052 40.9683 20.4785 40.8078C20.0519 40.6472 19.9152 40.8335 20.0504 41.5303C20.1855 42.2271 21.3091 45.1763 21.3091 45.1763L21.7403 45.3278C21.7403 45.3278 20.3738 42.0362 20.3449 41.6621C20.3161 41.2879 20.8004 41.6091 21.016 41.8757C21.2316 42.1423 23.1053 44.578 23.1053 44.578Z" fill="white"/>
<path d="M23.8746 45.6684C23.7976 45.6699 23.7212 45.6538 23.6514 45.6215C23.5949 45.5952 23.5459 45.5555 23.5085 45.5058C23.4712 45.4562 23.4467 45.3981 23.4373 45.3367C23.3887 45.064 23.0531 44.6247 23.0501 44.6202C23.0228 44.5854 21.1704 42.1814 20.9593 41.9179C20.7908 41.7088 20.5144 41.5346 20.44 41.5649C20.4264 41.5649 20.4203 41.6043 20.4233 41.6513C20.4446 41.9542 21.433 44.3778 21.8126 45.2943L21.8779 45.4457L21.2524 45.2246L21.2402 45.1913C21.1947 45.0701 20.1121 42.2254 19.9785 41.5316C19.8934 41.0893 19.9147 40.8409 20.0468 40.7288C20.1789 40.6167 20.3732 40.6727 20.5023 40.7288C20.9578 40.8999 22.2712 42.1981 22.8163 42.9494C23.1582 43.3753 23.5378 43.7698 23.9505 44.1279C24.4227 44.5641 24.5836 44.7202 24.5442 44.8368C24.5355 44.8869 24.5355 44.9382 24.5442 44.9883C24.5593 45.1504 24.5806 45.3958 24.2936 45.5503C24.1656 45.6229 24.0218 45.6634 23.8746 45.6684ZM20.4567 41.4104C20.6602 41.4104 20.9502 41.6649 21.0778 41.824C21.2903 42.089 23.1518 44.5036 23.17 44.5278C23.1852 44.5475 23.5314 45.0004 23.5876 45.3094C23.5925 45.3472 23.6069 45.3831 23.6295 45.4138C23.652 45.4446 23.682 45.4691 23.7167 45.4851C23.8017 45.512 23.8917 45.5198 23.9801 45.508C24.0686 45.4962 24.1533 45.4651 24.2283 45.417C24.4272 45.3094 24.4136 45.161 24.3984 45.0034C24.3869 44.9368 24.3869 44.8686 24.3984 44.802C24.3711 44.7232 24.0947 44.4672 23.8487 44.24C23.4284 43.8753 23.0421 43.4733 22.6948 43.0388C22.1269 42.2557 20.847 41.0196 20.4507 40.8712C20.2988 40.8151 20.1926 40.8075 20.147 40.8515C20.0635 40.9212 20.0574 41.1423 20.1288 41.5089C20.2518 42.1511 21.2478 44.7853 21.3708 45.111L21.6092 45.1943C21.3328 44.5263 20.2973 42.0012 20.273 41.6619C20.2624 41.5104 20.3292 41.4468 20.3869 41.4241C20.409 41.4149 20.4328 41.4103 20.4567 41.4104Z" fill="#263238"/>
<path d="M16.6495 55.1753C16.6495 55.1753 17.8521 55.0359 18.4184 52.6835C18.9848 50.3311 19.8335 46.941 19.3613 46.8471C18.8891 46.7532 16.2487 47.1289 16.2487 47.1289C16.2487 47.1289 15.3513 53.4333 16.6495 55.1753Z" fill="#263238"/>
<path d="M16.6147 55.2565L16.5889 55.2216C15.2877 53.4736 16.1334 47.3782 16.1729 47.1192L16.182 47.0631L16.2382 47.0556C16.346 47.0404 18.8968 46.6784 19.3766 46.7738C19.4022 46.7794 19.4264 46.7902 19.4476 46.8056C19.4688 46.8209 19.4865 46.8406 19.4996 46.8632C19.7699 47.2858 19.2734 49.4655 18.5962 52.2724L18.4929 52.7011C17.9205 55.0792 16.7089 55.2459 16.6588 55.2519L16.6147 55.2565ZM16.3111 47.1979C16.2276 47.822 15.517 53.4297 16.677 55.0929C16.8896 55.0383 17.8552 54.6839 18.3396 52.6693L18.4444 52.2406C18.9135 50.2926 19.6241 47.3494 19.366 46.9465C19.3539 46.9283 19.3447 46.9253 19.3432 46.9253C18.991 46.8511 17.2418 47.0662 16.3156 47.1979H16.3111Z" fill="#263238"/>
<path d="M18.6918 45.9141C18.6918 45.9141 21.1561 45.1719 21.3125 45.1719C21.4689 45.1719 24.246 46.3837 24.246 46.3837C24.246 46.3837 25.8114 47.5152 25.9678 47.5955C26.1242 47.6758 26.32 47.8681 26.1637 48.1029C26.0073 48.3377 25.3422 48.1802 25.3422 48.1802L23.9757 47.6727L23.3881 47.6349C23.3881 47.6349 26.0483 48.571 26.3231 48.727C26.5979 48.883 27.0656 49.1951 26.9092 49.5465L26.7573 49.8979C26.7573 49.8979 26.7968 50.4448 26.5615 50.6008C26.3261 50.7568 25.819 50.6402 25.819 50.6402C25.819 50.6402 25.2709 50.834 24.9581 50.9128C24.6453 50.9916 21.3975 50.834 20.8585 50.7962C20.3195 50.7583 17.6396 49.4662 17.6396 49.4662L16.7787 49.3147C16.7787 49.3147 16.7013 48.0257 16.9305 47.2456C17.102 46.7371 17.3823 46.2719 17.752 45.8823L18.6918 45.9141Z" fill="white"/>
<path d="M24.4567 51.0082C23.4181 51.0082 21.2074 50.8962 20.8369 50.8689C20.2918 50.831 17.8124 49.6374 17.6104 49.5404L16.6994 49.3753V49.3163C16.6994 49.2632 16.6235 48.0045 16.8512 47.2213C17.0246 46.699 17.3119 46.2215 17.6924 45.8232L17.7152 45.799L18.6748 45.8399C19.1151 45.7066 21.1482 45.0977 21.3061 45.0977C21.464 45.0977 23.6155 46.0292 24.2699 46.3095L24.2851 46.3186C24.9122 46.773 25.8839 47.4667 25.9948 47.5213C26.0608 47.5518 26.1199 47.5954 26.1687 47.6492C26.2175 47.7031 26.2549 47.7662 26.2787 47.8348C26.2914 47.8866 26.2927 47.9405 26.2825 47.9928C26.2722 48.0451 26.2508 48.0946 26.2195 48.1378C26.051 48.3907 25.4603 48.2802 25.3373 48.2514C25.8278 48.4332 26.2483 48.5952 26.3516 48.6543C26.8936 48.9573 27.1017 49.2708 26.9696 49.5632L26.8177 49.8979C26.8177 50.0115 26.8329 50.4872 26.5869 50.6553C26.341 50.8234 25.9128 50.7326 25.8065 50.7098C25.7033 50.7477 25.2417 50.9083 24.9593 50.978C24.7929 51.0023 24.6248 51.0124 24.4567 51.0082ZM16.8467 49.2466L17.6681 49.3981C17.6939 49.4102 20.3207 50.6795 20.8475 50.7174C21.5217 50.7644 24.6434 50.9083 24.9319 50.8356C25.2204 50.7629 25.7792 50.5675 25.7852 50.5644H25.8065H25.8278C25.9599 50.5947 26.3425 50.6492 26.5125 50.5356C26.6826 50.422 26.6841 50.0418 26.6735 49.901V49.8828L26.839 49.5147C26.9574 49.2466 26.6021 48.9724 26.2833 48.7906C26.0707 48.671 24.279 48.0333 23.3619 47.7046L22.8396 47.5213L23.9997 47.6L25.3662 48.1075C25.5939 48.1605 26.0054 48.1969 26.098 48.059C26.1175 48.0337 26.1311 48.0044 26.1376 47.9732C26.1442 47.942 26.1436 47.9097 26.136 47.8788C26.1181 47.831 26.0909 47.7873 26.0559 47.7502C26.021 47.713 25.9791 47.6831 25.9325 47.6621C25.7807 47.5834 24.3959 46.5867 24.2062 46.4503C23.1585 45.9959 21.4503 45.2658 21.3076 45.2491C21.1877 45.2491 19.6511 45.7036 18.7112 45.9883H18.6991L17.7881 45.9505C17.4371 46.3266 17.171 46.7734 17.0076 47.2607C16.8027 47.9287 16.8345 48.9876 16.8467 49.2466ZM23.9283 47.7439L24.7133 48.0272L23.9541 47.747L23.9283 47.7439Z" fill="#263238"/>
<path d="M26.7293 49.9684L23.5453 49.0641L21.4485 48.3143L21.5001 48.1719L23.5924 48.9202L26.7703 49.823L26.7293 49.9684Z" fill="#263238"/>
<path d="M25.5315 50.6695L24.2439 50.3226L21.189 49.6001L21.2239 49.4531L24.2819 50.1757L25.5709 50.5241L25.5315 50.6695Z" fill="#263238"/>
<path d="M23.3509 47.6988C23.0292 47.5269 22.697 47.3752 22.3564 47.2444C22.2471 47.2444 21.5304 46.9217 21.2283 46.7824L21.292 46.6445C21.6378 46.8152 21.9926 46.9669 22.3549 47.099C22.4672 47.099 23.1323 47.4261 23.4177 47.567L23.3509 47.6988Z" fill="#263238"/>
<path d="M20.2836 50.6628C20.2669 50.6522 19.8752 50.425 19.816 50.0463C19.7845 49.8098 19.7748 49.571 19.7871 49.3328C19.6589 49.1444 19.5767 48.9286 19.5472 48.7027C19.5447 48.4436 19.5921 48.1865 19.6869 47.9453L19.8281 48.0014C19.7415 48.2208 19.6977 48.4547 19.6991 48.6906C19.728 48.8983 19.806 49.0961 19.9268 49.2677L19.942 49.2904V49.3177C19.928 49.5533 19.9367 49.7896 19.9678 50.0236C20.0149 50.3265 20.3565 50.528 20.3595 50.531L20.2836 50.6628Z" fill="#263238"/>
<path d="M5.37298 27.2617C5.37298 27.2617 4.41338 27.7161 3.99128 28.5371C3.42645 29.646 3.09545 30.9274 3.19869 33.1981C3.23817 34.0569 4.69731 43.4272 4.61077 43.7711C4.52422 44.1149 4.4817 45.916 5.29858 47.2884C6.11545 48.6607 8.60859 52.3492 11.7911 53.6367C14.9735 54.9243 16.6498 55.1803 16.6498 55.1803C16.6498 55.1803 16.7348 52.3492 17.166 49.047C17.5973 45.7448 18.692 45.919 18.692 45.919C18.692 45.919 16.8214 45.7009 16.4767 45.6585C16.132 45.6161 14.7549 44.9253 14.4512 44.7542C14.2218 44.6406 13.974 44.5683 13.7194 44.5406C13.7194 44.5406 13.7194 44.4118 13.3322 43.8544C12.945 43.297 12.6884 42.9455 12.6884 42.9455C12.6884 42.9455 12.945 42.3018 12.945 41.8731C12.945 41.4444 12.6413 40.0281 12.6413 40.0281C12.6413 40.0281 10.8937 36.9562 10.5475 35.2081C10.2013 33.4601 9.68814 30.9199 9.1719 30.2337C8.89083 29.8451 8.54154 29.5105 8.14094 29.2461" fill="white"/>
<path d="M16.7281 55.2644L16.643 55.2523C16.6263 55.2523 14.9212 54.9782 11.7676 53.7027C8.3437 52.3182 5.72758 48.1451 5.23866 47.3226C4.41116 45.932 4.45671 44.0931 4.54174 43.7492C4.58274 43.5417 4.12419 40.3638 3.75675 37.8114C3.44245 35.6347 3.14941 33.5807 3.12815 33.1974C3.03553 31.1586 3.26784 29.7968 3.92984 28.5017C4.35802 27.661 5.30547 27.2111 5.34647 27.1914L5.41024 27.3292C5.40113 27.3292 4.46886 27.7837 4.06498 28.5698C3.41664 29.8438 3.18888 31.1828 3.27999 33.1944C3.29821 33.5701 3.59277 35.618 3.90707 37.7917C4.41116 41.2893 4.73761 43.5962 4.68902 43.7886C4.60703 44.1204 4.56452 45.8972 5.36924 47.2483C5.8536 48.0633 8.44543 52.1986 11.8253 53.5664C14.569 54.6752 16.2042 55.0206 16.5823 55.0902C16.6005 54.5873 16.7114 51.985 17.0955 49.0312C17.3551 47.0378 17.8547 46.2819 18.2388 46.0017C18.2677 45.9805 18.295 45.9623 18.3223 45.9456C17.759 45.8805 16.7205 45.7593 16.473 45.7275C16.1116 45.6836 14.7284 44.9913 14.4247 44.8187C14.2045 44.7103 13.9672 44.6406 13.7232 44.6127H13.6549V44.5445C13.6549 44.5445 13.6321 44.4051 13.2814 43.9007C12.9003 43.3509 12.6406 43.0055 12.6391 43.0025L12.6133 42.9676L12.6285 42.9282C12.6285 42.9282 12.8805 42.2936 12.8805 41.8846C12.8805 41.4756 12.6133 40.2017 12.5769 40.0669C12.4645 39.8684 10.8065 36.9101 10.4709 35.2272C10.1551 33.6352 9.62519 30.9692 9.1044 30.283C8.8292 29.9026 8.48709 29.5752 8.09469 29.3166L8.17213 29.1848C8.58231 29.4533 8.93949 29.7948 9.22586 30.1921C9.76336 30.9056 10.2963 33.5928 10.6152 35.1984C10.9553 36.9086 12.6923 39.9714 12.7105 40.0032V40.0245C12.7226 40.082 13.0142 41.4529 13.0142 41.8846C12.9865 42.2486 12.903 42.6062 12.7667 42.9449C12.8411 43.0449 13.0703 43.3599 13.3877 43.8144C13.5439 44.0172 13.6735 44.2392 13.7733 44.4748C14.0201 44.5059 14.2596 44.5797 14.4809 44.6929C14.8195 44.8853 16.1587 45.5442 16.4745 45.5836C16.7903 45.623 18.6002 45.8335 18.6837 45.8442L18.664 45.9956H18.6564C18.5225 45.9987 18.3942 46.0498 18.295 46.1395C17.9443 46.4092 17.4721 47.1332 17.2215 49.0585C16.7979 52.3197 16.7068 55.1569 16.7068 55.1857L16.7281 55.2644Z" fill="#263238"/>
<path d="M8.60452 44.7796L8.49976 44.669C9.22857 43.9844 9.78884 43.5436 10.1699 43.3557C10.7266 43.0685 11.344 42.9184 11.9707 42.918V43.0694C11.3708 43.074 10.7801 43.2182 10.2459 43.4905C9.87539 43.6693 9.31208 44.1146 8.60452 44.7796Z" fill="#263238"/>
<path d="M7.41675 45.9627L7.30591 45.8596C7.30591 45.8596 7.53974 45.6097 7.87681 45.2734L7.98461 45.3795C7.64906 45.7142 7.41827 45.9596 7.41675 45.9627Z" fill="#263238"/>
<path d="M13.175 44.6479C13.1583 44.6388 11.5564 43.8572 10.1459 44.5191L10.0806 44.3828C11.5594 43.6875 13.175 44.4782 13.2433 44.5115L13.175 44.6479Z" fill="#263238"/>
</g>
<defs>
<clipPath id="clip0_3280_334355">
<rect width="80" height="80" fill="white"/>
</clipPath>
</defs>
</svg>
