<svg width="80" height="80" viewBox="0 0 80 80" fill="none" xmlns="http://www.w3.org/2000/svg">
<path d="M72.8962 68.1351C72.8962 70.1556 58.1449 71.7936 39.9481 71.7936C21.7513 71.7936 7 70.1556 7 68.1351C7 66.1145 21.7513 64.4766 39.9481 64.4766C58.1449 64.4766 72.8962 66.1145 72.8962 68.1351Z" fill="#F5F5F5"/>
<path d="M42.3171 53.5752C57.3903 53.5752 69.6095 49.7589 69.6095 45.0513C69.6095 40.3436 57.3903 36.5273 42.3171 36.5273C27.2439 36.5273 15.0247 40.3436 15.0247 45.0513C15.0247 49.7589 27.2439 53.5752 42.3171 53.5752Z" fill="#263238"/>
<path d="M64.2057 35.5888C64.1243 35.6064 64.517 34.6608 63.3818 33.4745C62.2467 32.2882 60.1544 32.3371 58.5372 34.0692C56.7774 35.9539 56.597 38.1668 58.398 40.457C60.199 42.7471 62.3096 42.1476 62.8289 42.0412C64.2093 41.7588 66.6667 40.1909 66.4884 38.2424C66.2922 36.0985 64.8272 35.4554 64.2057 35.5888Z" fill="#F8BFDB"/>
<g opacity="0.3">
<path d="M64.9031 36.5137C64.4836 36.4958 64.0575 36.3476 63.7971 36.0182C63.6217 35.7963 63.523 35.5244 63.4407 35.2536C63.3622 34.9953 63.296 34.7333 63.2424 34.4688C63.2424 34.4688 63.8382 35.2703 63.9962 35.5998C64.1543 35.9293 64.6825 35.9329 64.8764 36.1344C65.0704 36.336 65.1578 36.5245 64.9031 36.5137Z" fill="#9F1258"/>
</g>
<g opacity="0.3">
<path d="M62.3872 33.582C61.8105 33.1042 61.1852 33.0221 60.4725 33.2521C59.7598 33.4822 58.8943 34.1528 58.4614 35.1839C59.0685 34.7099 60.3638 34.2317 61.1224 34.3648C61.881 34.4979 62.575 34.9647 62.9845 35.6171C62.5628 34.4629 62.6143 34.1533 62.3872 33.582Z" fill="white"/>
</g>
<g opacity="0.2">
<path d="M66.4875 38.2431C66.4574 37.9136 66.3971 37.6195 66.3147 37.3584C66.3166 37.4089 66.3215 37.4594 66.3267 37.5068C66.45 38.6361 65.9237 39.7929 65.0498 40.5186C64.176 41.2444 62.9908 41.5505 61.8605 41.4385C60.0935 41.2636 58.4682 40.0505 57.7983 38.4061C57.4112 37.4563 57.3534 36.3868 57.593 35.3906C56.7964 36.9556 57.0015 38.6834 58.3971 40.4579C60.1981 42.748 62.3087 42.1485 62.828 42.0421C64.2084 41.7597 66.6658 40.1918 66.4875 38.2433V38.2431Z" fill="#9F1258"/>
</g>
<g opacity="0.3">
<path d="M65.8587 38.2324C66.0538 37.7648 65.8695 37.1699 65.4442 36.8945L65.3488 36.9193C65.0891 36.9572 64.8295 36.9952 64.5698 37.0332C64.51 37.0419 64.4459 37.0527 64.4028 37.095C64.3241 37.172 64.3566 37.3034 64.4001 37.4044C64.5593 37.7749 64.7964 38.1118 65.0917 38.3866C65.194 38.482 65.3157 38.5746 65.4555 38.5737C65.6422 38.5727 65.7867 38.4047 65.8587 38.2322V38.2324Z" fill="white"/>
</g>
<path opacity="0.5" d="M62.3366 34.3174C62.3782 34.2406 62.3929 34.1511 62.3861 34.064C62.338 33.4552 61.8788 33.4473 61.3792 33.378C60.9121 33.3135 60.1539 33.55 60.1659 33.7458C60.1779 33.9418 61.1566 33.9403 61.9114 34.3462C62.1598 34.4797 62.2649 34.4502 62.3368 34.3174H62.3366Z" fill="white"/>
<path opacity="0.1" d="M57.9084 37.7734C57.9084 37.7734 58.288 39.3401 59.8422 40.3079C61.3963 41.276 62.0273 40.9669 62.0273 40.9669C62.0273 40.9669 59.9641 40.5938 57.9082 37.7734H57.9084Z" fill="#9F1258"/>
<path d="M30.3272 42.368L30.7314 44.6322C30.7314 44.6322 27.6757 46.4081 24.7521 45.8195C21.8285 45.2312 17.9441 39.8677 17.9441 39.8677C17.2344 36.315 20.4767 32.3164 20.4767 32.3164L30.3273 42.368H30.3272Z" fill="#9F1258"/>
<path opacity="0.1" d="M30.3272 42.368L30.7314 44.6322C30.7314 44.6322 27.6757 46.4081 24.7521 45.8195C21.8285 45.2312 17.9441 39.8677 17.9441 39.8677C17.2344 36.315 20.4767 32.3164 20.4767 32.3164L30.3273 42.368H30.3272Z" fill="white"/>
<path d="M25.8044 31.0117L20.477 32.3185C19.7734 32.8211 18.1651 36.3391 18.3661 37.7464C18.5671 39.1536 22.839 42.8224 24.1961 43.3752C25.5531 43.928 30.3276 42.3701 30.3276 42.3701L27.1988 34.5132L25.8044 31.0117Z" fill="#9F1258"/>
<path opacity="0.3" d="M25.8044 31.0117L20.477 32.3185C19.7734 32.8211 18.1651 36.3391 18.3661 37.7464C18.5671 39.1536 22.839 42.8224 24.1961 43.3752C25.5531 43.928 30.3276 42.3701 30.3276 42.3701L27.1988 34.5132L25.8044 31.0117Z" fill="white"/>
<path opacity="0.3" d="M27.0787 34.2115C27.0787 34.2115 27.3752 34.7897 25.6966 33.2704C24.0179 31.7512 23.7504 31.9111 23.7504 31.9111C23.7504 31.9111 26.5086 34.2099 25.9487 34.7131C25.3891 35.2162 22.841 32.5242 22.841 32.5242C22.841 32.5242 24.5837 34.4231 24.7523 34.9713C24.9206 35.5194 20.8577 33.9369 20.8577 33.9369L24.43 35.6428L24.0945 35.9094C24.0945 35.9094 19.3118 35.4133 19.4984 35.5146C19.685 35.6161 23.5949 36.1105 23.759 36.3165C23.9231 36.5225 18.8054 37.1431 18.8054 37.1431C18.8054 37.1431 23.9949 36.7243 23.759 37.1431C23.5231 37.5619 19.6051 38.5277 19.6051 38.5277C19.6051 38.5277 23.8396 37.4429 24.0945 37.7689C24.3494 38.095 20.9112 40.1741 20.9112 40.1741C20.9112 40.1741 24.429 38.2101 24.6839 38.525C24.9388 38.8398 22.2172 41.5601 22.2172 41.5601C22.2172 41.5601 24.7736 39.1638 25.3612 39.2825C25.9489 39.4012 23.5511 42.5997 23.7506 42.5997C23.95 42.5997 26.0367 39.2423 26.3232 39.5345C26.6098 39.8267 25.8957 43.1595 26.0288 43.1595C26.1619 43.1595 26.5991 39.7211 26.9937 39.6146C27.3883 39.5079 27.4948 43.0262 27.7082 42.8397C27.9215 42.6531 27.8415 39.2174 28.1879 39.2827C28.5344 39.348 30.1348 41.8851 30.1348 41.8851L27.0791 34.212L27.0787 34.2115Z" fill="white"/>
<path d="M24.3263 36.5162C24.4316 35.836 25.069 35.0277 27.1979 34.5156L28.6208 38.0886C28.6208 38.0886 26.7456 38.55 25.2952 38.0587C24.6472 37.8391 24.2217 37.1922 24.3263 36.5161V36.5162Z" fill="white"/>
<path opacity="0.3" d="M23.1164 36.3975C23.2705 35.4011 23.7903 34.508 26.9085 33.7578L29.2409 39.6433C29.2409 39.6433 26.705 40.3963 24.3373 39.1529C23.4502 38.687 22.9632 37.3876 23.1164 36.3975Z" fill="white"/>
<path d="M24.8967 36.2869C24.8967 36.4216 24.824 36.5863 24.6125 36.5863C24.4011 36.5863 24.1309 36.4216 24.1309 36.2869C24.1309 36.1522 24.3023 36.043 24.5138 36.043C24.7252 36.043 24.8967 36.1522 24.8967 36.2869Z" fill="#9F1258"/>
<path d="M28.3686 37.8221C28.3686 37.9567 28.2959 38.1215 28.0845 38.1215C27.873 38.1215 27.6028 37.9567 27.6028 37.8221C27.6028 37.6874 27.7742 37.5781 27.9857 37.5781C28.1972 37.5781 28.3686 37.6874 28.3686 37.8221Z" fill="#9F1258"/>
<path d="M23.6059 36.74C23.6059 36.8747 23.5332 37.0396 23.3218 37.0396C23.1103 37.0396 22.8401 36.8749 22.8401 36.74C22.8401 36.6052 23.0115 36.4961 23.223 36.4961C23.4345 36.4961 23.6059 36.6054 23.6059 36.74Z" fill="#9F1258"/>
<path d="M24.6995 37.2189C24.7736 37.3315 24.7943 37.5151 24.5913 37.6484C24.3882 37.7817 24.0385 37.8145 23.9645 37.702C23.8904 37.5895 23.995 37.39 24.1981 37.2567C24.4011 37.1234 24.6257 37.1064 24.6995 37.2191V37.2189Z" fill="#9F1258"/>
<path d="M26.7245 38.4064C26.8892 38.4131 27.0874 38.5047 27.0776 38.7474C27.0677 38.9901 26.8535 39.292 26.6885 39.2853C26.5236 39.2786 26.3981 39.0764 26.408 38.8336C26.418 38.5909 26.5597 38.3997 26.7245 38.4064Z" fill="#9F1258"/>
<path d="M26.639 34.383C26.8037 34.3897 27.002 34.4812 26.9922 34.724C26.9824 34.9667 26.768 35.2685 26.6031 35.2618C26.4382 35.2551 26.3128 35.0529 26.3226 34.8102C26.3325 34.5675 26.4741 34.3763 26.639 34.383Z" fill="#9F1258"/>
<path d="M25.6043 35.6926C25.4767 35.785 25.2736 35.8336 25.1376 35.6455C25.0015 35.4574 24.9837 35.1042 25.1115 35.0117C25.2391 34.9192 25.453 34.9967 25.5892 35.1846C25.7253 35.3726 25.7321 35.6 25.6045 35.6924L25.6043 35.6926Z" fill="#9F1258"/>
<path d="M28.1629 40.1534C28.0353 40.2458 27.8322 40.2944 27.6962 40.1065C27.5601 39.9184 27.5423 39.5652 27.6701 39.4726C27.7977 39.3802 28.0116 39.4576 28.1478 39.6456C28.2839 39.8335 28.2907 40.061 28.1631 40.1534H28.1629Z" fill="#9F1258"/>
<path d="M25.7091 34.4346C25.5814 34.527 25.3784 34.5757 25.2423 34.3877C25.1063 34.1998 25.0884 33.8464 25.2162 33.7538C25.3439 33.6614 25.5577 33.7389 25.6939 33.9268C25.83 34.1148 25.8369 34.3422 25.7092 34.4346H25.7091Z" fill="#9F1258"/>
<path d="M24.3377 35.4348C24.2101 35.5272 24.007 35.5758 23.871 35.3877C23.7349 35.1998 23.7171 34.8464 23.8449 34.7538C23.9725 34.6614 24.1864 34.7389 24.3226 34.9268C24.4587 35.1149 24.4655 35.3422 24.3379 35.4346L24.3377 35.4348Z" fill="#9F1258"/>
<path d="M24.2635 38.6021C24.3544 38.7309 24.4003 38.9345 24.2105 39.0681C24.0206 39.2018 23.6671 39.215 23.5764 39.086C23.4857 38.9571 23.5659 38.7443 23.7556 38.6107C23.9454 38.477 24.1728 38.4731 24.2635 38.6021Z" fill="#9F1258"/>
<path d="M26.0491 38.1644C26.1232 38.2769 26.144 38.4606 25.9409 38.5939C25.7379 38.7272 25.3881 38.76 25.3141 38.6475C25.24 38.535 25.3446 38.3355 25.5477 38.202C25.7507 38.0687 25.9753 38.0517 26.0491 38.1644Z" fill="#9F1258"/>
<path d="M38.8809 38.1378C39.2396 38.9195 39.9737 39.493 40.7886 39.7685C41.6035 40.044 42.754 40.1043 43.7861 39.5218C43.7088 39.5069 46.2002 40.1454 47.4403 39.1853C48.495 38.3685 49.0951 36.5106 48.8575 35.198C48.6738 34.1831 48.0729 33.2907 47.3872 32.5204C46.7014 31.7501 45.9181 31.0688 45.2605 30.2745C44.7666 29.6779 44.2464 28.9614 43.4746 28.8952C43.0711 28.8607 42.6696 29.0236 42.3477 29.2694C42.026 29.5152 41.7734 29.8394 41.5374 30.1683C40.6574 31.3944 39.952 32.7386 39.3427 34.1194C39.0618 34.7558 38.7988 35.4072 38.6791 36.0925C38.5593 36.7779 38.5908 37.5058 38.8809 38.1379V38.1378Z" fill="#C8EBBB"/>
<g opacity="0.3">
<path d="M41.781 30.168C41.9615 29.9184 42.191 29.647 42.499 29.644C42.7101 29.642 43.4016 30.0912 43.5668 30.223C45.3582 31.6513 46.214 33.932 46.8477 36.1337C47.0187 36.7276 47.1807 37.3317 47.1958 37.9495C47.2092 38.4964 47.0973 39.0613 46.8041 39.5187C47.0358 39.4389 47.2523 39.3306 47.4401 39.1853C48.4948 38.3685 49.0949 36.5106 48.8573 35.198C48.6736 34.1831 48.0727 33.2907 47.387 32.5204C46.7012 31.7501 45.9179 31.0688 45.2603 30.2745C44.7664 29.6779 44.2462 28.9614 43.4744 28.8952C43.0709 28.8607 42.6694 29.0236 42.3475 29.2694C42.0257 29.5152 41.7732 29.8394 41.5372 30.1683C40.6571 31.3944 39.9518 32.7386 39.3425 34.1194C39.0616 34.7558 38.7986 35.4072 38.6789 36.0925C38.6624 36.1865 38.6492 36.2813 38.6387 36.3765C39.0539 34.8087 40.4266 32.0389 41.7808 30.1678L41.781 30.168Z" fill="white"/>
</g>
<path d="M42.8789 33.0648L42.9743 33.0954C43.0311 32.9791 43.0464 32.843 43.0165 32.7171C43.004 32.6639 42.9825 32.6111 42.9437 32.5727C42.9049 32.5342 42.8461 32.5125 42.7939 32.529C42.7439 32.5448 42.7085 32.5926 42.6968 32.6438C42.6852 32.6948 42.6937 32.7486 42.709 32.7987C42.7403 32.9006 42.7997 32.9935 42.8789 33.0648Z" fill="white"/>
<path d="M42.8612 30.6819L42.9565 30.7125C43.0134 30.5964 43.0287 30.4602 42.9988 30.3342C42.9862 30.2812 42.9648 30.2283 42.9259 30.1898C42.8871 30.1513 42.8284 30.1298 42.7762 30.1461C42.7262 30.1619 42.6908 30.2097 42.6791 30.2609C42.6672 30.3119 42.676 30.3659 42.6913 30.4158C42.7226 30.5177 42.782 30.6106 42.8612 30.6819Z" fill="white"/>
<path d="M44.7706 31.6078L44.8659 31.6384C44.9228 31.5221 44.9381 31.386 44.9082 31.2601C44.8957 31.2068 44.8742 31.1541 44.8354 31.1156C44.7965 31.0771 44.7378 31.0555 44.6856 31.072C44.6356 31.0878 44.6002 31.1356 44.5885 31.1867C44.5767 31.2378 44.5854 31.2915 44.6007 31.3417C44.632 31.4436 44.6914 31.5365 44.7706 31.6078Z" fill="white"/>
<path d="M44.764 33.7328L44.8594 33.7634C44.9162 33.6472 44.9315 33.511 44.9016 33.3851C44.8891 33.3318 44.8676 33.2791 44.8288 33.2406C44.79 33.2021 44.7312 33.1805 44.679 33.197C44.629 33.2128 44.5936 33.2606 44.5819 33.3117C44.5701 33.3628 44.5788 33.4165 44.5941 33.4667C44.6254 33.5686 44.6848 33.6615 44.764 33.7328Z" fill="white"/>
<path d="M46.8636 33.6897L46.959 33.7203C47.0158 33.6042 47.0311 33.468 47.0012 33.3421C46.9887 33.289 46.9672 33.2361 46.9284 33.1976C46.8896 33.1591 46.8308 33.1376 46.7786 33.154C46.7286 33.1698 46.6932 33.2175 46.6815 33.2687C46.6697 33.3199 46.6784 33.3737 46.6937 33.4237C46.725 33.5255 46.7844 33.6185 46.8636 33.6897Z" fill="white"/>
<path d="M41.3968 35.0179L41.4922 35.0485C41.549 34.9322 41.5643 34.7962 41.5344 34.6703C41.5219 34.617 41.5004 34.5643 41.4616 34.5258C41.4228 34.4873 41.364 34.4657 41.3118 34.4821C41.2618 34.498 41.2264 34.5457 41.2147 34.5969C41.2029 34.6481 41.2116 34.7019 41.2269 34.7519C41.2582 34.8537 41.3175 34.9467 41.3968 35.0179Z" fill="white"/>
<path d="M39.7986 34.8812L39.8939 34.9117C39.9508 34.7956 39.9661 34.6594 39.9362 34.5335C39.9237 34.4802 39.9022 34.4275 39.8634 34.389C39.8245 34.3505 39.7658 34.329 39.7136 34.3454C39.6636 34.3612 39.6282 34.4089 39.6165 34.4601C39.6048 34.5111 39.6134 34.5649 39.6287 34.6151C39.66 34.7169 39.7194 34.8099 39.7986 34.8812Z" fill="white"/>
<path d="M40.9143 32.7806L40.9839 32.8524C41.0889 32.7766 41.1663 32.6638 41.1993 32.5386C41.2132 32.4856 41.2192 32.429 41.2031 32.3767C41.1871 32.3245 41.1452 32.2778 41.0916 32.2677C41.0401 32.258 40.9863 32.2836 40.9519 32.3231C40.9176 32.3627 40.8997 32.4142 40.8898 32.4655C40.8693 32.5702 40.8779 32.6801 40.9143 32.7803V32.7806Z" fill="white"/>
<path d="M45.8611 35.4867L45.9564 35.5173C46.0133 35.401 46.0286 35.2649 45.9987 35.139C45.9862 35.0857 45.9647 35.033 45.9259 34.9945C45.887 34.9561 45.8283 34.9344 45.7761 34.9509C45.7261 34.9665 45.6907 35.0145 45.679 35.0657C45.6673 35.1167 45.6759 35.1706 45.6912 35.2206C45.7225 35.3225 45.7819 35.4154 45.8611 35.4867Z" fill="white"/>
<path d="M47.7374 36.3265L47.8327 36.357C47.8896 36.2409 47.9049 36.1047 47.875 35.9788C47.8625 35.9257 47.841 35.8728 47.8022 35.8343C47.7633 35.7958 47.7046 35.7744 47.6524 35.7907C47.6024 35.8065 47.567 35.8542 47.5553 35.9054C47.5435 35.9566 47.5522 36.0104 47.5675 36.0604C47.5988 36.1622 47.6582 36.2552 47.7374 36.3265Z" fill="white"/>
<path d="M43.4248 35.3265L43.5202 35.3571C43.577 35.241 43.5923 35.1048 43.5624 34.9788C43.5499 34.9256 43.5284 34.8729 43.4896 34.8344C43.4508 34.7959 43.392 34.7743 43.3398 34.7907C43.2898 34.8065 43.2544 34.8543 43.2427 34.9055C43.2311 34.9565 43.2396 35.0103 43.2549 35.0604C43.2862 35.1623 43.3455 35.2552 43.4248 35.3265Z" fill="white"/>
<path d="M42.1622 36.9515L42.2576 36.9821C42.3144 36.866 42.3297 36.7298 42.2998 36.6038C42.2873 36.5508 42.2658 36.4979 42.227 36.4594C42.1882 36.4209 42.1294 36.3993 42.0772 36.4157C42.0272 36.4315 41.9918 36.4793 41.9801 36.5305C41.9683 36.5815 41.977 36.6353 41.9923 36.6854C42.0236 36.7873 42.0828 36.8802 42.1622 36.9515Z" fill="white"/>
<path d="M39.5779 36.8461L39.6732 36.8766C39.7301 36.7603 39.7454 36.6243 39.7155 36.4984C39.703 36.4453 39.6815 36.3924 39.6427 36.3539C39.6038 36.3154 39.5451 36.2938 39.4929 36.3103C39.4429 36.3261 39.4075 36.3738 39.3958 36.425C39.3841 36.476 39.3927 36.5298 39.408 36.58C39.4393 36.6818 39.4985 36.7748 39.5779 36.8461Z" fill="white"/>
<path d="M45.2296 37.4377L45.3174 37.4856C45.395 37.382 45.4354 37.2513 45.4297 37.1219C45.4273 37.0673 45.4162 37.0115 45.3852 36.9663C45.3543 36.9211 45.3005 36.889 45.2463 36.8953C45.1942 36.9013 45.1506 36.9419 45.1294 36.9898C45.1083 37.0377 45.1068 37.0922 45.1124 37.1444C45.1241 37.2502 45.165 37.3528 45.2294 37.4375L45.2296 37.4377Z" fill="white"/>
<path d="M43.4743 38.5314L43.5623 38.5793C43.6399 38.4757 43.6803 38.345 43.6746 38.2157C43.6722 38.161 43.661 38.1052 43.6301 38.06C43.5992 38.0149 43.5454 37.9827 43.4911 37.9891C43.4391 37.9951 43.3955 38.0356 43.3743 38.0836C43.3532 38.1315 43.3516 38.186 43.3573 38.2382C43.369 38.344 43.4099 38.4465 43.4743 38.5314Z" fill="white"/>
<path d="M41.0231 38.7853L41.1108 38.8332C41.1885 38.7298 41.2289 38.5989 41.2232 38.4696C41.2208 38.4149 41.2096 38.3591 41.1787 38.3139C41.1478 38.2688 41.094 38.2366 41.0397 38.243C40.9877 38.249 40.944 38.2895 40.9229 38.3375C40.9018 38.3854 40.9002 38.4399 40.9059 38.4921C40.9176 38.5979 40.9586 38.7005 41.0231 38.7853Z" fill="white"/>
<path d="M47.1708 38.5041L47.2588 38.552C47.3364 38.4486 47.3768 38.3177 47.3711 38.1883C47.3687 38.1337 47.3576 38.0779 47.3266 38.0327C47.2957 37.9877 47.242 37.9554 47.1877 37.9617C47.1356 37.9677 47.092 38.0083 47.0709 38.0562C47.0497 38.1041 47.0482 38.1586 47.0538 38.2108C47.0655 38.3166 47.1064 38.4192 47.1708 38.5039V38.5041Z" fill="white"/>
<path d="M34.116 38.1324C33.5091 39.4912 34.1155 41.2867 35.0576 42.4385C35.9996 43.5905 37.4746 44.2364 38.9586 44.3472C40.4427 44.458 41.9326 44.0706 43.2782 43.4347C45.2681 42.4943 47.0612 40.8945 47.688 38.7847C48.1589 37.1998 47.9112 35.4163 47.0265 34.0195C46.6896 33.4877 46.2311 32.9887 45.6252 32.8174C44.8124 32.5875 43.9399 33.0117 43.3438 33.6103C42.7477 34.209 42.3466 34.9698 41.8396 35.6456C41.3327 36.3214 40.6566 36.9452 39.8205 37.0658C39.8205 37.0658 38.9636 37.3369 36.3652 36.9412C34.8973 36.7178 34.1162 38.1321 34.1162 38.1321L34.116 38.1324Z" fill="#C8EBBB"/>
<path opacity="0.3" d="M43.6634 41.1249C43.0687 39.8529 42.3699 38.5025 41.6768 37.2812C42.5864 38.4099 43.2692 39.7297 43.6634 41.1249Z" fill="white"/>
<path opacity="0.3" d="M44.8263 38.8492C43.861 38.2328 42.9671 37.524 42.1487 36.7227C43.1145 37.3383 44.0072 38.0485 44.8263 38.8492Z" fill="white"/>
<path opacity="0.3" d="M45.299 36.9933C44.4447 36.6602 43.6447 36.2239 42.9038 35.6836C43.7584 36.0158 44.5576 36.4539 45.299 36.9933Z" fill="white"/>
<path opacity="0.3" d="M45.4288 34.6829C44.7392 34.8947 43.9497 34.8126 43.3196 34.4609C44.0335 34.5843 44.7047 34.6559 45.4288 34.6829Z" fill="white"/>
<path opacity="0.3" d="M40.6513 42.3076C40.3359 40.861 40.1339 39.3805 40.0505 37.9023C40.3661 39.3491 40.5678 40.8292 40.6513 42.3076Z" fill="white"/>
<path opacity="0.3" d="M41.9792 41.4481C41.5178 40.3937 41.167 39.3022 40.9307 38.1758C41.3929 39.2299 41.7418 40.3221 41.9792 41.4481Z" fill="white"/>
<path opacity="0.3" d="M38.374 41.2707C38.2182 40.1016 38.1791 38.9269 38.2593 37.75C38.4161 38.9192 38.4534 40.0938 38.374 41.2707Z" fill="white"/>
<path opacity="0.3" d="M36.9623 41.0102C36.9492 40.0403 37.0521 39.081 37.2739 38.1367C37.288 39.1066 37.183 40.0657 36.9623 41.0102Z" fill="white"/>
<path opacity="0.3" d="M35.2117 39.8912C35.1584 39.4769 35.2211 39.0765 35.401 38.6992C35.4551 39.1136 35.3907 39.5138 35.2117 39.8912Z" fill="white"/>
<path opacity="0.3" d="M47.0261 34.0192C47.9108 35.416 48.1584 37.1994 47.6875 38.7843C47.0608 40.894 45.2676 42.494 43.2778 43.4343C41.9324 44.0701 40.4423 44.4575 38.9583 44.3469C37.4742 44.2361 35.9995 43.5902 35.0574 42.4383C34.4749 41.7261 34.0212 40.7677 33.9028 39.8188C35.2479 41.7229 36.9362 43.8435 40.9312 43.1289C45.7213 42.2721 48.1896 37.9529 46.6817 34.4803C45.9956 32.9004 44.7242 33.0368 43.8126 33.2188C44.3523 32.8471 45.0056 32.6423 45.6247 32.8172C46.2306 32.9885 46.6891 33.4875 47.026 34.0194L47.0261 34.0192Z" fill="black"/>
<g opacity="0.2">
<path d="M45.4159 33.7668C45.787 33.9483 46.0558 34.2965 46.2202 34.6755C46.675 35.7251 46.3896 36.9315 46.0983 38.0378C45.9753 38.5051 45.8289 39.0081 45.4426 39.2982C45.0562 39.5884 44.3603 39.4824 44.2607 39.0096C44.3519 39.617 44.4395 40.2593 44.2076 40.8281C43.9757 41.3969 43.299 41.8324 42.7395 41.5792C42.3343 41.3957 42.1376 40.9406 41.9904 40.5208C41.6516 39.5538 41.2586 38.263 41.0657 37.2567C41.503 36.7041 41.8404 36.2511 42.264 35.609C42.6342 35.0477 43.0111 34.5229 43.5354 34.1022C44.0597 33.6815 44.812 33.4715 45.4158 33.7669L45.4159 33.7668Z" fill="white"/>
</g>
<g opacity="0.2">
<path d="M40.3985 37.4879C40.5762 38.567 40.7538 39.6463 40.9314 40.7255C40.9675 40.9447 41.0037 41.1672 40.984 41.3865C40.9642 41.6059 40.8814 41.8253 40.7186 41.9543C40.5083 42.1207 40.2158 42.1054 39.9505 42.0642C39.7061 42.0261 39.4477 41.9635 39.2675 41.7766C39.0634 41.565 39.0067 41.2453 38.9667 40.9485C38.8507 40.0904 38.7807 39.2272 38.757 38.3645C38.752 38.1817 38.7528 37.985 38.8518 37.8405C38.9351 37.7189 39.0736 37.6571 39.2087 37.6117C39.5362 37.502 40.0515 37.4621 40.3985 37.4879Z" fill="white"/>
</g>
<path d="M17.5218 35.0296C16.1499 35.2878 15.0895 36.7148 14.7049 38.0568C14.3202 39.3987 14.6104 40.8811 15.318 42.0844C16.0257 43.2878 17.1205 44.2295 18.3299 44.9271C20.1183 45.9588 22.3101 46.4862 24.2717 45.842C25.7453 45.3581 26.9882 44.214 27.5921 42.7855C27.8222 42.2414 27.9618 41.6213 27.7701 41.0626C27.5128 40.313 26.7197 39.867 25.9394 39.7274C25.1593 39.5877 24.3583 39.6851 23.5662 39.6554C22.7743 39.6257 21.932 39.4377 21.3923 38.8574C21.3923 38.8574 20.7254 38.3418 19.6418 36.1269C19.0295 34.8758 17.5216 35.0294 17.5216 35.0294L17.5218 35.0296Z" fill="#C8EBBB"/>
<path opacity="0.3" d="M20.3169 43.9882C20.9944 42.8065 21.6195 41.6256 22.2187 40.4023C21.8432 41.7095 21.1875 42.9436 20.3169 43.9882Z" fill="white"/>
<path opacity="0.3" d="M22.6924 43.6696C22.6447 42.5956 22.7132 41.5275 22.901 40.4688C22.9497 41.5427 22.8791 42.6109 22.6924 43.6696Z" fill="white"/>
<path opacity="0.3" d="M24.3765 43.0428C24.1695 42.2071 24.0783 41.3567 24.1063 40.4961C24.3141 41.3317 24.4034 42.1822 24.3765 43.0428Z" fill="white"/>
<path opacity="0.3" d="M26.2282 41.9089C25.691 41.4957 25.3305 40.8395 25.2722 40.1641C25.5658 40.7785 25.8676 41.3312 26.2282 41.9089Z" fill="white"/>
<path opacity="0.3" d="M17.7964 42.2979C18.7417 41.2724 19.7669 40.3318 20.8718 39.4805C19.9272 40.5067 18.9006 41.4457 17.7964 42.2979Z" fill="white"/>
<path opacity="0.3" d="M19.1689 42.8619C19.7295 41.9384 20.3836 41.0844 21.1316 40.3047C20.5717 41.2289 19.916 42.0816 19.1689 42.8619Z" fill="white"/>
<path opacity="0.3" d="M17.3779 39.9896C18.1917 39.2389 19.0765 38.5806 20.0311 38.0195C19.2179 38.7711 18.332 39.4276 17.3779 39.9896Z" fill="white"/>
<path opacity="0.3" d="M16.8257 38.7642C17.5628 38.2294 18.3577 37.796 19.2076 37.4688C18.4709 38.0044 17.6753 38.4361 16.8257 38.7642Z" fill="white"/>
<path opacity="0.3" d="M16.7505 36.8152C17.0381 36.5462 17.3808 36.3804 17.7707 36.3242C17.4835 36.5939 17.1401 36.7581 16.7505 36.8152Z" fill="white"/>
<path opacity="0.3" d="M27.5923 42.7846C26.9883 44.2131 25.7454 45.357 24.2718 45.8411C22.3102 46.4853 20.1184 45.9578 18.33 44.9262C17.1208 44.2286 16.0258 43.2869 15.3181 42.0835C14.6103 40.8802 14.3202 39.3978 14.705 38.0559C14.9429 37.2261 15.4392 36.3641 16.1076 35.7656C15.3584 37.8202 14.6256 40.2552 17.3116 42.9534C20.5321 46.1886 25.1814 45.7836 27.053 42.7653C27.9046 41.3921 27.1198 40.4847 26.4923 39.8792C27.0675 40.0967 27.5744 40.4909 27.7704 41.0617C27.9621 41.6204 27.8223 42.2405 27.5923 42.7846Z" fill="black"/>
<g opacity="0.2">
<path d="M26.9292 41.4068C26.9876 41.7899 26.8627 42.1833 26.6583 42.5126C26.0921 43.4243 25.0093 43.8489 24.0008 44.2155C23.5749 44.3703 23.1089 44.5263 22.6787 44.3835C22.2486 44.2408 21.9584 43.6476 22.2695 43.3181C21.85 43.713 21.4017 44.1238 20.8391 44.249C20.2767 44.3742 19.5792 44.0853 19.4755 43.5184C19.4002 43.1078 19.646 42.7131 19.8912 42.3752C20.4557 41.5972 21.2409 40.6044 21.9136 39.918C22.5734 39.9599 23.1029 39.9779 23.8244 39.9614C24.4548 39.947 25.0609 39.9571 25.6655 40.1365C26.2701 40.3158 26.834 40.7836 26.929 41.407L26.9292 41.4068Z" fill="white"/>
</g>
<g opacity="0.2">
<path d="M21.3769 39.5311C20.6398 40.2449 19.9027 40.9584 19.1654 41.6722C19.0156 41.8172 18.8634 41.9641 18.6839 42.0661C18.5044 42.1681 18.2908 42.2214 18.1043 42.1649C17.8634 42.0917 17.719 41.8579 17.6092 41.6315C17.5078 41.4226 17.4182 41.19 17.4658 40.9512C17.5199 40.6808 17.736 40.4663 17.9435 40.2768C18.543 39.7288 19.1712 39.2135 19.8237 38.7342C19.962 38.6327 20.1142 38.5282 20.2784 38.5273C20.4167 38.5267 20.5383 38.6002 20.6457 38.6802C20.9052 38.874 21.2113 39.25 21.3769 39.5314V39.5311Z" fill="white"/>
</g>
<path d="M32.2096 33.7888C32.1845 33.8683 31.5566 33.0596 29.9644 33.4602C28.3721 33.8608 27.3807 35.704 28.0873 37.9659C28.8562 40.4271 30.6908 41.6775 33.5718 41.2434C36.4528 40.8093 36.9744 38.6781 37.1386 38.1741C37.5751 36.8344 37.4265 33.9233 35.6444 33.1154C33.6837 32.2264 32.4006 33.1822 32.2096 33.7886V33.7888Z" fill="#F8BFDB"/>
<g opacity="0.3">
<path d="M33.3613 33.6419C33.1385 33.9978 32.7992 34.2948 32.384 34.3584C32.1043 34.4012 31.8192 34.3527 31.5431 34.2904C31.2798 34.2309 31.0193 34.1589 30.7627 34.0748C30.7627 34.0748 31.7541 33.953 32.1184 33.9784C32.4829 34.0038 32.7472 33.5464 33.0182 33.4775C33.2893 33.4086 33.4965 33.4256 33.3611 33.6419H33.3613Z" fill="#9F1258"/>
</g>
<g opacity="0.3">
<path d="M29.5657 34.375C28.8654 34.6402 28.485 35.1434 28.3328 35.8766C28.1806 36.6099 28.3359 37.6937 29.0184 38.5796C28.9064 37.8176 29.1306 36.4553 29.6214 35.8615C30.112 35.2676 30.8608 34.895 31.6302 34.8615C30.4183 34.6578 30.1747 34.46 29.5657 34.375Z" fill="white"/>
</g>
<g opacity="0.2">
<path d="M35.6441 33.1152C35.3426 32.9786 35.0574 32.8857 34.7894 32.8281C34.8343 32.8513 34.8805 32.8721 34.9243 32.891C35.967 33.3418 36.7126 34.3709 36.9117 35.4894C37.1108 36.6077 36.7912 37.7894 36.1354 38.7169C35.1102 40.1666 33.2523 40.98 31.4917 40.75C30.4747 40.617 29.5163 40.1388 28.7686 39.4382C29.7354 40.9041 31.339 41.5795 33.5711 41.2433C36.4521 40.8092 36.9737 38.6781 37.1379 38.1741C37.5744 36.8343 37.4258 33.9233 35.6437 33.1154L35.6441 33.1152Z" fill="#9F1258"/>
</g>
<g opacity="0.3">
<path d="M35.3236 33.6579C35.0136 33.2571 34.4055 33.1235 33.9557 33.3571L33.9301 33.4521C33.8348 33.6965 33.7396 33.9412 33.6443 34.1856C33.6223 34.242 33.6001 34.3029 33.6154 34.3613C33.6434 34.4677 33.7738 34.5046 33.8831 34.5166C34.2838 34.5613 34.6939 34.5216 35.0788 34.4009C35.2123 34.3589 35.3528 34.299 35.4212 34.177C35.5126 34.0142 35.4379 33.8055 35.3236 33.6577V33.6579Z" fill="white"/>
</g>
<path opacity="0.5" d="M30.1788 34.7862C30.1326 34.7122 30.062 34.6552 29.983 34.618C29.43 34.359 29.196 34.7543 28.8892 35.1545C28.6024 35.5287 28.4331 36.3048 28.6094 36.3912C28.7856 36.4776 29.268 35.6261 29.9938 35.1705C30.2326 35.0205 30.2589 34.9142 30.1788 34.7862Z" fill="white"/>
<path opacity="0.1" d="M30.9968 40.3427C30.9968 40.3427 32.5463 40.7867 34.1559 39.9141C35.7654 39.0412 35.8085 38.3398 35.8085 38.3398C35.8085 38.3398 34.4646 39.9491 30.9968 40.3427Z" fill="#9F1258"/>
<path d="M30.6823 37.6839C29.8946 38.0295 29.309 38.7539 29.0201 39.564C28.7311 40.3742 28.6516 41.5236 29.2169 42.5653C29.2331 42.4883 28.5532 44.9687 29.4927 46.2245C30.2918 47.2926 32.1393 47.9236 33.4557 47.708C34.4736 47.5412 35.3758 46.9554 36.1574 46.2825C36.939 45.6096 37.6332 44.8378 38.4385 44.1935C39.0432 43.7095 39.7683 43.2014 39.8473 42.4308C39.8885 42.0279 39.7324 41.6237 39.4921 41.2979C39.2516 40.972 38.9317 40.7141 38.6069 40.4726C37.3956 39.5721 36.0634 38.8446 34.6929 38.2123C34.0613 37.9208 33.4143 37.6471 32.731 37.5159C32.0478 37.3846 31.3194 37.404 30.6824 37.6835L30.6823 37.6839Z" fill="#C8EBBB"/>
<g opacity="0.3">
<path d="M38.6036 40.7139C38.8501 40.8988 39.1178 41.1326 39.1155 41.4406C39.114 41.6517 38.6534 42.3356 38.5189 42.4986C37.061 44.2659 34.7663 45.0836 32.5544 45.6807C31.9576 45.8419 31.351 45.9936 30.733 45.9985C30.186 46.0028 29.6231 45.8816 29.1704 45.5808C29.2463 45.8137 29.351 46.032 29.4932 46.2222C30.2923 47.2904 32.1399 47.9213 33.4563 47.7057C34.4741 47.5389 35.3763 46.9531 36.1579 46.2803C36.9395 45.6074 37.6337 44.8356 38.439 44.1912C39.0437 43.7073 39.7688 43.1991 39.8478 42.4285C39.8891 42.0257 39.7329 41.6215 39.4926 41.2956C39.2521 40.9697 38.9322 40.7119 38.6074 40.4703C37.3961 39.5698 36.064 38.8423 34.6935 38.21C34.0618 37.9185 33.4149 37.6448 32.7315 37.5136C32.6379 37.4956 32.5432 37.4808 32.4482 37.4688C34.0087 37.9099 36.7554 39.3287 38.6036 40.7139Z" fill="white"/>
</g>
<path d="M35.6884 41.7669L35.6562 41.8618C35.7715 41.9207 35.9074 41.938 36.0337 41.9104C36.0871 41.8987 36.1402 41.8781 36.1793 41.8401C36.2185 41.802 36.241 41.7436 36.2255 41.6912C36.2106 41.6409 36.1634 41.6048 36.1125 41.5922C36.0617 41.5797 36.0077 41.5874 35.9574 41.6019C35.855 41.6314 35.761 41.6893 35.6885 41.7673L35.6884 41.7669Z" fill="white"/>
<path d="M38.0712 41.7867L38.0391 41.8815C38.1543 41.9404 38.2902 41.9578 38.4165 41.9301C38.4699 41.9184 38.523 41.8978 38.5621 41.8597C38.6013 41.8216 38.6238 41.7632 38.6084 41.7108C38.5934 41.6604 38.5462 41.6244 38.4953 41.6118C38.4445 41.5993 38.3905 41.6068 38.3402 41.6214C38.2378 41.651 38.1439 41.7089 38.0714 41.7869L38.0712 41.7867Z" fill="white"/>
<path d="M37.1132 43.6812L37.0811 43.776C37.1963 43.835 37.3322 43.8523 37.4585 43.8247C37.5119 43.813 37.565 43.7924 37.6041 43.7542C37.6433 43.7161 37.6658 43.6577 37.6503 43.6053C37.6354 43.555 37.5882 43.5189 37.5373 43.5063C37.4865 43.4938 37.4325 43.5014 37.3822 43.516C37.2798 43.5455 37.1858 43.6034 37.1134 43.6814L37.1132 43.6812Z" fill="white"/>
<path d="M34.9882 43.6384L34.9561 43.7332C35.0713 43.7922 35.2072 43.8095 35.3335 43.7817C35.3869 43.77 35.44 43.7494 35.4791 43.7113C35.5183 43.6731 35.5408 43.6147 35.5252 43.5623C35.5102 43.512 35.463 43.4759 35.4121 43.4634C35.3613 43.4508 35.3074 43.4584 35.257 43.473C35.1546 43.5025 35.0607 43.5604 34.9882 43.6384Z" fill="white"/>
<path d="M34.9974 45.74L34.9651 45.8348C35.0804 45.8937 35.2162 45.9111 35.3425 45.8833C35.3959 45.8716 35.449 45.851 35.4882 45.8128C35.5273 45.7747 35.5498 45.7163 35.5342 45.6639C35.5193 45.6135 35.472 45.5775 35.4212 45.5649C35.3703 45.5524 35.3164 45.56 35.2661 45.5746C35.1637 45.6041 35.0699 45.662 34.9974 45.74Z" fill="white"/>
<path d="M33.7638 40.2515L33.7317 40.3463C33.847 40.4052 33.9828 40.4226 34.1091 40.3949C34.1625 40.3832 34.2156 40.3626 34.2548 40.3245C34.2939 40.2864 34.3164 40.228 34.3008 40.1756C34.2859 40.1252 34.2386 40.0892 34.1878 40.0766C34.1369 40.0641 34.083 40.0718 34.0327 40.0862C33.9303 40.1158 33.8363 40.1735 33.7638 40.2517V40.2515Z" fill="white"/>
<path d="M33.9232 38.654L33.8911 38.7488C34.0064 38.8077 34.1423 38.825 34.2685 38.7974C34.3219 38.7857 34.375 38.7651 34.4142 38.727C34.4534 38.6888 34.4759 38.6304 34.4604 38.578C34.4455 38.5277 34.3982 38.4916 34.3474 38.4791C34.2965 38.4664 34.2426 38.4741 34.1923 38.4887C34.0899 38.5182 33.9959 38.5761 33.9234 38.6541L33.9232 38.654Z" fill="white"/>
<path d="M36.0049 39.8057L35.9319 39.874C36.0058 39.9802 36.1174 40.0596 36.242 40.0946C36.2945 40.1094 36.3512 40.1164 36.4036 40.1011C36.4562 40.086 36.5034 40.045 36.5144 39.9914C36.5249 39.94 36.5001 39.8859 36.4613 39.8508C36.4223 39.8158 36.3711 39.7972 36.3199 39.7862C36.2158 39.7641 36.1056 39.7708 36.0049 39.8055V39.8057Z" fill="white"/>
<path d="M33.214 44.7086L33.1819 44.8035C33.2972 44.8622 33.433 44.8797 33.5593 44.8521C33.6127 44.8404 33.6658 44.8198 33.705 44.7816C33.7441 44.7435 33.7666 44.6851 33.7512 44.6327C33.7362 44.5826 33.689 44.5463 33.6381 44.5338C33.5873 44.521 33.5334 44.5288 33.483 44.5434C33.3806 44.5729 33.2867 44.6308 33.2142 44.7088L33.214 44.7086Z" fill="white"/>
<path d="M32.3467 46.5719L32.3145 46.6667C32.4297 46.7257 32.5656 46.743 32.6919 46.7154C32.7453 46.7037 32.7984 46.6831 32.8375 46.6449C32.8767 46.6068 32.8992 46.5484 32.8837 46.496C32.8688 46.4457 32.8216 46.4096 32.7707 46.397C32.7199 46.3843 32.6659 46.3921 32.6156 46.4067C32.5132 46.4362 32.4192 46.4941 32.3467 46.5721V46.5719Z" fill="white"/>
<path d="M33.4193 42.2751L33.3872 42.3699C33.5025 42.4287 33.6384 42.4462 33.7646 42.4184C33.818 42.4067 33.8711 42.3861 33.9103 42.3479C33.9495 42.3098 33.972 42.2514 33.9563 42.199C33.9414 42.1487 33.8941 42.1126 33.8433 42.1C33.7924 42.0875 33.7385 42.0952 33.6882 42.1097C33.5858 42.1392 33.4918 42.1971 33.4193 42.2751Z" fill="white"/>
<path d="M31.8148 40.9821L31.7827 41.0769C31.898 41.1358 32.0339 41.1532 32.1601 41.1253C32.2135 41.1137 32.2666 41.093 32.3058 41.0551C32.345 41.0169 32.3675 40.9585 32.352 40.9061C32.3371 40.8558 32.2898 40.8197 32.239 40.8072C32.1881 40.7945 32.1342 40.8022 32.0839 40.8168C31.9815 40.8464 31.8875 40.9043 31.815 40.9822L31.8148 40.9821Z" fill="white"/>
<path d="M31.964 38.4L31.9319 38.4948C32.0472 38.5537 32.183 38.5711 32.3093 38.5434C32.3627 38.5317 32.4158 38.5111 32.455 38.473C32.4941 38.4348 32.5166 38.3764 32.501 38.324C32.4861 38.2737 32.4388 38.2376 32.388 38.2251C32.3371 38.2126 32.2832 38.2201 32.2329 38.2347C32.1305 38.2643 32.0365 38.322 31.964 38.4001V38.4Z" fill="white"/>
<path d="M31.2795 44.0439L31.2302 44.131C31.3324 44.2104 31.4626 44.253 31.592 44.2494C31.6466 44.2478 31.7026 44.2377 31.7483 44.2075C31.7939 44.1774 31.827 44.1242 31.8215 44.0697C31.8164 44.0175 31.7767 43.9732 31.7289 43.9513C31.6813 43.9294 31.6269 43.927 31.5747 43.9318C31.4687 43.9417 31.3654 43.9809 31.2797 44.0439H31.2795Z" fill="white"/>
<path d="M30.2107 42.2705L30.1614 42.3576C30.2636 42.437 30.3938 42.4796 30.5232 42.476C30.5778 42.4744 30.6338 42.4643 30.6795 42.434C30.7252 42.404 30.7582 42.3507 30.7527 42.2963C30.7475 42.244 30.7077 42.1997 30.6601 42.1779C30.6125 42.1559 30.558 42.1535 30.5058 42.1583C30.3998 42.1681 30.2966 42.2075 30.2107 42.2705Z" fill="white"/>
<path d="M29.999 39.8135L29.9497 39.9006C30.0519 39.9799 30.1821 40.0225 30.3115 40.0189C30.3661 40.0174 30.4221 40.0072 30.4678 39.977C30.5133 39.9469 30.5465 39.8937 30.541 39.8392C30.5358 39.787 30.4962 39.7427 30.4484 39.7209C30.4008 39.6989 30.3464 39.6965 30.2941 39.7013C30.1881 39.7111 30.0849 39.7504 29.999 39.8135Z" fill="white"/>
<path d="M30.1763 45.9658L30.127 46.0529C30.2292 46.1323 30.3594 46.1749 30.4887 46.1713C30.5434 46.1697 30.5995 46.1596 30.6451 46.1294C30.6907 46.0993 30.7237 46.046 30.7182 45.9916C30.7131 45.9394 30.6734 45.895 30.6256 45.8732C30.5781 45.8512 30.5236 45.8488 30.4714 45.8536C30.3654 45.8634 30.2621 45.9028 30.1763 45.9658Z" fill="white"/>
<path d="M37.183 46.4027C36.6251 44.117 34.6049 42.5041 32.2549 42.3883C31.1938 42.3361 29.7853 42.1055 28.9056 41.3236C27.3453 39.9368 22.0028 37.2633 19.1874 41.7013C16.372 46.1394 20.4693 52.1682 25.5458 53.4368C30.6224 54.7054 38.4041 52.6744 37.2172 46.5549C37.2172 46.5549 37.2069 46.5001 37.183 46.4027Z" fill="#C8EBBB"/>
<path opacity="0.3" d="M37.183 46.4027C36.6251 44.117 34.6049 42.5041 32.2549 42.3883C31.1938 42.3361 29.7853 42.1055 28.9056 41.3236C27.3453 39.9368 22.0028 37.2633 19.1874 41.7013C16.372 46.1394 20.4693 52.1682 25.5458 53.4368C30.6224 54.7054 38.4041 52.6744 37.2172 46.5549C37.2172 46.5549 37.2069 46.5001 37.183 46.4027Z" fill="black"/>
<path d="M37.3119 45.3869C36.754 43.1012 34.7338 41.4885 32.3838 41.3727C31.3227 41.3205 29.9144 41.0899 29.0345 40.308C27.4742 38.9211 22.1317 36.2477 19.3163 40.6857C16.5009 45.1238 20.5982 51.1525 25.6747 52.4212C30.7513 53.6898 38.533 51.6588 37.3461 45.5393C37.3461 45.5393 37.3358 45.4845 37.3119 45.3871V45.3869Z" fill="#C8EBBB"/>
<path opacity="0.3" d="M37.3119 45.3869C36.754 43.1012 34.7338 41.4885 32.3838 41.3727C31.3227 41.3205 29.9144 41.0899 29.0345 40.308C27.4742 38.9211 22.1317 36.2477 19.3163 40.6857C16.5009 45.1238 20.5982 51.1525 25.6747 52.4212C30.7513 53.6898 38.533 51.6588 37.3461 45.5393C37.3461 45.5393 37.3358 45.4845 37.3119 45.3871V45.3869Z" fill="white"/>
<path opacity="0.6" d="M36.6174 45.5446C36.062 43.3347 34.1681 41.7468 31.9964 41.5939C31.0159 41.5248 29.7113 41.2781 28.8852 40.5099C27.4201 39.1475 22.4402 36.48 19.9191 40.7018C17.398 44.9236 20.9665 50.3229 25.6761 51.6336C30.3858 52.9444 37.8555 51.6025 36.6516 45.6916C36.6516 45.6916 36.6409 45.6385 36.6174 45.5446Z" fill="white"/>
<g opacity="0.3">
<path d="M31.1634 43.307C31.2429 43.2214 31.3072 43.1196 31.3511 43.0101C31.4774 42.6965 31.3546 42.3333 31.0806 42.1354C30.4199 41.6584 29.6597 41.4479 28.8508 41.22C28.4926 41.119 28.0675 41.0274 27.8125 41.3802C27.7217 41.506 27.6813 41.6623 27.6804 41.8176C27.6767 42.4647 28.0548 43.0727 28.5947 43.4167C29.0733 43.7217 29.6675 43.8252 30.2289 43.7424C30.5755 43.6913 30.9249 43.5634 31.1636 43.307H31.1634Z" fill="black"/>
</g>
<path d="M30.2696 42.2715C30.3008 42.2378 30.3261 42.1976 30.3434 42.1547C30.3931 42.0312 30.3448 41.8882 30.2369 41.8103C29.9768 41.6225 29.6774 41.5397 29.3591 41.4498C29.2181 41.4102 29.0507 41.3741 28.9503 41.5131C28.9145 41.5625 28.8985 41.6242 28.8982 41.6852C28.8967 41.9399 29.0456 42.1792 29.2581 42.3148C29.4465 42.4349 29.6805 42.4756 29.9014 42.4429C30.0378 42.4228 30.1754 42.3725 30.2694 42.2715H30.2696Z" fill="#263238"/>
<path opacity="0.3" d="M28.1288 53.789L29.3794 52.7681C28.4571 52.8427 27.5265 52.7932 26.587 52.6094L25.3765 53.3924C25.3765 53.3924 26.8844 53.8004 28.1288 53.7888V53.789Z" fill="white"/>
<path d="M50.1688 48.8428C52.4978 48.5095 54.2993 46.6553 54.6427 44.3278C54.7979 43.2768 55.1639 41.8974 56.0277 41.0977C57.5595 39.6794 60.739 34.6219 56.5954 31.3888C52.4518 28.1556 46.0537 31.6482 44.298 36.5777C42.5424 41.5072 43.8081 49.4492 50.014 48.8622C50.014 48.8622 50.0697 48.8572 50.1688 48.843V48.8428Z" fill="#C8EBBB"/>
<path opacity="0.3" d="M50.1688 48.8428C52.4978 48.5095 54.2993 46.6553 54.6427 44.3278C54.7979 43.2768 55.1639 41.8974 56.0277 41.0977C57.5595 39.6794 60.739 34.6219 56.5954 31.3888C52.4518 28.1556 46.0537 31.6482 44.298 36.5777C42.5424 41.5072 43.8081 49.4492 50.014 48.8622C50.014 48.8622 50.0697 48.8572 50.1688 48.843V48.8428Z" fill="black"/>
<path d="M51.1663 49.0693C53.4954 48.7361 55.2969 46.882 55.6403 44.5543C55.7954 43.5033 56.1615 42.1239 57.0252 41.3243C58.557 39.906 61.7366 34.8483 57.593 31.6153C53.4494 28.3822 47.0512 31.8747 45.2956 36.8043C43.54 41.7338 44.8057 49.6757 51.0116 49.0887C51.0116 49.0887 51.0672 49.0836 51.1663 49.0693Z" fill="#C8EBBB"/>
<path opacity="0.3" d="M51.1663 49.0693C53.4954 48.7361 55.2969 46.882 55.6403 44.5543C55.7954 43.5033 56.1615 42.1239 57.0252 41.3243C58.557 39.906 61.7366 34.8483 57.593 31.6153C53.4494 28.3822 47.0512 31.8747 45.2956 36.8043C43.54 41.7338 44.8057 49.6757 51.0116 49.0887C51.0116 49.0887 51.0672 49.0836 51.1663 49.0693Z" fill="white"/>
<path opacity="0.6" d="M51.0787 48.3353C53.332 47.997 55.0964 46.2665 55.4596 44.1197C55.6234 43.1505 55.9957 41.876 56.8405 41.1284C58.3387 39.8026 61.4772 35.1053 57.5201 32.1862C53.5631 29.267 47.8426 32.2944 46.0808 36.8544C44.319 41.4146 44.9292 48.9793 50.9289 48.355C50.9289 48.355 50.9827 48.3497 51.0787 48.3353Z" fill="white"/>
<g opacity="0.3">
<path d="M53.8321 43.1514C53.9096 43.2389 54.0048 43.3127 54.1094 43.367C54.4093 43.523 54.7826 43.4363 55.0063 43.1825C55.5452 42.5713 55.8284 41.8351 56.1339 41.0522C56.2691 40.7054 56.4015 40.2914 56.0751 40.0031C55.9588 39.9004 55.8071 39.8451 55.6527 39.8291C55.009 39.7625 54.3672 40.0798 53.9723 40.5838C53.6224 41.0304 53.4616 41.6119 53.4894 42.1786C53.5066 42.5285 53.5999 42.8888 53.8321 43.1513V43.1514Z" fill="black"/>
</g>
<path d="M54.9506 42.3622C54.981 42.3968 55.0186 42.4258 55.0597 42.4471C55.1777 42.5086 55.3247 42.4744 55.4127 42.3744C55.6248 42.1338 55.7363 41.844 55.8566 41.5358C55.9098 41.3992 55.9621 41.2362 55.8334 41.1228C55.7875 41.0824 55.7279 41.0606 55.6671 41.0543C55.4137 41.028 55.161 41.1529 55.0056 41.3514C54.8678 41.5274 54.8046 41.7562 54.8154 41.9793C54.8221 42.1171 54.8589 42.259 54.9502 42.3622H54.9506Z" fill="#263238"/>
<path opacity="0.3" d="M43.6972 39.1149L44.5917 40.4586C44.6071 39.5333 44.7466 38.612 45.0208 37.6949L44.3589 36.4141C44.3589 36.4141 43.8064 37.8753 43.697 39.1149H43.6972Z" fill="white"/>
<path d="M43.8141 41.792C43.7327 41.8095 44.1254 40.864 42.9902 39.6776C41.8551 38.4913 39.7628 38.5402 38.1456 40.2723C36.3858 42.157 36.2054 44.3699 38.0064 46.66C39.8074 48.95 41.918 48.3503 42.4373 48.2442C43.8177 47.9616 46.2751 46.3939 46.0968 44.4453C45.9006 42.3015 44.4356 41.6583 43.8141 41.7918V41.792Z" fill="#F8BFDB"/>
<g opacity="0.3">
<path d="M44.5117 42.7168C44.0922 42.6989 43.6662 42.5507 43.4058 42.2214C43.2304 41.9994 43.1316 41.7275 43.0493 41.4568C42.9708 41.1984 42.9047 40.9364 42.8511 40.6719C42.8511 40.6719 43.4468 41.4734 43.6049 41.8029C43.7629 42.1324 44.2911 42.136 44.4851 42.3377C44.679 42.5393 44.7665 42.7278 44.5117 42.717V42.7168Z" fill="#9F1258"/>
</g>
<g opacity="0.3">
<path d="M41.9968 39.7851C41.4202 39.3072 40.7949 39.2253 40.0821 39.4553C39.3694 39.6853 38.5039 40.356 38.071 41.387C38.6781 40.9131 39.9734 40.4348 40.732 40.568C41.4906 40.7011 42.1846 41.1678 42.5941 41.8203C42.1724 40.666 42.2239 40.3565 41.9968 39.7851Z" fill="white"/>
</g>
<g opacity="0.2">
<path d="M46.0969 44.4462C46.0669 44.1167 46.0066 43.8227 45.9241 43.5615C45.926 43.612 45.931 43.6624 45.9361 43.71C46.0595 44.8393 45.5333 45.9961 44.6594 46.7217C43.7856 47.4475 42.6004 47.7536 41.4701 47.6416C39.7031 47.4667 38.0779 46.2536 37.4079 44.6093C37.0209 43.6595 36.963 42.5899 37.2026 41.5938C36.406 43.1587 36.6112 44.8865 38.0067 46.661C39.8077 48.9511 41.9183 48.3514 42.4376 48.2452C43.818 47.9627 46.2754 46.395 46.0971 44.4464L46.0969 44.4462Z" fill="#9F1258"/>
</g>
<g opacity="0.3">
<path d="M45.4681 44.4355C45.6632 43.9679 45.4789 43.373 45.0535 43.0977L44.9582 43.1224C44.6985 43.1604 44.4389 43.1983 44.1792 43.2365C44.1194 43.2452 44.0553 43.256 44.0122 43.2983C43.9335 43.3753 43.966 43.5067 44.0094 43.6077C44.1687 43.9782 44.4057 44.3151 44.701 44.5899C44.8034 44.6853 44.925 44.7779 45.0649 44.777C45.2516 44.776 45.3961 44.608 45.4681 44.4355Z" fill="white"/>
</g>
<path opacity="0.5" d="M41.9442 40.5205C41.9858 40.4437 42.0006 40.3542 41.9937 40.2671C41.9456 39.6583 41.4864 39.6504 40.9869 39.5812C40.5198 39.5166 39.7616 39.7531 39.7736 39.949C39.7856 40.145 40.7643 40.1434 41.5191 40.5493C41.7675 40.6828 41.8724 40.6533 41.9442 40.5205Z" fill="white"/>
<path opacity="0.1" d="M37.516 43.9767C37.516 43.9767 37.8957 45.5434 39.4498 46.5112C41.004 47.4792 41.6349 47.17 41.6349 47.17C41.6349 47.17 39.5718 46.7969 37.5159 43.9766L37.516 43.9767Z" fill="#9F1258"/>
<path d="M53.175 53.4472L52.9838 55.6021C52.9838 55.6021 49.7723 56.4607 47.2634 55.2058C44.7547 53.9509 42.551 48.1246 42.551 48.1246C42.7828 44.7249 46.7115 41.8945 46.7115 41.8945L53.175 53.4472Z" fill="#9F1258"/>
<path opacity="0.1" d="M53.175 53.4472L52.9838 55.6021C52.9838 55.6021 49.7723 56.4607 47.2634 55.2058C44.7547 53.9509 42.551 48.1246 42.551 48.1246C42.7828 44.7249 46.7115 41.8945 46.7115 41.8945L53.175 53.4472Z" fill="white"/>
<path d="M51.869 42.0218L46.711 41.8945C45.9485 42.1773 43.6213 44.9743 43.4567 46.3011C43.2924 47.628 46.2656 52.0116 47.3611 52.848C48.4565 53.6844 53.1746 53.4472 53.1746 53.4472L52.2715 45.5439L51.869 42.0218Z" fill="#9F1258"/>
<path opacity="0.3" d="M51.869 42.0218L46.711 41.8945C45.9485 42.1773 43.6213 44.9743 43.4567 46.3011C43.2924 47.628 46.2656 52.0116 47.3611 52.848C48.4565 53.6844 53.1746 53.4472 53.1746 53.4472L52.2715 45.5439L51.869 42.0218Z" fill="white"/>
<path opacity="0.3" d="M52.2377 45.2414C52.2377 45.2414 52.3643 45.8394 51.2151 44.0463C50.0659 42.2534 49.7836 42.3326 49.7836 42.3326C49.7836 42.3326 51.7205 45.0991 51.0883 45.418C50.4562 45.7368 48.807 42.665 48.807 42.665C48.807 42.665 49.9209 44.8183 49.9386 45.3573C49.9563 45.8964 46.6585 43.4583 46.6585 43.4583L49.4806 45.8875L49.1104 46.0467C49.1104 46.0467 44.8914 44.4173 45.0357 44.5554C45.18 44.6936 48.6074 46.1063 48.7055 46.3336C48.8036 46.5609 44.0051 45.8627 44.0051 45.8627C44.0051 45.8627 48.819 46.762 48.5016 47.0839C48.1843 47.406 44.3896 47.3167 44.3896 47.3167C44.3896 47.3167 48.5007 47.3758 48.6519 47.7347C48.8031 48.0935 45.1693 49.133 45.1693 49.133C45.1693 49.133 48.8467 48.2174 49.0006 48.5661C49.1544 48.9148 46.0133 50.7131 46.0133 50.7131C46.0133 50.7131 48.9245 49.1682 49.4287 49.4207C49.9329 49.6732 46.9679 51.9855 47.1488 52.0346C47.3297 52.0837 50.0518 49.5506 50.2397 49.8864C50.4278 50.2223 48.9578 53.0715 49.0788 53.1043C49.1997 53.1371 50.4441 50.1238 50.8286 50.1244C51.213 50.1249 50.4424 53.3448 50.6819 53.228C50.9213 53.1112 51.6959 49.9728 51.9943 50.1175C52.2927 50.2621 53.1198 52.9598 53.1198 52.9598L52.2377 45.2414Z" fill="white"/>
<path d="M49.1714 46.6514C49.4346 46.0599 50.2126 45.4834 52.2712 45.5434L52.682 49.1374C52.682 49.1374 50.866 49.094 49.6706 48.2904C49.1365 47.9313 48.9098 47.2392 49.1714 46.6514Z" fill="white"/>
<path opacity="0.3" d="M48.1027 46.2501C48.4882 45.3838 49.1803 44.7011 52.1956 44.7889L52.8616 50.7063C52.8616 50.7063 50.3742 50.7647 48.5313 49.0522C47.8409 48.4106 47.7194 47.111 48.1027 46.2501Z" fill="white"/>
<path d="M49.7458 46.5891C49.7126 46.7114 49.6061 46.843 49.414 46.791C49.2222 46.7389 49.0174 46.5226 49.0507 46.4003C49.084 46.278 49.2665 46.2212 49.4584 46.2732C49.6502 46.3253 49.7789 46.4668 49.7458 46.5889V46.5891Z" fill="#9F1258"/>
<path d="M52.5187 48.8351C52.4855 48.9574 52.379 49.089 52.187 49.037C51.9949 48.9849 51.7903 48.7687 51.8237 48.6463C51.8568 48.524 52.0394 48.4672 52.2313 48.5194C52.4232 48.5714 52.5519 48.713 52.5187 48.8351Z" fill="#9F1258"/>
<path d="M48.4625 46.6789C48.4294 46.8012 48.3229 46.9328 48.1308 46.8807C47.9389 46.8287 47.7342 46.6124 47.7675 46.4901C47.8007 46.3678 47.9833 46.3109 48.1751 46.3631C48.367 46.4152 48.4957 46.5567 48.4625 46.6789Z" fill="#9F1258"/>
<path d="M49.3362 47.3824C49.3755 47.5028 49.3492 47.6746 49.1321 47.7456C48.915 47.8165 48.5893 47.76 48.5499 47.6396C48.5106 47.5191 48.6546 47.3638 48.8717 47.2929C49.0888 47.222 49.2969 47.262 49.3362 47.3824Z" fill="#9F1258"/>
<path d="M50.882 48.9581C51.0299 49.0048 51.1873 49.1369 51.1184 49.3548C51.0495 49.5726 50.7807 49.7938 50.6326 49.7471C50.4847 49.7004 50.4204 49.4858 50.4893 49.268C50.5582 49.0502 50.7339 48.9116 50.8819 48.9583L50.882 48.9581Z" fill="#9F1258"/>
<path d="M51.7966 45.2903C51.9445 45.337 52.1018 45.4691 52.033 45.687C51.9641 45.9048 51.6952 46.126 51.5471 46.0791C51.3992 46.0324 51.335 45.8179 51.4039 45.6C51.4728 45.3822 51.6485 45.2436 51.7964 45.2903H51.7966Z" fill="#9F1258"/>
<path d="M50.5345 46.2204C50.3959 46.2727 50.1997 46.2669 50.1224 46.0627C50.0451 45.8584 50.1162 45.5334 50.2548 45.4808C50.3935 45.4284 50.5685 45.5514 50.6458 45.7557C50.7229 45.9599 50.6731 46.168 50.5345 46.2204Z" fill="#9F1258"/>
<path d="M51.7564 50.9039C51.6178 50.9563 51.4216 50.9505 51.3443 50.7462C51.267 50.542 51.3381 50.2168 51.4767 50.1644C51.6154 50.112 51.7904 50.235 51.8677 50.4393C51.945 50.6435 51.895 50.8516 51.7564 50.9039Z" fill="#9F1258"/>
<path d="M50.9387 45.1071C50.8001 45.1595 50.6039 45.1535 50.5266 44.9494C50.4495 44.7451 50.5204 44.4201 50.659 44.3675C50.7977 44.3151 50.9727 44.4381 51.05 44.6424C51.1273 44.8466 51.0773 45.0547 50.9387 45.1071Z" fill="#9F1258"/>
<path d="M49.449 45.6735C49.3104 45.7259 49.1142 45.72 49.0369 45.5158C48.9596 45.3115 49.0307 44.9865 49.1694 44.9339C49.308 44.8816 49.4831 45.0046 49.5604 45.2088C49.6377 45.4131 49.5877 45.6211 49.449 45.6735Z" fill="#9F1258"/>
<path d="M48.5999 48.534C48.6506 48.6733 48.642 48.8695 48.4369 48.9441C48.2318 49.0186 47.9075 48.9434 47.8569 48.8041C47.8063 48.6648 47.9317 48.4913 48.1368 48.4167C48.3421 48.3421 48.5494 48.3947 48.6001 48.534H48.5999Z" fill="#9F1258"/>
<path d="M50.3284 48.5738C50.3677 48.6942 50.3414 48.866 50.1243 48.937C49.9072 49.0079 49.5815 48.9514 49.5421 48.831C49.5028 48.7105 49.6467 48.5553 49.8639 48.4843C50.081 48.4134 50.289 48.4534 50.3284 48.5738Z" fill="#9F1258"/>
<path d="M43.6613 53.277C44.2669 52.666 44.5452 51.7772 44.5163 50.9174C44.4875 50.0578 44.1389 48.9596 43.2303 48.1986C43.2436 48.276 42.9644 45.7194 41.6291 44.8967C40.4935 44.1968 38.5432 44.2891 37.3981 44.9735C36.5129 45.5026 35.889 46.379 35.4093 47.2921C34.9297 48.2051 34.5678 49.1779 34.0555 50.0732C33.6709 50.7456 33.1834 51.4846 33.3929 52.2302C33.5025 52.6199 33.7965 52.9386 34.1397 53.1533C34.4831 53.3681 34.8753 53.4902 35.2662 53.5955C36.7237 53.9879 38.23 54.1749 39.7369 54.2593C40.4315 54.2981 41.1339 54.3149 41.8174 54.1859C42.5011 54.0569 43.1712 53.7712 43.661 53.2772L43.6613 53.277Z" fill="#C8EBBB"/>
<g opacity="0.3">
<path d="M35.1806 53.3674C34.8834 53.2861 34.5486 53.1669 34.4375 52.8797C34.3612 52.6826 34.5383 51.8773 34.6036 51.6765C35.3101 49.4971 37.1436 47.8933 38.9813 46.5252C39.4771 46.1562 39.9854 45.792 40.5585 45.5603C41.0656 45.3552 41.6337 45.2612 42.1652 45.3746C42.0089 45.1858 41.8314 45.0212 41.6294 44.8967C40.4937 44.1968 38.5434 44.2891 37.3983 44.9735C36.5131 45.5026 35.8892 46.379 35.4096 47.2921C34.93 48.2051 34.568 49.1779 34.0557 50.0732C33.6711 50.7456 33.1836 51.4846 33.3932 52.2302C33.5028 52.6199 33.7967 52.9386 34.1399 53.1533C34.4833 53.3681 34.8755 53.4902 35.2665 53.5955C36.7239 53.9879 38.2303 54.1749 39.7372 54.2593C40.4317 54.2981 41.1341 54.3149 41.8177 54.1859C41.9115 54.1682 42.0047 54.1473 42.0977 54.1236C40.4841 54.2868 37.4085 53.9767 35.1804 53.3675L35.1806 53.3674Z" fill="white"/>
</g>
<path d="M37.5056 51.3212L37.5008 51.2213C37.372 51.2089 37.2392 51.2426 37.132 51.3149C37.0867 51.3455 37.0447 51.3841 37.0224 51.4339C37.0001 51.4837 37.0006 51.5464 37.0343 51.5894C37.0666 51.6306 37.1238 51.6469 37.1758 51.6399C37.2279 51.6329 37.2751 51.6059 37.3165 51.5739C37.4009 51.5088 37.467 51.4205 37.5058 51.3212H37.5056Z" fill="white"/>
<path d="M35.281 52.1767L35.2762 52.0767C35.1474 52.0644 35.0148 52.098 34.9074 52.1703C34.8621 52.2009 34.8201 52.2396 34.7978 52.2894C34.7755 52.3392 34.776 52.4019 34.8097 52.4449C34.842 52.4861 34.8992 52.5022 34.9512 52.4954C35.0031 52.4883 35.0505 52.4614 35.0919 52.4294C35.1762 52.3643 35.2422 52.276 35.281 52.1767Z" fill="white"/>
<path d="M35.4763 50.0634L35.4715 49.9634C35.3427 49.9511 35.2099 49.9847 35.1027 50.0571C35.0574 50.0876 35.0154 50.1263 34.9931 50.1761C34.9708 50.2259 34.9713 50.2886 35.005 50.3316C35.0373 50.3728 35.0945 50.3891 35.1465 50.3821C35.1984 50.375 35.2458 50.3481 35.2874 50.3161C35.3717 50.251 35.4379 50.1627 35.4767 50.0634H35.4763Z" fill="white"/>
<path d="M37.4673 49.3212L37.4625 49.2213C37.3337 49.2089 37.2009 49.2426 37.0937 49.3149C37.0483 49.3455 37.0064 49.3841 36.9841 49.4339C36.9617 49.4837 36.9623 49.5464 36.9959 49.5894C37.0282 49.6306 37.0854 49.6469 37.1375 49.6399C37.1894 49.633 37.2368 49.6059 37.2782 49.5739C37.3625 49.5088 37.4285 49.4205 37.4673 49.3212Z" fill="white"/>
<path d="M36.688 47.372L36.6832 47.272C36.5544 47.2597 36.4216 47.2933 36.3144 47.3657C36.269 47.3962 36.2271 47.4349 36.2048 47.4847C36.1825 47.5345 36.183 47.5972 36.2166 47.6402C36.2489 47.6814 36.3061 47.6977 36.3582 47.6907C36.4101 47.6836 36.4575 47.6567 36.4989 47.6247C36.5832 47.5596 36.6494 47.4713 36.6882 47.372H36.688Z" fill="white"/>
<path d="M39.8515 52.0205L39.8467 51.9205C39.7179 51.9081 39.5851 51.9418 39.4777 52.0141C39.4324 52.0447 39.3904 52.0833 39.3681 52.1331C39.3458 52.183 39.3463 52.2457 39.38 52.2886C39.4123 52.3298 39.4695 52.3462 39.5215 52.3391C39.5734 52.3322 39.6208 52.3051 39.6622 52.2731C39.7466 52.208 39.8127 52.1197 39.8515 52.0205Z" fill="white"/>
<path d="M40.2901 53.5634L40.2853 53.4634C40.1564 53.4511 40.0236 53.4848 39.9164 53.5571C39.8711 53.5877 39.8292 53.6263 39.8068 53.6761C39.7845 53.7259 39.785 53.7886 39.8187 53.8316C39.851 53.8728 39.9082 53.8891 39.9602 53.8821C40.0121 53.8752 40.0595 53.8481 40.1009 53.8161C40.1853 53.751 40.2512 53.6627 40.2901 53.5634Z" fill="white"/>
<path d="M37.9313 53.2588L37.9741 53.1683C37.8662 53.0967 37.7333 53.0639 37.6046 53.0771C37.5503 53.0828 37.495 53.097 37.4519 53.1303C37.4086 53.1638 37.3795 53.2193 37.389 53.2731C37.3981 53.3248 37.4409 53.366 37.49 53.3842C37.5391 53.4026 37.5936 53.4011 37.6453 53.3923C37.7503 53.3746 37.8502 53.3279 37.9311 53.2587L37.9313 53.2588Z" fill="white"/>
<path d="M38.7251 47.6767L38.7203 47.5767C38.5915 47.5644 38.4587 47.598 38.3515 47.6704C38.3061 47.7009 38.2642 47.7396 38.2419 47.7894C38.2196 47.8392 38.2201 47.9019 38.2537 47.9449C38.286 47.9861 38.3434 48.0024 38.3953 47.9954C38.4473 47.9883 38.4946 47.9614 38.5362 47.9294C38.6205 47.8643 38.6866 47.776 38.7255 47.6767H38.7251Z" fill="white"/>
<path d="M38.8487 45.622L38.8438 45.522C38.715 45.5097 38.5822 45.5433 38.475 45.6157C38.4297 45.6462 38.3878 45.6847 38.3654 45.7347C38.3431 45.7845 38.3436 45.8472 38.3773 45.8902C38.4096 45.9314 38.467 45.9477 38.5188 45.9407C38.5709 45.9336 38.6181 45.9067 38.6597 45.8747C38.744 45.8096 38.8102 45.7213 38.849 45.622H38.8487Z" fill="white"/>
<path d="M39.429 50.0126L39.4242 49.9127C39.2953 49.9003 39.1625 49.934 39.0554 50.0063C39.01 50.0369 38.9681 50.0755 38.9458 50.1253C38.9234 50.1752 38.9239 50.2379 38.9576 50.2808C38.9899 50.322 39.0473 50.3383 39.0992 50.3313C39.1512 50.3244 39.1984 50.2973 39.24 50.2653C39.3244 50.2002 39.3905 50.1119 39.4293 50.0126H39.429Z" fill="white"/>
<path d="M41.3946 50.622L41.3897 50.522C41.2609 50.5097 41.1281 50.5433 41.0209 50.6157C40.9756 50.6462 40.9337 50.6849 40.9113 50.7347C40.889 50.7845 40.8895 50.8472 40.9232 50.8902C40.9555 50.9314 41.0129 50.9477 41.0647 50.9407C41.1168 50.9338 41.164 50.9067 41.2056 50.8747C41.2899 50.8096 41.3561 50.7213 41.3949 50.622H41.3946Z" fill="white"/>
<path d="M42.2048 53.0791L42.2 52.9791C42.0711 52.9667 41.9384 53.0004 41.831 53.0727C41.7856 53.1033 41.7437 53.1417 41.7214 53.1917C41.6991 53.2416 41.6996 53.3043 41.7332 53.3472C41.7655 53.3884 41.8227 53.4048 41.8748 53.3977C41.9268 53.3908 41.9741 53.3637 42.0155 53.3317C42.0998 53.2666 42.166 53.1783 42.2048 53.0791Z" fill="white"/>
<path d="M40.7688 47.5823L40.7827 47.4832C40.6585 47.447 40.5218 47.4552 40.4029 47.5061C40.3527 47.5275 40.3043 47.5576 40.2729 47.6024C40.2416 47.6473 40.2304 47.7088 40.2553 47.7574C40.2794 47.8039 40.3326 47.8306 40.3849 47.8335C40.4373 47.8364 40.4888 47.8187 40.5355 47.795C40.6305 47.7469 40.7121 47.6725 40.7686 47.5823H40.7688Z" fill="white"/>
<path d="M42.4146 48.8401L42.4285 48.741C42.3043 48.7048 42.1675 48.713 42.0485 48.7639C41.9983 48.7853 41.9499 48.8154 41.9184 48.8602C41.8872 48.9051 41.8758 48.9668 41.9009 49.0152C41.925 49.0617 41.9782 49.0884 42.0305 49.0913C42.0828 49.0942 42.1344 49.0765 42.1811 49.0528C42.2761 49.0047 42.3577 48.9303 42.4142 48.8401H42.4146Z" fill="white"/>
<path d="M43.5139 51.0433L43.5278 50.9442C43.4036 50.9079 43.2668 50.9161 43.1478 50.967C43.0976 50.9885 43.0492 51.0185 43.0177 51.0634C42.9865 51.1082 42.9753 51.1699 43.0002 51.2183C43.0243 51.2649 43.0775 51.2915 43.1297 51.2944C43.1821 51.2973 43.2337 51.2796 43.2804 51.2559C43.3754 51.2078 43.457 51.1335 43.5135 51.0433H43.5139Z" fill="white"/>
<path d="M41.0877 45.387L41.1016 45.2879C40.9774 45.2517 40.8407 45.2599 40.7218 45.3107C40.6717 45.3322 40.6232 45.3623 40.5918 45.4071C40.5605 45.452 40.5492 45.5135 40.5743 45.5621C40.5983 45.6086 40.6516 45.6352 40.7038 45.6382C40.7562 45.6411 40.8077 45.6234 40.8544 45.5997C40.9494 45.5516 41.031 45.4772 41.0876 45.387H41.0877Z" fill="white"/>
<path d="M48.4377 28.1521C48.3798 27.2031 47.8772 26.2906 47.1061 25.7344C47.126 26.6998 47.3677 27.6603 47.8071 28.52C47.3771 28.2764 46.9432 28.0311 46.4723 27.8812C46.0015 27.7312 45.4846 27.6819 45.0144 27.8343C46.0436 28.6403 47.3651 29.0644 48.671 29.0079C49.4463 28.1548 50.1609 27.2495 50.9362 26.3966C49.8704 26.476 48.8737 27.1763 48.4377 28.1521Z" fill="#F8BFDB"/>
<path d="M53.6273 29.0762C53.1115 28.3804 52.2694 27.9682 51.4092 27.8659C50.5491 27.7637 49.4033 27.9434 48.5075 28.7316C48.5866 28.7302 45.9997 28.6187 44.9776 29.8221C44.1082 30.8457 43.9029 32.8006 44.4095 34.0445C44.8012 35.0062 45.5785 35.7605 46.4141 36.3768C47.2496 36.9932 48.1627 37.5017 48.9757 38.1478C49.5863 38.6329 50.2475 39.2307 51.0215 39.1357C51.4262 39.0859 51.788 38.8421 52.0539 38.5331C52.3199 38.224 52.5013 37.8523 52.6657 37.4792C53.2781 36.0886 53.6938 34.6179 54.0071 33.131C54.1516 32.4456 54.2753 31.7493 54.2511 31.0493C54.2268 30.3493 54.0444 29.6388 53.6273 29.0762Z" fill="#C8EBBB"/>
<g opacity="0.3">
<path d="M50.8576 38.6973C50.3763 38.6973 49.887 38.3037 49.4139 37.923L49.2569 37.7973C48.7843 37.4219 48.2796 37.0916 47.7916 36.7721C47.4216 36.53 47.039 36.2796 46.6826 36.0166C45.7369 35.319 45.1301 34.6189 44.8278 33.8768C44.3616 32.7324 44.5925 30.975 45.322 30.1161C45.908 29.4261 47.3235 29.1813 48.3576 29.1813C48.421 29.1813 48.4629 29.1823 48.4784 29.1832L48.6722 29.2015L48.8063 29.072C49.577 28.3942 50.4879 28.293 50.9624 28.293C51.096 28.293 51.2288 28.3007 51.357 28.3158C52.1546 28.4105 52.8503 28.7863 53.2662 29.347C53.6785 29.9031 53.7848 30.5896 53.8013 31.0675C53.8226 31.6806 53.723 32.2995 53.5668 33.0404C53.219 34.6904 52.7895 36.0836 52.2539 37.3C52.0843 37.6849 51.9275 37.9924 51.7131 38.2415C51.491 38.4995 51.2263 38.659 50.9672 38.6909C50.931 38.6954 50.8942 38.6976 50.8576 38.6976V38.6973Z" fill="white"/>
</g>
<g opacity="0.3">
<path d="M52.9096 33.2783C52.555 33.4133 52.1271 33.2202 51.9388 32.8909C51.7505 32.5616 51.7808 32.1365 51.9563 31.8001C52.1319 31.4638 52.4356 31.209 52.7677 31.0259C52.1491 31.1994 51.4284 30.8632 51.1639 30.2778C50.8993 29.6923 51.123 28.9294 51.6619 28.5795C51.0605 28.5103 50.4766 28.2969 49.9705 27.9648C49.4649 28.0956 48.9549 28.3374 48.5074 28.7312C48.5708 28.73 46.9275 28.6592 45.7443 29.2472C45.958 29.6717 45.9544 30.1991 45.7917 30.6526C45.6001 31.1867 45.2196 31.6321 44.8079 32.0224C45.3182 31.7237 46.0481 31.8913 46.3771 32.3828C46.7059 32.8743 46.5826 33.6129 46.1119 33.9709C46.5054 33.7287 47.0321 33.5913 47.4174 33.8466C47.7677 34.0787 47.871 34.5663 47.7725 34.9747C47.6741 35.383 47.4159 35.7316 47.1637 36.0676C47.6408 35.6206 48.3923 35.4313 48.9716 35.7338C49.551 36.0363 49.8071 36.8897 49.3904 37.3932C49.6343 37.0656 50.0841 36.9143 50.4817 37.0071C50.7813 37.077 51.0424 37.2771 51.2061 37.5379C51.0926 37.2003 51.1149 36.8162 51.2816 36.5006C51.4954 36.0957 51.9355 35.8202 52.3932 35.8049C51.9776 35.535 51.8833 34.9391 52.0448 34.4708C52.2063 34.0026 52.5629 33.632 52.9094 33.278L52.9096 33.2783Z" fill="white"/>
</g>
<path opacity="0.3" d="M49.8786 27.9922C49.4035 28.1277 48.9278 28.3624 48.5075 28.7322C48.5631 28.7312 47.3003 28.6764 46.1904 29.0622C46.4739 29.9964 48.7103 36.3425 50.0133 36.1422C51.3941 35.9297 52.1376 35.1331 51.3941 31.9467C50.8217 29.4938 50.1554 28.3768 49.8788 27.9922H49.8786Z" fill="white"/>
<path d="M50.5583 31.1847C50.1586 29.4715 49.553 28.5353 49.307 28.207C49.0291 28.3395 48.7587 28.5107 48.5082 28.7311C48.5531 28.7303 47.7398 28.6944 46.8411 28.883C47.2295 29.9395 49.3416 35.1473 50.2072 35.014C51.1568 34.868 51.0695 33.376 50.5583 31.1847Z" fill="white"/>
<path d="M57.5085 44.0417C56.5622 44.1324 55.6675 44.6663 55.1384 45.4564C56.1027 45.4029 57.054 45.1283 57.8981 44.6591C57.6697 45.0973 57.4395 45.5393 57.3058 46.0152C57.1724 46.491 57.1409 47.0093 57.3094 47.4738C58.0794 46.4173 58.4575 45.0819 58.3558 43.7787C57.4764 43.0335 56.5469 42.3507 55.6675 41.6055C55.7838 42.6678 56.5182 43.6397 57.5084 44.0417H57.5085Z" fill="#263238"/>
<path d="M58.2512 38.8216C57.5739 39.3611 57.1908 40.2171 57.1186 41.0802C57.0463 41.9432 57.2655 43.0822 58.0842 43.9502C58.0801 43.8712 58.0583 46.4603 59.2963 47.4401C60.3496 48.2736 62.3103 48.4111 63.5358 47.8615C64.4832 47.4367 65.2102 46.6338 65.7974 45.7774C66.3845 44.9211 66.8609 43.9909 67.4784 43.156C67.9421 42.529 68.5167 41.8475 68.3947 41.0773C68.331 40.6746 68.0747 40.3214 67.7567 40.0663C67.4388 39.8112 67.0608 39.6429 66.6822 39.4915C65.2712 38.9277 63.787 38.5632 62.2902 38.3014C61.6003 38.1808 60.9001 38.0812 60.2013 38.1298C59.5025 38.1784 58.7989 38.385 58.2509 38.8214L58.2512 38.8216Z" fill="#C8EBBB"/>
<g opacity="0.3">
<path d="M67.9609 41.2597C67.9776 41.7407 67.6012 42.2433 67.2372 42.7293L67.117 42.8906C66.7581 43.3759 66.4455 43.8918 66.1431 44.3906C65.914 44.7687 65.6771 45.1599 65.4264 45.5251C64.762 46.4945 64.0834 47.1249 63.3523 47.4529C62.2247 47.9584 60.4605 47.7885 59.5767 47.0892C58.8667 46.5275 58.5729 45.1212 58.5372 44.0878C58.535 44.0244 58.5346 43.9825 58.535 43.967L58.5466 43.7727L58.4125 43.643C57.7083 42.8965 57.5757 41.9894 57.5592 41.5153C57.5546 41.3817 57.5577 41.2489 57.5685 41.1202C57.6355 40.3199 57.987 39.6114 58.5329 39.1763C59.0744 38.7451 59.7567 38.6151 60.2337 38.5819C60.8458 38.5395 61.4678 38.6175 62.2135 38.748C63.8745 39.0385 65.2818 39.4195 66.5161 39.9127C66.9067 40.0689 67.2193 40.2149 67.4756 40.4205C67.7412 40.6336 67.9097 40.8926 67.9506 41.1504C67.9563 41.1865 67.9597 41.2233 67.9611 41.2597H67.9609Z" fill="white"/>
</g>
<g opacity="0.3">
<path d="M62.4762 39.3945C62.6234 39.7441 62.4453 40.1786 62.1227 40.3782C61.8001 40.5778 61.3741 40.5621 61.032 40.3984C60.69 40.2346 60.4246 39.9399 60.2301 39.6142C60.4249 40.2265 60.114 40.9583 59.538 41.2431C58.962 41.5279 58.1919 41.3307 57.8236 40.8042C57.7753 41.4077 57.5823 41.9986 57.2681 42.5159C57.4161 43.0166 57.6755 43.5179 58.0847 43.9516C58.0815 43.8884 58.0675 45.5331 58.6961 46.6952C59.1129 46.4669 59.6401 46.4523 60.0991 46.5992C60.6395 46.7722 61.0978 47.1369 61.5022 47.5351C61.1861 47.0353 61.3284 46.2999 61.8082 45.9543C62.288 45.6087 63.0306 45.7064 63.4046 46.1644C63.1489 45.7794 62.9933 45.2579 63.2352 44.864C63.4549 44.506 63.9388 44.3857 64.3504 44.4701C64.762 44.5542 65.1191 44.8002 65.4637 45.0406C65.0006 44.5793 64.7852 43.8348 65.0676 43.2453C65.3498 42.6557 66.194 42.37 66.7116 42.7692C66.3757 42.5368 66.2089 42.0926 66.2878 41.692C66.3472 41.3902 66.5382 41.1222 66.7932 40.9495C66.4599 41.0748 66.0751 41.0658 65.754 40.9102C65.3419 40.7104 65.0514 40.2802 65.0202 39.8233C64.7649 40.2478 64.1726 40.3629 63.699 40.2177C63.2254 40.0726 62.8428 39.7288 62.4767 39.395L62.4762 39.3945Z" fill="white"/>
</g>
<path opacity="0.3" d="M57.2973 42.6066C57.4493 43.0768 57.7001 43.544 58.0844 43.9513C58.0815 43.8957 58.0705 45.1597 58.4945 46.2555C59.4183 45.9399 65.6831 43.4849 65.4376 42.1897C65.1776 40.8171 64.3556 40.1016 61.1968 40.9551C58.7652 41.612 57.672 42.3166 57.2971 42.6064L57.2973 42.6066Z" fill="white"/>
<path d="M60.4657 41.817C58.7674 42.2758 57.8526 42.9135 57.533 43.1707C57.6749 43.4438 57.8554 43.7082 58.0846 43.9509C58.0822 43.9061 58.0744 44.72 58.294 45.6117C59.3364 45.1871 64.4679 42.8958 64.3047 42.0352C64.1259 41.0912 62.6379 41.2302 60.4657 41.817Z" fill="white"/>
<path d="M60.8303 52.0183C59.5418 53.0619 57.4347 52.9248 55.9238 52.2413C54.4131 51.5579 53.2941 50.1555 52.7487 48.5897C52.2033 47.0238 52.1925 45.3084 52.4905 43.6773C52.9315 41.2649 54.139 38.8749 56.2303 37.5942C57.8013 36.6323 59.7926 36.3866 61.5503 36.9379C62.2197 37.1478 62.8885 37.498 63.2468 38.1012C63.7276 38.9105 63.5217 39.9716 63.0482 40.7851C62.575 41.5987 61.8708 42.2491 61.289 42.9891C60.7072 43.729 60.2298 44.636 60.3401 45.5709C60.3401 45.5709 60.2944 46.5712 61.4663 49.255C62.1283 50.7711 60.8303 52.0183 60.8303 52.0183Z" fill="#C8EBBB"/>
<path opacity="0.3" d="M54.8662 42.5977C56.4805 42.6349 58.0935 42.9902 59.5748 43.6327L58.989 43.482C57.629 43.1183 56.253 42.8407 54.8664 42.5977H54.8662Z" fill="white"/>
<path opacity="0.3" d="M56.9822 40.6914C58.0713 41.354 59.0922 42.1112 60.0406 42.9633C58.9508 42.3015 57.9311 41.5428 56.9822 40.6914Z" fill="white"/>
<path opacity="0.3" d="M58.8445 39.6523C59.6285 40.305 60.3294 41.0393 60.9423 41.8548C60.1576 41.2029 59.4581 40.4671 58.8445 39.6523Z" fill="white"/>
<path opacity="0.3" d="M61.2965 38.8477C61.52 39.6212 61.7919 40.3293 62.1413 41.0546C61.593 40.4691 61.2802 39.6494 61.2965 38.8477Z" fill="white"/>
<path opacity="0.3" d="M54.4592 46.1811C56.0769 45.8595 57.7273 45.6517 59.3745 45.5625C57.7565 45.8843 56.1065 46.0918 54.4592 46.1811Z" fill="white"/>
<path opacity="0.3" d="M55.0039 44.5034C56.2839 44.449 57.5597 44.511 58.828 44.6924C57.5479 44.7479 56.2722 44.6838 55.0039 44.5034Z" fill="white"/>
<path opacity="0.3" d="M56.2297 48.3329C57.4771 47.9225 58.7524 47.6255 60.0531 47.4453C58.806 47.8566 57.5303 48.1517 56.2297 48.3329Z" fill="white"/>
<path opacity="0.3" d="M56.9158 49.7779C57.8742 49.2815 58.8763 48.8934 59.9198 48.6172C58.9617 49.1145 57.9588 49.5009 56.9158 49.7779Z" fill="white"/>
<path opacity="0.3" d="M58.6199 51.3431C58.9804 51.0542 59.3924 50.8701 59.8488 50.7969C59.4886 51.0867 59.076 51.2691 58.6199 51.3431Z" fill="white"/>
<path opacity="0.3" d="M61.5503 36.9379C59.7926 36.3865 57.8013 36.6323 56.2304 37.5943C54.139 38.875 52.9316 41.265 52.4906 43.6774C52.1924 45.3085 52.2034 47.0239 52.7488 48.5897C53.2942 50.1555 54.4132 51.558 55.9239 52.2414C56.8581 52.6639 58.02 52.8773 59.0756 52.7321C56.6395 51.831 53.8716 50.6223 53.4937 46.116C53.0405 40.7131 56.9817 36.8151 61.1532 37.4413C63.0512 37.7261 63.2694 39.134 63.3352 40.1678C63.5805 39.48 63.6133 38.7178 63.2471 38.1014C62.8887 37.4983 62.2198 37.148 61.5505 36.9381L61.5503 36.9379Z" fill="black"/>
<g opacity="0.2">
<path d="M62.2887 38.5947C61.9867 38.2474 61.5345 38.0579 61.0793 37.9899C59.8187 37.8018 58.6018 38.4554 57.4945 39.0867C57.0269 39.3533 56.5274 39.6553 56.326 40.1545C56.1245 40.6537 56.4385 41.3725 56.9761 41.3441C56.296 41.4202 55.5793 41.5106 55.0335 41.9234C54.4878 42.3364 54.2132 43.19 54.6465 43.7198C54.9603 44.1035 55.5068 44.1844 56.001 44.2222C57.1394 44.3093 58.6418 44.3617 59.7806 44.2803C60.2499 43.6507 60.6407 43.1573 61.2104 42.5169C61.7082 41.9572 62.1648 41.4007 62.4673 40.7154C62.7698 40.0302 62.7798 39.1599 62.2883 38.5946L62.2887 38.5947Z" fill="white"/>
</g>
<g opacity="0.2">
<path d="M59.7176 45.0705C58.5048 45.1892 57.2918 45.3079 56.079 45.4266C55.8327 45.4506 55.5827 45.4756 55.3524 45.5597C55.122 45.6439 54.9095 45.7963 54.8174 46.0084C54.6986 46.2826 54.799 46.5932 54.9196 46.8668C55.0308 47.1192 55.1725 47.3793 55.4254 47.5198C55.7117 47.6787 56.0723 47.6479 56.4033 47.6058C57.3604 47.4842 58.3098 47.3118 59.2455 47.0896C59.4438 47.0426 59.6552 46.985 59.7823 46.8369C59.8894 46.7124 59.9162 46.5456 59.9261 46.3869C59.9503 46.0028 59.845 45.4367 59.7176 45.0705Z" fill="white"/>
</g>
<path d="M42.5968 69.2682C47.7995 69.2682 52.0172 68.3346 52.0172 67.1829C52.0172 66.0313 47.7995 65.0977 42.5968 65.0977C37.3941 65.0977 33.1765 66.0313 33.1765 67.1829C33.1765 68.3346 37.3941 69.2682 42.5968 69.2682Z" fill="#263238"/>
<path d="M65.9643 45.3906C63.3346 48.238 53.6721 50.3504 42.1524 50.3504C30.6327 50.3504 20.9699 48.238 18.3404 45.3906H15.0247C15.0247 57.5212 27.2385 67.355 42.3051 67.355C57.3716 67.355 69.5853 57.5212 69.5853 45.3906H65.9643Z" fill="#263238"/>
<path opacity="0.3" d="M69.6095 45.0156C69.5111 48.473 63.7359 50.4581 60.9445 51.2966C49.8119 54.4188 34.8269 54.4207 23.6896 51.2968C20.8799 50.4529 15.1252 48.4692 15.0247 45.0156C15.0369 46.3066 15.9526 47.3541 16.9162 48.1126C25.6262 54.36 46.9189 54.2939 57.2661 52.0895C60.7221 51.3729 69.4219 49.2575 69.6095 45.0156Z" fill="white"/>
<path d="M45.8359 22.816C45.0816 21.451 45.5553 19.5223 46.4368 18.2358C47.3184 16.9494 48.801 16.144 50.3407 15.8967C51.8804 15.6493 53.4706 15.9216 54.932 16.4661C57.0932 17.2715 59.1078 18.7828 59.9495 20.9303C60.5818 22.5433 60.4815 24.4278 59.6817 25.9648C59.3771 26.55 58.9427 27.1118 58.3253 27.3444C57.4968 27.6565 56.5482 27.2911 55.8725 26.7189C55.1971 26.1467 54.7106 25.3878 54.1212 24.7271C53.5318 24.0664 52.7705 23.4751 51.8868 23.4234C51.8868 23.4234 50.9681 23.2164 48.29 23.8601C46.7771 24.2237 45.8359 22.8161 45.8359 22.8161V22.816Z" fill="#C8EBBB"/>
<path opacity="0.3" d="M55.539 18.8438C55.2456 20.3342 54.6503 21.7713 53.8057 23.0336C54.426 21.6992 55.036 20.2266 55.539 18.8438Z" fill="white"/>
<path opacity="0.3" d="M56.9548 21.1133C56.1669 22.0179 55.2976 22.8387 54.3477 23.5715C55.1349 22.6662 56.0054 21.8468 56.9548 21.1133Z" fill="white"/>
<path opacity="0.3" d="M57.6141 23.0117C56.8847 23.6362 56.0892 24.1644 55.2292 24.592C55.9581 23.9668 56.7547 23.4401 57.6141 23.0117Z" fill="white"/>
<path opacity="0.3" d="M57.9539 25.4139C57.2005 25.5006 56.5034 25.6353 55.7712 25.8329C56.4005 25.4149 57.2147 25.2596 57.9539 25.4139Z" fill="white"/>
<path opacity="0.3" d="M52.2899 17.875C52.3284 19.426 52.2492 20.9891 52.0537 22.5283C52.015 20.9771 52.0944 19.4142 52.2899 17.875Z" fill="white"/>
<path opacity="0.3" d="M53.753 18.6562C53.5995 19.852 53.3321 21.0233 52.9485 22.1663C53.1009 20.9704 53.3702 19.7995 53.753 18.6562Z" fill="white"/>
<path opacity="0.3" d="M50.0026 19.1602C50.1842 20.3824 50.2494 21.6122 50.1953 22.8467C50.0127 21.6246 49.9493 20.3946 50.0026 19.1602Z" fill="white"/>
<path opacity="0.3" d="M48.5532 19.5586C48.8619 20.5264 49.0566 21.5183 49.1337 22.5313C48.824 21.5637 48.6312 20.5714 48.5532 19.5586Z" fill="white"/>
<path opacity="0.3" d="M46.8234 20.8789C47.0385 21.2586 47.1412 21.6705 47.127 22.1068C46.9111 21.7273 46.81 21.3151 46.8234 20.8789Z" fill="white"/>
<path opacity="0.2" d="M59.682 25.9647C60.4818 24.4277 60.5819 22.5434 59.9498 20.9302C59.108 18.7827 57.0937 17.2714 54.9323 16.4661C53.4709 15.9215 51.8807 15.6494 50.341 15.8966C48.8013 16.1438 47.3184 16.9493 46.437 18.2358C45.892 19.0313 45.5032 20.0722 45.4639 21.0737C46.6993 18.966 48.2741 16.6019 52.5091 16.9934C57.5869 17.4629 60.5477 21.7541 59.2815 25.5139C58.7054 27.2246 57.3656 27.195 56.3976 27.0858C56.9942 27.4261 57.6946 27.5819 58.3255 27.3443C58.9429 27.1117 59.3774 26.55 59.682 25.9647Z" fill="black"/>
<g opacity="0.2">
<path d="M58.0218 26.3748C58.3932 26.1524 58.643 25.7648 58.7809 25.3544C59.1626 24.2181 58.7576 22.9837 58.3552 21.8543C58.1853 21.3775 57.9878 20.8652 57.5588 20.5965C57.1299 20.3279 56.4125 20.5003 56.3503 21.0028C56.3917 20.3605 56.4261 19.6821 56.1336 19.1087C55.841 18.5355 55.0958 18.1407 54.5339 18.4547C54.1269 18.6822 53.962 19.1748 53.8457 19.6263C53.5777 20.6661 53.2819 22.0488 53.1699 23.1168C53.6757 23.655 54.0682 24.098 54.5676 24.731C55.0039 25.2842 55.4442 25.7987 56.0289 26.1916C56.6137 26.5844 57.418 26.737 58.0223 26.3748H58.0218Z" fill="white"/>
</g>
<g opacity="0.2">
<path d="M52.4541 22.9316C52.5438 21.7889 52.6335 20.6462 52.7231 19.5035C52.7414 19.2714 52.7594 19.0359 52.7194 18.8086C52.6793 18.5814 52.5733 18.3596 52.3918 18.2393C52.1575 18.084 51.8532 18.1261 51.5801 18.1928C51.3281 18.2543 51.0639 18.3426 50.8923 18.5537C50.698 18.7928 50.6672 19.1316 50.6516 19.4451C50.6068 20.3514 50.6102 21.259 50.6619 22.1619C50.6729 22.3532 50.6913 22.5585 50.8074 22.7006C50.9052 22.8201 51.0551 22.8725 51.2004 22.9079C51.5521 22.9935 52.0937 22.9893 52.4538 22.9314L52.4541 22.9316Z" fill="white"/>
</g>
<path d="M40.1567 8.94755C40.1339 9.02039 39.5588 8.27983 38.1007 8.64676C36.6424 9.01369 35.7347 10.7016 36.3818 12.773C37.0859 15.0268 38.766 16.1719 41.4042 15.7744C44.0425 15.3769 44.5202 13.4253 44.6706 12.9637C45.0703 11.7368 44.9342 9.07089 43.3023 8.33102C41.5066 7.51693 40.3318 8.39234 40.1567 8.94755Z" fill="#F8BFDB"/>
<g opacity="0.3">
<path d="M41.2118 8.81245C41.0077 9.13833 40.6969 9.41044 40.3168 9.46867C40.0606 9.50784 39.7995 9.46352 39.5467 9.40648C39.3055 9.35203 39.0669 9.28624 38.832 9.2091C38.832 9.2091 39.7397 9.09744 40.0735 9.12081C40.4073 9.14417 40.6492 8.72519 40.8976 8.66197C41.1458 8.59875 41.3356 8.61456 41.2116 8.81245H41.2118Z" fill="#9F1258"/>
</g>
<g opacity="0.3">
<path d="M37.736 9.48828C37.0946 9.73118 36.7464 10.1919 36.6069 10.8634C36.4676 11.5349 36.6096 12.5273 37.2348 13.3387C37.1322 12.6407 37.3375 11.3932 37.7869 10.8495C38.2363 10.3058 38.9219 9.96447 39.6265 9.93372C38.5168 9.74716 38.2936 9.5661 37.736 9.48828Z" fill="white"/>
</g>
<g opacity="0.2">
<path d="M43.3027 8.33314C43.0266 8.20808 42.7653 8.12288 42.52 8.07031C42.5611 8.09161 42.6035 8.11051 42.6435 8.12786C43.5983 8.54066 44.2812 9.48324 44.4636 10.5072C44.646 11.5313 44.3533 12.6135 43.7527 13.4628C42.8139 14.7905 41.1126 15.5354 39.5002 15.3246C38.569 15.2028 37.6913 14.7649 37.0066 14.1233C37.892 15.4656 39.3606 16.0842 41.4046 15.7764C44.0429 15.3789 44.5206 13.4272 44.6709 12.9657C45.0707 11.7388 44.9346 9.07302 43.3027 8.33314Z" fill="#9F1258"/>
</g>
<g opacity="0.3">
<path d="M43.0094 8.82596C42.7254 8.45903 42.1685 8.33655 41.7567 8.55059L41.7333 8.63769C41.6461 8.86152 41.5588 9.08553 41.4715 9.30953C41.4514 9.36107 41.431 9.4169 41.4451 9.4705C41.4707 9.5679 41.5901 9.60157 41.6902 9.61273C42.0573 9.65362 42.4329 9.6172 42.7852 9.50674C42.9073 9.46844 43.0362 9.41346 43.0989 9.30163C43.1825 9.15252 43.1142 8.9615 43.0095 8.82613L43.0094 8.82596Z" fill="white"/>
</g>
<path opacity="0.5" d="M38.2972 9.85889C38.2548 9.79104 38.1902 9.73881 38.1179 9.7048C37.6115 9.46756 37.3973 9.82969 37.1162 10.1961C36.8534 10.5386 36.6986 11.2495 36.8599 11.3285C37.0214 11.4077 37.463 10.6278 38.1279 10.2105C38.3465 10.0733 38.3706 9.97622 38.2972 9.85889Z" fill="white"/>
<path opacity="0.1" d="M39.0469 14.9513C39.0469 14.9513 40.466 15.3581 41.9399 14.5588C43.4138 13.7595 43.4533 13.1172 43.4533 13.1172C43.4533 13.1172 42.2227 14.5909 39.0469 14.9513Z" fill="#9F1258"/>
<path d="M19.5261 63.1085C19.5235 63.1849 18.7691 62.6246 17.4596 63.3713C16.1502 64.1181 15.7278 65.9924 16.9102 67.8185C18.1967 69.8055 20.1272 70.4592 22.5679 69.3652C25.0086 68.2713 24.9447 66.2582 24.9657 65.772C25.0215 64.4797 24.1727 61.9419 22.3977 61.6667C20.4447 61.3639 19.5455 62.5253 19.5261 63.1085Z" fill="#F8BFDB"/>
<g opacity="0.3">
<path d="M20.507 62.6938C20.3976 63.0635 20.1708 63.4098 19.8194 63.5683C19.5827 63.6752 19.3185 63.7025 19.0591 63.7156C18.8115 63.7279 18.5635 63.7284 18.3159 63.7173C18.3159 63.7173 19.1625 63.3653 19.4911 63.2979C19.8197 63.2306 19.9405 62.7609 20.1633 62.6331C20.3861 62.5053 20.5735 62.4693 20.507 62.6938Z" fill="#9F1258"/>
</g>
<g opacity="0.3">
<path d="M17.3323 64.2816C16.7783 64.6888 16.566 65.2275 16.6121 65.9134C16.6581 66.5993 17.0626 67.5196 17.8845 68.1348C17.5976 67.4885 17.4602 66.2285 17.7479 65.5826C18.0355 64.9365 18.6056 64.4225 19.278 64.2031C18.1561 64.3217 17.8918 64.2067 17.3323 64.2818V64.2816Z" fill="white"/>
</g>
<g opacity="0.2">
<path d="M22.3979 61.6666C22.0977 61.6201 21.8225 61.6082 21.5715 61.6235C21.6168 61.6329 21.6629 61.6398 21.7063 61.6458C22.7394 61.7875 23.6525 62.5138 24.1041 63.4539C24.5557 64.3937 24.5643 65.5173 24.213 66.4992C23.6638 68.034 22.2212 69.2112 20.6076 69.4416C19.6755 69.5747 18.7101 69.388 17.8762 68.9527C19.0925 70.0107 20.677 70.2129 22.5682 69.3653C25.0089 68.2714 24.945 66.2582 24.9659 65.7721C25.0218 64.4797 24.173 61.942 22.3979 61.6668V61.6666Z" fill="#9F1258"/>
</g>
<g opacity="0.3">
<path d="M22.2465 62.2245C21.8735 61.9466 21.3027 61.9782 20.9627 62.2957L20.9636 62.386C20.9395 62.6257 20.9157 62.8655 20.8916 63.1051C20.8861 63.1602 20.8815 63.2197 20.9095 63.2676C20.9605 63.3547 21.0847 63.3552 21.1845 63.3391C21.5501 63.2798 21.9027 63.1436 22.2133 62.9419C22.321 62.872 22.4306 62.7842 22.461 62.6595C22.5017 62.4929 22.3842 62.3267 22.2468 62.2244L22.2465 62.2245Z" fill="white"/>
</g>
<path opacity="0.5" d="M17.9758 64.4888C17.9167 64.4347 17.8403 64.4015 17.7611 64.3883C17.2081 64.2956 17.0989 64.7029 16.9261 65.1323C16.7644 65.5338 16.8062 66.262 16.9833 66.2948C17.1604 66.3276 17.3772 65.456 17.9068 64.8741C18.081 64.6828 18.0781 64.5824 17.9758 64.4888Z" fill="white"/>
<path opacity="0.1" d="M20.07 69.203C20.07 69.203 21.5497 69.2138 22.7579 68.0454C23.9661 66.8769 23.8314 66.2461 23.8314 66.2461C23.8314 66.2461 23.0398 68.0004 20.07 69.203Z" fill="#9F1258"/>
<path d="M33.2991 19.3753C34.1042 18.8696 34.6641 17.991 34.7825 17.0478C33.9447 17.5281 33.2177 18.2005 32.6738 18.9984C32.6815 18.5043 32.6887 18.0058 32.5946 17.5207C32.5005 17.0356 32.296 16.5582 31.937 16.2188C31.723 17.5083 31.9843 18.8714 32.6599 19.9906C33.7801 20.2622 34.9171 20.4553 36.0375 20.7269C35.4569 19.8297 34.3645 19.2906 33.2993 19.3756L33.2991 19.3753Z" fill="#F8BFDB"/>
<path d="M34.9776 24.3714C35.3409 23.5853 35.2992 22.6484 34.9766 21.8448C34.6539 21.0412 33.947 20.1215 32.8258 19.7131C32.865 19.7819 31.7228 17.4581 30.1767 17.1379C28.8615 16.8656 27.0475 17.6225 26.1987 18.6634C25.5427 19.4682 25.253 20.5118 25.1127 21.5406C24.9722 22.5694 24.9637 23.6144 24.7865 24.6375C24.6533 25.4059 24.4456 26.2727 24.9002 26.9064C25.1378 27.2378 25.5253 27.4383 25.924 27.5237C26.3227 27.609 26.7359 27.59 27.1421 27.5553C28.6563 27.4261 30.1461 27.086 31.6013 26.6484C32.2721 26.4467 32.9425 26.2215 33.5452 25.8646C34.1479 25.5076 34.6842 25.0072 34.9779 24.3714H34.9776Z" fill="#C8EBBB"/>
<g opacity="0.3">
<path d="M25.2076 26.5532C24.9769 26.1308 25.0878 25.5127 25.195 24.9151L25.2301 24.7168C25.333 24.1221 25.3811 23.5209 25.4275 22.9394C25.4627 22.4986 25.4989 22.0428 25.5589 21.6039C25.7178 20.4394 26.0412 19.5715 26.5477 18.9505C27.3286 17.9928 28.9815 17.3531 30.0851 17.5816C30.9715 17.7651 31.8649 18.8901 32.3607 19.7976C32.3911 19.8533 32.4102 19.8905 32.4169 19.9045L32.4936 20.0833L32.6718 20.1389C33.636 20.4902 34.1615 21.2413 34.3889 21.6577C34.453 21.775 34.5099 21.8951 34.558 22.015C34.8572 22.7604 34.8608 23.5513 34.5683 24.1848C34.2778 24.8132 33.7264 25.2356 33.3149 25.4792C32.787 25.7917 32.1961 26.0011 31.471 26.2191C29.8562 26.7047 28.4275 26.9956 27.1034 27.1086C26.6842 27.1443 26.3391 27.1541 26.0179 27.0854C25.685 27.0141 25.418 26.8581 25.266 26.6461C25.2447 26.6164 25.2251 26.5852 25.2076 26.5532Z" fill="white"/>
</g>
<g opacity="0.3">
<path d="M30.946 25.7556C30.6576 25.509 30.6218 25.0409 30.8206 24.718C31.0193 24.3949 31.4071 24.2176 31.7864 24.2105C32.1657 24.2035 32.5348 24.3478 32.8549 24.5515C32.4062 24.0917 32.3556 23.2982 32.7427 22.7852C33.1297 22.2723 33.9065 22.1029 34.4719 22.4083C34.2442 21.8473 34.1517 21.2326 34.2004 20.6293C33.8435 20.2483 33.3867 19.9166 32.8265 19.7127C32.8579 19.7677 32.1323 18.2915 31.0492 17.5352C30.7792 17.9261 30.3145 18.1757 29.8385 18.2505C29.278 18.3384 28.7047 18.218 28.1646 18.0436C28.6714 18.3484 28.8741 19.0694 28.6004 19.5936C28.3268 20.1179 27.6192 20.3636 27.0795 20.1221C27.4807 20.3514 27.8537 20.7477 27.8144 21.2083C27.7786 21.6269 27.4 21.9512 26.9944 22.0606C26.5888 22.1701 26.1592 22.1105 25.7435 22.0503C26.3643 22.2548 26.8908 22.8235 26.903 23.477C26.9152 24.1305 26.2891 24.7645 25.6475 24.64C26.0518 24.697 26.4002 25.0191 26.5095 25.4127C26.5918 25.7092 26.5413 26.0342 26.3909 26.3029C26.6326 26.0414 26.9805 25.8768 27.3373 25.8719C27.7951 25.8655 28.2479 26.1196 28.4807 26.514C28.5183 26.0201 28.9961 25.6515 29.4844 25.5687C29.9728 25.4859 30.4689 25.6214 30.9458 25.7556H30.946Z" fill="white"/>
</g>
<path opacity="0.3" d="M34.1327 20.5599C33.7859 20.2078 33.3521 19.9028 32.8258 19.7113C32.8533 19.7598 32.2962 18.6251 31.4256 17.8359C30.7415 18.5325 26.244 23.5373 27.0446 24.5847C27.8928 25.6946 28.9484 25.9653 31.3885 23.7853C33.2669 22.1072 33.9278 20.987 34.1327 20.5599Z" fill="white"/>
<path d="M31.6549 22.686C32.9669 21.514 33.4982 20.5338 33.6684 20.1605C33.419 19.9799 33.139 19.8248 32.8255 19.7106C32.8476 19.7496 32.4895 19.0186 31.8932 18.3203C31.1521 19.1676 27.5941 23.5175 28.126 24.2134C28.7093 24.9768 29.9768 24.1852 31.6549 22.686Z" fill="white"/>
<path d="M35.1701 70.5914C35.8853 69.8087 36.1838 68.7 36.1051 67.6429C36.0265 66.5855 35.5425 65.2506 34.3856 64.3585C34.4058 64.4533 33.9343 61.3186 32.2487 60.3721C30.815 59.5671 28.418 59.7779 27.0418 60.678C25.9779 61.3739 25.2535 62.4843 24.7083 63.6327C24.163 64.7811 23.7659 65.9973 23.1799 67.1254C22.7398 67.9727 22.1763 68.9072 22.4718 69.8149C22.6262 70.2895 23.004 70.6671 23.4376 70.9145C23.8712 71.1617 24.3602 71.2926 24.8472 71.4027C26.6616 71.8131 28.5262 71.9682 30.3863 71.9969C31.2436 72.0101 32.1094 71.9957 32.9448 71.8026C33.7804 71.6095 34.5917 71.2242 35.1701 70.5914Z" fill="#C8EBBB"/>
<g opacity="0.3">
<path d="M24.7302 71.1263C24.3601 71.0411 23.9418 70.9111 23.7907 70.5629C23.6869 70.3241 23.8649 69.3234 23.9351 69.0726C24.6963 66.3533 26.8744 64.2865 29.0693 62.5098C29.6614 62.0305 30.2693 61.5565 30.9634 61.2427C31.5777 60.9647 32.2727 60.8206 32.9329 60.9338C32.7308 60.7091 32.5041 60.5154 32.249 60.3721C30.8153 59.5671 28.4182 59.7779 27.042 60.678C25.9782 61.3739 25.2538 62.4843 24.7085 63.6327C24.1633 64.7811 23.7661 65.9973 23.1801 67.1254C22.74 67.9727 22.1766 68.9072 22.472 69.8149C22.6265 70.2895 23.0042 70.6671 23.4378 70.9145C23.8714 71.1617 24.3605 71.2926 24.8475 71.4027C26.6619 71.8131 28.5264 71.9682 30.3865 71.9969C31.2439 72.0101 32.1097 71.9957 32.9451 71.8026C33.0596 71.7762 33.1735 71.7458 33.2867 71.7118C31.3078 71.9933 27.5043 71.765 24.73 71.1261L24.7302 71.1263Z" fill="white"/>
</g>
<path d="M27.4912 68.491L27.4802 68.3682C27.321 68.3594 27.1591 68.4075 27.0305 68.5019C26.9762 68.5417 26.9264 68.5914 26.9013 68.6539C26.8762 68.7164 26.88 68.7935 26.9236 68.8449C26.9655 68.8942 27.0368 68.9112 27.1006 68.9C27.1643 68.8889 27.2211 68.8533 27.2706 68.8118C27.3713 68.7274 27.4482 68.6152 27.491 68.4912L27.4912 68.491Z" fill="white"/>
<path d="M24.7958 69.6551L24.7848 69.5323C24.6255 69.5235 24.4637 69.5716 24.3352 69.6659C24.2809 69.7058 24.2311 69.7554 24.2062 69.8179C24.1811 69.8805 24.1849 69.9576 24.2285 70.009C24.2705 70.0581 24.3418 70.0753 24.4055 70.0641C24.469 70.0529 24.5261 70.0174 24.5756 69.9758C24.676 69.8915 24.7532 69.7793 24.796 69.6553L24.7958 69.6551Z" fill="white"/>
<path d="M24.9298 67.0418L24.9188 66.919C24.7596 66.9102 24.5978 66.9583 24.4693 67.0526C24.415 67.0925 24.3652 67.1421 24.3402 67.2047C24.3152 67.2672 24.3189 67.3443 24.3626 67.3957C24.4045 67.445 24.4758 67.462 24.5395 67.4508C24.6031 67.4397 24.6601 67.4041 24.7096 67.3625C24.8101 67.2782 24.8872 67.166 24.93 67.042L24.9298 67.0418Z" fill="white"/>
<path d="M27.3458 66.0301L27.3348 65.9073C27.1755 65.8985 27.0137 65.9466 26.885 66.0409C26.8307 66.0808 26.7811 66.1304 26.756 66.1929C26.7309 66.2555 26.7347 66.3326 26.7784 66.384C26.8203 66.4333 26.8916 66.4503 26.9553 66.4391C27.0189 66.4279 27.0759 66.3924 27.1254 66.3508C27.2259 66.2665 27.303 66.1541 27.3458 66.0301Z" fill="white"/>
<path d="M26.2869 63.6668L26.2759 63.544C26.1167 63.5352 25.9549 63.5833 25.8262 63.6776C25.7719 63.7175 25.7221 63.7671 25.6972 63.8297C25.6721 63.8922 25.6759 63.9693 25.7195 64.0207C25.7614 64.07 25.8327 64.087 25.8963 64.0758C25.96 64.0647 26.0169 64.0291 26.0663 63.9875C26.167 63.9032 26.244 63.791 26.2867 63.667L26.2869 63.6668Z" fill="white"/>
<path d="M30.4158 69.2371L30.4048 69.1143C30.2456 69.1055 30.0838 69.1536 29.9551 69.2479C29.9008 69.2878 29.8512 69.3374 29.8261 69.4C29.801 69.4625 29.8048 69.5396 29.8484 69.5908C29.8903 69.6401 29.9616 69.6571 30.0252 69.646C30.0889 69.6348 30.1458 69.5992 30.1953 69.5577C30.2959 69.4733 30.373 69.3612 30.4158 69.2371Z" fill="white"/>
<path d="M31.0343 71.116L31.0233 70.9932C30.8641 70.9844 30.7022 71.0325 30.5738 71.1269C30.5195 71.1667 30.4696 71.2164 30.4447 71.2789C30.4197 71.3414 30.4234 71.4185 30.4671 71.4699C30.509 71.5192 30.5803 71.5362 30.6438 71.5251C30.7074 71.5139 30.7644 71.4783 30.8139 71.4368C30.9144 71.3524 30.9915 71.2401 31.0343 71.116Z" fill="white"/>
<path d="M28.1124 70.8549L28.1605 70.7413C28.0241 70.6585 27.8589 70.6249 27.701 70.6475C27.6344 70.6571 27.567 70.6774 27.5155 70.7209C27.464 70.7642 27.431 70.8341 27.4452 70.8999C27.459 70.9631 27.5138 71.0117 27.5753 71.0318C27.6366 71.0519 27.7036 71.0473 27.7668 71.034C27.8953 71.0071 28.0161 70.9444 28.1123 70.855L28.1124 70.8549Z" fill="white"/>
<path d="M28.8112 63.9403L28.8002 63.8174C28.6409 63.8087 28.4791 63.8568 28.3506 63.9511C28.2963 63.9909 28.2467 64.0406 28.2216 64.1031C28.1965 64.1656 28.2003 64.2428 28.2439 64.2941C28.2858 64.3434 28.3571 64.3604 28.4209 64.3493C28.4844 64.3381 28.5415 64.3025 28.5909 64.261C28.6916 64.1766 28.7686 64.0645 28.8113 63.9404L28.8112 63.9403Z" fill="white"/>
<path d="M28.8607 61.409L28.8497 61.2862C28.6905 61.2774 28.5287 61.3255 28.4002 61.4198C28.3459 61.4597 28.2961 61.5093 28.2712 61.5719C28.2461 61.6344 28.2499 61.7115 28.2935 61.7629C28.3354 61.8122 28.4067 61.8292 28.4703 61.818C28.534 61.8068 28.5908 61.7713 28.6403 61.7297C28.7408 61.6454 28.8179 61.5332 28.8607 61.4092V61.409Z" fill="white"/>
<path d="M29.7946 66.784L29.7836 66.6612C29.6243 66.6524 29.4625 66.7005 29.334 66.7948C29.2797 66.8347 29.2299 66.8843 29.205 66.9469C29.1799 67.0094 29.1837 67.0865 29.2273 67.1377C29.2692 67.187 29.3405 67.204 29.4043 67.1928C29.4678 67.1817 29.5249 67.1461 29.5743 67.1045C29.6748 67.0202 29.752 66.908 29.7947 66.784H29.7946Z" fill="white"/>
<path d="M32.2461 67.4363L32.2352 67.3135C32.0759 67.3048 31.9141 67.3529 31.7856 67.4472C31.7313 67.487 31.6815 67.5367 31.6564 67.5992C31.6313 67.6617 31.6351 67.7389 31.6787 67.7902C31.7207 67.8395 31.7919 67.8565 31.8555 67.8454C31.9192 67.8342 31.9761 67.7986 32.0256 67.7571C32.1262 67.6727 32.2032 67.5605 32.246 67.4365L32.2461 67.4363Z" fill="white"/>
<path d="M33.366 70.4207L33.355 70.2979C33.1958 70.2891 33.034 70.3372 32.9053 70.4315C32.851 70.4714 32.8014 70.521 32.7763 70.5836C32.7512 70.6461 32.755 70.7232 32.7986 70.7744C32.8405 70.8237 32.9118 70.8407 32.9754 70.8296C33.0391 70.8184 33.096 70.7828 33.1454 70.7413C33.2461 70.6569 33.3231 70.5447 33.3658 70.4207H33.366Z" fill="white"/>
<path d="M31.3241 63.725L31.3363 63.6022C31.1815 63.5637 31.0135 63.5807 30.8695 63.6493C30.8087 63.6783 30.7507 63.7177 30.7142 63.7743C30.6778 63.831 30.6672 63.9075 30.7005 63.9661C30.7324 64.0222 30.7993 64.0525 30.8639 64.0533C30.9284 64.0542 30.991 64.03 31.0475 63.9983C31.1621 63.9343 31.2588 63.8386 31.3241 63.7247V63.725Z" fill="white"/>
<path d="M33.4134 65.1899L33.4256 65.0671C33.2708 65.0286 33.1028 65.0456 32.9589 65.1141C32.8981 65.1432 32.84 65.1825 32.8036 65.2392C32.7672 65.2959 32.7565 65.3723 32.7898 65.4309C32.8218 65.4871 32.8886 65.5173 32.9532 65.5182C33.0178 65.519 33.0803 65.4948 33.1369 65.4632C33.2514 65.3991 33.3481 65.3034 33.4134 65.1895V65.1899Z" fill="white"/>
<path d="M34.8763 67.85L34.8885 67.7272C34.7337 67.6887 34.5657 67.7057 34.4218 67.7743C34.361 67.8033 34.3029 67.8427 34.2665 67.8995C34.2301 67.9562 34.2194 68.0326 34.2527 68.0912C34.2847 68.1474 34.3515 68.1775 34.4161 68.1785C34.4807 68.1795 34.5432 68.1551 34.5997 68.1235C34.7143 68.0594 34.811 67.9638 34.8763 67.8499V67.85Z" fill="white"/>
<path d="M31.6073 61.0063L31.6195 60.8835C31.4647 60.845 31.2967 60.862 31.1527 60.9305C31.0919 60.9596 31.0339 60.9991 30.9974 61.0558C30.961 61.1125 30.9504 61.1889 30.9837 61.2475C31.0156 61.3036 31.0825 61.3339 31.1471 61.3347C31.2117 61.3358 31.2742 61.3114 31.3307 61.2798C31.4453 61.2157 31.542 61.12 31.6073 61.0061V61.0063Z" fill="white"/>
</svg>
