<svg width="80" height="80" viewBox="0 0 80 80" fill="none" xmlns="http://www.w3.org/2000/svg">
<path d="M5.81201 70.6055H74.7241" stroke="#3C474C" stroke-width="0.153684" stroke-linecap="round" stroke-linejoin="round"/>
<path d="M11.7826 55.1132C11.3811 54.2695 11.2906 53.3111 11.5272 52.4072C11.9193 50.8656 12.0618 51.124 11.6534 50.2359C11.245 49.3477 10.8915 49.1665 11.1351 48.4046C11.3787 47.6427 11.7975 46.4516 11.646 45.7313C11.4945 45.011 11.1648 44.714 11.3133 43.9343C11.4618 43.1545 11.9207 42.7788 11.6965 41.9278C11.4722 41.0768 11.0801 41.1169 11.2287 40.3357C11.3772 39.5545 11.5851 39.4951 11.5257 38.7896C11.4663 38.0842 11.6297 37.75 11.6297 37.75C11.6297 37.75 11.8985 38.8535 12.0752 39.4639C12.2519 40.0743 12.2772 40.4263 12.1925 40.8718C12.1079 41.3174 13.1178 42.0897 13.1475 42.4417C13.1772 42.7937 13.3926 43.1843 13.0569 43.9268C12.7213 44.6694 12.6366 45.115 12.8297 45.6155C13.0227 46.116 13.2322 46.0388 13.0406 47.0427C12.849 48.0467 12.2683 48.0497 12.699 48.8249C13.1297 49.6002 13.3881 49.7651 13.1891 50.3101C12.9901 50.8552 12.6752 51.4834 12.797 51.8532C12.8679 52.037 12.9543 52.2144 13.0554 52.3834C13.3024 52.8215 13.3851 53.3334 13.2886 53.827L13.2307 54.1315L13.4193 55.6686L12.5029 56.4186C12.5029 56.4186 12.0782 56.0949 11.7826 55.1132Z" fill="#CDEDC2"/>
<path d="M10.7249 55.2454C10.4597 54.9505 10.256 54.6057 10.1257 54.231C9.99536 53.8564 9.94108 53.4596 9.96602 53.0637C10.0611 51.736 10.2512 51.9261 9.68236 51.2622C9.11353 50.5983 8.73333 50.5048 8.82838 49.8409C8.92343 49.177 9.11353 48.1344 8.82838 47.5656C8.54323 46.9968 8.16451 46.8067 8.16451 46.1428C8.16451 45.4789 8.54471 45.1032 8.16451 44.4363C7.7843 43.7695 7.40558 43.8675 7.40558 43.2037C7.40558 42.5398 7.59569 41.971 7.40558 41.4021C7.21548 40.8333 7.34024 40.9566 7.34024 40.9566C7.34024 40.9566 7.78579 41.8818 8.06946 42.3556C8.35313 42.8294 8.44966 43.1145 8.44966 43.4933C8.44966 43.872 9.5873 44.3472 9.68236 44.6309C9.77741 44.9146 10.0611 45.2012 9.87097 45.8636C9.68087 46.526 9.68236 46.9032 9.96602 47.2864C10.2497 47.6696 10.4398 47.5715 10.4398 48.424C10.4398 49.2765 9.87097 49.3716 10.4398 49.9419C11.0086 50.5122 11.2938 50.6043 11.1987 51.0795C11.1037 51.5548 10.915 52.1191 11.1037 52.4058C11.1752 52.5051 11.2547 52.5985 11.3413 52.685C11.7356 53.0914 11.9566 53.6351 11.9576 54.2014L12.4314 55.4341L11.6725 56.193C11.6725 56.193 11.1987 56.0029 10.7249 55.2454Z" fill="#CDEDC2"/>
<path d="M16.1296 55.2459C16.3944 54.9507 16.5978 54.6058 16.7278 54.2312C16.8579 53.8566 16.912 53.4599 16.887 53.0641C16.7934 51.7364 16.6033 51.9265 17.1722 51.2626C17.741 50.5987 18.1197 50.5052 18.0261 49.8413C17.9326 49.1774 17.741 48.1348 18.0261 47.566C18.3113 46.9972 18.6885 46.8071 18.6885 46.1432C18.6885 45.4793 18.3098 45.1036 18.6885 44.4368C19.0672 43.7699 19.4474 43.8679 19.4474 43.2041C19.4474 42.5402 19.2573 41.9714 19.4474 41.4025C19.6375 40.8337 19.4103 41.159 19.4103 41.159C19.4103 41.159 19.0687 41.8763 18.7836 42.3471C18.4984 42.8179 18.4048 43.106 18.4048 43.4848C18.4048 43.8635 17.2672 44.3387 17.1722 44.6224C17.0771 44.9061 16.7934 45.1927 16.9821 45.8551C17.1707 46.5175 17.1722 46.8947 16.887 47.2779C16.6018 47.6611 16.4132 47.5631 16.4132 48.4155C16.4132 49.268 16.9821 49.3631 16.4132 49.9334C15.8444 50.5037 15.5607 50.5958 15.6558 51.071C15.7508 51.5463 15.9395 52.1107 15.7494 52.3973C15.6798 52.4955 15.6018 52.5875 15.5162 52.672C15.1182 53.0835 14.8961 53.6338 14.8969 54.2062L14.4231 55.4389L15.1805 56.1979C15.1805 56.1979 15.6543 56.0033 16.1296 55.2459Z" fill="#CDEDC2"/>
<path d="M14.457 55.4825C14.6293 55.213 14.7462 54.9119 14.8008 54.5967C14.8553 54.2815 14.8465 53.9586 14.7748 53.6468C14.5253 52.6072 14.3991 52.778 14.7644 52.175C15.1298 51.572 15.4194 51.4458 15.256 50.9304C15.0926 50.4151 14.8104 49.6086 14.959 49.1185C15.1075 48.6284 15.3882 48.4264 15.3006 47.8977C15.2129 47.369 14.855 47.118 15.0763 46.5388C15.2976 45.9596 15.605 45.9863 15.5218 45.4591C15.4387 44.9318 15.2085 44.5026 15.2857 44.0244C15.3629 43.5462 15.1951 43.6709 15.1951 43.6709C15.1182 44.0762 15.0135 44.4756 14.8817 44.8665C14.7169 45.2808 14.6798 45.52 14.7332 45.8214C14.7867 46.1229 13.9401 46.6517 13.9015 46.8893C13.8629 47.1269 13.6743 47.3928 13.9134 47.8962C14.1525 48.3997 14.2015 48.7012 14.0248 49.0413C13.8481 49.3814 13.6847 49.3294 13.7961 50.0096C13.9075 50.6898 14.3738 50.6898 13.9966 51.2171C13.6193 51.7443 13.4025 51.8587 13.5421 52.2225C13.6817 52.5864 13.906 53.0156 13.7916 53.2622C13.6228 53.5435 13.4295 53.8094 13.2139 54.0567L13.3386 54.8112L13.1233 55.8508L13.8273 56.3543C13.8273 56.3543 14.1793 56.1493 14.457 55.4825Z" fill="#CDEDC2"/>
<path d="M17.2387 54.7109L17.016 60.2714H16.3981V64.5591H10.1411V60.2714H9.56335L9.34058 54.7109H17.2387Z" fill="#3C474C" stroke="#3C474C" stroke-width="0.153684" stroke-miterlimit="10"/>
<path d="M9.38086 55.7305L9.41353 56.5354H17.1661L17.1973 55.7305H9.38086Z" fill="white" stroke="#3C474C" stroke-width="0.153684" stroke-miterlimit="10"/>
<path d="M17.107 58.0007L17.1278 57.4883H9.45239L9.47318 58.0007H17.107Z" fill="white" stroke="#3C474C" stroke-width="0.153684" stroke-miterlimit="10"/>
<path d="M9.56335 60.2695H9.28711V70.6049H10.1411V64.5587" stroke="#3C474C" stroke-width="0.153684" stroke-miterlimit="10"/>
<path d="M17.0158 60.2695H17.2504V70.6049H16.3979V64.5587" stroke="#3C474C" stroke-width="0.153684" stroke-miterlimit="10"/>
<path d="M23.5164 49.4575C23.5164 49.4575 21.8352 39.8782 21.8352 37.7247C21.8352 35.5712 24.0481 32.1553 29.1809 30.8186C34.3136 29.4819 40.8633 30.3731 42.8103 31.3384C44.7574 32.3038 45.9069 34.383 46.3495 37.7989C46.7921 41.2148 47.6772 54.9527 47.6772 54.9527L24.314 55.324L23.5164 49.4575Z" fill="#F9B7DA" stroke="#3C474C" stroke-width="0.153684" stroke-linecap="round" stroke-linejoin="round"/>
<path d="M51.3325 67.918C50.8334 68.4614 50.2383 68.908 49.577 69.2353C48.5374 69.7284 48.0398 70.2749 48.0918 70.6611C48.1438 71.0472 48.7512 71.1066 49.7923 71.1556C50.8335 71.2047 54.5107 71.0457 55.1152 71.0457C55.7197 71.0457 56.2113 70.8809 56.2113 70.3863C56.2113 69.8918 56.1014 68.6309 56.1014 68.6309L51.3325 67.918Z" fill="white" stroke="#3C474C" stroke-width="0.153684" stroke-linecap="round" stroke-linejoin="round"/>
<path d="M53.5259 70.6055C51.5863 70.6055 48.9798 70.4942 48.1154 70.457C48.0935 70.523 48.0864 70.593 48.0946 70.662C48.1496 71.0466 48.7541 71.1075 49.7952 71.1565C50.8363 71.2056 54.5136 71.0466 55.118 71.0466C55.6616 71.0466 56.1161 70.9115 56.1992 70.5224C55.617 70.5625 54.7289 70.6055 53.5259 70.6055Z" fill="white" stroke="#3C474C" stroke-width="0.153684" stroke-linecap="round" stroke-linejoin="round"/>
<path d="M56.544 43.8336C56.544 43.8336 54.5138 52.1728 54.5138 52.8308C54.5138 53.4887 56.4341 56.5066 56.489 58.865C56.544 61.2235 55.6663 65.8335 55.8311 66.3266C55.996 66.8196 56.2767 67.1493 56.2143 67.5889C56.1519 68.0286 55.996 69.1796 55.996 69.1796C55.996 69.1796 55.2266 69.2345 53.636 68.9048C52.7308 68.7258 51.8475 68.45 51.0013 68.082C51.0013 68.082 50.8914 66.9295 50.8914 66.7112C50.8914 66.4929 51.1112 65.9419 51.1662 65.5038C51.2211 65.0656 51.0013 60.7854 50.5632 58.5368C50.1251 56.2883 49.3008 53.3788 49.3008 51.8431C49.3008 50.3075 49.2458 44.8762 49.2458 44.8762C50.3067 44.1455 51.4259 43.5033 52.5919 42.9559C54.5672 42.0232 55.9395 42.5177 55.9395 42.5177L56.544 43.8336Z" fill="#CDEDC2" stroke="#3C474C" stroke-width="0.153684" stroke-linecap="round" stroke-linejoin="round"/>
<path d="M53.3243 42.6641C53.0748 42.748 52.8308 42.8472 52.5936 42.9611C51.594 43.4345 50.627 43.9738 49.699 44.5755L50.0584 45.3493C50.0584 45.3493 53.9421 46.5968 55.8595 46.3562L55.9412 46.3443C56.2798 44.9245 56.5441 43.8388 56.5441 43.8388L56.1699 43.025C56.0149 42.9272 55.8455 42.8545 55.6679 42.8096C55.457 42.7799 54.3936 42.719 53.3243 42.6641Z" fill="#3C474C" stroke="#3C474C" stroke-width="0.153684" stroke-linecap="round" stroke-linejoin="round"/>
<path d="M57.3665 67.918C56.8654 68.4617 56.2683 68.9083 55.6051 69.2353C54.5655 69.7284 54.0695 70.2749 54.12 70.6611C54.1705 71.0472 54.7779 71.1066 55.8205 71.1556C56.8631 71.2047 60.5389 71.0457 61.1419 71.0457C61.7448 71.0457 62.2394 70.8809 62.2394 70.3863C62.2394 69.8918 62.1295 68.6309 62.1295 68.6309L57.3665 67.918Z" fill="white" stroke="#3C474C" stroke-width="0.153684" stroke-linecap="round" stroke-linejoin="round"/>
<path d="M59.5601 70.6055C57.6205 70.6055 55.014 70.4942 54.1496 70.457C54.1277 70.523 54.1206 70.593 54.1288 70.662C54.1838 71.0466 54.7867 71.1075 55.8293 71.1565C56.8719 71.2056 60.5477 71.0466 61.1507 71.0466C61.6958 71.0466 62.1488 70.9115 62.2334 70.5224C61.6512 70.5625 60.7631 70.6055 59.5601 70.6055Z" fill="white" stroke="#3C474C" stroke-width="0.153684" stroke-linecap="round" stroke-linejoin="round"/>
<path d="M62.5852 43.8336C62.5852 43.8336 60.555 52.1728 60.555 52.8308C60.555 53.4887 62.4753 56.5066 62.5303 58.865C62.5852 61.2235 61.7075 65.8335 61.8709 66.3266C62.0342 66.8196 62.3164 67.1493 62.2555 67.5889C62.1946 68.0286 62.0357 69.1796 62.0357 69.1796C62.0357 69.1796 61.2679 69.2345 59.6773 68.9048C58.7726 68.7257 57.8898 68.4499 57.0441 68.082C57.0441 68.082 56.9341 66.9295 56.9341 66.7112C56.9341 66.4929 57.154 65.9419 57.2089 65.5038C57.2639 65.0656 57.0441 60.7854 56.6044 58.5368C56.1648 56.2883 55.3435 53.3788 55.3435 51.8431C55.3435 50.3075 55.2886 44.8762 55.2886 44.8762C56.3492 44.1451 57.4684 43.5028 58.6347 42.9559C60.61 42.0232 61.9808 42.5177 61.9808 42.5177L62.5852 43.8336Z" fill="#CDEDC2" stroke="#3C474C" stroke-width="0.153684" stroke-linecap="round" stroke-linejoin="round"/>
<path d="M60.7633 42.3945C60.0213 42.4397 59.2955 42.631 58.6276 42.9574C57.4613 43.5044 56.3421 44.1467 55.2815 44.8777C55.2815 44.8777 55.2815 45.5045 55.2963 46.3911C55.6454 46.4639 56.6092 46.6065 58.4479 46.4966C60.4766 46.3748 61.7465 45.9797 62.0895 45.8609L62.1965 45.4154L62.2351 43.5218C62.2351 43.5218 61.3232 42.7733 60.7633 42.3945Z" fill="#3C474C" stroke="#3C474C" stroke-width="0.153684" stroke-linecap="round" stroke-linejoin="round"/>
<path d="M50.7724 26.6544C50.7724 26.6544 49.4358 27.0629 49.1016 27.2856C48.7675 27.5084 48.2476 29.2535 48.0991 29.6619C47.9506 30.0703 47.1709 32.1867 47.1709 32.1867L48.4333 32.4466C48.4333 32.4466 48.3962 33.709 48.5818 34.2288C48.7675 34.7486 50.1041 36.3081 50.1041 36.3081L50.5868 37.6076L50.067 44.8107C50.067 44.8107 51.9606 45.8132 55.1537 46.1102C58.3468 46.4072 60.5375 46.1102 60.7974 45.9617C60.9513 45.8733 61.1129 45.7987 61.28 45.7389L61.5028 44.6993L61.837 45.6647C62.2541 45.6257 62.6653 45.5385 63.0623 45.4048C63.5078 45.2191 64.1761 44.8478 64.1761 44.8478C64.1761 44.8478 62.8024 39.6497 62.2083 38.2388C61.6142 36.8279 60.6117 34.6372 60.6117 34.6372C60.6117 34.6372 60.1662 29.5505 59.2751 27.8426C58.384 26.1346 56.7131 25.6891 55.525 25.5777C54.3369 25.4663 50.7724 26.6544 50.7724 26.6544Z" fill="#CDEDC2" stroke="#3C474C" stroke-width="0.153684" stroke-linecap="round" stroke-linejoin="round"/>
<path d="M50.4072 26.8359C50.1575 27.6842 50.0193 28.5614 49.9958 29.4454L50.4072 26.8359Z" fill="white"/>
<path d="M50.4072 26.8359C50.1575 27.6842 50.0193 28.5614 49.9958 29.4454" stroke="#3C474C" stroke-width="0.307368" stroke-linecap="round" stroke-linejoin="round"/>
<path d="M50.1756 35.0501C50.1595 35.0497 50.1435 35.0472 50.128 35.0426C50.0485 35.0134 49.9715 34.9776 49.8978 34.9357C49.831 34.9803 49.7761 35.0129 49.7493 35.0293C49.7158 35.0444 49.6779 35.0466 49.6429 35.0354C49.6079 35.0242 49.5782 35.0004 49.5598 34.9686C49.5413 34.9368 49.5353 34.8993 49.5428 34.8633C49.5504 34.8273 49.5711 34.7955 49.6008 34.7738L49.6424 34.7486C49.5042 34.6303 49.4014 34.4761 49.3454 34.303C49.1968 33.8293 49.1018 29.8341 49.3617 29.4183C49.4315 29.3056 49.5352 29.2179 49.658 29.1678C49.7807 29.1176 49.9161 29.1076 50.0449 29.1391C50.1934 29.1792 50.5632 29.347 50.5974 30.0391C50.6404 30.8931 50.6924 33.7936 50.6419 34.1441C50.6122 34.3476 50.3894 34.5689 50.1711 34.7382C50.1874 34.746 50.2043 34.7524 50.2216 34.7575C50.2402 34.7637 50.2573 34.7735 50.2721 34.7863C50.2868 34.7992 50.2989 34.8148 50.3076 34.8324C50.3163 34.8499 50.3214 34.869 50.3227 34.8885C50.324 34.908 50.3215 34.9276 50.3152 34.9461C50.3058 34.9759 50.2873 35.002 50.2622 35.0207C50.2371 35.0394 50.2068 35.0496 50.1756 35.0501ZM49.8964 29.4064C49.8398 29.4072 49.7843 29.4222 49.735 29.4499C49.6857 29.4777 49.6442 29.5174 49.6142 29.5653C49.427 29.8876 49.4954 33.7565 49.6305 34.208C49.6797 34.352 49.772 34.4775 49.8949 34.5674C50.1325 34.3921 50.333 34.202 50.3493 34.0921C50.3939 33.7817 50.3493 30.9599 50.3018 30.0435C50.284 29.6945 50.1652 29.4658 49.9721 29.4168C49.9475 29.4097 49.922 29.4062 49.8964 29.4064Z" fill="white" stroke="#3C474C" stroke-width="0.153684" stroke-linecap="round" stroke-linejoin="round"/>
<path d="M49.6376 34.7422L49.8975 34.9293C49.791 35.018 49.6699 35.0873 49.5396 35.1343C49.4014 35.1625 49.2915 35.0481 49.6376 34.7422Z" fill="#3C474C" stroke="#3C474C" stroke-width="0.153684" stroke-linecap="round" stroke-linejoin="round"/>
<path d="M50.1725 34.7383L49.8977 34.9328C49.8977 34.9328 50.1769 35.3041 50.4814 35.166C50.7858 35.0279 50.1725 34.7383 50.1725 34.7383Z" fill="#3C474C" stroke="#3C474C" stroke-width="0.153684" stroke-linecap="round" stroke-linejoin="round"/>
<path d="M54.1199 25.5547C54.1199 25.5547 53.5259 28.5325 53.5259 30.8672" stroke="#3C474C" stroke-width="0.307368" stroke-linecap="round" stroke-linejoin="round"/>
<path d="M54.2062 31.4163C54.2062 31.9985 53.8676 32.4707 53.4503 32.4707C53.033 32.4707 52.6943 31.9985 52.6943 31.4163C52.6943 30.8341 53.033 30.3633 53.4503 30.3633C53.8676 30.3633 54.2062 30.8356 54.2062 31.4163Z" fill="white" stroke="#3C474C" stroke-width="0.153684" stroke-linecap="round" stroke-linejoin="round"/>
<path d="M53.6567 31.2792C53.6567 31.649 53.4414 31.949 53.1755 31.949C52.9097 31.949 52.6943 31.652 52.6943 31.2792C52.6943 30.9064 52.9097 30.6094 53.1755 30.6094C53.4414 30.6094 53.6567 30.9094 53.6567 31.2792Z" fill="white" stroke="#3C474C" stroke-width="0.153684" stroke-linecap="round" stroke-linejoin="round"/>
<path d="M60.9948 29.4746L59.869 30.5885L59.2378 29.4375L60.9948 29.4746Z" fill="#3C474C" stroke="#3C474C" stroke-width="0.153684" stroke-linecap="round" stroke-linejoin="round"/>
<path d="M56.0939 30.4146L56.5394 34.3251C56.5394 34.3251 50.1042 35.5637 49.4106 35.5132C48.5831 35.4243 47.747 35.5614 46.9912 35.9098C46.0006 36.3553 45.5061 36.6033 45.5551 36.8499C45.6041 37.0964 46.0496 37.8895 46.0496 37.8895C46.0496 37.8895 46.8917 37.94 46.9407 37.7915C46.9734 37.6785 46.9904 37.5616 46.9912 37.444C46.9912 37.444 47.8823 37.4944 48.2774 37.2954C48.531 37.1646 48.7646 36.998 48.971 36.8009C48.971 36.8009 54.1691 37.1974 56.1488 37.2464C58.1286 37.2954 60.4068 37.1469 60.6548 36.8009C60.9029 36.4548 59.7637 29.375 59.7637 29.375L56.0939 30.4146Z" fill="white" stroke="#3C474C" stroke-width="0.153684" stroke-linecap="round" stroke-linejoin="round"/>
<path d="M56.5396 34.3279C56.5396 34.3279 58.5386 33.6121 59.6584 34.0458" stroke="#3C474C" stroke-width="0.153684" stroke-linecap="round" stroke-linejoin="round"/>
<path d="M49.4104 35.5147L49.5262 36.8321L50.1144 36.9242L49.9896 35.4375L49.4104 35.5147Z" fill="white" stroke="#3C474C" stroke-width="0.153684" stroke-linecap="round" stroke-linejoin="round"/>
<path d="M50.2066 35.4088C50.214 35.5454 50.0135 35.6687 49.761 35.6836C49.5085 35.6984 49.2902 35.6004 49.2813 35.4637C49.2724 35.3271 49.4744 35.2038 49.7268 35.189C49.9793 35.1741 50.1976 35.2722 50.2066 35.4088Z" fill="white" stroke="#3C474C" stroke-width="0.153684" stroke-linecap="round" stroke-linejoin="round"/>
<path d="M46.9852 37.4454L46.4595 37.2969" stroke="#3C474C" stroke-width="0.153684" stroke-linecap="round" stroke-linejoin="round"/>
<path d="M55.6975 28.1901L55.9455 31.0119L60.9951 29.4777C60.9951 29.4777 59.3184 26.5564 58.3708 25.8138C57.4233 25.0712 55.5 25.7143 55.252 25.9133" fill="#CDEDC2"/>
<path d="M55.6975 28.1901L55.9455 31.0119L60.9951 29.4777C60.9951 29.4777 59.3184 26.5564 58.3708 25.8138C57.4233 25.0712 55.5 25.7143 55.252 25.9133" stroke="#3C474C" stroke-width="0.153684" stroke-linecap="round" stroke-linejoin="round"/>
<path d="M46.0571 18.8198C46.0571 18.8198 44.2378 20.5277 44.9804 21.3446C45.723 22.1614 46.7626 22.6812 46.9111 23.6095C47.0596 24.5377 47.3567 25.0946 46.9482 25.9115C46.5398 26.7283 46.2428 26.914 46.2428 26.914C46.2428 26.914 47.9879 27.8051 49.1017 27.7308C50.2156 27.6566 51.8122 26.3942 51.8122 26.3942C51.8122 26.3942 54.4112 26.357 55.5622 25.3545C56.7132 24.3521 56.6761 22.6441 56.1934 21.456C55.7108 20.2678 54.0399 18.8614 53.229 17.9703C52.4181 17.0792 50.8156 16.4851 49.1448 16.6707C47.474 16.8564 46.0571 18.8198 46.0571 18.8198Z" fill="#3C474C" stroke="#3C474C" stroke-width="0.153684" stroke-linecap="round" stroke-linejoin="round"/>
<path d="M50.2587 26.7636C50.2587 26.7636 50.5928 27.6176 50.8156 28.3973C51.0384 29.177 51.6325 31.1449 51.6325 31.0335C51.6325 30.9221 52.8206 27.9518 53.1176 27.0978C53.2949 26.5943 53.4072 26.0703 53.4518 25.5384L52.4493 23.1992C52.1349 23.9027 51.6801 24.5344 51.1127 25.0557C50.2216 25.8354 49.9988 26.2067 49.9988 26.2067L50.2587 26.7636Z" fill="white" stroke="#3C474C" stroke-width="0.153684" stroke-linecap="round" stroke-linejoin="round"/>
<path d="M50.425 27.1013C50.425 27.1013 51.9592 26.6691 52.6305 26.0943C53.3018 25.5196 53.3494 25.374 53.3494 25.374L52.534 23.8398L50.425 27.1013Z" fill="#3C474C" stroke="#3C474C" stroke-width="0.153684" stroke-linecap="round" stroke-linejoin="round"/>
<path d="M46.2795 21.7915C46.2795 21.7915 46.9479 23.4623 47.0593 23.945C47.1706 24.4277 47.5791 25.3559 48.2103 25.9129C48.8415 26.4698 49.2499 27.2124 50.2524 27.0639C51.2549 26.9154 52.4801 25.1332 52.7029 24.5762C52.9257 24.0193 52.4059 22.497 52.4059 22.3113C52.4029 22.2548 52.3839 22.2003 52.351 22.1543C52.3181 22.1083 52.2727 22.0726 52.2202 22.0514C52.2202 22.0514 50.438 22.7569 49.2128 22.2371C48.3943 21.8709 47.6216 21.4098 46.9107 20.8633L46.2795 21.7915Z" fill="white" stroke="#3C474C" stroke-width="0.153684" stroke-linecap="round" stroke-linejoin="round"/>
<path d="M51.3665 22.6807C51.3665 22.6807 51.8491 21.4183 52.5546 21.5668C53.2601 21.7154 53.1858 22.9406 52.8145 23.3862C52.4432 23.8317 52.1462 23.6089 52.1462 23.6089" fill="white"/>
<path d="M51.3665 22.6807C51.3665 22.6807 51.8491 21.4183 52.5546 21.5668C53.2601 21.7154 53.1858 22.9406 52.8145 23.3862C52.4432 23.8317 52.1462 23.6089 52.1462 23.6089" stroke="#3C474C" stroke-width="0.153684" stroke-linecap="round" stroke-linejoin="round"/>
<path d="M48.3279 23.0195C48.3754 23.2517 48.4002 23.488 48.4021 23.725C48.4021 24.0963 48.2165 24.6904 48.5507 24.8389C48.8848 24.9874 49.3675 24.8389 49.4789 24.6532" stroke="#3C474C" stroke-width="0.153684" stroke-linecap="round" stroke-linejoin="round"/>
<path d="M48.9531 25.397C48.9531 25.397 49.9556 25.6198 50.5126 24.4688" stroke="#3C474C" stroke-width="0.153684" stroke-linecap="round" stroke-linejoin="round"/>
<path d="M49.3989 23.2756C49.5845 23.3458 49.7883 23.3509 49.9772 23.2902C50.166 23.2295 50.3287 23.1066 50.4385 22.9414" stroke="#3C474C" stroke-width="0.153684" stroke-linecap="round" stroke-linejoin="round"/>
<path d="M47.3938 23.5333C47.3938 23.5333 47.8765 23.756 48.1735 23.4219" stroke="#3C474C" stroke-width="0.153684" stroke-linecap="round" stroke-linejoin="round"/>
<path d="M48.136 22.828C48.136 22.828 47.6533 22.4938 47.2449 22.9022" stroke="#3C474C" stroke-width="0.153684" stroke-linecap="round" stroke-linejoin="round"/>
<path d="M48.8044 22.4592C48.8044 22.4592 49.0272 22.0879 49.7327 22.1622" stroke="#3C474C" stroke-width="0.153684" stroke-linecap="round" stroke-linejoin="round"/>
<path d="M41.7544 32.1641C41.7544 32.1641 43.091 32.4611 43.5366 34.1943C43.9821 35.9275 46.1564 42.9197 46.1564 42.9197C46.1564 42.9197 48.457 44.2341 49.1506 44.3336C49.8441 44.4331 50.4367 44.4821 50.4872 45.2247C50.5377 45.9673 50.3387 47.1554 49.9422 47.3529C49.5456 47.5505 48.0604 47.552 46.9718 47.5015C45.8832 47.451 45.1896 47.2044 44.5955 46.8094C44.0015 46.4143 43.3584 42.5024 42.6648 40.6206C41.9712 38.7389 40.5663 34.8418 40.7148 33.8527C40.8633 32.8636 41.2598 32.1641 41.7544 32.1641Z" fill="#CDEDC2" stroke="#3C474C" stroke-width="0.153684" stroke-linecap="round" stroke-linejoin="round"/>
<path d="M46.9912 48.4152L46.0362 48.3439C45.6523 48.3148 45.2666 48.3659 44.9036 48.494C44.5406 48.6222 44.2082 48.8245 43.9277 49.0881C43.6471 49.3518 43.4246 49.6709 43.2742 50.0253C43.1237 50.3797 43.0487 50.7615 43.054 51.1464L43.2322 70.4344C43.2334 70.5817 43.2927 70.7226 43.3973 70.8263C43.5019 70.9301 43.6433 70.9883 43.7906 70.9883H52.5264L54.769 48.3409L46.9912 48.4152Z" fill="#333333" stroke="#3C474C" stroke-width="0.153684" stroke-linecap="round" stroke-linejoin="round"/>
<path d="M52.5235 70.9922C52.3762 70.9922 52.2348 70.934 52.1302 70.8303C52.0256 70.7265 51.9663 70.5856 51.9651 70.4383L51.7869 51.1503C51.7817 50.7654 51.8566 50.3836 52.0071 50.0292C52.1575 49.6748 52.3801 49.3557 52.6606 49.0921C52.9411 48.8284 53.2735 48.6261 53.6365 48.498C53.9995 48.3698 54.3852 48.3187 54.7691 48.3478L55.7241 48.4191C56.1007 48.4475 56.4675 48.5525 56.8021 48.7277C57.1367 48.9028 57.432 49.1443 57.67 49.4375C57.908 49.7307 58.0837 50.0694 58.1863 50.4329C58.2889 50.7963 58.3163 51.1769 58.2667 51.5513L55.7538 70.5021C55.7364 70.6364 55.6708 70.7598 55.5691 70.8491C55.4674 70.9385 55.3367 70.9878 55.2013 70.9878L52.5235 70.9922Z" fill="#F9B7DA" stroke="#3C474C" stroke-width="0.153684" stroke-linecap="round" stroke-linejoin="round"/>
<path d="M32.3059 52.7227H49.0884C49.561 52.7227 50.0144 52.9104 50.3486 53.2447C50.6828 53.5789 50.8706 54.0322 50.8706 54.5049V70.9903H32.3059V52.7227Z" fill="#F9B7DA" stroke="#3C474C" stroke-width="0.153684" stroke-linecap="round" stroke-linejoin="round"/>
<path d="M50.9447 59.0312H33.4197" stroke="#3C474C" stroke-width="0.153684" stroke-linecap="round" stroke-linejoin="round"/>
<path d="M43.7667 45.6123L44.5583 46.4544C46.2603 46.5355 47.9364 46.9036 49.5158 47.543C51.9901 48.5827 55.1594 49.8213 55.357 51.256C55.5545 52.6907 52.9317 60.7611 52.4861 62.7423C52.0406 64.7235 51.9901 65.4156 51.9901 65.4156C51.9901 65.4156 52.4356 65.8107 52.3376 66.1582C52.2396 66.5057 51.693 68.187 51.693 68.187C50.9118 68.3676 50.117 68.4838 49.3168 68.5345C48.5037 68.5488 47.6913 68.4821 46.8915 68.3355C46.8915 68.3355 46.743 66.6528 46.8915 66.2562C47.04 65.8597 47.5851 65.4156 47.6341 65.1186C47.6831 64.8216 47.8821 60.118 47.8821 58.2868C47.8821 56.4556 48.9217 53.5342 48.9217 53.5342C48.9217 53.5342 44.0206 53.3352 42.5845 53.1867C41.1483 53.0382 37.6834 49.7218 37.5839 48.0881C37.4844 46.4544 41.3904 44.6722 43.7667 45.6123Z" fill="#3C474C" stroke="#3C474C" stroke-width="0.153684" stroke-linecap="round" stroke-linejoin="round"/>
<path d="M51.7438 67.5941C51.7438 67.5941 51.2982 66.7535 50.7532 67.1486C50.2081 67.5436 50.1101 68.0902 49.813 68.0902C49.516 68.0902 46.8917 67.5941 46.8917 67.5941C46.8917 67.5941 46.1981 70.3179 46.4462 70.615C46.6942 70.912 48.971 71.1585 49.9616 71.3071C50.9522 71.4556 53.1294 72.0006 54.5656 72.0006C56.0018 72.0006 55.7537 70.961 55.4062 70.615C55.0587 70.2689 52.5844 68.9308 52.2383 68.4852C52.0291 68.2151 51.8623 67.9146 51.7438 67.5941Z" fill="white" stroke="#3C474C" stroke-width="0.153684" stroke-linecap="round" stroke-linejoin="round"/>
<path d="M55.6618 71.3665C55.0714 71.4913 54.4697 71.5545 53.8662 71.5551C52.5786 71.5551 51.539 71.0606 49.9053 70.7635C48.6206 70.5289 47.0285 70.1427 46.4092 69.9883C46.375 70.2987 46.3765 70.5378 46.4404 70.615C46.6884 70.9121 48.9651 71.1586 49.9558 71.3071C50.9464 71.4556 53.1236 72.0007 54.5598 72.0007C55.3321 72.0007 55.6172 71.6992 55.6618 71.3665Z" fill="white" stroke="#3C474C" stroke-width="0.153684" stroke-linecap="round" stroke-linejoin="round"/>
<path d="M33.5683 31.7508C33.5683 31.7508 30.598 32.89 29.5093 33.6326C28.4207 34.3751 29.1128 37.197 29.1128 38.7802C29.1128 40.3634 28.8157 44.6228 28.7667 45.4635C28.7177 46.3041 29.8064 47.4447 30.5489 47.8902C31.2915 48.3358 37.6288 48.5823 39.3115 48.5823C40.9942 48.5823 44.6091 47.4937 44.3121 44.2753C44.015 41.0569 42.9754 38.5826 42.8269 38.0376C42.6784 37.4925 42.6279 35.7118 42.6784 35.2158C42.7289 34.7197 43.1239 33.236 42.3813 32.5424C41.6387 31.8489 38.5199 31.0573 37.0837 31.1078C35.6475 31.1583 33.5683 31.7508 33.5683 31.7508Z" fill="#CDEDC2" stroke="#3C474C" stroke-width="0.153684" stroke-linecap="round" stroke-linejoin="round"/>
<path d="M33.9572 35.0156C34.0295 35.2184 34.1343 35.408 34.2676 35.577C34.6848 36.0969 35.131 36.5928 35.6043 37.0622C36.684 38.1434 38.3831 38.8637 38.3831 38.8637C38.3831 38.8637 38.9489 35.88 39.0514 34.5418C39.1539 33.2037 38.4336 32.124 37.2499 31.72C36.0662 31.316 33.9067 31.7705 33.5978 32.5948C33.3721 33.2081 33.7553 34.4468 33.9572 35.0156Z" fill="white" stroke="#3C474C" stroke-width="0.153684" stroke-linecap="round" stroke-linejoin="round"/>
<path d="M34.119 30.835C34.0157 30.8397 33.9146 30.866 33.822 30.9122C33.5995 31.0249 33.4276 31.2174 33.3408 31.4513C33.0824 32.0691 32.8774 32.739 32.8774 32.739C33.0258 33.508 33.2323 34.2646 33.4953 35.0024C33.7539 35.7031 33.9464 36.4266 34.07 37.1633C34.07 37.1633 35.922 35.7732 36.2815 35.4657C36.6204 35.2096 36.9824 34.9853 37.3627 34.7959C37.3627 34.7959 38.5968 35.4138 39.1627 35.7732C39.7285 36.1326 40.1919 36.443 40.1919 36.443C40.1275 35.4243 39.9195 34.4198 39.5741 33.4593C39.0082 31.9147 38.7513 31.4513 38.4424 31.1439C38.1335 30.8364 35.7661 29.9602 34.119 30.835Z" fill="white" stroke="#3C474C" stroke-width="0.153684" stroke-linecap="round" stroke-linejoin="round"/>
<path d="M38.3772 23.4669C38.3772 23.4669 38.7425 22.9991 38.9534 23.3689C39.0703 23.5782 39.2119 23.7726 39.3752 23.9481C39.3752 23.9481 39.7955 24.159 39.849 24.5273C39.8852 24.7537 39.9026 24.9827 39.901 25.212C39.901 25.3694 40.3747 25.4748 40.3747 25.7392C40.3747 26.0036 40.1119 26.1075 40.0599 26.3704C40.0079 26.6333 40.2336 26.8664 40.0064 27.2125C39.7792 27.5585 40.0272 27.4323 39.7792 27.56C39.5312 27.6877 39.2698 27.8452 39.2698 27.8452L38.0579 23.8352L38.3772 23.4669Z" fill="#C7C7C7" stroke="#7D7D7D" stroke-width="0.153684" stroke-linecap="round" stroke-linejoin="round"/>
<path d="M34.3969 21.6493C34.3969 21.6493 32.9949 22.0592 32.4097 23.228C31.8246 24.3968 31.7666 25.2746 32.0592 26.2682C32.3518 27.2617 33.4612 30.0672 33.8132 30.8856C34.1652 31.7039 34.281 33.2247 34.982 34.1529C35.683 35.0812 37.3791 35.9069 37.3791 35.9069C37.3791 35.9069 38.6638 34.1529 38.8984 33.2767C39.1331 32.4004 38.6638 30.6464 38.6638 30.6464C38.6638 30.6464 39.9499 29.0677 39.7747 27.5484C39.5994 26.029 38.6638 24.0463 38.3771 23.4641C38.0905 22.882 37.0271 21.0656 34.3969 21.6493Z" fill="white" stroke="#3C474C" stroke-width="0.153684" stroke-linecap="round" stroke-linejoin="round"/>
<path d="M35.4067 23.9938C35.4067 23.9938 36.436 23.48 37.1043 23.6344" stroke="#3C474C" stroke-width="0.153684" stroke-linecap="round" stroke-linejoin="round"/>
<path d="M34.9941 23.7876C34.9941 23.7876 35.9209 23.3242 36.5892 23.3242" stroke="#3C474C" stroke-width="0.153684" stroke-linecap="round" stroke-linejoin="round"/>
<path d="M38.6638 30.6551C38.6638 30.6551 37.8752 31.1467 37.1549 31.1467C36.4346 31.1467 35.0965 30.5808 34.6851 30.168C34.6851 30.168 35.9044 31.564 37.1995 31.913C38.4945 32.2621 38.8435 31.714 38.8435 31.714L38.6638 30.6551Z" fill="#3C474C" stroke="#3C474C" stroke-width="0.153684" stroke-linecap="round" stroke-linejoin="round"/>
<path d="M32.3655 27.6236C32.4052 27.6002 32.4434 27.5744 32.4799 27.5463C32.6596 27.4142 32.9834 27.126 32.9447 26.7815C32.8928 26.3077 32.9447 26.0389 32.6819 25.675C32.419 25.3112 31.9972 24.5166 31.9972 24.5166C31.6854 24.4913 31.3735 24.5651 31.1061 24.7275C30.7378 24.9904 30.8417 25.2013 30.7378 25.5696C30.6338 25.9379 30.368 25.675 30.2105 26.2023C30.0531 26.7295 30.2625 27.0444 30.4734 27.1498C30.6843 27.2552 30.5269 27.5716 30.5269 28.0409C30.5349 28.211 30.6026 28.3728 30.718 28.498C30.8334 28.6232 30.9892 28.7038 31.1581 28.7256C31.317 28.7256 31.369 28.9365 31.5799 29.1474C31.7908 29.3583 32.471 29.1221 32.471 29.1221C32.471 29.1221 32.7903 28.9365 32.8423 28.7256C32.8943 28.5147 32.3655 27.6236 32.3655 27.6236Z" fill="#C7C7C7" stroke="#7D7D7D" stroke-width="0.153684" stroke-linecap="round" stroke-linejoin="round"/>
<path d="M32.8198 27.5546C32.8198 27.5546 32.1173 26.6189 31.6495 27.1447C31.1817 27.6705 32 28.9566 32.4678 29.1319C32.9357 29.3071 33.5208 28.8348 33.5208 28.8348" fill="white"/>
<path d="M32.8198 27.5546C32.8198 27.5546 32.1173 26.6189 31.6495 27.1447C31.1817 27.6705 32 28.9566 32.4678 29.1319C32.9357 29.3071 33.5208 28.8348 33.5208 28.8348" stroke="#3C474C" stroke-width="0.153684" stroke-linecap="round" stroke-linejoin="round"/>
<path d="M37.0867 24.75C37.0867 24.75 37.0273 25.2772 37.1446 25.4525C37.2619 25.6277 37.9629 25.9203 37.8456 26.4461C37.7283 26.9718 37.0273 27.4397 36.6768 26.9718" stroke="#3C474C" stroke-width="0.153684" stroke-linecap="round" stroke-linejoin="round"/>
<path d="M36.2087 27.9048C36.5492 27.9969 36.9095 27.9849 37.243 27.8703C37.5766 27.7556 37.8682 27.5437 38.0801 27.2617" stroke="#3C474C" stroke-width="0.153684" stroke-linecap="round" stroke-linejoin="round"/>
<path d="M34.4562 25.4864C34.4396 25.4861 34.4231 25.4836 34.4072 25.4789C34.3874 25.4733 34.3689 25.4636 34.353 25.4504C34.3372 25.4373 34.3242 25.4209 34.315 25.4025C34.3058 25.3841 34.3005 25.3639 34.2995 25.3433C34.2985 25.3227 34.3018 25.3021 34.3092 25.2829C34.5706 24.4987 35.5641 24.365 35.6057 24.3606C35.6463 24.3555 35.6872 24.3667 35.7195 24.3917C35.7519 24.4168 35.7729 24.4537 35.778 24.4943C35.7831 24.5348 35.7719 24.5758 35.7469 24.6081C35.7218 24.6404 35.6849 24.6614 35.6443 24.6665C35.6354 24.6665 34.8022 24.7809 34.6047 25.3809C34.5952 25.4125 34.5754 25.44 34.5485 25.4591C34.5216 25.4782 34.4892 25.4878 34.4562 25.4864Z" fill="#C7C7C7" stroke="#7D7D7D" stroke-width="0.153684" stroke-linecap="round" stroke-linejoin="round"/>
<path d="M38.2555 24.5135C38.2353 24.5138 38.2153 24.5101 38.1967 24.5024C38.1781 24.4947 38.1612 24.4834 38.1471 24.469C38.0335 24.3584 37.8891 24.285 37.7328 24.2585C37.5766 24.2319 37.416 24.2536 37.2723 24.3204C37.2357 24.3388 37.1933 24.3418 37.1544 24.3288C37.1156 24.3159 37.0834 24.288 37.0651 24.2514C37.0468 24.2148 37.0438 24.1723 37.0568 24.1335C37.0697 24.0946 37.0976 24.0625 37.1342 24.0442C37.3353 23.9477 37.5614 23.9156 37.7815 23.9523C38.0015 23.9889 38.2049 24.0926 38.3639 24.2492C38.379 24.2631 38.391 24.2799 38.3993 24.2987C38.4075 24.3175 38.4117 24.3378 38.4117 24.3583C38.4117 24.3788 38.4075 24.3991 38.3993 24.4179C38.391 24.4367 38.379 24.4536 38.3639 24.4675C38.3499 24.4821 38.3331 24.4938 38.3145 24.5017C38.2958 24.5096 38.2758 24.5136 38.2555 24.5135Z" fill="#C7C7C7" stroke="#7D7D7D" stroke-width="0.153684" stroke-linecap="round" stroke-linejoin="round"/>
<path d="M36.0931 26.1523C36.0585 26.368 35.9778 26.5737 35.8566 26.7554C35.7354 26.9371 35.5765 27.0906 35.3906 27.2053" stroke="#3C474C" stroke-width="0.153684" stroke-linecap="round" stroke-linejoin="round"/>
<path d="M37.905 25.8594C38.2173 26.0788 38.5781 26.2195 38.9565 26.2693" stroke="#3C474C" stroke-width="0.153684" stroke-linecap="round" stroke-linejoin="round"/>
<path d="M35.704 25.9634C35.756 26.149 35.7129 26.3228 35.6074 26.3525C35.502 26.3822 35.3772 26.2545 35.3253 26.0688C35.2733 25.8832 35.3164 25.7079 35.4218 25.6797C35.5272 25.6515 35.6535 25.7777 35.704 25.9634Z" fill="#3C474C"/>
<path d="M38.0342 25.3012C38.0847 25.4868 38.0416 25.6606 37.9376 25.6903C37.8337 25.72 37.706 25.5923 37.6555 25.4051C37.605 25.218 37.6465 25.0457 37.7505 25.016C37.8545 24.9863 37.9822 25.114 38.0342 25.3012Z" fill="#3C474C"/>
<path d="M35.7292 25.5234L34.9807 26.0225" stroke="#3C474C" stroke-width="0.153684" stroke-linecap="round" stroke-linejoin="round"/>
<path d="M37.5098 25.0942L38.3296 25.0586" stroke="#3C474C" stroke-width="0.153684" stroke-linecap="round" stroke-linejoin="round"/>
<path d="M53.3241 46.1021C53.3241 46.1021 54.4231 46.5952 54.6251 46.7378C54.8271 46.8804 55.3826 47.7477 55.4286 48.018C55.4746 48.2883 55.4197 48.3997 55.2504 48.3017C55.0811 48.2036 54.6014 47.6289 54.2301 47.2368C53.8588 46.8447 53.385 46.5982 53.2692 46.365C53.1533 46.1318 53.14 46.0576 53.3241 46.1021Z" fill="white" stroke="#3C474C" stroke-width="0.153684" stroke-linecap="round" stroke-linejoin="round"/>
<path d="M50.0313 44.9258C50.0313 44.9258 51.8417 45.5199 52.4774 45.7085C52.953 45.8559 53.3905 46.1058 53.7591 46.4407C53.9403 46.6115 54.9398 47.7447 55.0482 48.0744C55.1566 48.4041 55.3066 49.2863 55.121 49.368C54.9353 49.4497 54.7452 49.2328 54.662 49.0457C54.567 48.87 54.4546 48.7043 54.3264 48.5511C54.3264 48.5511 54.5507 49.2655 54.512 49.6249C54.4734 49.9843 54.3635 50.2027 54.0665 50.2532C53.7695 50.3037 53.4368 49.8076 53.2066 49.3472C53.0666 49.0684 52.8864 48.8118 52.6719 48.5853L51.962 48.2556C52.084 48.613 52.2444 48.956 52.4402 49.2789C52.712 49.6843 53.0343 49.7794 52.917 50.0007C52.7996 50.222 52.259 50.265 52.0051 49.9576C51.7511 49.6502 51.3427 49.3175 51.114 48.9046C50.8853 48.4917 50.355 47.3764 50.355 47.3764L48.9055 47.1239C48.9055 47.1239 48.0575 46.8684 48.0025 45.9744C47.9476 45.0803 49.6392 44.6927 50.0313 44.9258Z" fill="white" stroke="#3C474C" stroke-width="0.153684" stroke-linecap="round" stroke-linejoin="round"/>
<path d="M52.9944 47.8281C52.9944 47.8281 53.6434 48.6702 53.8573 49.0356C54.0711 49.4009 54.0682 50.2549 54.0682 50.2549" stroke="#3C474C" stroke-width="0.153684" stroke-linecap="round" stroke-linejoin="round"/>
<path d="M54.3265 48.553L53.7488 47.2461" stroke="#3C474C" stroke-width="0.153684" stroke-linecap="round" stroke-linejoin="round"/>
<path d="M35.4069 47.992C35.4069 47.992 38.7233 47.5969 40.406 48.191C42.0887 48.7851 43.7239 50.8643 43.7239 52.596C43.7239 54.3278 43.3764 63.8344 43.4759 64.0824C43.5754 64.3304 44.119 64.3794 44.119 64.874C44.119 65.3685 43.7239 67.9438 43.7239 67.9438C43.7239 67.9438 41.3967 68.7844 40.6051 68.7844H39.812C39.812 68.7844 38.6743 65.7651 38.7233 65.2705C38.7724 64.776 39.0694 64.3794 39.0694 64.1314C39.0694 63.8834 37.6347 58.6853 37.6347 57.1511V53.7352L34.8619 53.1411C34.8619 53.1411 33.6247 49.6257 35.4069 47.992Z" fill="#3C474C" stroke="#3C474C" stroke-width="0.153684" stroke-linecap="round" stroke-linejoin="round"/>
<path d="M45.7466 70.1705C45.7466 70.1705 44.2614 68.4373 43.6674 67.4972C43.0733 66.5571 41.9847 66.012 41.3416 66.5066C40.6985 67.0011 40.697 68.2398 40.697 68.2398L39.6084 68.0408C39.6084 68.0408 40.0049 69.3774 40.2025 70.12C40.4 70.8626 40.697 71.3586 41.9847 71.5562C43.2723 71.7537 45.4006 71.9022 45.9946 71.3081C46.5887 70.7141 45.7466 70.1705 45.7466 70.1705Z" fill="white" stroke="#3C474C" stroke-width="0.153684" stroke-linecap="round" stroke-linejoin="round"/>
<path d="M45.9947 71.3065C46.0902 71.2288 46.1578 71.1222 46.1876 71.0028C46.2173 70.8833 46.2075 70.7575 46.1596 70.6441C45.8828 70.8012 45.596 70.9401 45.3012 71.0599C44.2125 71.5055 42.7273 71.406 41.4902 71.0094C41.0328 70.8782 40.6123 70.6423 40.262 70.3203C40.4654 70.9515 40.8189 71.3748 41.9848 71.5545C43.2784 71.752 45.4007 71.9005 45.9947 71.3065Z" fill="white" stroke="#3C474C" stroke-width="0.153684" stroke-linecap="round" stroke-linejoin="round"/>
<path d="M47.6922 45.2148C47.6922 45.2148 47.5941 46.3896 47.5615 46.7475C47.5288 47.1055 47.7248 47.5317 47.8585 47.5956C47.9922 47.6594 48.0546 47.5317 48.0546 47.2376V46.7475C48.0501 46.6495 47.6922 45.2148 47.6922 45.2148Z" fill="white" stroke="#3C474C" stroke-width="0.153684" stroke-linecap="round" stroke-linejoin="round"/>
<path d="M49.6436 42.8041C49.6436 42.2932 50.3238 41.2165 50.3238 41.2165L50.5867 37.6075L50.4084 36.908L49.6154 36.8516C49.302 37.9031 48.2015 41.6041 48.0559 42.1804C47.8868 42.9635 47.7731 43.7575 47.7158 44.5566C47.7158 44.8388 47.7158 46.1428 47.8302 46.6537C47.9445 47.1646 48.7361 47.6725 48.7361 47.6725C48.7361 47.6725 49.8055 47.6725 49.9748 47.5597C50.1441 47.4468 49.7149 47.0696 49.7149 47.0696C49.651 47.0696 49.4624 45.6705 49.8634 45.2369C50.1871 44.8908 51.1109 45.2933 51.1109 45.2933C51.1109 45.2933 50.8837 44.6695 50.6 44.1052C50.3164 43.5408 49.6436 43.3136 49.6436 42.8041Z" fill="white" stroke="#3C474C" stroke-width="0.153684" stroke-linecap="round" stroke-linejoin="round"/>
<path d="M49.8131 47.6606C49.8131 47.6606 48.965 47.2046 48.867 47.0086C48.769 46.8125 48.7378 45.3125 48.7378 45.3125" stroke="#3C474C" stroke-width="0.153684" stroke-linecap="round" stroke-linejoin="round"/>
<path d="M48.931 47.6606C48.931 47.6606 48.2464 46.9432 48.2464 46.6818C48.2464 46.4204 48.083 45.3125 48.083 45.3125" stroke="#3C474C" stroke-width="0.153684" stroke-linecap="round" stroke-linejoin="round"/>
<path d="M32.7098 48.4156L27.0498 48.3488C26.904 48.3369 26.7575 48.3369 26.6117 48.3488L25.6552 48.4201C25.2787 48.4485 24.9119 48.5535 24.5774 48.7286C24.2428 48.9038 23.9476 49.1454 23.7097 49.4386C23.4718 49.7318 23.2963 50.0706 23.1938 50.434C23.0914 50.7975 23.0643 51.178 23.1141 51.5523L25.6389 70.5076C25.6565 70.642 25.7225 70.7653 25.8244 70.8547C25.9263 70.9441 26.0573 70.9933 26.1928 70.9932H33.2474L32.7098 48.4156Z" fill="#F7A1CF" stroke="#3C474C" stroke-width="0.153684" stroke-linecap="round" stroke-linejoin="round"/>
<path d="M35.9117 70.9921C36.0589 70.9917 36.2 70.9334 36.3046 70.8297C36.4091 70.726 36.4685 70.5853 36.4701 70.4381L36.6483 51.1502C36.6533 50.7653 36.5782 50.3836 36.4277 50.0294C36.2772 49.6751 36.0546 49.356 35.7741 49.0925C35.4936 48.8289 35.1614 48.6265 34.7985 48.4983C34.4355 48.3701 34.0499 48.3188 33.6661 48.3477L32.7096 48.419C32.3331 48.4474 31.9664 48.5524 31.6318 48.7275C31.2973 48.9027 31.002 49.1443 30.7641 49.4375C30.5262 49.7307 30.3507 50.0695 30.2483 50.4329C30.1459 50.7963 30.1187 51.1769 30.1685 51.5512L32.6933 70.5065C32.711 70.6409 32.7769 70.7642 32.8788 70.8536C32.9808 70.943 33.1117 70.9922 33.2473 70.9921H35.9117Z" fill="#F7A1CF" stroke="#3C474C" stroke-width="0.153684" stroke-linecap="round" stroke-linejoin="round"/>
<path d="M30.895 33.0898C30.895 33.0898 28.8157 33.1389 28.0241 34.327C27.2325 35.5151 26.588 39.5756 26.4395 40.6152C26.2909 41.6548 25.6479 45.3173 25.8959 46.0109C26.1439 46.7044 26.787 46.8025 27.9751 46.853C29.1633 46.9034 29.7068 46.2589 29.9549 45.5163C30.2029 44.7737 30.846 37.8424 30.846 37.8424" fill="#CDEDC2"/>
<path d="M30.895 33.0898C30.895 33.0898 28.8157 33.1389 28.0241 34.327C27.2325 35.5151 26.588 39.5756 26.4395 40.6152C26.2909 41.6548 25.6479 45.3173 25.8959 46.0109C26.1439 46.7044 26.787 46.8025 27.9751 46.853C29.1633 46.9034 29.7068 46.2589 29.9549 45.5163C30.2029 44.7737 30.846 37.8424 30.846 37.8424" stroke="#3C474C" stroke-width="0.153684" stroke-linecap="round" stroke-linejoin="round"/>
<path d="M28.073 43.5352C28.37 43.6347 31.0433 44.2777 31.2423 44.8228C31.3053 44.9618 31.3248 45.1166 31.2983 45.2668C31.2718 45.4171 31.2005 45.5558 31.0938 45.6649C31.0938 45.6649 30.2027 47.7931 29.4096 47.9907C28.6165 48.1882 26.8358 47.6446 25.9447 47.2481C25.0536 46.8515 25.9447 43.8322 26.0442 43.6837" fill="#CDEDC2"/>
<path d="M28.073 43.5352C28.37 43.6347 31.0433 44.2777 31.2423 44.8228C31.3053 44.9618 31.3248 45.1166 31.2983 45.2668C31.2718 45.4171 31.2005 45.5558 31.0938 45.6649C31.0938 45.6649 30.2027 47.7932 29.4096 47.9907C28.6165 48.1882 26.8358 47.6446 25.9447 47.2481C25.0536 46.8515 25.9447 43.8322 26.0442 43.6837" stroke="#3C474C" stroke-width="0.153684" stroke-linecap="round" stroke-linejoin="round"/>
<path d="M31.6939 46.2584C31.6939 46.2584 31.8914 45.9613 31.6434 45.8128C31.3953 45.6643 31.0003 45.2188 30.5547 45.2188C30.1092 45.2188 29.3176 45.6138 29.1186 46.4559C28.9196 47.298 29.0696 47.8921 29.4156 47.9901C29.7617 48.0881 30.5057 48.2871 30.8518 48.2871C31.1978 48.2871 31.4458 47.5445 31.4949 47.396C31.5439 47.2475 31.6939 46.2584 31.6939 46.2584Z" fill="#CDEDC2" stroke="#3C474C" stroke-width="0.153684" stroke-linecap="round" stroke-linejoin="round"/>
<path d="M34.905 46.5547C34.905 46.5547 35.7471 47.5943 36.1437 47.7918C36.5402 47.9894 36.8863 48.2374 36.5892 48.5344C36.2922 48.8315 35.5986 48.6829 35.3016 48.2864C35.0045 47.8899 34.905 46.5547 34.905 46.5547Z" fill="white" stroke="#3C474C" stroke-width="0.153684" stroke-linecap="round" stroke-linejoin="round"/>
<path d="M32.034 46.2577C32.034 46.2577 34.3612 45.9102 34.7073 45.9102C35.0533 45.9102 35.5984 48.3859 35.6474 48.7825C35.6964 49.179 35.8954 49.4256 35.6474 49.6231C35.5395 49.7287 35.4015 49.7983 35.2523 49.8221C35.1161 49.9384 34.9665 50.0381 34.8068 50.1191C34.6583 50.1681 34.1132 50.0686 34.1132 50.0686C34.1132 50.0686 34.0642 50.2677 33.6677 50.2172C33.2711 50.1667 31.9345 48.4854 31.9345 48.4854C31.9345 48.4854 30.9453 48.2374 30.5488 47.8914C30.1523 47.5453 30.3008 46.9498 30.5488 46.5547C30.7968 46.1597 31.3404 46.0587 31.3404 46.0587L32.034 46.2577Z" fill="white" stroke="#3C474C" stroke-width="0.153684" stroke-linecap="round" stroke-linejoin="round"/>
<path d="M34.2129 47.0508L35.45 49.7241" stroke="#3C474C" stroke-width="0.153684" stroke-linecap="round" stroke-linejoin="round"/>
<path d="M33.2712 47.4961L34.8069 50.1204" stroke="#3C474C" stroke-width="0.153684" stroke-linecap="round" stroke-linejoin="round"/>
<path d="M34.1134 50.0675L32.6772 47.9883" stroke="#3C474C" stroke-width="0.153684" stroke-linecap="round" stroke-linejoin="round"/>
</svg>
